<svg id="Analysis-report" xmlns="http://www.w3.org/2000/svg" width="49.993" height="50" viewBox="0 0 49.993 50">
  <path id="Path_11606" data-name="Path 11606" d="M51.76,11.408,42.593,2.242A.861.861,0,0,0,42,2H21.168a2.508,2.508,0,0,0-2.5,2.5V9.542a17.477,17.477,0,0,0,0,34.917V49.5a2.507,2.507,0,0,0,2.5,2.5H49.5A2.508,2.508,0,0,0,52,49.5V12A.861.861,0,0,0,51.76,11.408ZM42.835,4.842l6.325,6.325H43.668a.833.833,0,0,1-.833-.833ZM3.668,27a15.852,15.852,0,0,1,15-15.808V26.658L7.751,37.575A15.733,15.733,0,0,1,3.668,27ZM8.926,38.75,19.843,27.833H35.31A15.8,15.8,0,0,1,8.926,38.75ZM50.335,49.5a.833.833,0,0,1-.833.833H21.168a.833.833,0,0,1-.833-.833V44.458A17.512,17.512,0,0,0,37,27a.833.833,0,0,0-.833-.833H20.335V4.5a.833.833,0,0,1,.833-.833h20v6.667a2.507,2.507,0,0,0,2.5,2.5h6.667Z" transform="translate(-2.009 -2)"/>
  <path id="Path_11607" data-name="Path 11607" d="M26.861,7A.861.861,0,0,0,26,7.861V25.08a.861.861,0,0,0,.861.861H44.08a.861.861,0,0,0,.861-.861A18.1,18.1,0,0,0,26.861,7Zm.861,17.219V8.748A16.372,16.372,0,0,1,43.193,24.219Z" transform="translate(-6.391 -2.695)" fill="#f80"/>
  <path id="Path_11608" data-name="Path 11608" d="M47.748,40A7.748,7.748,0,1,0,55.5,47.748,7.748,7.748,0,0,0,47.748,40Zm0,13.775a6.027,6.027,0,1,1,6.027-6.027A6.027,6.027,0,0,1,47.748,53.775Z" transform="translate(-8.948 -8.941)"/>
  <path id="Path_11609" data-name="Path 11609" d="M46.484,49.85,44.51,47.876l-1.217,1.217,2.583,2.583a.861.861,0,0,0,1.217,0l5.166-5.166-1.217-1.217Z" transform="translate(-9.406 -9.392)" fill="#f80"/>
  <path id="Path_11610" data-name="Path 11610" d="M50,19h6.887v1.722H50Z" transform="translate(-10.339 -4.85)"/>
  <path id="Path_11611" data-name="Path 11611" d="M50,25h6.887v1.722H50Z" transform="translate(-10.339 -5.855)"/>
  <path id="Path_11612" data-name="Path 11612" d="M50,31h6.887v1.722H50Z" transform="translate(-10.339 -6.861)"/>
</svg>
