<svg xmlns="http://www.w3.org/2000/svg" width="243.6" height="243.6" viewBox="0 0 243.6 243.6">
  <g id="cloud-network" transform="translate(-1 -1)" opacity="0.15">
    <path id="Path_12787" data-name="Path 12787" d="M72.148,26.858V19A47.2,47.2,0,0,0,25,66.148h7.858A39.335,39.335,0,0,1,72.148,26.858Z" transform="translate(70.297 52.722)" fill="#fff"/>
    <path id="Path_12788" data-name="Path 12788" d="M38.819,26.923a39.335,39.335,0,0,1,7.139,2.031l2.864-7.316a47.106,47.106,0,0,0-8.577-2.44Z" transform="translate(110.773 53.305)" fill="#fff"/>
    <path id="Path_12789" data-name="Path 12789" d="M82.432,52.645A19.667,19.667,0,0,0,62.787,33v7.858a11.787,11.787,0,0,1,0,23.574H51V72.29H62.787A19.667,19.667,0,0,0,82.432,52.645Z" transform="translate(146.451 93.729)" fill="#fff"/>
    <path id="Path_12790" data-name="Path 12790" d="M47,41h7.858v7.858H47Z" transform="translate(134.735 117.161)" fill="#fff"/>
    <path id="Path_12791" data-name="Path 12791" d="M43,41h7.858v7.858H43Z" transform="translate(123.019 117.161)" fill="#fff"/>
    <path id="Path_12792" data-name="Path 12792" d="M209.238,181.735a35.362,35.362,0,1,0-4.44-70.412A62.3,62.3,0,0,0,133.6,56.7,66.761,66.761,0,1,0,20.437,114.844a35.335,35.335,0,0,0,15.924,66.892h27.5v43.219a3.936,3.936,0,0,1-3.929,3.929H39.567a11.787,11.787,0,1,0,0,7.858H59.935a11.8,11.8,0,0,0,11.787-11.787V181.735H87.439V202.1a11.787,11.787,0,1,0,7.858,0V181.735h23.574v40.013a11.787,11.787,0,1,0,7.858,0V181.735H150.3V202.1a11.787,11.787,0,1,0,7.858,0V181.735h15.716v43.219a11.8,11.8,0,0,0,11.787,11.787h20.368a11.787,11.787,0,1,0,0-7.858H185.664a3.936,3.936,0,0,1-3.929-3.929V181.735ZM28.5,236.742a3.929,3.929,0,1,1,3.929-3.929A3.936,3.936,0,0,1,28.5,236.742ZM91.368,217.1a3.929,3.929,0,1,1,3.929-3.929A3.936,3.936,0,0,1,91.368,217.1ZM122.8,236.742a3.929,3.929,0,1,1,3.929-3.929A3.936,3.936,0,0,1,122.8,236.742ZM154.232,217.1a3.929,3.929,0,1,1,3.929-3.929A3.936,3.936,0,0,1,154.232,217.1ZM217.1,228.883a3.929,3.929,0,1,1-3.929,3.929A3.936,3.936,0,0,1,217.1,228.883ZM83.376,97.568A31.43,31.43,0,0,0,71.722,95.3H43.642A110.806,110.806,0,0,1,40.42,71.722H95.206c-.067,2.078-.177,4.141-.35,6.188A62.833,62.833,0,0,0,83.376,97.568ZM9.074,71.722H32.562A120.048,120.048,0,0,0,35.552,95.3H15.75A58.621,58.621,0,0,1,9.074,71.722ZM67.793,8.858c8.77,0,16.714,9.379,21.79,23.574H46C51.079,18.237,59.024,8.858,67.793,8.858Zm24.2,31.432A111.439,111.439,0,0,1,95.2,63.864H40.385A111.438,111.438,0,0,1,43.591,40.29ZM32.534,63.864H9.058A58.456,58.456,0,0,1,15.71,40.29H35.489A119.5,119.5,0,0,0,32.534,63.864ZM100.1,40.29h19.861a58.743,58.743,0,0,1,5.941,18,62.7,62.7,0,0,0-22.8,11.622c.016-.707.051-1.411.051-2.118a121.32,121.32,0,0,0-3.057-27.5Zm14.879-7.858H97.906A65.227,65.227,0,0,0,87.769,12.363a58.717,58.717,0,0,1,27.209,20.069ZM47.763,12.437A65.436,65.436,0,0,0,37.681,32.432H20.759A59.089,59.089,0,0,1,47.763,12.437ZM20.688,103.155H51a31.564,31.564,0,0,0-7,8.793,35.327,35.327,0,0,0-7.638-.935,35.276,35.276,0,0,0-7.591.841,59.26,59.26,0,0,1-8.082-8.7ZM8.858,146.374A27.352,27.352,0,0,1,41.206,119.33a31.247,31.247,0,0,0-.915,7.4h7.858a23.549,23.549,0,0,1,32.992-21.6,62.616,62.616,0,0,0-1.56,13.74h7.858A54.974,54.974,0,0,1,197.1,113.205a35.391,35.391,0,0,0-23.221,33.169h7.858a27.5,27.5,0,1,1,27.5,27.5H36.361a27.533,27.533,0,0,1-27.5-27.5Z" fill="#fff"/>
    <path id="Path_12793" data-name="Path 12793" d="M46.787,35A11.787,11.787,0,1,0,58.574,46.787,11.8,11.8,0,0,0,46.787,35Zm0,15.716a3.929,3.929,0,1,1,3.929-3.929A3.936,3.936,0,0,1,46.787,50.716Z" transform="translate(99.587 99.587)" fill="#fff"/>
    <path id="Path_12794" data-name="Path 12794" d="M38.787,35A11.787,11.787,0,1,0,50.574,46.787,11.8,11.8,0,0,0,38.787,35Zm0,15.716a3.929,3.929,0,1,1,3.929-3.929A3.936,3.936,0,0,1,38.787,50.716Z" transform="translate(76.155 99.587)" fill="#fff"/>
    <path id="Path_12795" data-name="Path 12795" d="M30.787,35A11.787,11.787,0,1,0,42.574,46.787,11.8,11.8,0,0,0,30.787,35Zm0,15.716a3.929,3.929,0,1,1,3.929-3.929A3.936,3.936,0,0,1,30.787,50.716Z" transform="translate(52.722 99.587)" fill="#fff"/>
    <path id="Path_12796" data-name="Path 12796" d="M62.716,37.574h7.858A23.6,23.6,0,0,0,47,14v7.858A15.732,15.732,0,0,1,62.716,37.574Z" transform="translate(134.735 38.077)" fill="#fff"/>
    <path id="Path_12797" data-name="Path 12797" d="M78.432,49.29H86.29A39.335,39.335,0,0,0,47,10v7.858A31.469,31.469,0,0,1,78.432,49.29Z" transform="translate(134.735 26.361)" fill="#fff"/>
    <path id="Path_12798" data-name="Path 12798" d="M94.148,61.006h7.858A55.067,55.067,0,0,0,47,6v7.858A47.2,47.2,0,0,1,94.148,61.006Z" transform="translate(134.735 14.645)" fill="#fff"/>
  </g>
</svg>
