<svg xmlns="http://www.w3.org/2000/svg" width="52.966" height="52.966" viewBox="0 0 52.966 52.966">
  <g id="server_2_" data-name="server (2)" transform="translate(0.25 0.25)">
    <g id="Group_1671" data-name="Group 1671" transform="translate(15.232 3.385)">
      <g id="Group_1670" data-name="Group 1670">
        <path id="Path_8533" data-name="Path 8533" d="M144,32V77.7h1.692V74.311h18.617V77.7H166V32Zm20.309,40.619H145.692V64.157h18.617Zm0-10.155H145.692V54h18.617Zm0-10.155H145.692V43.847h18.617Zm0-10.155H145.692V33.692h18.617Z" transform="translate(-144 -32)" fill="#2d9195" stroke="#fff" stroke-width="0.5"/>
      </g>
    </g>
    <g id="Group_1673" data-name="Group 1673" transform="translate(18.617 6.77)">
      <g id="Group_1672" data-name="Group 1672">
        <path id="Path_8534" data-name="Path 8534" d="M176,64v5.077h8.462V64Zm3.385,3.385h-1.692V65.692h1.692Zm3.385,0h-1.692V65.692h1.692Z" transform="translate(-176 -64)" fill="#2d9195" stroke="#fff" stroke-width="0.5"/>
      </g>
    </g>
    <g id="Group_1675" data-name="Group 1675" transform="translate(28.988 6.946)">
      <g id="Group_1674" data-name="Group 1674" transform="translate(0 0)">
        <rect id="Rectangle_822" data-name="Rectangle 822" width="1.378" height="2.067" fill="#2d9195" stroke="#fff" stroke-width="0.5"/>
      </g>
    </g>
    <g id="Group_1677" data-name="Group 1677" transform="translate(31.744 6.946)">
      <g id="Group_1676" data-name="Group 1676" transform="translate(0 0)">
        <rect id="Rectangle_823" data-name="Rectangle 823" width="2.067" height="2.067" fill="#2d9195" stroke="#fff" stroke-width="0.5"/>
      </g>
    </g>
    <g id="Group_1679" data-name="Group 1679" transform="translate(28.988 10.39)">
      <g id="Group_1678" data-name="Group 1678" transform="translate(0 0)">
        <rect id="Rectangle_824" data-name="Rectangle 824" width="1.378" height="1.378" transform="translate(0 0)" fill="#2d9195" stroke="#fff" stroke-width="0.5"/>
      </g>
    </g>
    <g id="Group_1681" data-name="Group 1681" transform="translate(31.744 10.39)">
      <g id="Group_1680" data-name="Group 1680" transform="translate(0 0)">
        <rect id="Rectangle_825" data-name="Rectangle 825" width="2.067" height="1.378" transform="translate(0 0)" fill="#2d9195" stroke="#fff" stroke-width="0.5"/>
      </g>
    </g>
    <g id="Group_1683" data-name="Group 1683" transform="translate(18.617 16.924)">
      <g id="Group_1682" data-name="Group 1682">
        <path id="Path_8535" data-name="Path 8535" d="M176,160v5.077h8.462V160Zm3.385,3.385h-1.692v-1.692h1.692Zm3.385,0h-1.692v-1.692h1.692Z" transform="translate(-176 -160)" fill="#2d9195" stroke="#fff" stroke-width="0.5"/>
      </g>
    </g>
    <g id="Group_1685" data-name="Group 1685" transform="translate(28.988 17.278)">
      <g id="Group_1684" data-name="Group 1684" transform="translate(0 0)">
        <rect id="Rectangle_826" data-name="Rectangle 826" width="1.378" height="1.378" transform="translate(0 0)" fill="#2d9195" stroke="#fff" stroke-width="0.5"/>
      </g>
    </g>
    <g id="Group_1687" data-name="Group 1687" transform="translate(31.744 17.278)">
      <g id="Group_1686" data-name="Group 1686" transform="translate(0 0)">
        <rect id="Rectangle_827" data-name="Rectangle 827" width="2.067" height="1.378" transform="translate(0 0)" fill="#2d9195" stroke="#fff" stroke-width="0.5"/>
      </g>
    </g>
    <g id="Group_1689" data-name="Group 1689" transform="translate(28.988 20.722)">
      <g id="Group_1688" data-name="Group 1688" transform="translate(0 0)">
        <rect id="Rectangle_828" data-name="Rectangle 828" width="1.378" height="1.378" transform="translate(0 0)" fill="#2d9195" stroke="#fff" stroke-width="0.5"/>
      </g>
    </g>
    <g id="Group_1691" data-name="Group 1691" transform="translate(31.744 20.722)">
      <g id="Group_1690" data-name="Group 1690" transform="translate(0 0)">
        <rect id="Rectangle_829" data-name="Rectangle 829" width="2.067" height="1.378" transform="translate(0 0)" fill="#2d9195" stroke="#fff" stroke-width="0.5"/>
      </g>
    </g>
    <g id="Group_1693" data-name="Group 1693" transform="translate(18.617 27.079)">
      <g id="Group_1692" data-name="Group 1692">
        <path id="Path_8536" data-name="Path 8536" d="M176,256v5.077h8.462V256Zm3.385,3.385h-1.692v-1.692h1.692Zm3.385,0h-1.692v-1.692h1.692Z" transform="translate(-176 -256)" fill="#2d9195" stroke="#fff" stroke-width="0.5"/>
      </g>
    </g>
    <g id="Group_1695" data-name="Group 1695" transform="translate(28.988 26.922)">
      <g id="Group_1694" data-name="Group 1694" transform="translate(0 0)">
        <rect id="Rectangle_830" data-name="Rectangle 830" width="1.378" height="2.067" transform="translate(0 0)" fill="#2d9195" stroke="#fff" stroke-width="0.5"/>
      </g>
    </g>
    <g id="Group_1697" data-name="Group 1697" transform="translate(31.744 26.922)">
      <g id="Group_1696" data-name="Group 1696" transform="translate(0 0)">
        <rect id="Rectangle_831" data-name="Rectangle 831" width="2.067" height="2.067" transform="translate(0 0)" fill="#2d9195" stroke="#fff" stroke-width="0.5"/>
      </g>
    </g>
    <g id="Group_1699" data-name="Group 1699" transform="translate(28.988 30.366)">
      <g id="Group_1698" data-name="Group 1698" transform="translate(0 0)">
        <rect id="Rectangle_832" data-name="Rectangle 832" width="1.378" height="1.378" fill="#2d9195" stroke="#fff" stroke-width="0.5"/>
      </g>
    </g>
    <g id="Group_1701" data-name="Group 1701" transform="translate(31.744 30.366)">
      <g id="Group_1700" data-name="Group 1700" transform="translate(0 0)">
        <rect id="Rectangle_833" data-name="Rectangle 833" width="2.067" height="1.378" fill="#2d9195" stroke="#fff" stroke-width="0.5"/>
      </g>
    </g>
    <g id="Group_1703" data-name="Group 1703" transform="translate(18.617 37.234)">
      <g id="Group_1702" data-name="Group 1702">
        <path id="Path_8537" data-name="Path 8537" d="M176,352v5.077h8.462V352Zm3.385,3.385h-1.692v-1.692h1.692Zm3.385,0h-1.692v-1.692h1.692Z" transform="translate(-176 -352)" fill="#2d9195" stroke="#fff" stroke-width="0.5"/>
      </g>
    </g>
    <g id="Group_1705" data-name="Group 1705" transform="translate(28.988 37.254)">
      <g id="Group_1704" data-name="Group 1704" transform="translate(0 0)">
        <rect id="Rectangle_834" data-name="Rectangle 834" width="1.378" height="1.378" fill="#2d9195" stroke="#fff" stroke-width="0.5"/>
      </g>
    </g>
    <g id="Group_1707" data-name="Group 1707" transform="translate(31.744 37.254)">
      <g id="Group_1706" data-name="Group 1706" transform="translate(0 0)">
        <rect id="Rectangle_835" data-name="Rectangle 835" width="2.067" height="1.378" fill="#2d9195" stroke="#fff" stroke-width="0.5"/>
      </g>
    </g>
    <g id="Group_1709" data-name="Group 1709" transform="translate(28.988 40.698)">
      <g id="Group_1708" data-name="Group 1708" transform="translate(0 0)">
        <rect id="Rectangle_836" data-name="Rectangle 836" width="1.378" height="1.378" fill="#2d9195" stroke="#fff" stroke-width="0.5"/>
      </g>
    </g>
    <g id="Group_1711" data-name="Group 1711" transform="translate(31.744 40.698)">
      <g id="Group_1710" data-name="Group 1710" transform="translate(0 0)">
        <rect id="Rectangle_837" data-name="Rectangle 837" width="2.067" height="1.378" fill="#2d9195" stroke="#fff" stroke-width="0.5"/>
      </g>
    </g>
    <g id="Group_1713" data-name="Group 1713" transform="translate(18.656 47.587)">
      <g id="Group_1712" data-name="Group 1712" transform="translate(0 0)">
        <rect id="Rectangle_838" data-name="Rectangle 838" width="2.067" height="1.378" fill="#2d9195" stroke="#fff" stroke-width="0.5"/>
      </g>
    </g>
    <g id="Group_1715" data-name="Group 1715" transform="translate(22.1 47.587)">
      <g id="Group_1714" data-name="Group 1714" transform="translate(0 0)">
        <rect id="Rectangle_839" data-name="Rectangle 839" width="1.378" height="1.378" fill="#2d9195" stroke="#fff" stroke-width="0.5"/>
      </g>
    </g>
    <g id="Group_1717" data-name="Group 1717" transform="translate(25.544 47.587)">
      <g id="Group_1716" data-name="Group 1716" transform="translate(0 0)">
        <rect id="Rectangle_840" data-name="Rectangle 840" width="1.378" height="1.378" fill="#2d9195" stroke="#fff" stroke-width="0.5"/>
      </g>
    </g>
    <g id="Group_1719" data-name="Group 1719" transform="translate(28.988 47.587)">
      <g id="Group_1718" data-name="Group 1718" transform="translate(0 0)">
        <rect id="Rectangle_841" data-name="Rectangle 841" width="1.378" height="1.378" fill="#2d9195" stroke="#fff" stroke-width="0.5"/>
      </g>
    </g>
    <g id="Group_1721" data-name="Group 1721" transform="translate(31.744 47.587)">
      <g id="Group_1720" data-name="Group 1720" transform="translate(0 0)">
        <rect id="Rectangle_842" data-name="Rectangle 842" width="2.067" height="1.378" fill="#2d9195" stroke="#fff" stroke-width="0.5"/>
      </g>
    </g>
    <g id="Group_1723" data-name="Group 1723" transform="translate(3.385 16.924)">
      <g id="Group_1722" data-name="Group 1722">
        <path id="Path_8538" data-name="Path 8538" d="M32,160v5.077h6.77V160Zm5.077,3.385H33.692v-1.692h3.385Z" transform="translate(-32 -160)" fill="#2d9195" stroke="#fff" stroke-width="0.5"/>
      </g>
    </g>
    <g id="Group_1725" data-name="Group 1725" transform="translate(3.385 27.079)">
      <g id="Group_1724" data-name="Group 1724">
        <path id="Path_8539" data-name="Path 8539" d="M32,256v5.077h6.77V256Zm5.077,3.385H33.692v-1.692h3.385Z" transform="translate(-32 -256)" fill="#2d9195" stroke="#fff" stroke-width="0.5"/>
      </g>
    </g>
    <g id="Group_1727" data-name="Group 1727" transform="translate(3.385 37.234)">
      <g id="Group_1726" data-name="Group 1726">
        <path id="Path_8540" data-name="Path 8540" d="M32,352v5.077h6.77V352Zm5.077,3.385H33.692v-1.692h3.385Z" transform="translate(-32 -352)" fill="#2d9195" stroke="#fff" stroke-width="0.5"/>
      </g>
    </g>
    <g id="Group_1729" data-name="Group 1729" transform="translate(3.501 47.587)">
      <g id="Group_1728" data-name="Group 1728" transform="translate(0 0)">
        <rect id="Rectangle_843" data-name="Rectangle 843" width="1.378" height="1.378" fill="#2d9195" stroke="#fff" stroke-width="0.5"/>
      </g>
    </g>
    <g id="Group_1731" data-name="Group 1731" transform="translate(6.946 47.587)">
      <g id="Group_1730" data-name="Group 1730" transform="translate(0 0)">
        <rect id="Rectangle_844" data-name="Rectangle 844" width="2.067" height="1.378" fill="#2d9195" stroke="#fff" stroke-width="0.5"/>
      </g>
    </g>
    <g id="Group_1733" data-name="Group 1733">
      <g id="Group_1732" data-name="Group 1732">
        <path id="Path_8541" data-name="Path 8541" d="M49.927,13.54H40.619v-11A2.542,2.542,0,0,0,38.08,0H14.386a2.542,2.542,0,0,0-2.539,2.539v11H2.539A2.542,2.542,0,0,0,0,16.078V52.466H52.466V16.078A2.542,2.542,0,0,0,49.927,13.54ZM11.847,50.773H1.692V45.7H11.847Zm0-6.77H1.692V35.541H11.847Zm0-10.155H1.692V25.387H11.847Zm0-10.155H1.692V16.078a.847.847,0,0,1,.846-.846h9.308ZM38.926,50.773H13.54V2.539a.847.847,0,0,1,.846-.846H38.08a.847.847,0,0,1,.846.846Zm11.847,0H40.619V45.7H50.773Zm0-6.77H40.619V35.541H50.773Zm0-10.155H40.619V25.387H50.773Zm0-10.155H40.619V15.232h9.308a.847.847,0,0,1,.846.846Z" fill="#2d9195" stroke="#fff" stroke-width="0.5"/>
      </g>
    </g>
    <g id="Group_1735" data-name="Group 1735" transform="translate(42.311 16.924)">
      <g id="Group_1734" data-name="Group 1734">
        <path id="Path_8542" data-name="Path 8542" d="M400,160v5.077h6.77V160Zm5.077,3.385h-3.385v-1.692h3.385Z" transform="translate(-400 -160)" fill="#2d9195" stroke="#fff" stroke-width="0.5"/>
      </g>
    </g>
    <g id="Group_1737" data-name="Group 1737" transform="translate(42.311 27.079)">
      <g id="Group_1736" data-name="Group 1736">
        <path id="Path_8543" data-name="Path 8543" d="M400,256v5.077h6.77V256Zm5.077,3.385h-3.385v-1.692h3.385Z" transform="translate(-400 -256)" fill="#2d9195" stroke="#fff" stroke-width="0.5"/>
      </g>
    </g>
    <g id="Group_1739" data-name="Group 1739" transform="translate(42.311 37.234)">
      <g id="Group_1738" data-name="Group 1738">
        <path id="Path_8544" data-name="Path 8544" d="M400,352v5.077h6.77V352Zm5.077,3.385h-3.385v-1.692h3.385Z" transform="translate(-400 -352)" fill="#2d9195" stroke="#fff" stroke-width="0.5"/>
      </g>
    </g>
    <g id="Group_1741" data-name="Group 1741" transform="translate(47.587 47.587)">
      <g id="Group_1740" data-name="Group 1740" transform="translate(0 0)">
        <rect id="Rectangle_845" data-name="Rectangle 845" width="1.378" height="1.378" fill="#2d9195" stroke="#fff" stroke-width="0.5"/>
      </g>
    </g>
    <g id="Group_1743" data-name="Group 1743" transform="translate(43.454 47.587)">
      <g id="Group_1742" data-name="Group 1742" transform="translate(0 0)">
        <rect id="Rectangle_846" data-name="Rectangle 846" width="2.067" height="1.378" fill="#2d9195" stroke="#fff" stroke-width="0.5"/>
      </g>
    </g>
  </g>
</svg>
