<svg xmlns="http://www.w3.org/2000/svg" width="51" height="51" viewBox="0 0 51 51">
  <g id="affiliate-manager" transform="translate(0.5 0.5)">
    <path id="Path_11565" data-name="Path 11565" d="M31.6,26.806h4.927a7.258,7.258,0,1,0,0-1.613H31.6a8.833,8.833,0,0,0-2.017-4.866l5.248-5.248a7.185,7.185,0,0,0,2.455.437,7.273,7.273,0,1,0-3.978-1.194l-4.865,4.865a8.837,8.837,0,0,0-9.039-1.39,9.73,9.73,0,0,0-5.325-4.876,6.452,6.452,0,1,0-6.811,0A9.685,9.685,0,0,0,1,21.968v8.065a3.229,3.229,0,0,0,3.226,3.226h.806V47.774a3.212,3.212,0,0,0,5.645,2.111,3.212,3.212,0,0,0,5.645-2.111v-15.7a8.837,8.837,0,0,0,12.124.744l4.865,4.865a7.365,7.365,0,1,0,1.523-.758l-5.248-5.248A8.823,8.823,0,0,0,31.6,26.806Zm2.2-14.116a4.023,4.023,0,0,1,6.969,0,5.612,5.612,0,0,1-6.969,0Zm1.872-5.239A1.613,1.613,0,1,1,37.29,9.065,1.615,1.615,0,0,1,35.677,7.452ZM37.29,2.613a5.638,5.638,0,0,1,4.62,8.879,5.6,5.6,0,0,0-2.228-1.9,3.226,3.226,0,1,0-4.784,0,5.6,5.6,0,0,0-2.228,1.9,5.638,5.638,0,0,1,4.62-8.879ZM33.806,48.174a4.023,4.023,0,0,1,6.969,0,5.612,5.612,0,0,1-6.969,0Zm1.872-5.239a1.613,1.613,0,1,1,1.613,1.613A1.615,1.615,0,0,1,35.677,42.935Zm7.258.806a5.61,5.61,0,0,1-1.025,3.234,5.6,5.6,0,0,0-2.228-1.9,3.226,3.226,0,1,0-4.784,0,5.6,5.6,0,0,0-2.228,1.9,5.643,5.643,0,1,1,10.265-3.234Zm-2.678-13.31a4.023,4.023,0,0,1,6.969,0,5.612,5.612,0,0,1-6.969,0Zm1.872-5.239a1.613,1.613,0,1,1,1.613,1.613,1.615,1.615,0,0,1-1.613-1.613Zm1.613-4.839a5.638,5.638,0,0,1,4.62,8.879,5.6,5.6,0,0,0-2.228-1.9,3.226,3.226,0,1,0-4.784,0,5.6,5.6,0,0,0-2.228,1.9,5.638,5.638,0,0,1,4.62-8.879ZM7.925,14.4a8.013,8.013,0,0,1,.95-.284l-.219,3.073A18.594,18.594,0,0,1,7.925,14.4Zm2.581-.485c.057,0,.113-.009.171-.009s.114.006.171.006l.456,6.382c-.2.349-.406.694-.627,1.028-.221-.337-.427-.684-.627-1.035Zm2.2,3.31-.223-3.11a8.041,8.041,0,0,1,.972.3,18.647,18.647,0,0,1-.749,2.815ZM5.839,7.452a4.839,4.839,0,1,1,4.839,4.839A4.844,4.844,0,0,1,5.839,7.452ZM14.71,47.774a1.613,1.613,0,1,1-3.226,0V32.648a1.6,1.6,0,0,1,.473-1.141l.9-.9-1.14-1.14-.9.9a3.2,3.2,0,0,0-.945,2.281V47.774a1.613,1.613,0,1,1-3.226,0V17.935H5.032v13.71H4.226a1.615,1.615,0,0,1-1.613-1.613V21.968a8.06,8.06,0,0,1,3.8-6.835A20.343,20.343,0,0,0,9.4,22.319l1.273,1.91,1.3-1.956a20.359,20.359,0,0,0,2.974-7.126,8.081,8.081,0,0,1,3.025,3.4,8.917,8.917,0,0,0-1.658,1.383v-2H14.71v4.39a8.773,8.773,0,0,0,0,7.348v18.1Zm8.065-14.516A7.258,7.258,0,1,1,30.032,26,7.267,7.267,0,0,1,22.774,33.258Z" transform="translate(-1 -1)" stroke="#fff" stroke-width="1"/>
    <path id="Path_11566" data-name="Path 11566" d="M28.058,28.246a.813.813,0,0,1,.812.812h1.623a2.438,2.438,0,0,0-2.435-2.435V25H26.435v1.623H24v2.435a2.438,2.438,0,0,0,2.435,2.435h1.623a.813.813,0,0,1,.812.812v.812H26.435a.813.813,0,0,1-.812-.812H24a2.438,2.438,0,0,0,2.435,2.435v1.623h1.623V34.739h2.435V32.3a2.438,2.438,0,0,0-2.435-2.435H26.435a.813.813,0,0,1-.812-.812v-.812Z" transform="translate(-5.469 -5.681)" fill="#f80" stroke="#fff" stroke-width="1"/>
  </g>
</svg>
