<svg xmlns="http://www.w3.org/2000/svg" width="50" height="50" viewBox="0 0 50 50">
  <g id="affiliate" transform="translate(0 0)">
    <path id="Path_11567" data-name="Path 11567" d="M130.719,114.665a15.978,15.978,0,0,0-31.955,0,15.812,15.812,0,0,0,1.454,6.64.605.605,0,0,0,.067.143,15.982,15.982,0,0,0,30.434-6.782ZM114.741,99.941a14.72,14.72,0,0,1,13.729,20.137,3.738,3.738,0,0,0-2.3-.984.688.688,0,0,0-.586.321,2.071,2.071,0,0,1-3.268-.08.611.611,0,0,0-.5-.246,3.68,3.68,0,0,0-1.735.478,4.145,4.145,0,0,0-2.823-1.358.7.7,0,0,0-.607.334,2.453,2.453,0,0,1-3.87-.094.613.613,0,0,0-.5-.246,4.153,4.153,0,0,0-2.973,1.376,3.714,3.714,0,0,0-1.622-.484.693.693,0,0,0-.586.321,2.071,2.071,0,0,1-3.268-.08.611.611,0,0,0-.5-.246,3.713,3.713,0,0,0-2.339.907,14.719,14.719,0,0,1,13.761-20.055Zm-13.234,21.244a2.5,2.5,0,0,1,1.56-.858,3.287,3.287,0,0,0,4.827.014,2.488,2.488,0,0,1,.724.249,4.1,4.1,0,0,0-.4,1.774v5.508A14.842,14.842,0,0,1,101.507,121.185Zm7.923,7.219v-6.041a2.968,2.968,0,0,1,2.586-2.925,3.668,3.668,0,0,0,5.449.015,2.951,2.951,0,0,1,2.479,2.91v6.082A14.793,14.793,0,0,1,109.43,128.4Zm11.728-.479v-5.562a4.138,4.138,0,0,0-.4-1.783,2.467,2.467,0,0,1,.8-.254,3.287,3.287,0,0,0,4.827.015,2.517,2.517,0,0,1,1.544.936A14.843,14.843,0,0,1,121.158,127.925Z" transform="translate(-89.68 -89.646)"/>
    <path id="Path_11568" data-name="Path 11568" d="M229.525,13.942a.614.614,0,0,0,.434-1.048l-2.714-2.714a.614.614,0,0,0-.868,0l-2.714,2.714a.614.614,0,0,0,.868.868l1.569-1.569v5.042a.614.614,0,1,0,1.228,0V12.053c0-.019,0-.037,0-.055l1.764,1.764a.612.612,0,0,0,.434.18Z" transform="translate(-201.811 -10)" fill="#f80"/>
    <path id="Path_11569" data-name="Path 11569" d="M223.664,429.4a.614.614,0,0,0,0,.868l2.714,2.714a.614.614,0,0,0,.868,0l2.714-2.714a.614.614,0,1,0-.868-.868l-1.57,1.569v-5.042a.614.614,0,1,0-1.228,0v5.181c0,.019,0,.037,0,.055l-1.764-1.764A.614.614,0,0,0,223.664,429.4Z" transform="translate(-201.811 -383.16)" fill="#f80"/>
    <path id="Path_11570" data-name="Path 11570" d="M13.328,230.139a.614.614,0,0,0,.434-1.048l-1.569-1.569h5.042a.614.614,0,0,0,0-1.228H12.053l-.055,0,1.764-1.764a.614.614,0,1,0-.868-.868l-2.714,2.714a.614.614,0,0,0,0,.868l2.714,2.714A.612.612,0,0,0,13.328,230.139Z" transform="translate(-10 -201.811)" fill="#f80"/>
    <path id="Path_11571" data-name="Path 11571" d="M430.267,223.663a.614.614,0,0,0-.868.868l1.569,1.569h-5.042a.614.614,0,0,0,0,1.228h5.181l.056,0-1.764,1.764a.614.614,0,1,0,.868.868l2.714-2.714a.614.614,0,0,0,0-.868Z" transform="translate(-383.16 -201.811)" fill="#f80"/>
    <path id="Path_11572" data-name="Path 11572" d="M80.905,85.357a.614.614,0,0,0,.614-.614v-2.22l3.565,3.565a.614.614,0,1,0,.868-.868l-3.664-3.664c-.014-.014-.031-.025-.046-.037h2.5a.614.614,0,1,0,0-1.228H80.905a.614.614,0,0,0-.614.614v3.838a.614.614,0,0,0,.614.614Z" transform="translate(-73.098 -73.097)"/>
    <path id="Path_11573" data-name="Path 11573" d="M375.4,378.665a.614.614,0,0,0,.614.614h3.838a.614.614,0,0,0,.614-.614v-3.838a.614.614,0,0,0-1.228,0v2.22l-3.565-3.565a.614.614,0,1,0-.868.868l3.664,3.664c.014.014.031.025.046.037h-2.5A.614.614,0,0,0,375.4,378.665Z" transform="translate(-337.663 -336.473)"/>
    <path id="Path_11574" data-name="Path 11574" d="M379.279,84.746V80.908a.614.614,0,0,0-.614-.614h-3.838a.614.614,0,1,0,0,1.228h2.22l-3.566,3.565a.614.614,0,1,0,.868.868l3.664-3.664c.014-.014.025-.031.037-.046v2.5a.614.614,0,0,0,1.228,0Z" transform="translate(-336.472 -73.1)"/>
    <path id="Path_11575" data-name="Path 11575" d="M86.089,374.809a.614.614,0,0,0-.868,0l-3.664,3.664c-.014.014-.025.031-.037.046v-2.5a.614.614,0,0,0-1.228,0v3.838a.614.614,0,0,0,.614.614h3.838a.614.614,0,1,0,0-1.228H82.524l3.565-3.565A.614.614,0,0,0,86.089,374.809Z" transform="translate(-73.098 -337.664)"/>
    <path id="Path_11576" data-name="Path 11576" d="M222.662,210.638a3.812,3.812,0,0,0,3.807-3.807v-1.6a3.807,3.807,0,0,0-7.615,0v1.6A3.812,3.812,0,0,0,222.662,210.638Zm-2.579-5.4a2.579,2.579,0,0,1,5.159,0v1.6a2.579,2.579,0,1,1-5.159,0Z" transform="translate(-197.656 -182.003)"/>
    <path id="Path_11577" data-name="Path 11577" d="M317.43,229.577a3.413,3.413,0,0,0,3.409-3.409v-1.4a3.409,3.409,0,1,0-6.818,0v1.4A3.413,3.413,0,0,0,317.43,229.577Zm-2.181-4.807a2.181,2.181,0,1,1,4.362,0v1.4a2.184,2.184,0,0,1-2.181,2.181h0a2.184,2.184,0,0,1-2.181-2.181Z" transform="translate(-283.158 -199.91)"/>
    <path id="Path_11578" data-name="Path 11578" d="M134.762,229.577a3.413,3.413,0,0,0,3.409-3.409v-1.4a3.409,3.409,0,0,0-6.818,0v1.4A3.413,3.413,0,0,0,134.762,229.577Zm-2.181-4.807a2.181,2.181,0,0,1,4.362,0v1.4a2.184,2.184,0,0,1-2.181,2.181h0a2.184,2.184,0,0,1-2.181-2.181Z" transform="translate(-119.034 -199.91)"/>
  </g>
</svg>
