<svg xmlns="http://www.w3.org/2000/svg" width="60.057" height="50.5" viewBox="0 0 60.057 50.5">
  <g id="bars" transform="translate(0.25 0.251)">
    <g id="Group_2029" data-name="Group 2029" transform="translate(41.184 -0.001)">
      <g id="Group_2028" data-name="Group 2028">
        <path id="Path_11615" data-name="Path 11615" d="M302.62,34.019a8.248,8.248,0,0,0,0,16.5,8.286,8.286,0,0,0,8.276-8.276A8.2,8.2,0,0,0,302.62,34.019Zm0,14.682a6.434,6.434,0,1,1,6.462-6.406A6.459,6.459,0,0,1,302.62,48.7Z" transform="translate(-294.4 -34.019)" fill="#f80" stroke="#fff" stroke-width="0.5"/>
      </g>
    </g>
    <g id="Group_2031" data-name="Group 2031" transform="translate(46.739 2.89)">
      <g id="Group_2030" data-name="Group 2030" transform="translate(0 0)">
        <path id="Path_11616" data-name="Path 11616" d="M338.872,61.051a1.482,1.482,0,0,0-.17-.453,1.42,1.42,0,0,0-.227-.4c-.113-.113-.17-.227-.283-.34a1.017,1.017,0,0,0-.4-.283,1.421,1.421,0,0,0-.4-.227c-.17-.057-.283-.17-.453-.227a3.908,3.908,0,0,1-.454-.17.43.43,0,0,1-.227-.113c-.057-.057-.17-.057-.227-.113s-.17-.057-.227-.113l-.17-.17a.294.294,0,0,1-.113-.227.341.341,0,0,1-.057-.227v-.283c0-.057.057-.17.057-.227.057-.057.057-.17.113-.227l.17-.17a.433.433,0,0,1,.283-.113.511.511,0,0,1,.283-.057h.34a.511.511,0,0,1,.283.057,2.455,2.455,0,0,1,.283.057c.057,0,.17.057.227.057.113,0,.17.057.227.057l.283.113.057-.34.113-.907v-.227l-.227-.057c-.057,0-.17-.057-.227-.057s-.113-.057-.227-.057a2.454,2.454,0,0,0-.283-.057c-.113,0-.17-.057-.283-.057h-.057V54.419h-1.36v1.134h-.057a2.013,2.013,0,0,0-.51.227,1.017,1.017,0,0,0-.4.283,2.465,2.465,0,0,0-.34.4,1.14,1.14,0,0,0-.227.453l-.17.51a1.93,1.93,0,0,0-.057.567,1.249,1.249,0,0,0,.057.453,1.482,1.482,0,0,0,.17.453c.057.113.17.283.227.4.113.113.17.227.283.34a1.016,1.016,0,0,0,.4.283,1.421,1.421,0,0,0,.4.227,3.362,3.362,0,0,1,.453.227,3.912,3.912,0,0,1,.454.17.43.43,0,0,1,.227.113c.057.057.17.057.227.113s.113.113.17.113l.17.17c.057.057.057.113.113.227a2.457,2.457,0,0,1,.057.283v.283a.429.429,0,0,1-.113.227l-.17.17a.782.782,0,0,1-.227.17c-.057.057-.17.057-.227.113a2.455,2.455,0,0,1-.283.057h-.737a2.455,2.455,0,0,1-.283-.057.806.806,0,0,1-.34-.113c-.113-.057-.227-.057-.34-.113-.057,0-.113-.057-.17-.057s-.113-.057-.17-.057l-.34-.17-.057.4-.113,1.02v.17l.17.057a.758.758,0,0,1,.51.057,1.051,1.051,0,0,0,.4.113c.113.057.283.057.453.113a1.248,1.248,0,0,0,.453.057h.113v1.134h1.361v-1.19h.057a2.014,2.014,0,0,0,.51-.227,1.989,1.989,0,0,0,.453-.283,2.467,2.467,0,0,0,.34-.4,3.165,3.165,0,0,0,.283-.453l.17-.51a1.748,1.748,0,0,0,.057-.567A1.248,1.248,0,0,0,338.872,61.051Z" transform="translate(-333.6 -54.419)" fill="#f80" stroke="#fff" stroke-width="0.5"/>
      </g>
    </g>
    <g id="Group_2033" data-name="Group 2033" transform="translate(9.485 17.015)">
      <g id="Group_2032" data-name="Group 2032" transform="translate(0 0)">
        <path id="Path_11617" data-name="Path 11617" d="M104.756,155.916a.965.965,0,0,0-1.3-.17l-9.183,7.313-11.848-4.932a.9.9,0,0,0-.85.113l-12.7,9.07a.906.906,0,0,0-.227,1.247.826.826,0,0,0,.737.4.914.914,0,0,0,.51-.17L82.195,160l11.9,4.932a1.02,1.02,0,0,0,.907-.113l9.58-7.6A.965.965,0,0,0,104.756,155.916Z" transform="translate(-68.489 -155.569)" stroke="#fff" stroke-width="0.5"/>
      </g>
    </g>
    <g id="Group_2035" data-name="Group 2035" transform="translate(0 21.032)">
      <g id="Group_2034" data-name="Group 2034" transform="translate(0 0)">
        <path id="Path_11618" data-name="Path 11618" d="M58.708,212.772H54.551V186.526a.891.891,0,0,0-.9-.907H45.393a.891.891,0,0,0-.9.907v26.246H41.461V195.6a.891.891,0,0,0-.9-.907H32.247a.891.891,0,0,0-.9.907v17.176H28.315V194.235a.891.891,0,0,0-.9-.907H19.157a.891.891,0,0,0-.9.907v18.537H15.225V199.564a.891.891,0,0,0-.9-.907H6.011a.891.891,0,0,0-.9.907v13.208H.9a.907.907,0,0,0,0,1.814H58.652a.891.891,0,0,0,.9-.907A.816.816,0,0,0,58.708,212.772Zm-45.337,0H6.91v-12.3h6.461Zm13.146,0H20.056v-17.63h6.461Zm13.09,0H33.146V196.5h6.461Zm13.146,0H46.292V187.433h6.461Z" transform="translate(0 -185.619)" stroke="#fff" stroke-width="0.5"/>
      </g>
    </g>
  </g>
</svg>
