<svg xmlns="http://www.w3.org/2000/svg" width="49.488" height="51" viewBox="0 0 49.488 51">
  <g id="business-center" transform="translate(0.5 0.499)">
    <path id="Path_8546" data-name="Path 8546" d="M54.521,19.441H51.682V1.71A1.712,1.712,0,0,0,49.972,0H36.791a1.712,1.712,0,0,0-1.71,1.71V19.441H28.554a1.712,1.712,0,0,0-1.71,1.71v14.2h-2.5V1.71A1.712,1.712,0,0,0,22.634,0H9.453a1.712,1.712,0,0,0-1.71,1.71V11.735a.733.733,0,1,0,1.466,0V1.71a.245.245,0,0,1,.244-.244H22.634a.245.245,0,0,1,.244.244V5.2H20.254a1.223,1.223,0,0,0-1.221,1.221V8.8a1.223,1.223,0,0,0,1.221,1.221h2.624V11H20.254a1.223,1.223,0,0,0-1.221,1.221v2.386a1.223,1.223,0,0,0,1.221,1.221h2.624v.977H20.254a1.223,1.223,0,0,0-1.221,1.221v2.386a1.223,1.223,0,0,0,1.221,1.221h2.624v.977H20.254a1.223,1.223,0,0,0-1.221,1.221v2.386a1.223,1.223,0,0,0,1.221,1.221h2.624v.977H20.254a1.223,1.223,0,0,0-1.221,1.221v2.386a1.223,1.223,0,0,0,1.221,1.221h2.624v2.109H21.3a1.712,1.712,0,0,0-1.71,1.71v11.47H9.453a.245.245,0,0,1-.244-.244V15.03a.733.733,0,1,0-1.466,0V48.29A1.712,1.712,0,0,0,9.453,50H23.078a.733.733,0,0,0,0-1.466H21.052V37.064a.245.245,0,0,1,.244-.244H42.4a.244.244,0,0,1,.244.244v11.47H26.515a.733.733,0,0,0,0,1.466H54.521a1.712,1.712,0,0,0,1.71-1.71V21.151a1.712,1.712,0,0,0-1.71-1.71ZM20.5,8.558v-1.9h2.38v1.9H20.5Zm0,5.805v-1.9h2.38v1.9Zm0,5.805v-1.9h2.38v1.9Zm0,5.805v-1.9h2.38v1.9Zm0,5.805v-1.9h2.38v1.9Zm29.718-5.805H49.2v-1.9h1.012Zm0-5.805H49.2v-1.9h1.012Zm0-5.805H49.2v-1.9h1.012Zm0-5.805H49.2v-1.9h1.012Zm-13.669-1.9h1.037v1.9H36.547Zm0,5.805h1.037v1.9H36.547Zm0,11.611h1.037v1.9H36.547Zm0-5.805h1.037v1.9H36.547Zm7.563,30.262V37.064a1.712,1.712,0,0,0-1.71-1.71H36.547V34.233a.733.733,0,1,0-1.466,0v1.121H28.31v-14.2a.245.245,0,0,1,.244-.244h6.527v9.827a.733.733,0,1,0,1.466,0V27.44h1.281a1.223,1.223,0,0,0,1.221-1.221V23.833a1.223,1.223,0,0,0-1.221-1.221H36.547v-.977h1.281a1.223,1.223,0,0,0,1.221-1.221V18.028a1.223,1.223,0,0,0-1.221-1.221H36.547v-.977h1.281a1.223,1.223,0,0,0,1.221-1.221V12.222A1.223,1.223,0,0,0,37.828,11H36.547v-.977h1.281A1.223,1.223,0,0,0,39.049,8.8V6.417A1.223,1.223,0,0,0,37.828,5.2H36.547V1.71a.245.245,0,0,1,.244-.244H49.972a.244.244,0,0,1,.244.244V5.2H48.96a1.223,1.223,0,0,0-1.221,1.221V8.8a1.223,1.223,0,0,0,1.221,1.221h1.256V11H48.96a1.223,1.223,0,0,0-1.221,1.221v2.386a1.223,1.223,0,0,0,1.221,1.221h1.256v.977H48.96a1.223,1.223,0,0,0-1.221,1.221v2.386a1.223,1.223,0,0,0,1.221,1.221h1.256v.977H48.96a1.223,1.223,0,0,0-1.221,1.221v2.386A1.223,1.223,0,0,0,48.96,27.44h1.256V48.534H44.109Zm10.656-.244a.245.245,0,0,1-.244.244H51.682V20.907h2.839a.244.244,0,0,1,.244.244Z" transform="translate(-7.743 0.001)" stroke="#fff" stroke-width="1"/>
    <path id="Path_8547" data-name="Path 8547" d="M35.651,58.219h5.137a1.27,1.27,0,0,0,1.269-1.269V54.473A1.27,1.27,0,0,0,40.787,53.2H35.651a1.27,1.27,0,0,0-1.269,1.269v2.478A1.27,1.27,0,0,0,35.651,58.219Zm.254-3.493h4.629V56.7H35.9Z" transform="translate(-31.68 -47.807)" stroke="#fff" stroke-width="1"/>
    <path id="Path_8548" data-name="Path 8548" d="M34.383,116.4a1.27,1.27,0,0,0,1.269,1.269h5.137a1.27,1.27,0,0,0,1.269-1.269v-2.478a1.27,1.27,0,0,0-1.269-1.269H35.652a1.27,1.27,0,0,0-1.269,1.269Zm1.522-2.224h4.629v1.97H35.905Z" transform="translate(-31.681 -101.696)" stroke="#fff" stroke-width="1"/>
    <path id="Path_8549" data-name="Path 8549" d="M34.383,175.845a1.27,1.27,0,0,0,1.269,1.269h5.137a1.27,1.27,0,0,0,1.269-1.269v-2.478a1.27,1.27,0,0,0-1.269-1.269H35.652a1.27,1.27,0,0,0-1.269,1.269Zm1.522-2.224h4.629v1.97H35.905Z" transform="translate(-31.681 -155.361)" fill="#f80" stroke="#fff" stroke-width="1"/>
    <path id="Path_8550" data-name="Path 8550" d="M34.383,235.292a1.27,1.27,0,0,0,1.269,1.269h5.137a1.27,1.27,0,0,0,1.269-1.269v-2.478a1.27,1.27,0,0,0-1.269-1.269H35.652a1.27,1.27,0,0,0-1.269,1.269Zm1.522-2.224h4.629v1.97H35.905Z" transform="translate(-31.681 -209.026)" stroke="#fff" stroke-width="1"/>
    <path id="Path_8551" data-name="Path 8551" d="M34.383,294.739a1.27,1.27,0,0,0,1.269,1.269h5.137a1.27,1.27,0,0,0,1.269-1.269v-2.478a1.27,1.27,0,0,0-1.269-1.269H35.652a1.27,1.27,0,0,0-1.269,1.269Zm1.522-2.224h4.629v1.97H35.905Z" transform="translate(-31.681 -262.692)" fill="#f80" stroke="#fff" stroke-width="1"/>
    <path id="Path_8552" data-name="Path 8552" d="M34.383,354.186a1.27,1.27,0,0,0,1.269,1.269h5.137a1.27,1.27,0,0,0,1.269-1.269v-2.478a1.27,1.27,0,0,0-1.269-1.269H35.652a1.27,1.27,0,0,0-1.269,1.269Zm1.522-2.224h4.629v1.97H35.905Z" transform="translate(-31.681 -316.358)" stroke="#fff" stroke-width="1"/>
    <path id="Path_8553" data-name="Path 8553" d="M34.383,413.634a1.27,1.27,0,0,0,1.269,1.269h5.137a1.27,1.27,0,0,0,1.269-1.269v-2.478a1.27,1.27,0,0,0-1.269-1.269H35.652a1.27,1.27,0,0,0-1.269,1.269Zm1.522-2.224h4.629v1.97H35.905Z" transform="translate(-31.681 -370.244)" stroke="#fff" stroke-width="1"/>
    <path id="Path_8554" data-name="Path 8554" d="M350.429,53.2h-2.8a1.27,1.27,0,0,0-1.269,1.269v2.478a1.27,1.27,0,0,0,1.269,1.269h2.8a1.27,1.27,0,0,0,1.269-1.269V54.473A1.27,1.27,0,0,0,350.429,53.2Zm-.254,3.493H347.88V54.726h2.295Z" transform="translate(-313.442 -47.807)" stroke="#fff" stroke-width="1"/>
    <path id="Path_8555" data-name="Path 8555" d="M350.429,112.652h-2.8a1.27,1.27,0,0,0-1.269,1.269V116.4a1.27,1.27,0,0,0,1.269,1.269h2.8A1.27,1.27,0,0,0,351.7,116.4v-2.478A1.27,1.27,0,0,0,350.429,112.652Zm-.254,3.493H347.88v-1.97h2.295Z" transform="translate(-313.442 -101.695)" fill="#f80" stroke="#fff" stroke-width="1"/>
    <path id="Path_8556" data-name="Path 8556" d="M350.429,172.1h-2.8a1.27,1.27,0,0,0-1.269,1.269v2.478a1.27,1.27,0,0,0,1.269,1.269h2.8a1.27,1.27,0,0,0,1.269-1.269v-2.478A1.27,1.27,0,0,0,350.429,172.1Zm-.254,3.493H347.88v-1.97h2.295Z" transform="translate(-313.442 -155.361)" stroke="#fff" stroke-width="1"/>
    <path id="Path_8557" data-name="Path 8557" d="M350.429,231.546h-2.8a1.27,1.27,0,0,0-1.269,1.269v2.478a1.27,1.27,0,0,0,1.269,1.269h2.8a1.27,1.27,0,0,0,1.269-1.269v-2.478A1.27,1.27,0,0,0,350.429,231.546Zm-.254,3.493H347.88v-1.97h2.295Z" transform="translate(-313.442 -209.027)" stroke="#fff" stroke-width="1"/>
    <path id="Path_8558" data-name="Path 8558" d="M169.583,404.766v-1.421a1.27,1.27,0,0,0-1.269-1.269H154.941a1.27,1.27,0,0,0-1.269,1.269v1.421a1.27,1.27,0,0,0,1.269,1.269h13.373A1.27,1.27,0,0,0,169.583,404.766Zm-1.522-.254H155.194V403.6H168.06Z" transform="translate(-139.676 -363.226)" fill="#f80" stroke="#fff" stroke-width="1"/>
  </g>
</svg>
