<svg xmlns="http://www.w3.org/2000/svg" width="69.994" height="69.994" viewBox="0 0 69.994 69.994">
  <g id="cloud-data" transform="translate(-1 -1)">
    <path id="Path_12838" data-name="Path 12838" d="M25,5h2.258V7.258H25Z" transform="translate(3.095 0.516)" fill="#f80"/>
    <path id="Path_12839" data-name="Path 12839" d="M21,5h2.258V7.258H21Z" transform="translate(2.579 0.516)" fill="#f80"/>
    <path id="Path_12840" data-name="Path 12840" d="M29,5h2.258V7.258H29Z" transform="translate(3.61 0.516)" fill="#f80"/>
    <path id="Path_12841" data-name="Path 12841" d="M25,21h2.258v2.258H25Z" transform="translate(3.095 2.579)" fill="#f80"/>
    <path id="Path_12842" data-name="Path 12842" d="M21,21h2.258v2.258H21Z" transform="translate(2.579 2.579)" fill="#f80"/>
    <path id="Path_12843" data-name="Path 12843" d="M29,21h2.258v2.258H29Z" transform="translate(3.61 2.579)" fill="#f80"/>
    <path id="Path_12844" data-name="Path 12844" d="M41,13h2.258v2.258H41Z" transform="translate(5.158 1.547)" fill="#f80"/>
    <path id="Path_12845" data-name="Path 12845" d="M33,13h2.258v2.258H33Z" transform="translate(4.126 1.547)" fill="#f80"/>
    <path id="Path_12846" data-name="Path 12846" d="M37,13h2.258v2.258H37Z" transform="translate(4.642 1.547)" fill="#f80"/>
    <path id="Path_12847" data-name="Path 12847" d="M33,29h2.258v4.516H33Z" transform="translate(4.126 3.61)" fill="#f80"/>
    <path id="Path_12848" data-name="Path 12848" d="M37,29h2.258v4.516H37Z" transform="translate(4.642 3.61)" fill="#f80"/>
    <path id="Path_12849" data-name="Path 12849" d="M41,29h2.258v4.516H41Z" transform="translate(5.158 3.61)" fill="#f80"/>
    <path id="Path_12850" data-name="Path 12850" d="M5,36.645H7.258a3.391,3.391,0,0,1,3.387-3.387V31A5.651,5.651,0,0,0,5,36.645Z" transform="translate(0.516 3.868)" fill="#f80"/>
    <path id="Path_12851" data-name="Path 12851" d="M57.387,36A3.391,3.391,0,0,1,54,39.387v2.258A5.651,5.651,0,0,0,59.645,36Z" transform="translate(6.834 4.513)" fill="#f80"/>
    <path id="Path_12852" data-name="Path 12852" d="M46,39h2.258v2.258H46Z" transform="translate(5.802 4.9)" fill="#f80"/>
    <path id="Path_12853" data-name="Path 12853" d="M50,39h2.258v2.258H50Z" transform="translate(6.318 4.9)" fill="#f80"/>
    <path id="Path_12854" data-name="Path 12854" d="M61.5,30.374a12.354,12.354,0,0,0-8.57-8.554V4.387A3.391,3.391,0,0,0,49.544,1H22.45a3.391,3.391,0,0,0-3.387,3.387V20.135A15.872,15.872,0,0,0,9.533,30.49,10.157,10.157,0,0,0,11.16,50.673h2.258v1.943l2.942.981a20.115,20.115,0,0,0,2.091,5.035l-1.39,2.778L23,67.351l2.778-1.389a20.154,20.154,0,0,0,5.035,2.09l.98,2.942h8.4l.981-2.942a20.154,20.154,0,0,0,5.035-2.09l2.778,1.389,5.942-5.94-1.39-2.778A20.2,20.2,0,0,0,55.634,53.6l2.942-.981V50.673h2.258a10.161,10.161,0,0,0,.667-20.3ZM50.673,19.063H21.321V12.289H50.673Zm0,2.258v6.774H21.321V21.321ZM21.321,30.352H50.673v7.9a1.13,1.13,0,0,1-1.129,1.129H22.45a1.13,1.13,0,0,1-1.129-1.129ZM22.45,3.258H49.544a1.13,1.13,0,0,1,1.129,1.129v5.645H21.321V4.387A1.13,1.13,0,0,1,22.45,3.258Zm33.868,47.73-2.59.864-.142.618A17.917,17.917,0,0,1,51.3,57.98l-.336.537,1.224,2.448L48.546,64.6,46.1,63.381l-.539.336A17.889,17.889,0,0,1,40.051,66l-.619.141-.863,2.591H33.423l-.864-2.59-.619-.141a17.917,17.917,0,0,1-5.51-2.287l-.539-.336L23.446,64.6l-3.64-3.639,1.224-2.448-.336-.537a17.917,17.917,0,0,1-2.287-5.51l-.142-.618-2.588-.865v-.315h4.693a15.788,15.788,0,0,0,31.256,0h4.693Zm-31.383-.315a11.291,11.291,0,0,0,22.125,0h2.293a13.544,13.544,0,0,1-26.711,0Zm2.324,0H44.735a9.023,9.023,0,0,1-17.476,0Zm33.575-2.258H11.16a7.9,7.9,0,0,1-.639-15.772l.822-.065.187-.8a13.618,13.618,0,0,1,7.533-9.212V38.255a3.391,3.391,0,0,0,3.387,3.387H49.545a3.391,3.391,0,0,0,3.387-3.387V24.164A10.114,10.114,0,0,1,59.5,31.721l.187.927.945-.021.2-.016a7.9,7.9,0,1,1,0,15.805Z" transform="translate(0)" fill="#f80"/>
  </g>
</svg>
