<svg xmlns="http://www.w3.org/2000/svg" width="50.235" height="50.509" viewBox="0 0 50.235 50.509">
  <g id="Consult-Talk" transform="translate(0.25 0.259)">
    <rect id="Rectangle_1045" data-name="Rectangle 1045" width="1.626" height="1.626" transform="translate(11.612 19.343)" fill="#f80" stroke="#fff" stroke-width="0.5"/>
    <rect id="Rectangle_1046" data-name="Rectangle 1046" width="1.626" height="1.626" transform="translate(19.907 19.343)" fill="#f80" stroke="#fff" stroke-width="0.5"/>
    <path id="Path_11579" data-name="Path 11579" d="M51.024,30.137l-3.239-.463a11.6,11.6,0,0,0-.545-1.326l1.96-2.613a.829.829,0,0,0-.077-1.083l-3.517-3.517a.82.82,0,0,0-.5-.235V12.921A6.631,6.631,0,0,0,47.59,7.748,6.563,6.563,0,0,0,43.8,1.76a.829.829,0,0,0-1.183.749V7.151L40.959,7.7,39.3,7.151V2.509a.829.829,0,0,0-1.183-.746,6.563,6.563,0,0,0-3.791,5.985,6.631,6.631,0,0,0,2.487,5.173v5.6H34.328a.829.829,0,0,0-.821.711l-.536,3.754,1.641.235.434-3.042h3.536l.434,3.042a.829.829,0,0,0,.589.678,9.9,9.9,0,0,1,1.989.818.829.829,0,0,0,.9-.064l2.454-1.84,2.5,2.5L45.6,27.77a.829.829,0,0,0-.064.9,9.9,9.9,0,0,1,.818,1.989.829.829,0,0,0,.678.589l3.042.434v3.536l-3.042.434a.829.829,0,0,0-.678.589,9.9,9.9,0,0,1-.818,1.989.829.829,0,0,0,.064.9l1.84,2.454-2.5,2.5-2.453-1.847a.829.829,0,0,0-.9-.064,9.9,9.9,0,0,1-1.989.818.829.829,0,0,0-.589.678l-.432,3.044H35.157V43.2a9.2,9.2,0,0,0-.373-2.587,7.551,7.551,0,1,0-5.3-5.854c-.02-.008-.039-.018-.059-.026l-6.7-2.681V30.78a9.192,9.192,0,0,0,2.884-2.309H27.7a2.487,2.487,0,0,0,2.487-2.487v-1.81a2.487,2.487,0,0,0,1.658-2.334V19.353a2.487,2.487,0,0,0-1.658-2.334v-.981a11.6,11.6,0,0,0-23.21,0v.981a2.487,2.487,0,0,0-1.658,2.334v2.487A2.487,2.487,0,0,0,7.8,24.326H9.46c.053,0,.1-.008.157-.012a9.137,9.137,0,0,0,4.817,6.466v1.274l-6.7,2.681A9.076,9.076,0,0,0,2,43.2v7.65a.829.829,0,0,0,.829.829h31.5a.829.829,0,0,0,.829-.829V48.365H39.3a.829.829,0,0,0,.821-.711l.463-3.238a11.6,11.6,0,0,0,1.326-.545l2.613,1.96a.829.829,0,0,0,1.083-.077l3.517-3.517a.829.829,0,0,0,.077-1.083l-1.96-2.613a11.6,11.6,0,0,0,.545-1.326l3.239-.463a.829.829,0,0,0,.71-.82V30.957a.829.829,0,0,0-.711-.821Zm-9.118-7.119c-.039-.019-.083-.031-.122-.05V12.721H40.13v6.573l-.008-.06a.829.829,0,0,0-.821-.711h-.829V12.506a.829.829,0,0,0-.356-.681,4.974,4.974,0,0,1-.473-7.789V7.748a.829.829,0,0,0,.567.787l2.487.829a.829.829,0,0,0,.524,0l2.487-.829a.829.829,0,0,0,.567-.787V4.036a4.973,4.973,0,0,1-.473,7.792.829.829,0,0,0-.356.678v9.361ZM31.012,33.444a5.844,5.844,0,1,1,2.763,4.925,9.048,9.048,0,0,0-2.164-2.385,5.666,5.666,0,0,1-.6-2.54ZM27.7,26.813H26.69a9.035,9.035,0,0,0,.85-2.5c.052,0,.1.012.157.012h.829v1.658A.829.829,0,0,1,27.7,26.813Zm-1.658-9.118a2.5,2.5,0,0,1-1.989-.995l-1.492-1.989A.829.829,0,0,0,22,14.386a.838.838,0,0,0-.623.175l-2.782,2.222a4.159,4.159,0,0,1-2.585.912H11.118v-.829a7.46,7.46,0,1,1,14.92,0Zm4.145,4.145a.829.829,0,0,1-.829.829H27.7V18.524h1.658a.829.829,0,0,1,.829.829ZM18.578,6.09a9.958,9.958,0,0,1,9.947,9.947v.829H27.7a9.118,9.118,0,0,0-18.236,0H8.631v-.829A9.958,9.958,0,0,1,18.578,6.09ZM7.8,22.668a.829.829,0,0,1-.829-.829V19.353a.829.829,0,0,1,.829-.829H9.46v4.145Zm3.316,0V19.353h4.891a5.822,5.822,0,0,0,3.624-1.272l2.115-1.692.976,1.306a4.165,4.165,0,0,0,3.316,1.658v3.316a7.416,7.416,0,0,1-1.262,4.145h-6.2v1.658h4.678a7.453,7.453,0,0,1-12.139-5.8Zm7.46,9.118a9.09,9.09,0,0,0,2.487-.353v1.182a2.487,2.487,0,1,1-4.973,0V31.433A9.09,9.09,0,0,0,18.578,31.786ZM33.5,50.022H28.525V40.9H26.867v9.118H10.289V40.9H8.631v9.118H3.658V43.2a7.425,7.425,0,0,1,4.69-6.927l6.269-2.507a4.118,4.118,0,0,0,7.923,0l6.269,2.507A7.425,7.425,0,0,1,33.5,43.2Z" transform="translate(-2 -1.68)" stroke="#fff" stroke-width="0.5"/>
    <rect id="Rectangle_1047" data-name="Rectangle 1047" width="1.626" height="1.626" transform="translate(34.008 20.173)" stroke="#fff" stroke-width="0.5"/>
    <rect id="Rectangle_1048" data-name="Rectangle 1048" width="1.626" height="1.626" transform="translate(34.008 41.869)" stroke="#fff" stroke-width="0.5"/>
    <rect id="Rectangle_1049" data-name="Rectangle 1049" width="1.626" height="1.626" transform="translate(41.422 39.398) rotate(-45)" stroke="#fff" stroke-width="0.5"/>
    <rect id="Rectangle_1050" data-name="Rectangle 1050" width="1.626" height="1.626" transform="translate(44.856 30.956)" fill="#f80" stroke="#fff" stroke-width="0.5"/>
    <rect id="Rectangle_1051" data-name="Rectangle 1051" width="1.626" height="1.626" transform="translate(41.422 24.144) rotate(-45)" stroke="#fff" stroke-width="0.5"/>
  </g>
</svg>
