<svg id="dedicated-server" xmlns="http://www.w3.org/2000/svg" width="69.994" height="69.994" viewBox="0 0 69.994 69.994">
  <g id="Group_3185" data-name="Group 3185" transform="translate(0 0)">
    <g id="Group_3184" data-name="Group 3184">
      <path id="Path_12855" data-name="Path 12855" d="M66.494,21a3.5,3.5,0,0,0,3.5-3.5V3.5a3.5,3.5,0,0,0-3.5-3.5H3.5A3.5,3.5,0,0,0,0,3.5v14A3.5,3.5,0,0,0,3.5,21H7v3.5H3.5A3.5,3.5,0,0,0,0,28V42a3.5,3.5,0,0,0,3.5,3.5H7V49H3.5A3.5,3.5,0,0,0,0,52.5v14a3.5,3.5,0,0,0,3.5,3.5H66.494a3.5,3.5,0,0,0,3.5-3.5v-14a3.5,3.5,0,0,0-3.5-3.5h-3.5V45.5h3.5a3.5,3.5,0,0,0,3.5-3.5V28a3.5,3.5,0,0,0-3.5-3.5h-3.5V21Zm0,30.331A1.167,1.167,0,0,1,67.661,52.5v14a1.167,1.167,0,0,1-1.167,1.167H3.5a1.167,1.167,0,0,1-1.167-1.167v-14A1.167,1.167,0,0,1,3.5,51.329ZM9.333,49V45.5h2.333V49ZM14,49V45.5H56V49Zm44.33,0V45.5h2.333V49Zm8.166-22.165A1.167,1.167,0,0,1,67.661,28V42a1.167,1.167,0,0,1-1.167,1.167H3.5A1.167,1.167,0,0,1,2.333,42V28A1.167,1.167,0,0,1,3.5,26.831ZM9.333,24.5V21h2.333v3.5ZM14,24.5V21H56v3.5Zm44.33,0V21h2.333v3.5ZM3.5,18.665A1.167,1.167,0,0,1,2.333,17.5V3.5A1.167,1.167,0,0,1,3.5,2.333H66.494A1.167,1.167,0,0,1,67.661,3.5v14a1.167,1.167,0,0,1-1.167,1.167Z" transform="translate(0 0)" fill="#f80"/>
    </g>
  </g>
  <g id="Group_3187" data-name="Group 3187" transform="translate(6.984 6.998)">
    <g id="Group_3186" data-name="Group 3186">
      <path id="Path_12856" data-name="Path 12856" d="M78.24,50.328H54.694a3.5,3.5,0,1,0,0,2.333H78.24a1.167,1.167,0,1,0,0-2.333ZM51.409,52.661a1.167,1.167,0,1,1,1.167-1.167A1.167,1.167,0,0,1,51.409,52.661Z" transform="translate(-47.894 -47.994)" fill="#f80"/>
    </g>
  </g>
  <g id="Group_3189" data-name="Group 3189" transform="translate(51.001 5)">
    <g id="Group_3188" data-name="Group 3188" transform="translate(0 0)">
      <rect id="Rectangle_1611" data-name="Rectangle 1611" width="3" height="2" fill="#f80"/>
    </g>
  </g>
  <g id="Group_3191" data-name="Group 3191" transform="translate(55.999 5)">
    <g id="Group_3190" data-name="Group 3190" transform="translate(0 0)">
      <rect id="Rectangle_1612" data-name="Rectangle 1612" width="2" height="2" fill="#f80"/>
    </g>
  </g>
  <g id="Group_3193" data-name="Group 3193" transform="translate(60.999 5)">
    <g id="Group_3192" data-name="Group 3192" transform="translate(0 0)">
      <rect id="Rectangle_1613" data-name="Rectangle 1613" width="2" height="2" fill="#f80"/>
    </g>
  </g>
  <g id="Group_3195" data-name="Group 3195" transform="translate(47.001 5)">
    <g id="Group_3194" data-name="Group 3194" transform="translate(0 0)">
      <rect id="Rectangle_1614" data-name="Rectangle 1614" width="2" height="2" fill="#f80"/>
    </g>
  </g>
  <g id="Group_3197" data-name="Group 3197" transform="translate(42 5)">
    <g id="Group_3196" data-name="Group 3196" transform="translate(0 0)">
      <rect id="Rectangle_1615" data-name="Rectangle 1615" width="2" height="2" fill="#f80"/>
    </g>
  </g>
  <g id="Group_3199" data-name="Group 3199" transform="translate(51.001 9.001)">
    <g id="Group_3198" data-name="Group 3198" transform="translate(0 0)">
      <rect id="Rectangle_1616" data-name="Rectangle 1616" width="3" height="3" fill="#f80"/>
    </g>
  </g>
  <g id="Group_3201" data-name="Group 3201" transform="translate(55.999 9.001)">
    <g id="Group_3200" data-name="Group 3200" transform="translate(0 0)">
      <rect id="Rectangle_1617" data-name="Rectangle 1617" width="2" height="3" fill="#f80"/>
    </g>
  </g>
  <g id="Group_3203" data-name="Group 3203" transform="translate(60.999 9.001)">
    <g id="Group_3202" data-name="Group 3202" transform="translate(0 0)">
      <rect id="Rectangle_1618" data-name="Rectangle 1618" width="2" height="3" fill="#f80"/>
    </g>
  </g>
  <g id="Group_3205" data-name="Group 3205" transform="translate(47.001 9.001)">
    <g id="Group_3204" data-name="Group 3204" transform="translate(0 0)">
      <rect id="Rectangle_1619" data-name="Rectangle 1619" width="2" height="3" fill="#f80"/>
    </g>
  </g>
  <g id="Group_3207" data-name="Group 3207" transform="translate(42 9.001)">
    <g id="Group_3206" data-name="Group 3206" transform="translate(0 0)">
      <rect id="Rectangle_1620" data-name="Rectangle 1620" width="2" height="3" fill="#f80"/>
    </g>
  </g>
  <g id="Group_3209" data-name="Group 3209" transform="translate(51.001 14)">
    <g id="Group_3208" data-name="Group 3208" transform="translate(0 0)">
      <rect id="Rectangle_1621" data-name="Rectangle 1621" width="3" height="2" fill="#f80"/>
    </g>
  </g>
  <g id="Group_3211" data-name="Group 3211" transform="translate(55.999 14)">
    <g id="Group_3210" data-name="Group 3210" transform="translate(0 0)">
      <rect id="Rectangle_1622" data-name="Rectangle 1622" width="2" height="2" fill="#f80"/>
    </g>
  </g>
  <g id="Group_3213" data-name="Group 3213" transform="translate(60.999 14)">
    <g id="Group_3212" data-name="Group 3212" transform="translate(0 0)">
      <rect id="Rectangle_1623" data-name="Rectangle 1623" width="2" height="2" fill="#f80"/>
    </g>
  </g>
  <g id="Group_3215" data-name="Group 3215" transform="translate(47.001 14)">
    <g id="Group_3214" data-name="Group 3214" transform="translate(0 0)">
      <rect id="Rectangle_1624" data-name="Rectangle 1624" width="2" height="2" fill="#f80"/>
    </g>
  </g>
  <g id="Group_3217" data-name="Group 3217" transform="translate(42 14)">
    <g id="Group_3216" data-name="Group 3216" transform="translate(0 0)">
      <rect id="Rectangle_1625" data-name="Rectangle 1625" width="2" height="2" fill="#f80"/>
    </g>
  </g>
  <g id="Group_3219" data-name="Group 3219" transform="translate(6.984 31.496)">
    <g id="Group_3218" data-name="Group 3218">
      <path id="Path_12857" data-name="Path 12857" d="M78.24,218.328H54.694a3.5,3.5,0,1,0,0,2.333H78.24a1.167,1.167,0,1,0,0-2.333Zm-26.831,2.333a1.167,1.167,0,1,1,1.167-1.167A1.167,1.167,0,0,1,51.409,220.661Z" transform="translate(-47.894 -215.994)" fill="#f80"/>
    </g>
  </g>
  <g id="Group_3221" data-name="Group 3221" transform="translate(51.001 29)">
    <g id="Group_3220" data-name="Group 3220" transform="translate(0 0)">
      <rect id="Rectangle_1626" data-name="Rectangle 1626" width="3" height="2" fill="#f80"/>
    </g>
  </g>
  <g id="Group_3223" data-name="Group 3223" transform="translate(55.999 29)">
    <g id="Group_3222" data-name="Group 3222" transform="translate(0 0)">
      <rect id="Rectangle_1627" data-name="Rectangle 1627" width="2" height="2" fill="#f80"/>
    </g>
  </g>
  <g id="Group_3225" data-name="Group 3225" transform="translate(60.999 29)">
    <g id="Group_3224" data-name="Group 3224" transform="translate(0 0)">
      <rect id="Rectangle_1628" data-name="Rectangle 1628" width="2" height="2" fill="#f80"/>
    </g>
  </g>
  <g id="Group_3227" data-name="Group 3227" transform="translate(47.001 29)">
    <g id="Group_3226" data-name="Group 3226" transform="translate(0 0)">
      <rect id="Rectangle_1629" data-name="Rectangle 1629" width="2" height="2" fill="#f80"/>
    </g>
  </g>
  <g id="Group_3229" data-name="Group 3229" transform="translate(42 29)">
    <g id="Group_3228" data-name="Group 3228" transform="translate(0 0)">
      <rect id="Rectangle_1630" data-name="Rectangle 1630" width="2" height="2" fill="#f80"/>
    </g>
  </g>
  <g id="Group_3231" data-name="Group 3231" transform="translate(51.001 33.999)">
    <g id="Group_3230" data-name="Group 3230" transform="translate(0 0)">
      <rect id="Rectangle_1631" data-name="Rectangle 1631" width="3" height="2" fill="#f80"/>
    </g>
  </g>
  <g id="Group_3233" data-name="Group 3233" transform="translate(55.999 33.999)">
    <g id="Group_3232" data-name="Group 3232" transform="translate(0 0)">
      <rect id="Rectangle_1632" data-name="Rectangle 1632" width="2" height="2" fill="#f80"/>
    </g>
  </g>
  <g id="Group_3235" data-name="Group 3235" transform="translate(60.999 33.999)">
    <g id="Group_3234" data-name="Group 3234" transform="translate(0 0)">
      <rect id="Rectangle_1633" data-name="Rectangle 1633" width="2" height="2" fill="#f80"/>
    </g>
  </g>
  <g id="Group_3237" data-name="Group 3237" transform="translate(47.001 33.999)">
    <g id="Group_3236" data-name="Group 3236" transform="translate(0 0)">
      <rect id="Rectangle_1634" data-name="Rectangle 1634" width="2" height="2" fill="#f80"/>
    </g>
  </g>
  <g id="Group_3239" data-name="Group 3239" transform="translate(42 33.999)">
    <g id="Group_3238" data-name="Group 3238" transform="translate(0 0)">
      <rect id="Rectangle_1635" data-name="Rectangle 1635" width="2" height="2" fill="#f80"/>
    </g>
  </g>
  <g id="Group_3241" data-name="Group 3241" transform="translate(51.001 38)">
    <g id="Group_3240" data-name="Group 3240" transform="translate(0 0)">
      <rect id="Rectangle_1636" data-name="Rectangle 1636" width="3" height="3" fill="#f80"/>
    </g>
  </g>
  <g id="Group_3243" data-name="Group 3243" transform="translate(55.999 38)">
    <g id="Group_3242" data-name="Group 3242" transform="translate(0 0)">
      <rect id="Rectangle_1637" data-name="Rectangle 1637" width="2" height="3" fill="#f80"/>
    </g>
  </g>
  <g id="Group_3245" data-name="Group 3245" transform="translate(60.999 38)">
    <g id="Group_3244" data-name="Group 3244" transform="translate(0 0)">
      <rect id="Rectangle_1638" data-name="Rectangle 1638" width="2" height="3" fill="#f80"/>
    </g>
  </g>
  <g id="Group_3247" data-name="Group 3247" transform="translate(47.001 38)">
    <g id="Group_3246" data-name="Group 3246" transform="translate(0 0)">
      <rect id="Rectangle_1639" data-name="Rectangle 1639" width="2" height="3" fill="#f80"/>
    </g>
  </g>
  <g id="Group_3249" data-name="Group 3249" transform="translate(42 38)">
    <g id="Group_3248" data-name="Group 3248" transform="translate(0 0)">
      <rect id="Rectangle_1640" data-name="Rectangle 1640" width="2" height="3" fill="#f80"/>
    </g>
  </g>
  <g id="Group_3251" data-name="Group 3251" transform="translate(6.984 55.994)">
    <g id="Group_3250" data-name="Group 3250">
      <path id="Path_12858" data-name="Path 12858" d="M78.24,386.328H54.694a3.5,3.5,0,1,0,0,2.333H78.24a1.167,1.167,0,1,0,0-2.333Zm-26.831,2.333a1.167,1.167,0,1,1,1.167-1.167A1.167,1.167,0,0,1,51.409,388.661Z" transform="translate(-47.894 -383.994)" fill="#f80"/>
    </g>
  </g>
  <g id="Group_3253" data-name="Group 3253" transform="translate(51.001 54)">
    <g id="Group_3252" data-name="Group 3252" transform="translate(0 0)">
      <rect id="Rectangle_1641" data-name="Rectangle 1641" width="3" height="2" fill="#f80"/>
    </g>
  </g>
  <g id="Group_3255" data-name="Group 3255" transform="translate(55.999 54)">
    <g id="Group_3254" data-name="Group 3254" transform="translate(0 0)">
      <rect id="Rectangle_1642" data-name="Rectangle 1642" width="2" height="2" fill="#f80"/>
    </g>
  </g>
  <g id="Group_3257" data-name="Group 3257" transform="translate(60.999 54)">
    <g id="Group_3256" data-name="Group 3256" transform="translate(0 0)">
      <rect id="Rectangle_1643" data-name="Rectangle 1643" width="2" height="2" fill="#f80"/>
    </g>
  </g>
  <g id="Group_3259" data-name="Group 3259" transform="translate(47.001 54)">
    <g id="Group_3258" data-name="Group 3258" transform="translate(0 0)">
      <rect id="Rectangle_1644" data-name="Rectangle 1644" width="2" height="2" fill="#f80"/>
    </g>
  </g>
  <g id="Group_3261" data-name="Group 3261" transform="translate(42 54)">
    <g id="Group_3260" data-name="Group 3260" transform="translate(0 0)">
      <rect id="Rectangle_1645" data-name="Rectangle 1645" width="2" height="2" fill="#f80"/>
    </g>
  </g>
  <g id="Group_3263" data-name="Group 3263" transform="translate(51.001 58)">
    <g id="Group_3262" data-name="Group 3262" transform="translate(0 0)">
      <rect id="Rectangle_1646" data-name="Rectangle 1646" width="3" height="3" fill="#f80"/>
    </g>
  </g>
  <g id="Group_3265" data-name="Group 3265" transform="translate(55.999 58)">
    <g id="Group_3264" data-name="Group 3264" transform="translate(0 0)">
      <rect id="Rectangle_1647" data-name="Rectangle 1647" width="2" height="3" fill="#f80"/>
    </g>
  </g>
  <g id="Group_3267" data-name="Group 3267" transform="translate(60.999 58)">
    <g id="Group_3266" data-name="Group 3266" transform="translate(0 0)">
      <rect id="Rectangle_1648" data-name="Rectangle 1648" width="2" height="3" fill="#f80"/>
    </g>
  </g>
  <g id="Group_3269" data-name="Group 3269" transform="translate(47.001 58)">
    <g id="Group_3268" data-name="Group 3268" transform="translate(0 0)">
      <rect id="Rectangle_1649" data-name="Rectangle 1649" width="2" height="3" fill="#f80"/>
    </g>
  </g>
  <g id="Group_3271" data-name="Group 3271" transform="translate(42 58)">
    <g id="Group_3270" data-name="Group 3270" transform="translate(0 0)">
      <rect id="Rectangle_1650" data-name="Rectangle 1650" width="2" height="3" fill="#f80"/>
    </g>
  </g>
  <g id="Group_3273" data-name="Group 3273" transform="translate(51.001 63)">
    <g id="Group_3272" data-name="Group 3272" transform="translate(0 0)">
      <rect id="Rectangle_1651" data-name="Rectangle 1651" width="3" height="2" transform="translate(0 0.001)" fill="#f80"/>
    </g>
  </g>
  <g id="Group_3275" data-name="Group 3275" transform="translate(55.999 63)">
    <g id="Group_3274" data-name="Group 3274" transform="translate(0 0)">
      <rect id="Rectangle_1652" data-name="Rectangle 1652" width="2" height="2" transform="translate(0 0.001)" fill="#f80"/>
    </g>
  </g>
  <g id="Group_3277" data-name="Group 3277" transform="translate(60.999 63)">
    <g id="Group_3276" data-name="Group 3276" transform="translate(0 0)">
      <rect id="Rectangle_1653" data-name="Rectangle 1653" width="2" height="2" transform="translate(0 0.001)" fill="#f80"/>
    </g>
  </g>
  <g id="Group_3279" data-name="Group 3279" transform="translate(47.001 63)">
    <g id="Group_3278" data-name="Group 3278" transform="translate(0 0)">
      <rect id="Rectangle_1654" data-name="Rectangle 1654" width="2" height="2" transform="translate(0 0.001)" fill="#f80"/>
    </g>
  </g>
  <g id="Group_3281" data-name="Group 3281" transform="translate(42 63)">
    <g id="Group_3280" data-name="Group 3280" transform="translate(0 0)">
      <rect id="Rectangle_1655" data-name="Rectangle 1655" width="2" height="2" transform="translate(0 0.001)" fill="#f80"/>
    </g>
  </g>
</svg>
