<svg xmlns="http://www.w3.org/2000/svg" width="178.94" height="199.168" viewBox="0 0 178.94 199.168">
  <g id="support_1_" data-name="support (1)" opacity="0.05">
    <g id="Group_1979" data-name="Group 1979" transform="translate(128.37 154.044)">
      <g id="Group_1978" data-name="Group 1978" transform="translate(0)">
        <path id="Path_11554" data-name="Path 11554" d="M359.89,396a3.89,3.89,0,1,0,3.89,3.89A3.891,3.891,0,0,0,359.89,396Z" transform="translate(-356 -396)" fill="#fff"/>
      </g>
    </g>
    <g id="Group_1981" data-name="Group 1981" transform="translate(0)">
      <g id="Group_1980" data-name="Group 1980">
        <path id="Path_11555" data-name="Path 11555" d="M167.838,141.465,149.349,135.3l-6.638-13.275a42.605,42.605,0,0,0,11.532-22.539l.828-4.962h7.079a11.683,11.683,0,0,0,11.67-11.67V58.35a58.35,58.35,0,0,0-116.7,0V82.857a11.689,11.689,0,0,0,7.78,11v4.559a11.683,11.683,0,0,0,11.67,11.67h3.416a42.2,42.2,0,0,0,6.525,10.1c.551.633,1.125,1.247,1.714,1.844L81.591,135.3,63.1,141.466c-21.5,7.169-37.1,29.8-37.1,53.813a3.89,3.89,0,0,0,3.89,3.89H201.05a3.89,3.89,0,0,0,3.89-3.89C204.94,171.266,189.337,148.634,167.838,141.465Zm-1.8-58.608a3.894,3.894,0,0,1-3.89,3.89h-5.937c.989-7.659,1.648-15.81,1.913-23.838.008-.226.014-.447.021-.669h7.893Zm-97.25,3.89a3.894,3.894,0,0,1-3.89-3.89V62.24h7.9q.019.609.042,1.224c0,.014,0,.028,0,.042v0c.272,7.808.923,15.747,1.889,23.238H68.79Zm7.78,15.56a3.894,3.894,0,0,1-3.89-3.89v-3.89h3.189L76.7,99.49c.158.943.352,1.883.576,2.817ZM72.687,54.46H65.048a50.572,50.572,0,0,1,100.844,0h-7.638a39.4,39.4,0,0,0-39.3-38.9h-6.963A39.4,39.4,0,0,0,72.687,54.46Zm39.3-31.12h6.963A31.631,31.631,0,0,1,150.48,55.009c0,1.224-.01,2.29-.03,3.26,0,.012,0,.025,0,.038l-4.866-.7a62.507,62.507,0,0,1-35.143-17.572A3.891,3.891,0,0,0,107.69,38.9,35.193,35.193,0,0,0,80.632,51.7,31.621,31.621,0,0,1,111.989,23.34Zm-26.65,78.967c-1.947-6.478-4.176-25.539-4.668-37.754l5.236-6.981a27.381,27.381,0,0,1,20.247-10.848,70.361,70.361,0,0,0,38.331,18.589l5.727.818c-.383,8.124-1.165,16.277-2.286,23.775v.008c-.356,2.411-.637,3.962-1.354,8.3-2.06,12.357-11.28,23.531-23.452,26.574a30.606,30.606,0,0,1-34.358-14.7h7.93a11.688,11.688,0,0,0,11,7.78h7.78a11.67,11.67,0,0,0,0-23.34h-7.78a11.675,11.675,0,0,0-11.008,7.78Zm22.025,30.348a39.018,39.018,0,0,0,14.468.326l-6.874,7.269Zm2.247,13.251L97.272,158.954a148.207,148.207,0,0,1-8.709-20.2l4.633-9.267Zm27.476-17.733,5.292,10.584a148.172,148.172,0,0,1-8.711,20.2l-13.206-13.206ZM103.8,106.2a3.891,3.891,0,0,1,3.89-3.89h7.78a3.89,3.89,0,0,1,0,7.78h-7.78A3.894,3.894,0,0,1,103.8,106.2ZM33.936,191.388C35.477,172.118,48.3,154.6,65.562,148.846l16.375-5.457a155.936,155.936,0,0,0,11.072,24.017l.022.039h0a155.981,155.981,0,0,0,10.648,16.26l4.786,7.682Zm81.535-3.468-5.276-8.47q-.089-.142-.189-.277a148.328,148.328,0,0,1-8.765-13.095l13.873-14.671,14.618,14.618a148.152,148.152,0,0,1-8.8,13.147C120.745,179.428,121.015,179.027,115.47,187.921Zm7.006,3.468,4.785-7.682a155.911,155.911,0,0,0,10.722-16.389l.057-.1.007-.012A155.812,155.812,0,0,0,149,143.389l16.374,5.457c17.26,5.756,30.085,23.272,31.627,42.542H122.476Z" transform="translate(-26)" fill="#fff"/>
      </g>
    </g>
    <g id="Group_1983" data-name="Group 1983" transform="translate(142.039 161.47)">
      <g id="Group_1982" data-name="Group 1982" transform="translate(0)">
        <path id="Path_11556" data-name="Path 11556" d="M408.413,429.265A38.9,38.9,0,0,0,397.4,415.9a3.89,3.89,0,0,0-4.744,6.166,31.065,31.065,0,0,1,8.8,10.679,3.89,3.89,0,0,0,6.96-3.477Z" transform="translate(-391.139 -415.088)" fill="#fff"/>
      </g>
    </g>
  </g>
</svg>
