<svg xmlns="http://www.w3.org/2000/svg" width="244.131" height="243" viewBox="0 0 244.131 243">
  <g id="local-network" transform="translate(0 -1.187)" opacity="0.05">
    <g id="Group_3125" data-name="Group 3125" transform="translate(0 1.187)">
      <g id="Group_3124" data-name="Group 3124" transform="translate(0 0)">
        <path id="Path_12799" data-name="Path 12799" d="M114.017,1.187H13.273A13.289,13.289,0,0,0,0,14.46V58.01a3.576,3.576,0,1,0,7.152,0V14.46a6.128,6.128,0,0,1,6.121-6.121H114.017a6.128,6.128,0,0,1,6.121,6.121v65.5H7.152V72.609a3.576,3.576,0,0,0-7.152,0V94.7a7.876,7.876,0,0,0,7.867,7.867H43.6A23.817,23.817,0,0,1,35.8,113.378a5.636,5.636,0,0,0,3.41,10.123h9.911a3.576,3.576,0,1,0,0-7.152H43.232a32.64,32.64,0,0,0,7.9-13.786H76.156a32.637,32.637,0,0,0,7.9,13.786H63.723a3.576,3.576,0,1,0,0,7.152H88.078a5.635,5.635,0,0,0,3.41-10.123,23.812,23.812,0,0,1-7.793-10.815h35.729a7.876,7.876,0,0,0,7.867-7.867V14.46A13.289,13.289,0,0,0,114.017,1.187ZM120.138,94.7a.716.716,0,0,1-.715.715H7.867a.715.715,0,0,1-.715-.715v-7.58H120.138Z" transform="translate(0 -1.187)" fill="#fff"/>
      </g>
    </g>
    <g id="Group_3127" data-name="Group 3127" transform="translate(42.363 42.297)">
      <g id="Group_3126" data-name="Group 3126">
        <path id="Path_12800" data-name="Path 12800" d="M92.42,87.4a3.576,3.576,0,0,0-3.576,3.576v.771a3.576,3.576,0,0,0,7.152,0v-.771A3.576,3.576,0,0,0,92.42,87.4Z" transform="translate(-88.844 -87.403)" fill="#fff"/>
      </g>
    </g>
    <g id="Group_3129" data-name="Group 3129" transform="translate(60.069 42.297)">
      <g id="Group_3128" data-name="Group 3128">
        <path id="Path_12801" data-name="Path 12801" d="M129.555,87.4a3.576,3.576,0,0,0-3.576,3.576v.771a3.576,3.576,0,0,0,7.152,0v-.771A3.576,3.576,0,0,0,129.555,87.4Z" transform="translate(-125.979 -87.403)" fill="#fff"/>
      </g>
    </g>
    <g id="Group_3131" data-name="Group 3131" transform="translate(77.776 42.297)">
      <g id="Group_3130" data-name="Group 3130">
        <path id="Path_12802" data-name="Path 12802" d="M166.689,87.4a3.576,3.576,0,0,0-3.576,3.576v.771a3.576,3.576,0,0,0,7.152,0v-.771A3.576,3.576,0,0,0,166.689,87.4Z" transform="translate(-163.113 -87.403)" fill="#fff"/>
      </g>
    </g>
    <g id="Group_3133" data-name="Group 3133" transform="translate(116.841 121.872)">
      <g id="Group_3132" data-name="Group 3132">
        <path id="Path_12803" data-name="Path 12803" d="M359.06,254.292H343.872a3.576,3.576,0,1,0,0,7.152H359.06a6.128,6.128,0,0,1,6.121,6.121v65.5H252.2v-65.5a6.128,6.128,0,0,1,6.121-6.121h70.957a3.576,3.576,0,0,0,0-7.152H258.316a13.288,13.288,0,0,0-13.273,13.273V347.8a7.876,7.876,0,0,0,7.867,7.867h35.727a23.926,23.926,0,0,1-7.791,10.815,5.636,5.636,0,0,0,3.41,10.124H333.12a5.636,5.636,0,0,0,3.41-10.124,23.811,23.811,0,0,1-7.793-10.815h35.729a7.876,7.876,0,0,0,7.867-7.867V267.564A13.287,13.287,0,0,0,359.06,254.292ZM329.1,369.454H288.271a32.864,32.864,0,0,0,7.9-13.786H321.2A32.648,32.648,0,0,0,329.1,369.454Zm36.08-21.653a.715.715,0,0,1-.714.715H252.91a.715.715,0,0,1-.714-.715v-7.58H365.181Z" transform="translate(-245.043 -254.291)" fill="#fff"/>
      </g>
    </g>
    <g id="Group_3135" data-name="Group 3135" transform="translate(159.204 162.982)">
      <g id="Group_3134" data-name="Group 3134">
        <path id="Path_12804" data-name="Path 12804" d="M337.463,340.508a3.576,3.576,0,0,0-3.576,3.576v.771a3.576,3.576,0,0,0,7.152,0v-.771A3.576,3.576,0,0,0,337.463,340.508Z" transform="translate(-333.887 -340.508)" fill="#fff"/>
      </g>
    </g>
    <g id="Group_3137" data-name="Group 3137" transform="translate(176.91 162.982)">
      <g id="Group_3136" data-name="Group 3136">
        <path id="Path_12805" data-name="Path 12805" d="M374.6,340.508a3.576,3.576,0,0,0-3.576,3.576v.771a3.576,3.576,0,0,0,7.152,0v-.771A3.576,3.576,0,0,0,374.6,340.508Z" transform="translate(-371.021 -340.508)" fill="#fff"/>
      </g>
    </g>
    <g id="Group_3139" data-name="Group 3139" transform="translate(194.617 162.982)">
      <g id="Group_3138" data-name="Group 3138">
        <path id="Path_12806" data-name="Path 12806" d="M411.732,340.508a3.576,3.576,0,0,0-3.576,3.576v.771a3.576,3.576,0,0,0,7.152,0v-.771A3.576,3.576,0,0,0,411.732,340.508Z" transform="translate(-408.156 -340.508)" fill="#fff"/>
      </g>
    </g>
    <g id="Group_3141" data-name="Group 3141" transform="translate(136.561 50.02)">
      <g id="Group_3140" data-name="Group 3140">
        <path id="Path_12807" data-name="Path 12807" d="M295.811,103.6h-5.835a3.576,3.576,0,0,0,0,7.152h5.835a3.576,3.576,0,0,0,0-7.152Z" transform="translate(-286.4 -103.601)" fill="#fff"/>
      </g>
    </g>
    <g id="Group_3143" data-name="Group 3143" transform="translate(153.818 50.02)">
      <g id="Group_3142" data-name="Group 3142">
        <path id="Path_12808" data-name="Path 12808" d="M332,103.6h-5.835a3.576,3.576,0,0,0,0,7.152H332a3.576,3.576,0,0,0,0-7.152Z" transform="translate(-322.592 -103.601)" fill="#fff"/>
      </g>
    </g>
    <g id="Group_3145" data-name="Group 3145" transform="translate(171.075 50.02)">
      <g id="Group_3144" data-name="Group 3144">
        <path id="Path_12809" data-name="Path 12809" d="M368.194,103.6h-5.835a3.576,3.576,0,1,0,0,7.152h5.835a3.576,3.576,0,1,0,0-7.152Z" transform="translate(-358.783 -103.601)" fill="#fff"/>
      </g>
    </g>
    <g id="Group_3147" data-name="Group 3147" transform="translate(176.91 61.102)">
      <g id="Group_3146" data-name="Group 3146">
        <path id="Path_12810" data-name="Path 12810" d="M374.6,126.842a3.576,3.576,0,0,0-3.576,3.576v5.835a3.576,3.576,0,1,0,7.152,0v-5.835A3.576,3.576,0,0,0,374.6,126.842Z" transform="translate(-371.021 -126.842)" fill="#fff"/>
      </g>
    </g>
    <g id="Group_3149" data-name="Group 3149" transform="translate(176.91 79.132)">
      <g id="Group_3148" data-name="Group 3148">
        <path id="Path_12811" data-name="Path 12811" d="M374.6,164.656a3.576,3.576,0,0,0-3.576,3.576v5.835a3.576,3.576,0,0,0,7.152,0v-5.835A3.576,3.576,0,0,0,374.6,164.656Z" transform="translate(-371.021 -164.656)" fill="#fff"/>
      </g>
    </g>
    <g id="Group_3151" data-name="Group 3151" transform="translate(176.91 97.162)">
      <g id="Group_3150" data-name="Group 3150">
        <path id="Path_12812" data-name="Path 12812" d="M374.6,202.469a3.576,3.576,0,0,0-3.576,3.576v5.835a3.576,3.576,0,1,0,7.152,0v-5.835A3.576,3.576,0,0,0,374.6,202.469Z" transform="translate(-371.021 -202.469)" fill="#fff"/>
      </g>
    </g>
    <g id="Group_3153" data-name="Group 3153" transform="translate(95.735 189.471)">
      <g id="Group_3152" data-name="Group 3152">
        <path id="Path_12813" data-name="Path 12813" d="M210.189,396.062h-5.835a3.576,3.576,0,1,0,0,7.152h5.835a3.576,3.576,0,1,0,0-7.152Z" transform="translate(-200.778 -396.062)" fill="#fff"/>
      </g>
    </g>
    <g id="Group_3155" data-name="Group 3155" transform="translate(78.478 189.471)">
      <g id="Group_3154" data-name="Group 3154">
        <path id="Path_12814" data-name="Path 12814" d="M174,396.062h-5.835a3.576,3.576,0,1,0,0,7.152H174a3.576,3.576,0,1,0,0-7.152Z" transform="translate(-164.586 -396.062)" fill="#fff"/>
      </g>
    </g>
    <g id="Group_3157" data-name="Group 3157" transform="translate(61.221 189.471)">
      <g id="Group_3156" data-name="Group 3156">
        <path id="Path_12815" data-name="Path 12815" d="M137.806,396.062h-5.835a3.576,3.576,0,1,0,0,7.152h5.835a3.576,3.576,0,0,0,0-7.152Z" transform="translate(-128.395 -396.062)" fill="#fff"/>
      </g>
    </g>
    <g id="Group_3159" data-name="Group 3159" transform="translate(61.221 172.554)">
      <g id="Group_3158" data-name="Group 3158">
        <path id="Path_12816" data-name="Path 12816" d="M131.971,360.583a3.576,3.576,0,0,0-3.576,3.576v5.835a3.576,3.576,0,1,0,7.152,0v-5.835A3.576,3.576,0,0,0,131.971,360.583Z" transform="translate(-128.395 -360.583)" fill="#fff"/>
      </g>
    </g>
    <g id="Group_3161" data-name="Group 3161" transform="translate(61.221 154.523)">
      <g id="Group_3160" data-name="Group 3160">
        <path id="Path_12817" data-name="Path 12817" d="M131.971,322.768a3.576,3.576,0,0,0-3.576,3.576v5.835a3.576,3.576,0,0,0,7.152,0v-5.835A3.576,3.576,0,0,0,131.971,322.768Z" transform="translate(-128.395 -322.768)" fill="#fff"/>
      </g>
    </g>
    <g id="Group_3163" data-name="Group 3163" transform="translate(61.221 136.492)">
      <g id="Group_3162" data-name="Group 3162">
        <path id="Path_12818" data-name="Path 12818" d="M131.971,284.953a3.576,3.576,0,0,0-3.576,3.576v5.835a3.576,3.576,0,1,0,7.152,0v-5.835A3.576,3.576,0,0,0,131.971,284.953Z" transform="translate(-128.395 -284.953)" fill="#fff"/>
      </g>
    </g>
  </g>
</svg>
