<svg xmlns="http://www.w3.org/2000/svg" width="50.5" height="50.5" viewBox="0 0 50.5 50.5">
  <g id="monitoring" transform="translate(0.25 0.25)">
    <path id="Path_11581" data-name="Path 11581" d="M11.5,8.977,12.54,12.1h3.836V10.47H13.711L11.5,3.838,8.912,11.6,7.94,9.658H5v1.625H6.936l2.278,4.555Z" transform="translate(-1.75 -1.532)" fill="#f80" stroke="#fff" stroke-width="0.5"/>
    <path id="Path_11582" data-name="Path 11582" d="M46.968,38.9A4.037,4.037,0,0,0,51,34.871V13.9a4.037,4.037,0,0,0-3.263-3.955,8.865,8.865,0,0,0-17.664-.077H18.742A8.871,8.871,0,1,0,4.519,16.944a5.626,5.626,0,0,0-1.906,4.218v4.577a7.869,7.869,0,0,0,4.839,7.269v2.265a9.448,9.448,0,0,0-4.839,8.237V51H21.045v-.019A6.631,6.631,0,0,0,23.46,50.4l6.561-2.982a2.748,2.748,0,0,0,.69-.451h3.353a2.416,2.416,0,0,0,2.271-1.613H48.581a2.419,2.419,0,0,0,0-4.839H43.742a.807.807,0,0,1-.806-.806V38.9Zm0-1.613H19.135A9.5,9.5,0,0,0,13.9,34.254V33.069a3.369,3.369,0,0,0,1.1-.617H49.387v2.419A2.422,2.422,0,0,1,46.968,37.29ZM32.452,40.516H31.029a5.485,5.485,0,0,0-4.223,2V38.9h6.452V40.6A4.028,4.028,0,0,0,32.452,40.516ZM21.818,45.051l-.411-2.877a9.343,9.343,0,0,0-1.115-3.27h4.9v4.613ZM11.176,21.967,11.76,20.8a.8.8,0,0,1,.722-.446h4.648a.806.806,0,0,1,0,1.613ZM38.9,3.419a7.258,7.258,0,1,1-7.258,7.258A7.266,7.266,0,0,1,38.9,3.419Zm-8.83,8.065a8.868,8.868,0,0,0,17.65.133A2.414,2.414,0,0,1,49.387,13.9V30.839H16.061a3.343,3.343,0,0,0,.135-1.292l-.6-5.967h1.529a2.419,2.419,0,1,0,0-4.839H15.435a4,4,0,0,0-.657-1.493,8.8,8.8,0,0,0,3.8-5.765ZM2.613,9.871A7.258,7.258,0,1,1,13.563,16.1a3.994,3.994,0,0,0-2.078-.585H8.258A5.61,5.61,0,0,0,6,15.992,7.261,7.261,0,0,1,2.613,9.871Zm1.613,11.29a4.037,4.037,0,0,1,4.032-4.032h3.227a2.42,2.42,0,0,1,2.28,1.612H12.481a2.407,2.407,0,0,0-2.165,1.337l-.944,1.889H4.226Zm0,4.577V23.58h2.21a3.7,3.7,0,0,0-.6,2.017,3.753,3.753,0,0,0,1.092,2.635l.521.521v2.454a6.254,6.254,0,0,1-3.226-5.469Zm3.845,1.354a2.13,2.13,0,0,1-.619-1.5,2.1,2.1,0,0,1,.619-1.5l.522-.522H13.98l.613,6.129a1.754,1.754,0,0,1-.507,1.421,1.776,1.776,0,0,1-1.246.516H10.677v1.613H12.29v.817c-.078,0-.155-.011-.233-.011a9.383,9.383,0,0,0-2.993.494V28.085ZM22.792,48.933a5.069,5.069,0,0,1-6.952-3.159L14.677,41.9l-1.545.463,1.163,3.877a6.649,6.649,0,0,0,2.064,3.15H4.226V43.509A7.831,7.831,0,0,1,19.809,42.4l.478,3.344-1.073.488.668,1.468,4.775-2.171.944,2.124Zm6.562-2.983-2.283,1.038-.944-2.125,2.24-1.019a1.209,1.209,0,0,1,.509-.1,1.156,1.156,0,0,1,.478,2.208Zm4.71-.6H31.6a2.684,2.684,0,0,0,.042-.456,2.759,2.759,0,0,0-1.787-2.576,3.8,3.8,0,0,1,1.171-.194h1.423a2.422,2.422,0,0,1,2.419,2.419.807.807,0,0,1-.806.806Zm9.677-3.226h4.839a.806.806,0,1,1,0,1.613H36.4a4.023,4.023,0,0,0-1.531-2.4V38.9h6.452v.806a2.422,2.422,0,0,0,2.419,2.419Z" transform="translate(-1 -1)" stroke="#fff" stroke-width="0.5"/>
    <path id="Path_11583" data-name="Path 11583" d="M57,42h1.625v1.625H57Z" transform="translate(-11.875 -8.944)" stroke="#fff" stroke-width="0.5"/>
    <path id="Path_11584" data-name="Path 11584" d="M49,42h1.625v1.625H49Z" transform="translate(-10.3 -8.944)" stroke="#fff" stroke-width="0.5"/>
    <path id="Path_11585" data-name="Path 11585" d="M53,42h1.625v1.625H53Z" transform="translate(-11.126 -8.944)" fill="#f80" stroke="#fff" stroke-width="0.5"/>
    <path id="Path_11586" data-name="Path 11586" d="M42,8h1.625V9.625H42Z" transform="translate(-8.944 -2.312)" stroke="#fff" stroke-width="0.5"/>
    <path id="Path_11587" data-name="Path 11587" d="M46,8h6.5V9.625H46Z" transform="translate(-9.813 -2.312)" stroke="#fff" stroke-width="0.5"/>
    <path id="Path_11588" data-name="Path 11588" d="M42,12h1.625v1.625H42Z" transform="translate(-8.944 -3.132)" stroke="#fff" stroke-width="0.5"/>
    <path id="Path_11589" data-name="Path 11589" d="M46,12h6.5v1.625H46Z" transform="translate(-9.813 -3.132)" stroke="#fff" stroke-width="0.5"/>
    <path id="Path_11590" data-name="Path 11590" d="M42,16h1.625v1.625H42Z" transform="translate(-8.944 -3.907)" stroke="#fff" stroke-width="0.5"/>
    <path id="Path_11591" data-name="Path 11591" d="M46,16h6.5v1.625H46Z" transform="translate(-9.813 -3.907)" stroke="#fff" stroke-width="0.5"/>
    <path id="Path_11592" data-name="Path 11592" d="M34.126,28H26v6.5h8.126ZM32.5,32.875H27.625v-3.25H32.5Z" transform="translate(-5.868 -6.251)" fill="#f80" stroke="#fff" stroke-width="0.5"/>
    <path id="Path_11593" data-name="Path 11593" d="M26,24h8.126v1.625H26Z" transform="translate(-5.868 -5.457)" stroke="#fff" stroke-width="0.5"/>
    <path id="Path_11594" data-name="Path 11594" d="M26,20h8.126v1.625H26Z" transform="translate(-5.868 -4.682)" stroke="#fff" stroke-width="0.5"/>
    <path id="Path_11595" data-name="Path 11595" d="M26,16h8.126v1.625H26Z" transform="translate(-5.868 -3.907)" stroke="#fff" stroke-width="0.5"/>
    <path id="Path_11596" data-name="Path 11596" d="M38,34h1.625v1.625H38Z" transform="translate(-8.169 -7.394)" stroke="#fff" stroke-width="0.5"/>
    <path id="Path_11597" data-name="Path 11597" d="M42,34H55.813v1.625H42Z" transform="translate(-9.064 -7.394)" stroke="#fff" stroke-width="0.5"/>
    <path id="Path_11598" data-name="Path 11598" d="M38,30H55.064v1.625H38Z" transform="translate(-8.314 -6.619)" stroke="#fff" stroke-width="0.5"/>
    <path id="Path_11599" data-name="Path 11599" d="M38,26H55.064v1.625H38Z" transform="translate(-8.314 -5.844)" stroke="#fff" stroke-width="0.5"/>
  </g>
</svg>
