<svg xmlns="http://www.w3.org/2000/svg" width="263.324" height="211" viewBox="0 0 263.324 211">
  <g id="personal-computer" transform="translate(0 -50.868)" opacity="0.15">
    <path id="Path_12829" data-name="Path 12829" d="M408.083,151.453h-44.7a3.857,3.857,0,0,0,0,7.715h44.695a3.857,3.857,0,0,0,0-7.715Z" transform="translate(-174.623 -48.854)" fill="#fff"/>
    <path id="Path_12830" data-name="Path 12830" d="M408.083,190.739h-44.7a3.857,3.857,0,0,0,0,7.714h44.695a3.857,3.857,0,0,0,0-7.714Z" transform="translate(-174.623 -67.935)" fill="#fff"/>
    <path id="Path_12831" data-name="Path 12831" d="M411.94,233.881a3.857,3.857,0,0,0-3.857-3.857h-44.7a3.857,3.857,0,0,0,0,7.715h44.695A3.857,3.857,0,0,0,411.94,233.881Z" transform="translate(-174.623 -87.016)" fill="#fff"/>
    <path id="Path_12832" data-name="Path 12832" d="M396.721,306.5a14.572,14.572,0,1,0,14.572,14.572A14.589,14.589,0,0,0,396.721,306.5Zm0,21.429a6.857,6.857,0,1,1,6.857-6.857A6.865,6.865,0,0,1,396.721,327.929Z" transform="translate(-185.609 -124.16)" fill="#fff"/>
    <path id="Path_12833" data-name="Path 12833" d="M396.721,374.762a14.572,14.572,0,1,0,14.572,14.572A14.589,14.589,0,0,0,396.721,374.762Zm0,21.429a6.857,6.857,0,1,1,6.857-6.857,6.865,6.865,0,0,1-6.857,6.857Z" transform="translate(-185.609 -157.315)" fill="#fff"/>
    <path id="Path_12834" data-name="Path 12834" d="M345.8,271.395h-5.6a3.857,3.857,0,1,0,0,7.715h5.6a3.857,3.857,0,0,0,0-7.715Z" transform="translate(-163.36 -107.11)" fill="#fff"/>
    <path id="Path_12835" data-name="Path 12835" d="M386.712,275.252a3.857,3.857,0,0,0-3.857-3.857h-5.6a3.857,3.857,0,0,0,0,7.715h5.6A3.857,3.857,0,0,0,386.712,275.252Z" transform="translate(-181.357 -107.11)" fill="#fff"/>
    <path id="Path_12836" data-name="Path 12836" d="M259.465,159.972a3.857,3.857,0,0,0,3.857-3.857V98.425A13.738,13.738,0,0,0,249.6,84.7H198.128V66.694A15.844,15.844,0,0,0,182.3,50.868H51.857a3.857,3.857,0,0,0,0,7.715H182.3a8.12,8.12,0,0,1,8.111,8.111V84.7h-9.257V73.82a5.987,5.987,0,0,0-5.98-5.98H22.952a5.987,5.987,0,0,0-5.98,5.98V200.328a5.987,5.987,0,0,0,5.98,5.98H36.436a3.857,3.857,0,1,0,0-7.715H24.686V75.554H173.441V84.7h-.818A13.738,13.738,0,0,0,158.9,98.425V198.594H51.857a3.857,3.857,0,1,0,0,7.715H158.9v9.257H15.826a8.12,8.12,0,0,1-8.111-8.111V66.694a8.12,8.12,0,0,1,8.111-8.111h20.61a3.857,3.857,0,1,0,0-7.715H15.826A15.843,15.843,0,0,0,0,66.694V207.455A15.843,15.843,0,0,0,15.826,223.28H48v7.783a7.3,7.3,0,0,0,7.293,7.294H70.256v15.8H55.86a3.857,3.857,0,0,0,0,7.715h86.409a3.857,3.857,0,0,0,0-7.715h-14.4v-15.8h14.962a7.3,7.3,0,0,0,7.294-7.294V223.28H158.9v24.865a13.738,13.738,0,0,0,13.723,13.723H249.6a13.738,13.738,0,0,0,13.723-13.723V171.537a3.857,3.857,0,0,0-7.715,0v76.609a6.015,6.015,0,0,1-6.008,6.008H172.623a6.015,6.015,0,0,1-6.008-6.008V98.425a6.015,6.015,0,0,1,6.008-6.008H249.6a6.015,6.015,0,0,1,6.008,6.008v57.689a3.857,3.857,0,0,0,3.857,3.858ZM120.158,254.154H77.971v-15.8h42.187Zm22.255-23.511h-86.7v-7.362h86.7Z" transform="translate(0 0)" fill="#fff"/>
  </g>
</svg>
