<svg xmlns="http://www.w3.org/2000/svg" width="53.863" height="51.014" viewBox="0 0 53.863 51.014">
  <g id="promotion" transform="translate(0.52 0.503)">
    <path id="Path_11600" data-name="Path 11600" d="M123.643,291.663a1.119,1.119,0,1,0-1.529-.41A1.12,1.12,0,0,0,123.643,291.663Zm0,0" transform="translate(-109.42 -259.799)" stroke="#fff" stroke-width="1"/>
    <path id="Path_11601" data-name="Path 11601" d="M10.742,58.832,16.378,67.8A4.706,4.706,0,0,0,22.494,69.3a3.932,3.932,0,0,0,1.638-5.616l-3.358-5.341L23.682,56.8a.984.984,0,0,0,.41-1.4l-1.455-2.315,21.437-3.861a3.076,3.076,0,0,0,2.721-4.62l-3.72-5.916,2.377-3.306a.958.958,0,0,0,.035-1.08l-2.238-3.56a1.149,1.149,0,0,0-1.037-.512l-4.306.237L33.778,23.9a3.389,3.389,0,0,0-2.866-1.541h-.043a3.409,3.409,0,0,0-2.827,1.422l-14.62,17.1-9.5,5.039A6.887,6.887,0,0,0,1.05,55.749a8.2,8.2,0,0,0,9.692,3.083Zm11.452,5.883a1.966,1.966,0,0,1-.82,2.808,2.353,2.353,0,0,1-3.057-.752l-5.6-8.9L16.6,55.812l5.6,8.9Zm-2.539-8.15-1.119-1.78,1.938-1.028,1.119,1.78Zm22-24.247,1.547,2.46L41.824,36.7l-2.666-4.241ZM29.914,24.9a1.172,1.172,0,0,1,1.924.02L44.856,45.631a1.028,1.028,0,0,1-.942,1.541,4.446,4.446,0,0,0-.614.1l-13.77-21.9c.289-.341.326-.374.383-.461Zm-1.873,2.2L40.979,47.686,21.454,51.2,15.517,41.76ZM2.988,54.721a4.814,4.814,0,0,1-.751-2.564,5.1,5.1,0,0,1,2.8-4.456l8.723-4.625,5.6,8.9L10.632,56.6a5.883,5.883,0,0,1-7.644-1.881Zm0,0" transform="translate(0 -19.853)" stroke="#fff" stroke-width="1"/>
    <path id="Path_11602" data-name="Path 11602" d="M49.766,310.132a1.119,1.119,0,0,0-1.529-.41L46.3,310.842a1.121,1.121,0,0,1-1.529-.41,1.119,1.119,0,0,0-1.938,1.119,3.362,3.362,0,0,0,4.586,1.229l1.938-1.119a1.119,1.119,0,0,0,.41-1.529Zm0,0" transform="translate(-37.905 -277.819)" fill="#f80" stroke="#fff" stroke-width="1"/>
    <path id="Path_11603" data-name="Path 11603" d="M443.087,42.623l-6.236,3.47a1.119,1.119,0,1,0,1.089,1.956l6.236-3.47a1.119,1.119,0,0,0-1.088-1.956Zm0,0" transform="translate(-391.911 -37.726)" stroke="#fff" stroke-width="1"/>
    <path id="Path_11604" data-name="Path 11604" d="M445.8,137.818l-4.324-1.159a1.119,1.119,0,1,0-.579,2.162l4.325,1.159a1.119,1.119,0,1,0,.579-2.162Zm0,0" transform="translate(-395.275 -122.601)" fill="#f80" stroke="#fff" stroke-width="1"/>
    <path id="Path_11605" data-name="Path 11605" d="M384.691.83l-1.16,4.325a1.119,1.119,0,0,0,2.162.58l1.159-4.325a1.119,1.119,0,1,0-2.162-.58Zm0,0" transform="translate(-344.126 0)" fill="#f80" stroke="#fff" stroke-width="1"/>
  </g>
</svg>
