<svg xmlns="http://www.w3.org/2000/svg" width="196.69" height="204.659" viewBox="0 0 196.69 204.659">
  <g id="Group_2054" data-name="Group 2054" transform="translate(0 2.835)" opacity="0.05">
    <path id="support" d="M167.151,135.663a20.4,20.4,0,0,1,0,28.864l-4.917,4.917a3.4,3.4,0,0,1-4.81-4.811l4.917-4.917a13.6,13.6,0,0,0,0-19.243L143.4,121.531a13.623,13.623,0,0,0-19.243,0l-7.918,7.918a16.432,16.432,0,0,1-23.252,0L57.909,94.371a16.432,16.432,0,0,1,0-23.252L65.827,63.2a13.622,13.622,0,0,0,0-19.243L46.884,25.017a13.6,13.6,0,0,0-19.243,0l-6.916,6.915a47.6,47.6,0,0,0,0,67.349l67.349,67.349a47.656,47.656,0,0,0,51.024,10.69,3.4,3.4,0,0,1,2.474,6.337,54.459,54.459,0,0,1-58.309-12.217l-67.35-67.349a54.488,54.488,0,0,1,0-76.971l6.916-6.915a20.4,20.4,0,0,1,28.864,0L70.637,39.148a20.433,20.433,0,0,1,0,28.864L62.719,75.93a9.633,9.633,0,0,0,0,13.63L97.8,124.638a9.649,9.649,0,0,0,13.63,0l7.918-7.918a20.434,20.434,0,0,1,28.864,0Z" transform="translate(0 14.435)" fill="#fff"/>
    <g id="Group_1984" data-name="Group 1984" transform="translate(64.604 0)">
      <path id="Path_11557" data-name="Path 11557" d="M0,21.281S17.279-1.521,45.527.081C57.289.975,85.593,8.094,91.891,43.3,95.327,59.611,88.5,80.769,66.7,91.777" transform="translate(0 12.906) rotate(-8)" fill="none" stroke="#fff" stroke-linecap="round" stroke-width="5"/>
      <text id="_" data-name="&gt;" transform="translate(97.158 77.92) rotate(132)" fill="#fff" font-size="45" font-family="Poppins-Regular, Poppins"><tspan x="0" y="0">&gt;</tspan></text>
    </g>
  </g>
</svg>
