<svg xmlns="http://www.w3.org/2000/svg" width="111.987" height="110" viewBox="0 0 111.987 110">
  <g id="rocket" transform="translate(0 -4.541)">
    <g id="Group_3054" data-name="Group 3054" transform="translate(0 4.541)">
      <path id="Path_12660" data-name="Path 12660" d="M132.023,8.114a12.345,12.345,0,0,0-11.984-3.12L105.523,9.1a28.8,28.8,0,0,0-12.494,7.325l-.038.038a2.191,2.191,0,1,0,3.095,3.1l.04-.04a24.417,24.417,0,0,1,10.591-6.21l14.517-4.106a7.85,7.85,0,0,1,9.693,9.688L126.818,33.4A24.41,24.41,0,0,1,120.6,44L81.373,83.2l-6.634-6.63,11.07-11.063A7.925,7.925,0,1,0,74.6,54.3L63.528,65.364l-6.634-6.63,25.66-25.645a2.191,2.191,0,0,0-3.1-3.1l-9.762,9.756L54.006,37.562a19.553,19.553,0,0,0-16.435,5.507l-6.977,6.973a2.214,2.214,0,0,0,0,3.1l7.147,7.143a12.451,12.451,0,0,0,15.915,1.411l6.772,6.768-5.7,5.7a2.19,2.19,0,0,0,0,3.1l8.112,8.107a2.216,2.216,0,0,0,3.1,0l5.7-5.7,6.772,6.768a12.431,12.431,0,0,0,1.411,15.9l7.147,7.143a2.217,2.217,0,0,0,3.1,0l6.977-6.973a19.529,19.529,0,0,0,5.51-16.425l-2.185-15.675L123.7,47.094a28.8,28.8,0,0,0,7.336-12.5l4.109-14.508a12.236,12.236,0,0,0-3.121-11.975ZM40.841,57.185l-5.6-5.594,5.428-5.424A15.144,15.144,0,0,1,53.4,41.9l12.406,1.728L52.243,57.185a8.066,8.066,0,0,1-11.4,0ZM64.387,80.717l-5.012-5.009,5.686-5.682.017-.015L77.7,57.4a3.542,3.542,0,0,1,5.011,5.009Zm33.828,5.971a15.127,15.127,0,0,1-4.268,12.723l-5.427,5.424-5.6-5.594a8.054,8.054,0,0,1-.006-11.389l.007-.006L96.486,74.29Z" transform="translate(-23.619 -4.541)" fill="#f80"/>
      <path id="Path_12661" data-name="Path 12661" d="M334.519,120.991a9.5,9.5,0,0,0,6.72-16.223,9.5,9.5,0,0,0-13.439,13.44A9.441,9.441,0,0,0,334.519,120.991Zm-3.726-13.229a5.269,5.269,0,1,1,0,7.451A5.318,5.318,0,0,1,330.793,107.762Z" transform="translate(-253.471 -80.551)" fill="#f80"/>
      <path id="Path_12662" data-name="Path 12662" d="M21.829,312.368a2.117,2.117,0,1,0-2.994-2.994L.62,327.588a2.117,2.117,0,0,0,2.994,2.994Z" transform="translate(0 -241.646)" fill="#f80"/>
      <path id="Path_12663" data-name="Path 12663" d="M36.23,389.961a2.118,2.118,0,0,0-2.994,0L12.455,410.742a2.117,2.117,0,0,0,2.994,2.994L36.23,392.955A2.117,2.117,0,0,0,36.23,389.961Z" transform="translate(-9.33 -304.348)" fill="#f80"/>
      <path id="Path_12664" data-name="Path 12664" d="M161.613,393.264l-10.3,10.3a2.117,2.117,0,1,0,2.994,2.994l10.3-10.3a2.117,2.117,0,1,0-2.994-2.994Z" transform="translate(-117.573 -306.952)" fill="#f80"/>
      <path id="Path_12665" data-name="Path 12665" d="M121.444,477.785a2.116,2.116,0,1,0-1.145,2.765A2.137,2.137,0,0,0,121.444,477.785Z" transform="translate(-91.67 -373.039)" fill="#f80"/>
      <path id="Path_12666" data-name="Path 12666" d="M283.5,90.306a2.116,2.116,0,1,0,.866-2.625,2.134,2.134,0,0,0-.866,2.625Z" transform="translate(-221.286 -69.241)" fill="#f80"/>
    </g>
  </g>
</svg>
