<svg xmlns="http://www.w3.org/2000/svg" width="126.923" height="110" viewBox="0 0 126.923 110">
  <g id="seo" transform="translate(0 -0.5)">
    <path id="Path_12667" data-name="Path 12667" d="M110.043,42.7V11.05A10.578,10.578,0,0,0,99.462.5H10.581A10.578,10.578,0,0,0,0,11.05V76.46A10.578,10.578,0,0,0,10.581,87.01h44.44V82.79H10.581a6.34,6.34,0,0,1-6.349-6.33V11.05a6.34,6.34,0,0,1,6.349-6.33H99.462a6.34,6.34,0,0,1,6.349,6.33V42.7Zm0,0" transform="translate(0 0)" fill="#f80"/>
    <path id="Path_12668" data-name="Path 12668" d="M40,32.5h4.22v4.22H40Zm0,0" transform="translate(-29.45 -23.56)" fill="#f80"/>
    <path id="Path_12669" data-name="Path 12669" d="M72,32.5h4.22v4.22H72Zm0,0" transform="translate(-53.01 -23.56)" fill="#f80"/>
    <path id="Path_12670" data-name="Path 12670" d="M104,32.5h4.22v4.22H104Zm0,0" transform="translate(-76.498 -23.56)" fill="#f80"/>
    <path id="Path_12671" data-name="Path 12671" d="M40,64.5h88.62v4.22H40Zm0,0" transform="translate(-29.45 -47.12)" fill="#f80"/>
    <path id="Path_12672" data-name="Path 12672" d="M141.63,128.5H74.11A2.11,2.11,0,0,0,72,130.61v16.88a2.11,2.11,0,0,0,2.11,2.11H114.2v-4.22H76.22V132.72h65.41Zm0,0" transform="translate(-53.01 -94.133)" fill="#f80"/>
    <path id="Path_12673" data-name="Path 12673" d="M104,160.5h4.22v4.22H104Zm0,0" transform="translate(-76.498 -117.688)" fill="#f80"/>
    <path id="Path_12674" data-name="Path 12674" d="M136,160.5h4.22v4.22H136Zm0,0" transform="translate(-100.035 -117.688)" fill="#f80"/>
    <path id="Path_12675" data-name="Path 12675" d="M168,160.5h4.22v4.22H168Zm0,0" transform="translate(-123.573 -117.688)" fill="#f80"/>
    <path id="Path_12676" data-name="Path 12676" d="M200,160.5h4.22v4.22H200Zm0,0" transform="translate(-147.111 -117.688)" fill="#f80"/>
    <path id="Path_12677" data-name="Path 12677" d="M232,160.5h4.22v4.22H232Zm0,0" transform="translate(-170.648 -117.688)" fill="#f80"/>
    <path id="Path_12678" data-name="Path 12678" d="M176,224.5h12.66v4.22H176Zm0,0" transform="translate(-129.448 -164.763)" fill="#f80"/>
    <path id="Path_12679" data-name="Path 12679" d="M112,224.5h12.66v4.22H112Zm0,0" transform="translate(-82.376 -164.763)" fill="#f80"/>
    <path id="Path_12680" data-name="Path 12680" d="M289.41,185.82h-5.577a27.279,27.279,0,0,0-1.667-4.03l3.942-3.941a2.111,2.111,0,0,0,0-2.984l-8.953-8.953a2.111,2.111,0,0,0-2.984,0l-3.941,3.944a26.761,26.761,0,0,0-4.03-1.669V162.61a2.11,2.11,0,0,0-2.11-2.11H251.43a2.11,2.11,0,0,0-2.11,2.11v5.577a26.763,26.763,0,0,0-4.03,1.669l-3.941-3.944a2.111,2.111,0,0,0-2.984,0l-8.953,8.953a2.111,2.111,0,0,0,0,2.984l3.942,3.941a27.275,27.275,0,0,0-1.667,4.03H226.11a2.11,2.11,0,0,0-2.11,2.11v12.66a2.11,2.11,0,0,0,2.11,2.11h5.577a27.06,27.06,0,0,0,1.667,4.03l-3.942,3.941a2.111,2.111,0,0,0,0,2.984l8.953,8.953a2.111,2.111,0,0,0,2.984,0l3.941-3.944a26.76,26.76,0,0,0,4.03,1.669v5.577a2.11,2.11,0,0,0,2.11,2.11h12.66a2.11,2.11,0,0,0,2.11-2.11v-5.577a26.763,26.763,0,0,0,4.03-1.669l3.941,3.944a2.111,2.111,0,0,0,2.984,0l8.953-8.953a2.111,2.111,0,0,0,0-2.984l-3.942-3.941a27.279,27.279,0,0,0,1.667-4.03h5.577a2.11,2.11,0,0,0,2.11-2.11V187.93A2.11,2.11,0,0,0,289.41,185.82Zm-2.11,12.66h-5.051a2.109,2.109,0,0,0-2.042,1.582,23.1,23.1,0,0,1-2.47,5.969,2.11,2.11,0,0,0,.326,2.563l3.568,3.568-5.967,5.967-3.57-3.568a2.111,2.111,0,0,0-2.563-.326,23.087,23.087,0,0,1-5.967,2.47,2.109,2.109,0,0,0-1.582,2.042V223.8h-8.44v-5.051a2.109,2.109,0,0,0-1.582-2.042,23.088,23.088,0,0,1-5.967-2.47,2.11,2.11,0,0,0-2.563.326l-3.57,3.568-5.969-5.967,3.57-3.57a2.111,2.111,0,0,0,.326-2.565,23.1,23.1,0,0,1-2.472-5.965,2.109,2.109,0,0,0-2.042-1.583H228.22v-8.44h5.051a2.109,2.109,0,0,0,2.042-1.582,23.1,23.1,0,0,1,2.47-5.969,2.11,2.11,0,0,0-.326-2.563l-3.568-3.568,5.967-5.967,3.57,3.568a2.111,2.111,0,0,0,2.563.326,23.085,23.085,0,0,1,5.967-2.47,2.109,2.109,0,0,0,1.582-2.042V164.72h8.44v5.051a2.109,2.109,0,0,0,1.583,2.042,23.087,23.087,0,0,1,5.967,2.47,2.111,2.111,0,0,0,2.563-.326l3.57-3.568,5.969,5.967-3.57,3.57a2.111,2.111,0,0,0-.326,2.565,23.06,23.06,0,0,1,2.47,5.963,2.108,2.108,0,0,0,2.042,1.585H287.3Zm0,0" transform="translate(-164.597 -117.52)" fill="#f80"/>
    <path id="Path_12681" data-name="Path 12681" d="M298.99,216.5a18.99,18.99,0,1,0,18.99,18.99A18.99,18.99,0,0,0,298.99,216.5Zm0,33.76a14.77,14.77,0,1,1,14.77-14.77A14.769,14.769,0,0,1,298.99,250.26Zm0,0" transform="translate(-205.827 -158.75)" fill="#f80"/>
    <path id="Path_12682" data-name="Path 12682" d="M322.55,248.5a10.55,10.55,0,1,0,10.55,10.55A10.55,10.55,0,0,0,322.55,248.5Zm0,16.88a6.33,6.33,0,1,1,6.33-6.33A6.33,6.33,0,0,1,322.55,265.38Zm0,0" transform="translate(-229.458 -182.383)" fill="#f80"/>
  </g>
</svg>
