<svg xmlns="http://www.w3.org/2000/svg" width="108.129" height="110" viewBox="0 0 108.129 110">
  <g id="stopwatch" transform="translate(-1.793)">
    <path id="Path_12683" data-name="Path 12683" d="M35.155,52.645a6.82,6.82,0,0,0,4.995-2.8L58.1,25.039a1.918,1.918,0,0,0-2.678-2.678L30.6,40.313a6.83,6.83,0,0,0,4.014,12.353C34.8,52.666,34.975,52.659,35.155,52.645ZM31.636,45.6a2.991,2.991,0,0,1,1.221-2.189l15.136-10.95L37.047,47.6A3,3,0,0,1,31.636,45.6Z" transform="translate(23.834 17.667)" fill="#f80"/>
    <path id="Path_12684" data-name="Path 12684" d="M81.756,35.867c-.019-.039-.019-.079-.04-.117s-.059-.057-.084-.092A50.055,50.055,0,0,0,74.8,26.842l4.117-3.936,2.71,2.592,8.131-7.779L81.625,9.942l-8.132,7.777,2.712,2.594L72.088,24.25a51.962,51.962,0,0,0-9.217-6.538c-.036-.024-.057-.059-.1-.081s-.082-.02-.123-.04a53,53,0,0,0-19.69-6.241V9.167h2.875a4.7,4.7,0,0,0,4.792-4.583A4.7,4.7,0,0,0,45.835,0H28.585a4.7,4.7,0,0,0-4.792,4.583,4.7,4.7,0,0,0,4.792,4.583H31.46v2.119a54.921,54.921,0,0,0-6.179.981,1.832,1.832,0,0,0-1.439,2.2,1.918,1.918,0,0,0,2.3,1.377,50.768,50.768,0,0,1,5.328-.875l2.057-.152c.629-.046,1.207-.079,1.771-.1v3.625a1.919,1.919,0,0,0,3.833,0V14.722a49.22,49.22,0,0,1,20.041,5.216l-1.89,3.129a1.791,1.791,0,0,0,.7,2.5,1.968,1.968,0,0,0,.956.246A1.932,1.932,0,0,0,60.6,24.9l1.884-3.122a47.3,47.3,0,0,1,14.9,14.249l-3.264,1.8a1.79,1.79,0,0,0-.7,2.5,1.934,1.934,0,0,0,1.662.917A1.968,1.968,0,0,0,76.034,41L79.306,39.2a43.978,43.978,0,0,1,5.461,19.468H80.981a1.835,1.835,0,1,0,0,3.667h3.785A43.978,43.978,0,0,1,79.306,81.8l-3.272-1.808a1.962,1.962,0,0,0-2.618.671,1.791,1.791,0,0,0,.7,2.5l3.264,1.8a47.3,47.3,0,0,1-14.9,14.249L60.6,96.1a1.962,1.962,0,0,0-2.618-.671,1.788,1.788,0,0,0-.7,2.5l1.89,3.129a49.22,49.22,0,0,1-20.041,5.216v-3.608a1.919,1.919,0,0,0-3.833,0v3.623a50.449,50.449,0,0,1-9.154-1.131,1.912,1.912,0,0,0-2.3,1.377,1.832,1.832,0,0,0,1.439,2.2A54.042,54.042,0,0,0,36.9,110c.094,0,.184-.005.278-.007.013,0,.023.007.034.007s.029-.009.044-.009a53.215,53.215,0,0,0,25.336-6.55,1.667,1.667,0,0,0,.18-.071c.038-.022.059-.057.1-.081A51.059,51.059,0,0,0,81.6,85.393a1.746,1.746,0,0,0,.115-.143c.023-.038.021-.079.04-.117a47.458,47.458,0,0,0,0-49.265Zm-.132-20.74,2.71,2.592-2.71,2.594-2.712-2.594Zm-46.33-4.088V5.5H28.585a.941.941,0,0,1-.958-.917.941.941,0,0,1,.958-.917h17.25a.941.941,0,0,1,.958.917.941.941,0,0,1-.958.917H39.127v5.539c-.667-.026-1.3-.038-1.917-.038-.054,0-.115,0-.169,0s-.1,0-.144,0c-.314,0-.629.02-.943.026C35.733,11.031,35.524,11.029,35.294,11.039Z" transform="translate(20.166)" fill="#f80"/>
    <path id="Path_12685" data-name="Path 12685" d="M27.293,14H17.71a1.917,1.917,0,1,0,0,3.833h9.583a1.917,1.917,0,1,0,0-3.833Z" transform="translate(12.833 11.626)" fill="#f80"/>
    <path id="Path_12686" data-name="Path 12686" d="M31.876,21H12.71a1.917,1.917,0,1,0,0,3.833H31.876a1.917,1.917,0,0,0,0-3.833Z" transform="translate(8.25 17.44)" fill="#f80"/>
    <path id="Path_12687" data-name="Path 12687" d="M36.46,28H7.71a1.917,1.917,0,1,0,0,3.833H36.46a1.917,1.917,0,0,0,0-3.833Z" transform="translate(3.667 23.253)" fill="#f80"/>
    <path id="Path_12688" data-name="Path 12688" d="M40.126,35H3.71a1.917,1.917,0,0,0,0,3.833H40.126a1.917,1.917,0,0,0,0-3.833Z" transform="translate(0 29.066)" fill="#f80"/>
    <path id="Path_12689" data-name="Path 12689" d="M34.626,42H9.71a1.917,1.917,0,0,0,0,3.833H34.626a1.917,1.917,0,0,0,0-3.833Z" transform="translate(5.5 34.879)" fill="#f80"/>
    <path id="Path_12690" data-name="Path 12690" d="M29.126,49H15.71a1.917,1.917,0,1,0,0,3.833H29.126a1.917,1.917,0,1,0,0-3.833Z" transform="translate(11 39.917)" fill="#f80"/>
  </g>
</svg>
