<svg xmlns="http://www.w3.org/2000/svg" width="211.315" height="211.315" viewBox="0 0 211.315 211.315">
  <g id="support-bg-1" opacity="0.05">
    <path id="Path_38" data-name="Path 38" d="M141.032,0a80.891,80.891,0,0,0-80.8,80.8v74.581a18.646,18.646,0,1,0,37.292,0V93.228A18.667,18.667,0,0,0,78.879,74.582a18.44,18.44,0,0,0-5.954,1.062,68.3,68.3,0,0,1,136.209-.05,18.31,18.31,0,0,0-5.951-1.012,18.667,18.667,0,0,0-18.647,18.645v62.151a18.667,18.667,0,0,0,18.647,18.647,18.43,18.43,0,0,0,6.215-1.145v7.36a6.223,6.223,0,0,1-6.215,6.215H158.532a18.645,18.645,0,1,0,0,12.43h44.652a18.666,18.666,0,0,0,18.645-18.645V80.8A80.891,80.891,0,0,0,141.031,0Zm0,0" transform="translate(-35.374)" fill="#fff"/>
    <path id="Path_39" data-name="Path 39" d="M481.883,213.6v72.291a18.614,18.614,0,0,0,12.43-17.5V231.1a18.617,18.617,0,0,0-12.43-17.5Zm0,0" transform="translate(-282.998 -125.441)" fill="#fff"/>
    <path id="Path_40" data-name="Path 40" d="M0,231.1v37.29a18.614,18.614,0,0,0,12.43,17.5V213.6A18.617,18.617,0,0,0,0,231.1Zm0,0" transform="translate(0 -125.441)" fill="#fff"/>
  </g>
</svg>
