<svg xmlns="http://www.w3.org/2000/svg" width="300" height="300" viewBox="0 0 300 300">
  <g id="technology-bg" opacity="0.4">
    <path id="Path_12408" data-name="Path 12408" d="M41.389,69.9H53.767a15.675,15.675,0,1,0,0-10.45H41.389a15.675,15.675,0,1,0,0,10.45ZM68.475,59.45a5.225,5.225,0,1,1-5.225,5.225A5.23,5.23,0,0,1,68.475,59.45ZM21.45,64.675A5.225,5.225,0,1,1,26.675,69.9,5.23,5.23,0,0,1,21.45,64.675Z" transform="translate(36.025 183.075)" fill="#cbc9c9"/>
    <path id="Path_12409" data-name="Path 12409" d="M89.986,65.9a15.675,15.675,0,1,0,0-10.45H57.675a5.224,5.224,0,0,0-5.225,5.225V87.761a15.675,15.675,0,1,0,10.45,0V65.9ZM104.7,55.45a5.225,5.225,0,1,1-5.225,5.225A5.23,5.23,0,0,1,104.7,55.45ZM57.675,107.7a5.225,5.225,0,1,1,5.225-5.225A5.23,5.23,0,0,1,57.675,107.7Z" transform="translate(153.5 166.175)" fill="#cbc9c9"/>
    <path id="Path_12410" data-name="Path 12410" d="M152,2C69.29,2,2,69.29,2,152a5,5,0,0,0,5,5H77v15.92A14.985,14.985,0,0,0,67.92,182H44.07L30.535,168.465A4.987,4.987,0,0,0,27,167H7v10H24.93l13.535,13.535A4.987,4.987,0,0,0,42,192H67.92A14.985,14.985,0,0,0,77,201.08V212H46.08a15,15,0,1,0,0,10H82a5,5,0,0,0,5-5V201.08a14.912,14.912,0,0,0,0-28.16V157h20v55a4.978,4.978,0,0,0,1.465,3.535L127,234.07v38.85a15,15,0,1,0,10,0V234.07l8.535-8.535A4.978,4.978,0,0,0,147,222V196.08a14.912,14.912,0,0,0,0-28.16V157h47.93l-11.465,11.465A4.978,4.978,0,0,0,182,172v10.92a14.912,14.912,0,0,0,0,28.16v13.85l-8.535,8.535A4.978,4.978,0,0,0,172,237v30.92a15,15,0,1,0,10,0V239.07l8.535-8.535A4.978,4.978,0,0,0,192,227V211.08a14.985,14.985,0,0,0,9.08-9.08H227a4.987,4.987,0,0,0,3.535-1.465L244.07,187h23.85A14.964,14.964,0,1,0,287,167.92V157h10a5,5,0,0,0,5-5C302,69.29,234.71,2,152,2ZM32,222a5,5,0,1,1,5-5A5.005,5.005,0,0,1,32,222Zm50-30a5,5,0,1,1,5-5A5.005,5.005,0,0,1,82,192Zm95,95a5,5,0,1,1,5-5A5.005,5.005,0,0,1,177,287ZM273.235,82.06a232.084,232.084,0,0,1-25.545,8.315A167.79,167.79,0,0,0,230.87,53.14q8.175-2.078,15.3-4.6A141,141,0,0,1,273.235,82.06ZM196.965,147c-.125-12.455-.7-24.98-1.735-37.185a367.508,367.508,0,0,0,45.585-7.43A197.794,197.794,0,0,1,246.91,147Zm-21.5-95.76c-7.67.475-15.5.76-23.465.76s-15.8-.285-23.465-.76C135.53,25.985,144.52,12,152,12S168.47,25.985,175.465,51.24ZM171.1,14.845c16.35,4.935,31.17,16.115,43.3,31.72-8.995,1.7-18.675,2.975-28.75,3.89C181.755,35.715,176.9,23.38,171.1,14.845Zm6.865,46.27a335.637,335.637,0,0,1,6.455,39.63C173.8,101.56,162.95,102,152,102s-21.8-.44-32.41-1.255a335.626,335.626,0,0,1,6.455-39.63c8.47.57,17.15.885,25.955.885s17.485-.315,25.96-.885Zm-59.6-10.665c-10.075-.915-19.755-2.2-28.75-3.89,12.13-15.61,26.945-26.785,43.3-31.72C127.105,23.38,122.245,35.715,118.355,50.45Zm-2.37,9.82a364.181,364.181,0,0,0-6.265,39.6,356.481,356.481,0,0,1-43.77-7.095A155.393,155.393,0,0,1,83.3,55.46a304.9,304.9,0,0,0,32.685,4.81Zm-7.22,49.545c-1.03,12.2-1.61,24.73-1.735,37.185H57.08a197.831,197.831,0,0,1,6.1-44.615A366.812,366.812,0,0,0,108.765,109.815Zm9.9.88c10.93.85,22.085,1.305,33.34,1.305s22.41-.455,33.34-1.305c.935,11.285,1.505,23.4,1.62,36.3H117.035C117.155,134.105,117.725,121.98,118.66,110.7ZM194.285,99.87a364.186,364.186,0,0,0-6.265-39.6,306.384,306.384,0,0,0,32.685-4.805,155.574,155.574,0,0,1,17.35,37.315,357.458,357.458,0,0,1-43.77,7.09ZM237.2,41.025c-3.855,1.19-7.94,2.285-12.21,3.295A119.732,119.732,0,0,0,204.62,22.285a139.59,139.59,0,0,1,32.575,18.74ZM79.01,44.315c-4.27-1.01-8.35-2.1-12.21-3.295A139.87,139.87,0,0,1,99.375,22.28,119.893,119.893,0,0,0,79.01,44.315ZM57.83,48.54q7.132,2.512,15.3,4.6A167.792,167.792,0,0,0,56.31,90.38a232.436,232.436,0,0,1-25.545-8.315A140.8,140.8,0,0,1,57.83,48.54Zm-31.76,42.4a239.442,239.442,0,0,0,27.45,9.03,206.353,206.353,0,0,0-6.435,47.03h-35A139.073,139.073,0,0,1,26.07,90.945ZM132,292a5,5,0,1,1,5-5A5.005,5.005,0,0,1,132,292Zm10-105a5,5,0,1,1,5-5A5.005,5.005,0,0,1,142,187Zm-5-19.08a14.912,14.912,0,0,0,0,28.16v23.85l-5,5-15-15V157h20ZM187,202a5,5,0,1,1,5-5A5.005,5.005,0,0,1,187,202Zm95-15a5,5,0,1,1,5-5A5.005,5.005,0,0,1,282,187Zm-5-19.08a14.985,14.985,0,0,0-9.08,9.08H242a4.987,4.987,0,0,0-3.535,1.465L224.93,192H201.08a14.985,14.985,0,0,0-9.08-9.08v-8.85L209.07,157H277ZM256.91,147a206.35,206.35,0,0,0-6.435-47.03,238.473,238.473,0,0,0,27.45-9.03A138.951,138.951,0,0,1,291.91,147Z" transform="translate(-2 -2)" fill="#cbc9c9"/>
  </g>
</svg>
