<svg xmlns="http://www.w3.org/2000/svg" width="52.47" height="50" viewBox="0 0 52.47 50">
  <g id="track" transform="translate(0 0)">
    <path id="Path_11613" data-name="Path 11613" d="M49.171,3.206c-7.026-6.927-18.707-1.837-18.848,7.722a11.027,11.027,0,0,0,5.058,9.461c.672.436.467.271,4.476,7.353a1.822,1.822,0,0,0,.248.339l-5.849,5.635A4.679,4.679,0,0,0,27,34.535L19.2,29.889a4.684,4.684,0,1,0-8.121,3.2L5.967,40.809a4.686,4.686,0,1,0,1.5.739L12.4,34.092a4.687,4.687,0,0,0,6.471-2.469l7.5,4.465a4.685,4.685,0,1,0,8.846-1C42.372,28.2,41.932,28.631,42,28.533a1.739,1.739,0,0,0,.932-.791c4.007-7.079,3.8-6.917,4.478-7.354A11.076,11.076,0,0,0,49.171,3.206ZM7.714,45.316a3.029,3.029,0,1,1-3.03-3.03A3.034,3.034,0,0,1,7.714,45.316Zm4.318-13.667a3.029,3.029,0,1,1,5.509-1.738A3.032,3.032,0,0,1,12.031,31.648ZM30.959,40.07a3.028,3.028,0,1,1,2.106-5.2,3.039,3.039,0,0,1-2.106,5.2Zm15.61-20.984a3.95,3.95,0,0,0-1.286,1.359c-3.986,7.042-3.7,6.642-3.886,6.642s.106.411-3.887-6.642a3.934,3.934,0,0,0-1.285-1.358,9.522,9.522,0,1,1,10.344,0Zm0,0" transform="translate(0 0)" fill="#00020a"/>
    <path id="Path_11614" data-name="Path 11614" d="M342.527,35.988a7.62,7.62,0,1,0-1.1,10.246.818.818,0,1,0-1.08-1.23,5.983,5.983,0,1,1,1.562-2.17.818.818,0,1,0,1.51.631,7.619,7.619,0,0,0-.894-7.478Zm0,0" transform="translate(-294.875 -29.559)" fill="#f80"/>
  </g>
</svg>
