<svg xmlns="http://www.w3.org/2000/svg" width="180.999" height="217.199" viewBox="0 0 180.999 217.199">
  <g id="user" transform="translate(0 0)" opacity="0.05">
    <path id="Path_11620" data-name="Path 11620" d="M139.081,105.063a50.131,50.131,0,0,0,36.8-15.391A51.073,51.073,0,0,0,191.13,52.53a51.075,51.075,0,0,0-15.249-37.143,51.7,51.7,0,0,0-73.6,0A51.07,51.07,0,0,0,87.032,52.53,51.072,51.072,0,0,0,102.28,89.674a50.147,50.147,0,0,0,36.8,15.389ZM111.236,24.426a37.447,37.447,0,0,1,27.845-11.645,37.456,37.456,0,0,1,27.846,11.645,38.157,38.157,0,0,1,11.539,28.1,38.155,38.155,0,0,1-11.539,28.105,37.451,37.451,0,0,1-27.846,11.646,37.459,37.459,0,0,1-27.845-11.646A38.148,38.148,0,0,1,99.7,52.53a38.152,38.152,0,0,1,11.541-28.1Zm0,0" transform="translate(-49.957 0)" fill="rgba(255,255,255,0.43)"/>
    <path id="Path_11621" data-name="Path 11621" d="M180.561,309.675a130.409,130.409,0,0,0-1.758-13.782,109.059,109.059,0,0,0-3.372-13.856,68.639,68.639,0,0,0-5.667-12.923,48.682,48.682,0,0,0-8.542-11.194,37.641,37.641,0,0,0-12.273-7.753,42.218,42.218,0,0,0-15.668-2.851c-2.215,0-4.356.914-8.493,3.621-2.546,1.669-5.523,3.6-8.847,5.734a50.557,50.557,0,0,1-11.447,5.07,44.221,44.221,0,0,1-28,0,50.4,50.4,0,0,1-11.439-5.068c-3.292-2.115-6.271-4.045-8.855-5.738-4.133-2.707-6.275-3.621-8.489-3.621a42.162,42.162,0,0,0-15.666,2.854,37.613,37.613,0,0,0-12.275,7.753,48.7,48.7,0,0,0-8.541,11.192,68.764,68.764,0,0,0-5.666,12.924,109.33,109.33,0,0,0-3.37,13.855A129.518,129.518,0,0,0,.433,309.68C.145,313.845,0,318.18,0,322.56c0,11.385,3.6,20.6,10.7,27.4,7.011,6.708,16.287,10.109,27.57,10.109H142.73c11.28,0,20.556-3.4,27.568-10.109,7.1-6.792,10.7-16.013,10.7-27.4,0-4.395-.149-8.729-.439-12.883ZM161.533,340.7c-4.633,4.433-10.783,6.588-18.8,6.588H38.269c-8.023,0-14.173-2.155-18.8-6.586-4.543-4.348-6.751-10.284-6.751-18.141,0-4.087.134-8.122.4-12A116.833,116.833,0,0,1,14.7,298.152a96.427,96.427,0,0,1,2.964-12.215,55.979,55.979,0,0,1,4.611-10.508,36.094,36.094,0,0,1,6.278-8.272,24.969,24.969,0,0,1,8.165-5.1,29.121,29.121,0,0,1,10.012-1.942c.445.238,1.238.692,2.522,1.535,2.614,1.712,5.626,3.666,8.956,5.8A62.821,62.821,0,0,0,72.583,273.9a56.865,56.865,0,0,0,35.823,0,62.894,62.894,0,0,0,14.377-6.46c3.408-2.19,6.336-4.087,8.95-5.8,1.284-.841,2.077-1.3,2.522-1.535a29.14,29.14,0,0,1,10.015,1.942,25,25,0,0,1,8.163,5.1,35.994,35.994,0,0,1,6.278,8.273,55.79,55.79,0,0,1,4.613,10.505,96.194,96.194,0,0,1,2.966,12.216,117.8,117.8,0,0,1,1.589,12.415v0c.27,3.859.406,7.892.407,11.991,0,7.859-2.21,13.793-6.753,18.14Zm0,0" transform="translate(0 -142.869)" fill="rgba(255,255,255,0.43)"/>
  </g>
</svg>
