<svg id="website-optimisation" xmlns="http://www.w3.org/2000/svg" width="68.988" height="68.994" viewBox="0 0 68.988 68.994">
  <path id="Shape" d="M64.389,0H4.6A4.6,4.6,0,0,0,0,4.6V57.49a4.6,4.6,0,0,0,4.6,4.6H20.532a2.156,2.156,0,0,0,.509.5c.444.307.909.6,1.39.873s.943.52,1.406.74a2.215,2.215,0,0,0,2.435-.315l1.782-1.52c.632.2,1.241.361,1.84.5V64.2a4.7,4.7,0,0,0,4.362,4.789c.079,0,.161.006.24.006a4.6,4.6,0,0,0,4.6-4.6l.006-1.528c.6-.137,1.206-.294,1.84-.5l1.778,1.518a2.262,2.262,0,0,0,1.468.548,2.112,2.112,0,0,0,.949-.222c.483-.23.954-.483,1.428-.751s.944-.565,1.38-.865a2.155,2.155,0,0,0,.508-.509H64.389a4.6,4.6,0,0,0,4.6-4.6V4.6a4.6,4.6,0,0,0-4.6-4.6ZM4.6,2.3h59.79a2.3,2.3,0,0,1,2.3,2.3v9.2H2.3V4.6A2.3,2.3,0,0,1,4.6,2.3ZM31.045,32.511a2.29,2.29,0,0,0-2.32.006,11.523,11.523,0,0,0-5.716,10.371,11.705,11.705,0,0,0,6.886,10.177v2.482a13.8,13.8,0,1,1,9.229-.012l.008-2.479a11.56,11.56,0,0,0,1.131-20.542,2.308,2.308,0,0,0-3.47,1.991v6.876a2.3,2.3,0,0,1-.712,1.676,2.351,2.351,0,0,1-1.7.635,2.455,2.455,0,0,1-2.185-2.507v-6.68a2.278,2.278,0,0,0-1.15-1.995Zm5.749,20.561V64.389a2.3,2.3,0,0,1-2.415,2.3A2.431,2.431,0,0,1,32.195,64.2V53.046a2.326,2.326,0,0,0-1.387-2.105,9.35,9.35,0,0,1-5.5-8.133,9.2,9.2,0,0,1,4.589-8.3v6.68a4.721,4.721,0,0,0,4.362,4.806,4.6,4.6,0,0,0,4.836-4.611L39.1,34.5a9.258,9.258,0,0,1-.9,16.45,2.331,2.331,0,0,0-1.41,2.119Zm8.634,8.384c-.424.239-.851.469-1.219.678l-2.275-1.942a1.15,1.15,0,0,0-1.128-.21c-.588.206-1.15.373-1.7.515l.008-2.545a16.1,16.1,0,1,0-9.22,0v2.542c-.554-.144-1.12-.31-1.712-.519a1.143,1.143,0,0,0-1.128.21l-2.208,1.941c-.436-.208-.862-.438-1.284-.676s-.824-.493-1.183-.708l.551-2.945a1.15,1.15,0,0,0-.391-1.092A17.671,17.671,0,0,1,20.325,54.5a1.162,1.162,0,0,0-1.092-.391l-2.893.575c-.267-.385-.523-.793-.759-1.208s-.469-.851-.676-1.221l1.942-2.288a1.15,1.15,0,0,0,.207-1.129,18.785,18.785,0,0,1-.814-3.023,1.15,1.15,0,0,0-.747-.884L12.7,43.967c-.043-.471-.053-.942-.053-1.425s.01-.953.028-1.389l2.817-1a1.15,1.15,0,0,0,.747-.884,18.786,18.786,0,0,1,.814-3.023,1.15,1.15,0,0,0-.207-1.129L14.9,32.9c.208-.436.438-.862.676-1.284s.493-.826.708-1.183l2.945.551a1.177,1.177,0,0,0,1.092-.391,17.671,17.671,0,0,1,2.211-2.215,1.15,1.15,0,0,0,.391-1.092l-.575-2.893c.386-.267.793-.523,1.208-.759s.851-.469,1.221-.676L27.07,24.9A1.15,1.15,0,0,0,28.2,25.1a18.785,18.785,0,0,1,3.023-.814,1.15,1.15,0,0,0,.884-.747l.964-2.792a21.989,21.989,0,0,1,2.814-.025l1,2.817a1.15,1.15,0,0,0,.884.747,18.786,18.786,0,0,1,3.023.814,1.15,1.15,0,0,0,1.129-.207l2.223-1.943c.436.208.862.438,1.284.676s.824.493,1.183.708l-.551,2.945a1.15,1.15,0,0,0,.391,1.092,17.671,17.671,0,0,1,2.215,2.211,1.173,1.173,0,0,0,1.092.391l2.893-.575c.267.385.523.793.759,1.208s.469.851.676,1.221l-1.942,2.288a1.15,1.15,0,0,0-.207,1.129,18.785,18.785,0,0,1,.814,3.023,1.15,1.15,0,0,0,.747.884l2.792.964c.043.471.053.942.053,1.425s-.01.953-.028,1.389l-2.817,1a1.15,1.15,0,0,0-.747.884,18.785,18.785,0,0,1-.814,3.023,1.15,1.15,0,0,0,.207,1.129l1.943,2.223c-.208.436-.438.862-.676,1.284s-.493.826-.708,1.183l-2.945-.551a1.158,1.158,0,0,0-1.092.391,17.671,17.671,0,0,1-2.211,2.215,1.15,1.15,0,0,0-.391,1.092l.575,2.893c-.386.267-.793.523-1.208.759ZM64.389,59.79H48.77l-.33-1.759a20.322,20.322,0,0,0,1.542-1.542l2.292.429A2.232,2.232,0,0,0,54.538,56c.307-.444.6-.909.873-1.39s.52-.943.74-1.406a2.218,2.218,0,0,0-.313-2.433l-1.522-1.787a20.835,20.835,0,0,0,.567-2.1l2.206-.782a2.231,2.231,0,0,0,1.489-1.92c.049-.547.062-1.088.062-1.64s-.013-1.092-.061-1.62a2.236,2.236,0,0,0-1.495-1.936l-2.2-.78a20.835,20.835,0,0,0-.567-2.1l1.518-1.787a2.209,2.209,0,0,0,.327-2.415c-.23-.483-.483-.954-.751-1.428s-.565-.945-.865-1.38a2.241,2.241,0,0,0-2.266-.935l-2.3.43a20.322,20.322,0,0,0-1.542-1.542l.429-2.292a2.227,2.227,0,0,0-.92-2.264c-.444-.307-.909-.6-1.39-.873s-.943-.52-1.406-.74a2.218,2.218,0,0,0-2.433.314l-1.787,1.522a20.836,20.836,0,0,0-2.1-.567l-.783-2.206a2.227,2.227,0,0,0-1.919-1.495,18.093,18.093,0,0,0-3.254,0,2.236,2.236,0,0,0-1.936,1.495l-.78,2.2a20.835,20.835,0,0,0-2.1.567L26.28,21.2a2.2,2.2,0,0,0-2.415-.327c-.483.23-.954.483-1.428.751s-.944.565-1.38.865a2.229,2.229,0,0,0-.935,2.266l.43,2.3a20.322,20.322,0,0,0-1.542,1.542l-2.3-.422a2.231,2.231,0,0,0-2.264.92c-.307.443-.6.909-.873,1.39s-.52.943-.74,1.406a2.216,2.216,0,0,0,.314,2.433l1.521,1.79a20.835,20.835,0,0,0-.567,2.1l-2.206.782a2.231,2.231,0,0,0-1.489,1.92c-.049.542-.062,1.082-.062,1.634s.013,1.092.061,1.62A2.236,2.236,0,0,0,11.9,46.1l2.2.78a20.835,20.835,0,0,0,.567,2.1l-1.518,1.787a2.209,2.209,0,0,0-.327,2.415c.23.483.483.954.751,1.428s.565.944.865,1.38a2.243,2.243,0,0,0,2.266.935l2.3-.43a20.322,20.322,0,0,0,1.542,1.542l-.329,1.758H4.6a2.3,2.3,0,0,1-2.3-2.3V16.1H66.689V57.49A2.3,2.3,0,0,1,64.389,59.79Z" fill="#f80"/>
  <path id="Shape-2" data-name="Shape" d="M7.449,10.9A3.449,3.449,0,1,0,4,7.449,3.449,3.449,0,0,0,7.449,10.9Zm0-4.6A1.15,1.15,0,1,1,6.3,7.449,1.15,1.15,0,0,1,7.449,6.3Z" transform="translate(0.599 0.599)" fill="#f80"/>
  <path id="Shape-3" data-name="Shape" d="M15.449,10.9A3.449,3.449,0,1,0,12,7.449,3.449,3.449,0,0,0,15.449,10.9Zm0-4.6a1.15,1.15,0,1,1-1.15,1.15A1.15,1.15,0,0,1,15.449,6.3Z" transform="translate(1.798 0.599)" fill="#f80"/>
  <path id="Shape-4" data-name="Shape" d="M23.449,10.9A3.449,3.449,0,1,0,20,7.449,3.449,3.449,0,0,0,23.449,10.9Zm0-4.6a1.15,1.15,0,1,1-1.15,1.15A1.15,1.15,0,0,1,23.449,6.3Z" transform="translate(2.996 0.599)" fill="#f80"/>
  <path id="Shape-5" data-name="Shape" d="M43.449,10.9h11.5a3.449,3.449,0,0,0,0-6.9h-11.5a3.449,3.449,0,1,0,0,6.9Zm0-4.6h11.5a1.15,1.15,0,1,1,0,2.3h-11.5a1.15,1.15,0,1,1,0-2.3Z" transform="translate(5.992 0.599)" fill="#f80"/>
  <path id="Shape-6" data-name="Shape" d="M13.2,16H5.15a1.15,1.15,0,0,0,0,2.3H13.2a1.15,1.15,0,1,0,0-2.3Z" transform="translate(0.599 2.397)" fill="#f80"/>
  <path id="Shape-7" data-name="Shape" d="M56.2,16H48.15a1.15,1.15,0,0,0,0,2.3H56.2a1.15,1.15,0,0,0,0-2.3Z" transform="translate(7.041 2.397)" fill="#f80"/>
</svg>
