<svg xmlns="http://www.w3.org/2000/svg" width="23.585" height="23.524" viewBox="0 0 23.585 23.524">
  <g id="premium" transform="translate(0.001 -0.66)">
    <g id="Group_1067" data-name="Group 1067" transform="translate(2.585 0.716)">
      <g id="Group_1066" data-name="Group 1066">
        <path id="Path_6170" data-name="Path 6170" d="M74.5,22.992,70.92,16.8l1.16-.559A.346.346,0,0,0,72.268,16l.411-1.8L73.83,12.76a.346.346,0,0,0,.067-.293l-.411-1.8.411-1.8a.346.346,0,0,0-.067-.293L72.679,7.131l-.411-1.8a.346.346,0,0,0-.187-.235l-1.664-.8L69.266,2.851A.346.346,0,0,0,69,2.721H67.149l-1.664-.8a.346.346,0,0,0-.3,0l-1.664.8H61.675a.346.346,0,0,0-.271.13L60.253,4.294l-1.664.8a.346.346,0,0,0-.187.235l-.411,1.8L56.84,8.574a.346.346,0,0,0-.067.293l.411,1.8-.411,1.8a.346.346,0,0,0,.067.293L57.991,14.2,58.4,16a.346.346,0,0,0,.187.235l1.16.559-3.576,6.194a.349.349,0,0,0,.389.507l2.188-.586.586,2.188a.349.349,0,0,0,.634.084l3.74-6.479,1.474.71a.349.349,0,0,0,.3,0l1.474-.71,3.74,6.479a.349.349,0,0,0,.634-.084l.586-2.188,2.188.586A.349.349,0,0,0,74.5,22.992ZM59.789,24.114,59.33,22.4a.35.35,0,0,0-.424-.245l-1.715.459,3.153-5.46,1.061,1.33a.346.346,0,0,0,.271.13h1.29Zm7.131-6.158-1.585.763-1.585-.763a.346.346,0,0,0-.15-.034H61.841l-1.1-1.375a.345.345,0,0,0-.12-.1l-1.585-.763-.391-1.715a.345.345,0,0,0-.067-.139l-1.1-1.375.391-1.715a.345.345,0,0,0,0-.154l-.391-1.715,1.1-1.375a.346.346,0,0,0,.067-.139l.391-1.715,1.585-.763a.345.345,0,0,0,.12-.1l1.1-1.375H63.6a.347.347,0,0,0,.15-.034l1.585-.763,1.585.763a.346.346,0,0,0,.15.034h1.759l1.1,1.375a.345.345,0,0,0,.12.1l1.585.763.391,1.715a.345.345,0,0,0,.067.139l1.1,1.375-.391,1.715a.345.345,0,0,0,0,.154l.391,1.715-1.1,1.375a.346.346,0,0,0-.067.139l-.391,1.715-1.585.763a.345.345,0,0,0-.12.1l-1.1,1.375H67.07A.348.348,0,0,0,66.92,17.956Zm4.845,4.2a.35.35,0,0,0-.424.245l-.459,1.715-3.176-5.5H69a.346.346,0,0,0,.271-.13l1.061-1.33,3.153,5.46Z" transform="translate(-56.128 -1.885)"/>
      </g>
    </g>
    <g id="Group_1069" data-name="Group 1069" transform="translate(5.168 2.875)">
      <g id="Group_1068" data-name="Group 1068">
        <path id="Path_6171" data-name="Path 6171" d="M123.444,50.614a.346.346,0,1,0-.481.5,5.915,5.915,0,1,1-1.328-.968.346.346,0,1,0,.327-.61,6.631,6.631,0,1,0,1.482,1.08Z" transform="translate(-112.219 -48.754)"/>
      </g>
    </g>
    <g id="Group_1071" data-name="Group 1071" transform="translate(7.015 5.829)">
      <g id="Group_1070" data-name="Group 1070">
        <path id="Path_6172" data-name="Path 6172" d="M161.782,114.494l-1.108-1.477a.346.346,0,0,0-.277-.138h-6.646a.346.346,0,0,0-.277.138l-1.108,1.477a.35.35,0,0,0-.069.208v1.477a.348.348,0,0,0,.083.225l4.429,5.167a.35.35,0,0,0,.53,0l4.429-5.167a.348.348,0,0,0,.083-.225V114.7A.35.35,0,0,0,161.782,114.494Zm-1.558-.923.588.785h-1.35l-.588-.785Zm-1.281,1.477v.785H155.2v-.785Zm-2.8-1.477h1.869l.588.785h-3.046Zm-2.215,0h1.35l-.588.785h-1.35Zm-.935,1.477h1.523v.785h-1.523Zm.406,1.477h1.235l1.235,2.881Zm3.678,3.945-1.69-3.944h3.381Zm1.209-1.064,1.235-2.881h1.235Zm2.876-3.573h-1.523v-.785h1.523Z" transform="translate(-152.297 -112.879)"/>
      </g>
    </g>
    <g id="Group_1073" data-name="Group 1073" transform="translate(-0.001 10.63)">
      <g id="Group_1072" data-name="Group 1072" transform="translate(0)">
        <path id="Path_6173" data-name="Path 6173" d="M3.3,219.668c-.535,0-1.131-.919-1.131-2.239a.346.346,0,1,0-.692,0c0,1.319-.6,2.239-1.131,2.239a.346.346,0,0,0,0,.692c.535,0,1.131.919,1.131,2.239a.346.346,0,0,0,.692,0c0-1.319.6-2.239,1.131-2.239a.346.346,0,0,0,0-.692Zm-1.477,1.192a2.418,2.418,0,0,0-.6-.846,2.419,2.419,0,0,0,.6-.846,2.418,2.418,0,0,0,.6.846A2.419,2.419,0,0,0,1.822,220.859Z" transform="translate(0.001 -217.083)"/>
      </g>
    </g>
    <g id="Group_1075" data-name="Group 1075" transform="translate(20.677 16.907)">
      <g id="Group_1074" data-name="Group 1074">
        <path id="Path_6174" data-name="Path 6174" d="M451.438,354.826c-.413,0-.762-.518-.762-1.131a.346.346,0,1,0-.692,0c0,.613-.349,1.131-.762,1.131a.346.346,0,1,0,0,.692c.413,0,.762.518.762,1.131a.346.346,0,0,0,.692,0c0-.613.349-1.131.762-1.131a.346.346,0,1,0,0-.692Zm-1.108.644a.3.3,0,0,1,0-.595.3.3,0,0,1,0,.595Z" transform="translate(-448.876 -353.349)"/>
      </g>
    </g>
    <g id="Group_1077" data-name="Group 1077" transform="translate(18.461 0.66)">
      <g id="Group_1076" data-name="Group 1076" transform="translate(0 0)">
        <path id="Path_6175" data-name="Path 6175" d="M403.344,2.137c-.413,0-.762-.518-.762-1.131a.346.346,0,0,0-.692,0c0,.613-.349,1.131-.762,1.131a.346.346,0,1,0,0,.692c.413,0,.762.518.762,1.131a.346.346,0,0,0,.692,0c0-.613.349-1.131.762-1.131a.346.346,0,0,0,0-.692Zm-1.108.643a1.665,1.665,0,0,0-.256-.3.259.259,0,1,1,.513,0A1.667,1.667,0,0,0,402.236,2.78Z" transform="translate(-400.782 -0.66)"/>
      </g>
    </g>
  </g>
</svg>
