<svg xmlns="http://www.w3.org/2000/svg" width="80" height="80" viewBox="0 0 80 80">
  <g id="big-data" transform="translate(-1 -1)">
    <path id="Path_8077" data-name="Path 8077" d="M79.152,51.625,65.169,38.64A20.612,20.612,0,0,0,39.71,8.972v-4.1A3.876,3.876,0,0,0,35.839,1H4.871A3.876,3.876,0,0,0,1,4.871V25.516a3.876,3.876,0,0,0,3.871,3.871h7.208L18.8,36.112C11.106,38.1,6.161,41.8,6.161,46.161V69.387C6.161,75.9,17.5,81,31.968,81s25.806-5.1,25.806-11.613V46.161c0-.072-.01-.134-.014-.2.08-.046.156-.1.235-.143L70.983,59.8a5.783,5.783,0,1,0,8.169-8.177ZM65.516,28.1A18.065,18.065,0,1,1,47.452,10.032,18.084,18.084,0,0,1,65.516,28.1ZM32.507,42.3a20.591,20.591,0,0,0,11.64,6.152,43.77,43.77,0,0,1-12.179,1.581c-9.693,0-15.417-2.466-17.43-3.871,2.013-1.405,7.737-3.871,17.43-3.871C32.152,42.29,32.329,42.3,32.507,42.3Zm-.539-27.812a20.688,20.688,0,0,0-2.581,3.637v-6.8h2.581ZM4.871,26.806a1.292,1.292,0,0,1-1.29-1.29V4.871a1.292,1.292,0,0,1,1.29-1.29H35.839a1.292,1.292,0,0,1,1.29,1.29v5.374a20.78,20.78,0,0,0-2.581,1.761V8.742H26.806v12.9H24.226V6.161H16.484V21.645H13.9V11.323H6.161v12.9H27.183a20.7,20.7,0,0,0-.311,2.581H21.645v7.208a.555.555,0,0,1-.912.378l-7.586-7.586Zm16.774-5.161H19.065V8.742h2.581ZM11.323,13.9v7.742H8.742V13.9Zm12.9,20.111V29.387h2.646A20.465,20.465,0,0,0,27.91,34.7q-2.009.135-3.889.4a3.081,3.081,0,0,0,.205-1.083Zm4.735,3.21a20.755,20.755,0,0,0,1.455,2.515c-10.533.294-17.422,3.516-18.825,5.732l-.436.69.437.69c1.471,2.323,8.963,5.761,20.374,5.761,9.05,0,15.465-2.1,18.573-4.128A20.487,20.487,0,0,0,54.985,47.3C53.392,52,42.15,55.194,31.968,55.194c-10.986,0-23.226-3.71-23.226-9.032,0-3.852,7.714-8.284,20.219-8.937Zm3.006,41.195c-10.986,0-23.226-3.71-23.226-9.032V66.76c4.137,3.876,12.865,6.5,23.226,6.5s19.089-2.622,23.226-6.5v2.627C55.194,74.71,42.954,78.419,31.968,78.419Zm0-7.742c-10.986,0-23.226-3.71-23.226-9.032V59.018c4.137,3.876,12.865,6.5,23.226,6.5s19.089-2.622,23.226-6.5v2.627C55.194,66.968,42.954,70.677,31.968,70.677Zm0-7.742c-10.986,0-23.226-3.71-23.226-9.032V51.276c4.137,3.876,12.865,6.5,23.226,6.5s19.089-2.622,23.226-6.5V53.9C55.194,59.226,42.954,62.935,31.968,62.935Zm43.25-3.871a3.206,3.206,0,0,1-2.343-1.019l-12.726-13.7A20.782,20.782,0,0,0,63.7,40.795l13.7,12.72a3.2,3.2,0,0,1-2.178,5.55Z" transform="translate(0)" fill="#f80"/>
    <path id="Path_8078" data-name="Path 8078" d="M40.452,40.9A15.452,15.452,0,1,0,25,25.452,15.469,15.469,0,0,0,40.452,40.9Zm0-28.328A12.876,12.876,0,1,1,27.575,25.452,12.891,12.891,0,0,1,40.452,12.575Z" transform="translate(7.008 2.589)" fill="#f80"/>
    <path id="Path_8079" data-name="Path 8079" d="M44.726,24.3H47.3A10.313,10.313,0,0,0,37,14v2.575A7.734,7.734,0,0,1,44.726,24.3Z" transform="translate(10.466 3.779)" fill="#f80"/>
  </g>
</svg>
