<svg xmlns="http://www.w3.org/2000/svg" width="40.002" height="40" viewBox="0 0 40.002 40">
  <g id="servers" transform="translate(0)">
    <g id="Group_2873" data-name="Group 2873" transform="translate(0)">
      <g id="Group_2872" data-name="Group 2872" transform="translate(0 0)">
        <path id="Path_12307" data-name="Path 12307" d="M270.451,405.323h-13.6a.85.85,0,0,0,0,1.7h13.6a.85.85,0,1,0,0-1.7Z" transform="translate(-236.4 -373.684)" fill="#f80"/>
        <path id="Path_12308" data-name="Path 12308" d="M270.451,447.989h-13.6a.85.85,0,0,0,0,1.7h13.6a.85.85,0,1,0,0-1.7Z" transform="translate(-236.4 -413.089)" fill="#f80"/>
        <path id="Path_12309" data-name="Path 12309" d="M45.217,405.323a2.55,2.55,0,1,0,2.55,2.55A2.553,2.553,0,0,0,45.217,405.323Zm0,3.4a.85.85,0,1,1,.85-.85A.85.85,0,0,1,45.217,408.723Z" transform="translate(-39.267 -373.824)" fill="#f80"/>
        <path id="Path_12310" data-name="Path 12310" d="M45.217,277.323a2.55,2.55,0,1,0,2.55,2.55A2.553,2.553,0,0,0,45.217,277.323Zm0,3.4a.85.85,0,1,1,.85-.85A.85.85,0,0,1,45.217,280.723Z" transform="translate(-39.267 -255.719)" fill="#f80"/>
        <path id="Path_12311" data-name="Path 12311" d="M270.451,191.989h-13.6a.85.85,0,0,0,0,1.7h13.6a.85.85,0,1,0,0-1.7Z" transform="translate(-236.4 -177.003)" fill="#f80"/>
        <path id="Path_12312" data-name="Path 12312" d="M40,15.843V12.51a4.13,4.13,0,0,0-.632-2.178c-.012-.023-.013-.05-.027-.072L34.19,1.976A4.143,4.143,0,0,0,30.651.011H9.355A4.141,4.141,0,0,0,5.817,1.976L.663,10.26c-.008.013-.008.028-.017.043A4.133,4.133,0,0,0,0,12.51v3.334a4.152,4.152,0,0,0,1.693,3.334A4.154,4.154,0,0,0,0,22.51v3.334a4.152,4.152,0,0,0,1.693,3.334A4.154,4.154,0,0,0,0,32.511v3.334a4.173,4.173,0,0,0,4.167,4.167H35.835A4.173,4.173,0,0,0,40,35.844V32.511a4.152,4.152,0,0,0-1.693-3.334A4.151,4.151,0,0,0,40,25.844V22.51a4.152,4.152,0,0,0-1.693-3.334A4.149,4.149,0,0,0,40,15.843ZM7.232,2.856a2.483,2.483,0,0,1,2.122-1.18h21.3a2.483,2.483,0,0,1,2.122,1.18L36.21,8.381c-.125-.012-.247-.038-.375-.038H4.167c-.128,0-.248.027-.373.038Zm31.1,29.655v3.334a2.5,2.5,0,0,1-2.5,2.5H4.167a2.5,2.5,0,0,1-2.5-2.5V32.511a2.5,2.5,0,0,1,2.5-2.5H35.835A2.5,2.5,0,0,1,38.335,32.511Zm0-10v3.334a2.5,2.5,0,0,1-2.5,2.5H4.167a2.5,2.5,0,0,1-2.5-2.5V22.51a2.5,2.5,0,0,1,2.5-2.5H35.835A2.5,2.5,0,0,1,38.335,22.51Zm0-6.667a2.5,2.5,0,0,1-2.5,2.5H4.167a2.5,2.5,0,0,1-2.5-2.5V12.51a2.5,2.5,0,0,1,2.5-2.5H35.835a2.5,2.5,0,0,1,2.5,2.5v3.334Z" transform="translate(0 -0.011)" fill="#f80"/>
        <path id="Path_12313" data-name="Path 12313" d="M270.451,149.323h-13.6a.85.85,0,1,0,0,1.7h13.6a.85.85,0,1,0,0-1.7Z" transform="translate(-236.4 -137.668)" fill="#f80"/>
        <path id="Path_12314" data-name="Path 12314" d="M270.451,319.989h-13.6a.85.85,0,0,0,0,1.7h13.6a.85.85,0,1,0,0-1.7Z" transform="translate(-236.4 -295.011)" fill="#f80"/>
        <path id="Path_12315" data-name="Path 12315" d="M270.451,277.323h-13.6a.85.85,0,0,0,0,1.7h13.6a.85.85,0,1,0,0-1.7Z" transform="translate(-236.4 -255.676)" fill="#f80"/>
        <path id="Path_12316" data-name="Path 12316" d="M45.217,149.323a2.55,2.55,0,1,0,2.55,2.55A2.553,2.553,0,0,0,45.217,149.323Zm0,3.4a.85.85,0,1,1,.85-.85A.85.85,0,0,1,45.217,152.723Z" transform="translate(-39.267 -137.691)" fill="#f80"/>
      </g>
    </g>
  </g>
</svg>
