<svg xmlns="http://www.w3.org/2000/svg" width="109.6" height="109.6" viewBox="0 0 109.6 109.6">
  <g id="database_server-1" data-name="database server-1" transform="translate(-1.2 -1.2)">
    <path id="Path_8105" data-name="Path 8105" d="M77.276,34.418A5.375,5.375,0,0,0,72.2,30.8H70.4V27.2h1.8a5.416,5.416,0,0,0,5.4-5.4V7.4A5.416,5.416,0,0,0,72.2,2H7.4A5.416,5.416,0,0,0,2,7.4V21.8a5.416,5.416,0,0,0,5.4,5.4H9.2v3.6H7.4A5.416,5.416,0,0,0,2,36.2V50.6A5.416,5.416,0,0,0,7.4,56H9.2v3.6H7.4A5.416,5.416,0,0,0,2,65V79.4a5.416,5.416,0,0,0,5.4,5.4H41.6V99.2c0,7.092,17.208,10.8,34.2,10.8S110,106.292,110,99.2v-54C110,38.306,93.782,34.634,77.276,34.418ZM7.4,23.6a1.8,1.8,0,0,1-1.8-1.8V7.4A1.8,1.8,0,0,1,7.4,5.6H72.2A1.8,1.8,0,0,1,74,7.4V21.8a1.8,1.8,0,0,1-1.8,1.8Zm59.4,3.6v3.6H59.6V27.2ZM56,27.2v3.6H23.6V27.2Zm-36,0v3.6H12.8V27.2Zm21.6,54H7.4a1.8,1.8,0,0,1-1.8-1.8V65a1.8,1.8,0,0,1,1.8-1.8H41.6ZM12.8,59.6V56H20v3.6Zm28.8,0h-18V56h18Zm0-14.4v7.2H7.4a1.8,1.8,0,0,1-1.8-1.8V36.2a1.8,1.8,0,0,1,1.8-1.8H72.2a1.261,1.261,0,0,1,.252.054C56.612,34.9,41.6,38.576,41.6,45.2Zm64.8,54c0,2.448-10.8,7.2-30.6,7.2s-30.6-4.752-30.6-7.2V86.276C51.122,90.038,63.488,92,75.8,92s24.678-1.962,30.6-5.724Zm0-18c0,2.448-10.8,7.2-30.6,7.2s-30.6-4.752-30.6-7.2V68.276C51.122,72.038,63.488,74,75.8,74s24.678-1.962,30.6-5.724Zm0-18c0,2.448-10.8,7.2-30.6,7.2s-30.6-4.752-30.6-7.2V50.276C51.122,54.038,63.488,56,75.8,56s24.678-1.962,30.6-5.724ZM75.8,52.4c-19.8,0-30.6-4.752-30.6-7.2S56,38,75.8,38s30.6,4.752,30.6,7.2S95.6,52.4,75.8,52.4Z" transform="translate(0 0)" fill="#f80" stroke="#fff" stroke-width="1.6"/>
    <path id="Path_8106" data-name="Path 8106" d="M42,35h3.6v3.6H42Z" transform="translate(32 26.4)" fill="#292828" stroke="#fff" stroke-width="1.6"/>
    <path id="Path_8107" data-name="Path 8107" d="M42,46h3.6v3.6H42Z" transform="translate(32 35.2)" fill="#292828" stroke="#fff" stroke-width="1.6"/>
    <path id="Path_8108" data-name="Path 8108" d="M42,55h3.6v3.6H42Z" transform="translate(32 42.4)" fill="#292828" stroke="#fff" stroke-width="1.6"/>
    <path id="Path_8109" data-name="Path 8109" d="M15,22H7.8A1.8,1.8,0,0,0,6,23.8V31a1.8,1.8,0,0,0,1.8,1.8H15A1.8,1.8,0,0,0,16.8,31V23.8A1.8,1.8,0,0,0,15,22Zm-1.8,7.2H9.6V25.6h3.6Z" transform="translate(3.2 16)" fill="#292828" stroke="#fff" stroke-width="1.6"/>
    <path id="Path_8110" data-name="Path 8110" d="M23,22H15.8A1.8,1.8,0,0,0,14,23.8V31a1.8,1.8,0,0,0,1.8,1.8H23A1.8,1.8,0,0,0,24.8,31V23.8A1.8,1.8,0,0,0,23,22Zm-1.8,7.2H17.6V25.6h3.6Z" transform="translate(9.6 16)" fill="#292828" stroke="#fff" stroke-width="1.6"/>
    <path id="Path_8111" data-name="Path 8111" d="M15,6H7.8A1.8,1.8,0,0,0,6,7.8V15a1.8,1.8,0,0,0,1.8,1.8H15A1.8,1.8,0,0,0,16.8,15V7.8A1.8,1.8,0,0,0,15,6Zm-1.8,7.2H9.6V9.6h3.6Z" transform="translate(3.2 3.2)" fill="#f80" stroke="#fff" stroke-width="1.6"/>
    <path id="Path_8112" data-name="Path 8112" d="M23,6H15.8A1.8,1.8,0,0,0,14,7.8V15a1.8,1.8,0,0,0,1.8,1.8H23A1.8,1.8,0,0,0,24.8,15V7.8A1.8,1.8,0,0,0,23,6Zm-1.8,7.2H17.6V9.6h3.6Z" transform="translate(9.6 3.2)" fill="#f80" stroke="#fff" stroke-width="1.6"/>
    <path id="Path_8113" data-name="Path 8113" d="M22,6H47.2V9.6H22Z" transform="translate(16 3.2)" fill="#f80" stroke="#fff" stroke-width="1.6"/>
    <path id="Path_8114" data-name="Path 8114" d="M38,6h3.6V9.6H38Z" transform="translate(28.8 3.2)" fill="#f80" stroke="#fff" stroke-width="1.6"/>
    <path id="Path_8115" data-name="Path 8115" d="M22,10H47.2v3.6H22Z" transform="translate(16 6.4)" fill="#f80" stroke="#fff" stroke-width="1.6"/>
    <path id="Path_8116" data-name="Path 8116" d="M38,10h3.6v3.6H38Z" transform="translate(28.8 6.4)" fill="#f80" stroke="#fff" stroke-width="1.6"/>
    <path id="Path_8117" data-name="Path 8117" d="M15,38H7.8A1.8,1.8,0,0,0,6,39.8V47a1.8,1.8,0,0,0,1.8,1.8H15A1.8,1.8,0,0,0,16.8,47V39.8A1.8,1.8,0,0,0,15,38Zm-1.8,7.2H9.6V41.6h3.6Z" transform="translate(3.2 28.8)" fill="#f80" stroke="#fff" stroke-width="1.6"/>
    <path id="Path_8118" data-name="Path 8118" d="M23,38H15.8A1.8,1.8,0,0,0,14,39.8V47a1.8,1.8,0,0,0,1.8,1.8H23A1.8,1.8,0,0,0,24.8,47V39.8A1.8,1.8,0,0,0,23,38Zm-1.8,7.2H17.6V41.6h3.6Z" transform="translate(9.6 28.8)" fill="#f80" stroke="#fff" stroke-width="1.6"/>
  </g>
</svg>
