<svg xmlns="http://www.w3.org/2000/svg" width="71.709" height="71.709" viewBox="0 0 71.709 71.709">
  <g id="database_server" data-name="database server" transform="translate(-2 -2)">
    <path id="Path_8512" data-name="Path 8512" d="M51.981,23.525a3.569,3.569,0,0,0-3.37-2.4h-1.2v-2.39h1.2A3.6,3.6,0,0,0,52.2,15.147V5.585A3.6,3.6,0,0,0,48.611,2H5.585A3.6,3.6,0,0,0,2,5.585v9.561a3.6,3.6,0,0,0,3.585,3.585h1.2v2.39h-1.2A3.6,3.6,0,0,0,2,24.708v9.561a3.6,3.6,0,0,0,3.585,3.585h1.2v2.39h-1.2A3.6,3.6,0,0,0,2,43.83v9.561a3.6,3.6,0,0,0,3.585,3.585H28.293v9.561c0,4.709,11.426,7.171,22.708,7.171s22.708-2.462,22.708-7.171V30.684C73.709,26.106,62.941,23.668,51.981,23.525Zm-46.4-7.183a1.2,1.2,0,0,1-1.2-1.2V5.585a1.2,1.2,0,0,1,1.2-1.2H48.611a1.2,1.2,0,0,1,1.2,1.2v9.561a1.2,1.2,0,0,1-1.2,1.2Zm39.44,2.39v2.39H40.245v-2.39Zm-7.171,0v2.39H16.342v-2.39Zm-23.9,0v2.39H9.171v-2.39ZM28.293,54.587H5.585a1.2,1.2,0,0,1-1.2-1.2V43.83a1.2,1.2,0,0,1,1.2-1.2H28.293ZM9.171,40.245v-2.39h4.781v2.39Zm19.122,0H16.342v-2.39H28.293Zm0-9.561v4.781H5.585a1.2,1.2,0,0,1-1.2-1.2V24.708a1.2,1.2,0,0,1,1.2-1.2H48.611a.837.837,0,0,1,.167.036C38.261,23.847,28.293,26.285,28.293,30.684ZM71.319,66.538c0,1.625-7.171,4.781-20.318,4.781s-20.318-3.155-20.318-4.781V57.957c3.932,2.5,12.143,3.8,20.318,3.8s16.385-1.3,20.318-3.8Zm0-11.951c0,1.625-7.171,4.781-20.318,4.781s-20.318-3.155-20.318-4.781V46.005c3.932,2.5,12.143,3.8,20.318,3.8s16.385-1.3,20.318-3.8Zm0-11.951c0,1.625-7.171,4.781-20.318,4.781S30.684,44.26,30.684,42.635V34.054c3.932,2.5,12.143,3.8,20.318,3.8s16.385-1.3,20.318-3.8ZM51,35.464c-13.147,0-20.318-3.155-20.318-4.781S37.854,25.9,51,25.9s20.318,3.155,20.318,4.781S64.148,35.464,51,35.464Z" transform="translate(0 0)" fill="#fff"/>
    <path id="Path_8513" data-name="Path 8513" d="M42,35h2.39v2.39H42Z" transform="translate(7.806 6.44)" fill="#fff"/>
    <path id="Path_8514" data-name="Path 8514" d="M42,46h2.39v2.39H42Z" transform="translate(7.806 8.587)" fill="#fff"/>
    <path id="Path_8515" data-name="Path 8515" d="M42,55h2.39v2.39H42Z" transform="translate(7.806 10.343)" fill="#fff"/>
    <path id="Path_8516" data-name="Path 8516" d="M11.976,22H7.2A1.2,1.2,0,0,0,6,23.2v4.781a1.2,1.2,0,0,0,1.2,1.2h4.781a1.2,1.2,0,0,0,1.2-1.2V23.2A1.2,1.2,0,0,0,11.976,22Zm-1.2,4.781H8.39V24.39h2.39Z" transform="translate(0.781 3.903)" fill="#fff"/>
    <path id="Path_8517" data-name="Path 8517" d="M19.976,22H15.2A1.2,1.2,0,0,0,14,23.2v4.781a1.2,1.2,0,0,0,1.2,1.2h4.781a1.2,1.2,0,0,0,1.2-1.2V23.2A1.2,1.2,0,0,0,19.976,22Zm-1.2,4.781H16.39V24.39h2.39Z" transform="translate(2.342 3.903)" fill="#fff"/>
    <path id="Path_8518" data-name="Path 8518" d="M11.976,6H7.2A1.2,1.2,0,0,0,6,7.2v4.781a1.2,1.2,0,0,0,1.2,1.2h4.781a1.2,1.2,0,0,0,1.2-1.2V7.2A1.2,1.2,0,0,0,11.976,6Zm-1.2,4.781H8.39V8.39h2.39Z" transform="translate(0.781 0.781)" fill="#fff"/>
    <path id="Path_8519" data-name="Path 8519" d="M19.976,6H15.2A1.2,1.2,0,0,0,14,7.2v4.781a1.2,1.2,0,0,0,1.2,1.2h4.781a1.2,1.2,0,0,0,1.2-1.2V7.2A1.2,1.2,0,0,0,19.976,6Zm-1.2,4.781H16.39V8.39h2.39Z" transform="translate(2.342 0.781)" fill="#fff"/>
    <path id="Path_8520" data-name="Path 8520" d="M22,6H38.732V8.39H22Z" transform="translate(3.903 0.781)" fill="#fff"/>
    <path id="Path_8521" data-name="Path 8521" d="M38,6h2.39V8.39H38Z" transform="translate(7.025 0.781)" fill="#fff"/>
    <path id="Path_8522" data-name="Path 8522" d="M22,10H38.732v2.39H22Z" transform="translate(3.903 1.561)" fill="#fff"/>
    <path id="Path_8523" data-name="Path 8523" d="M38,10h2.39v2.39H38Z" transform="translate(7.025 1.561)" fill="#fff"/>
    <path id="Path_8524" data-name="Path 8524" d="M11.976,38H7.2A1.2,1.2,0,0,0,6,39.2v4.781a1.2,1.2,0,0,0,1.2,1.2h4.781a1.2,1.2,0,0,0,1.2-1.2V39.2A1.2,1.2,0,0,0,11.976,38Zm-1.2,4.781H8.39V40.39h2.39Z" transform="translate(0.781 7.025)" fill="#fff"/>
    <path id="Path_8525" data-name="Path 8525" d="M19.976,38H15.2A1.2,1.2,0,0,0,14,39.2v4.781a1.2,1.2,0,0,0,1.2,1.2h4.781a1.2,1.2,0,0,0,1.2-1.2V39.2A1.2,1.2,0,0,0,19.976,38Zm-1.2,4.781H16.39V40.39h2.39Z" transform="translate(2.342 7.025)" fill="#fff"/>
  </g>
</svg>
