<svg xmlns="http://www.w3.org/2000/svg" width="50" height="50" viewBox="0 0 50 50">
  <g id="_026-computer_networks" data-name="026-computer networks" transform="translate(-1 -1)">
    <g id="Group_2835" data-name="Group 2835" transform="translate(19.548 4.226)">
      <g id="Group_2834" data-name="Group 2834">
        <path id="Path_12206" data-name="Path 12206" d="M35.29,11.452H25.613A1.615,1.615,0,0,1,24,9.839V6.613A1.615,1.615,0,0,1,25.613,5H35.29A1.615,1.615,0,0,1,36.9,6.613V9.839A1.615,1.615,0,0,1,35.29,11.452Z" transform="translate(-24 -5)" fill="#f80"/>
      </g>
    </g>
    <g id="Group_2837" data-name="Group 2837" transform="translate(19.548 12.29)">
      <g id="Group_2836" data-name="Group 2836">
        <path id="Path_12207" data-name="Path 12207" d="M35.29,21.452H25.613A1.615,1.615,0,0,1,24,19.839V16.613A1.615,1.615,0,0,1,25.613,15H35.29A1.615,1.615,0,0,1,36.9,16.613v3.226A1.615,1.615,0,0,1,35.29,21.452Z" transform="translate(-24 -15)" fill="#f80"/>
      </g>
    </g>
    <g id="Group_2839" data-name="Group 2839" transform="translate(19.548 20.355)">
      <g id="Group_2838" data-name="Group 2838">
        <path id="Path_12208" data-name="Path 12208" d="M35.29,31.452H25.613A1.615,1.615,0,0,1,24,29.839V26.613A1.615,1.615,0,0,1,25.613,25H35.29A1.615,1.615,0,0,1,36.9,26.613v3.226A1.615,1.615,0,0,1,35.29,31.452Z" transform="translate(-24 -25)" fill="#f80"/>
      </g>
    </g>
    <path id="Path_12209" data-name="Path 12209" d="M48.581,33.258H42.129v-2.68L47.321,28.5l-6.89-3.445,2.5-1.879V20.355h1.613a2.422,2.422,0,0,0,2.419-2.419V11.484a2.422,2.422,0,0,0-2.419-2.419H39.71a2.422,2.422,0,0,0-2.419,2.419v6.452a2.422,2.422,0,0,0,2.419,2.419h1.613v2.016l-3.948,2.96,6.012,3.006-2.871,1.148v3.772H34.065a2.422,2.422,0,0,0-2.419,2.419V39.71H28.271a2.417,2.417,0,0,0-1.465-1.465V30.032h6.452a2.422,2.422,0,0,0,2.419-2.419V3.419A2.422,2.422,0,0,0,33.258,1H18.742a2.422,2.422,0,0,0-2.419,2.419V27.613a2.422,2.422,0,0,0,2.419,2.419h6.452v8.213a2.417,2.417,0,0,0-1.465,1.465H20.355V35.677a2.422,2.422,0,0,0-2.419-2.419H9.871v-2.68L15.063,28.5l-6.89-3.445,2.5-1.879V20.355H12.29a2.422,2.422,0,0,0,2.419-2.419V11.484A2.422,2.422,0,0,0,12.29,9.065H7.452a2.422,2.422,0,0,0-2.419,2.419v6.452a2.422,2.422,0,0,0,2.419,2.419H9.065v2.016l-3.948,2.96,6.012,3.006L8.258,29.486v3.772H3.419A2.422,2.422,0,0,0,1,35.677v9.677a2.422,2.422,0,0,0,2.419,2.419H6.645v1.613H5.032V51h11.29V49.387H14.71V47.774h3.226a2.422,2.422,0,0,0,2.419-2.419V41.323h3.374a2.405,2.405,0,0,0,4.542,0h3.374v4.032a2.422,2.422,0,0,0,2.419,2.419H37.29v1.613H35.677V51h11.29V49.387H45.355V47.774h3.226A2.422,2.422,0,0,0,51,45.355V35.677a2.422,2.422,0,0,0-2.419-2.419ZM38.9,11.484a.807.807,0,0,1,.806-.806h4.839a.807.807,0,0,1,.806.806v.806H38.9Zm0,2.419h6.452v1.613H38.9Zm.806,4.839a.807.807,0,0,1-.806-.806v-.806h6.452v.806a.807.807,0,0,1-.806.806ZM6.645,11.484a.807.807,0,0,1,.806-.806H12.29a.807.807,0,0,1,.806.806v.806H6.645Zm0,2.419H13.1v1.613H6.645Zm.806,4.839a.807.807,0,0,1-.806-.806v-.806H13.1v.806a.807.807,0,0,1-.806.806ZM13.1,49.387H8.258V47.774H13.1Zm5.645-4.032a.807.807,0,0,1-.806.806H3.419a.807.807,0,0,1-.806-.806v-.806H18.742Zm0-2.419H2.613V35.677a.807.807,0,0,1,.806-.806H17.935a.807.807,0,0,1,.806.806Zm0-14.516a.807.807,0,0,1-.806-.806V3.419a.807.807,0,0,1,.806-.806H33.258a.807.807,0,0,1,.806.806V27.613a.807.807,0,0,1-.806.806ZM26,41.323a.806.806,0,1,1,.806-.806A.807.807,0,0,1,26,41.323Zm17.742,8.065H38.9V47.774h4.839Zm5.645-4.032a.807.807,0,0,1-.806.806H34.065a.807.807,0,0,1-.806-.806v-.806H49.387Zm0-2.419H33.258V35.677a.807.807,0,0,1,.806-.806H48.581a.807.807,0,0,1,.806.806Z"/>
  </g>
</svg>
