<svg xmlns="http://www.w3.org/2000/svg" width="40.722" height="40" viewBox="0 0 40.722 40">
  <g id="_007-rocket" data-name="007-rocket" transform="translate(0)">
    <g id="Group_2869" data-name="Group 2869" transform="translate(0 0)">
      <path id="Path_12260" data-name="Path 12260" d="M67,5.839a4.479,4.479,0,0,0-4.349-1.133L57.385,6.2a10.453,10.453,0,0,0-4.535,2.66l-.014.014A.8.8,0,1,0,53.96,10l.015-.015a8.86,8.86,0,0,1,3.844-2.255l5.269-1.491a2.85,2.85,0,0,1,3.518,3.518l-1.491,5.268a8.866,8.866,0,0,1-2.257,3.846L48.621,33.105,46.213,30.7l4.018-4.017a2.877,2.877,0,1,0-4.069-4.069l-4.018,4.018-2.408-2.408,9.313-9.313a.8.8,0,1,0-1.125-1.125l-3.543,3.543-5.693-.793a7.094,7.094,0,0,0-5.965,2l-2.532,2.532a.8.8,0,0,0,0,1.125l2.594,2.594a4.517,4.517,0,0,0,5.776.512l2.458,2.458L38.95,29.823a.8.8,0,0,0,0,1.125l2.944,2.944a.8.8,0,0,0,1.125,0l2.069-2.069,2.458,2.458a4.516,4.516,0,0,0,.512,5.776l2.594,2.594a.8.8,0,0,0,1.125,0l2.532-2.532a7.1,7.1,0,0,0,2-5.965l-.793-5.692,8.467-8.467a10.46,10.46,0,0,0,2.662-4.538l1.491-5.269A4.445,4.445,0,0,0,67,5.839ZM33.91,23.658l-2.032-2.031,1.97-1.97a5.494,5.494,0,0,1,4.62-1.549l4.5.627-4.923,4.923a2.926,2.926,0,0,1-4.138,0ZM42.456,32.2l-1.819-1.819L42.7,28.322l.006-.006,4.581-4.581a1.287,1.287,0,0,1,1.818,0,1.3,1.3,0,0,1,0,1.819Zm12.277,2.168a5.5,5.5,0,0,1-1.549,4.62l-1.97,1.97-2.032-2.032a2.926,2.926,0,0,1,0-4.136l0,0,4.922-4.922Z" transform="translate(-27.581 -4.541)" fill="#fff"/>
      <path id="Path_12261" data-name="Path 12261" d="M328.605,109.141a3.567,3.567,0,0,0,2.522-6.089,3.567,3.567,0,0,0-5.044,5.045A3.544,3.544,0,0,0,328.605,109.141Zm-1.4-4.965a1.978,1.978,0,1,1,0,2.8A2,2,0,0,1,327.207,104.176Z" transform="translate(-299.193 -94.266)" fill="#fff"/>
      <path id="Path_12262" data-name="Path 12262" d="M8.193,310.111a.795.795,0,0,0-1.124-1.124L.233,315.824a.795.795,0,0,0,1.124,1.124Z" transform="translate(0 -284.553)" fill="#fff"/>
      <path id="Path_12263" data-name="Path 12263" d="M20.992,389.574a.8.8,0,0,0-1.124,0l-7.8,7.8a.795.795,0,0,0,1.124,1.124l7.8-7.8A.8.8,0,0,0,20.992,389.574Z" transform="translate(-10.895 -358.727)" fill="#fff"/>
      <path id="Path_12264" data-name="Path 12264" d="M154.8,392.877l-3.864,3.864a.795.795,0,1,0,1.124,1.124L155.919,394a.795.795,0,0,0-1.124-1.124Z" transform="translate(-138.711 -361.768)" fill="#fff"/>
      <path id="Path_12265" data-name="Path 12265" d="M118.9,476.971a.794.794,0,1,0-.43,1.038A.8.8,0,0,0,118.9,476.971Z" transform="translate(-108.041 -438.943)" fill="#fff"/>
      <path id="Path_12266" data-name="Path 12266" d="M283.4,88.481a.794.794,0,1,0,.325-.985A.8.8,0,0,0,283.4,88.481Z" transform="translate(-260.803 -80.795)" fill="#fff"/>
    </g>
  </g>
</svg>
