<svg id="laptop_1_" data-name="laptop (1)" xmlns="http://www.w3.org/2000/svg" width="50.733" height="50.733" viewBox="0 0 50.733 50.733">
  <path id="Path_12185" data-name="Path 12185" d="M251.822,22.912H224V0h27.822Zm-26.185-1.637h24.548V1.637H225.637Z" transform="translate(-201.088)" fill="#333"/>
  <path id="Path_12186" data-name="Path 12186" d="M277.275,41.819H256V32h21.275Z" transform="translate(-229.815 -28.727)" fill="#ffa64d"/>
  <g id="Group_2832" data-name="Group 2832" transform="translate(14.729 26.185)">
    <path id="Path_12187" data-name="Path 12187" d="M180,260.91V256h-4.91v1.637H164.457V256h-4.91v1.637H148.91v1.637h10.638v1.637h4.91v-1.637h10.638v1.637h1.637v4.91h-1.637v4.91h1.637v4.91h-1.637v1.637H164.457v-1.637h-4.91v1.637H148.91v-1.637h-1.637v-4.91h1.637v-4.91h-1.637v-1.637h-1.637v1.637H144v4.91h1.637v4.91H144v4.91h4.91v-1.637h10.638v1.637h4.91v-1.637h10.638v1.637H180v-4.91h-1.637v-4.91H180v-4.91h-1.637v-4.91Zm-17.184-1.637h-1.637v-1.637h1.637Zm-17.184,8.183h1.637v1.637h-1.637Zm1.637,11.456h-1.637v-1.637h1.637Zm15.547,0h-1.637v-1.637h1.637Zm15.547,0h-1.637v-1.637h1.637Zm0-9.819h-1.637v-1.637h1.637Zm-1.637-9.819v-1.637h1.637v1.637Z" transform="translate(-144 -256)" fill="#333"/>
    <path id="Path_12188" data-name="Path 12188" d="M267.5,333.32l1.491-1.491a4.9,4.9,0,0,0,6.838-6.838l1.491-1.491-1.157-1.157-1.491,1.491a4.9,4.9,0,0,0-6.838,6.838l-1.491,1.491Zm4.331-8.761a3.273,3.273,0,1,1-3.273,3.273A3.276,3.276,0,0,1,271.832,324.559Z" transform="translate(-253.83 -315.558)" fill="#333"/>
  </g>
  <path id="Path_12189" data-name="Path 12189" d="M9.637,224,8,233.819,17,242h1.637l9-8.183L26,224Z" transform="translate(-7.182 -201.088)" fill="#ffa64d"/>
  <g id="Group_2833" data-name="Group 2833">
    <path id="Path_12190" data-name="Path 12190" d="M78.546,251.273a3.273,3.273,0,1,0-4.091,3.157v9.117h1.637V254.43A3.27,3.27,0,0,0,78.546,251.273Zm-3.273,1.637a1.637,1.637,0,1,1,1.637-1.637A1.638,1.638,0,0,1,75.273,252.91Z" transform="translate(-64.635 -222.633)" fill="#333"/>
    <rect id="Rectangle_1521" data-name="Rectangle 1521" width="1" height="2" transform="translate(46 17.601)" fill="#333"/>
    <rect id="Rectangle_1522" data-name="Rectangle 1522" width="18" height="2" transform="translate(26 17.601)" fill="#333"/>
    <rect id="Rectangle_1523" data-name="Rectangle 1523" width="21" height="2" transform="translate(26 14.601)" fill="#333"/>
    <path id="Path_12191" data-name="Path 12191" d="M19.639,16.366V0h-18V16.366H0v6.546H21.275V16.366ZM3.273,14.729H14.729V13.092H3.273V1.637H18V13.092H16.366v1.637H18v1.637H3.273Zm16.366,6.546h-18V18h18Z" fill="#333"/>
  </g>
</svg>
