<svg xmlns="http://www.w3.org/2000/svg" width="39.988" height="40" viewBox="0 0 39.988 40">
  <g id="_002-hand" data-name="002-hand" transform="translate(0)">
    <path id="Path_12226" data-name="Path 12226" d="M220.072,331.541a.79.79,0,1,0-1.116,0A.79.79,0,0,0,220.072,331.541Zm0,0" transform="translate(-201.683 -304.408)" fill="#fff"/>
    <path id="Path_12227" data-name="Path 12227" d="M188.449,8.68A8.68,8.68,0,1,0,197.129,0,8.69,8.69,0,0,0,188.449,8.68Zm15.782,0a7.1,7.1,0,1,1-7.1-7.1A7.11,7.11,0,0,1,204.231,8.68Zm0,0" transform="translate(-173.88)" fill="#fff"/>
    <path id="Path_12228" data-name="Path 12228" d="M9.5,235.74a.775.775,0,0,0,1.1.007l3.787-3.769a2.4,2.4,0,0,0,.556-2.449l.815-.794a2.317,2.317,0,0,1,1.626-.664H27.766a6.956,6.956,0,0,0,4.9-2.012c.054-.053-.412.5,7.083-8.549a3.183,3.183,0,0,0-.371-4.449,3.11,3.11,0,0,0-4.383.352L30.39,218.2a3.127,3.127,0,0,0-2.428-1.175H19.252a9.987,9.987,0,0,0-3.911-.789,9.644,9.644,0,0,0-8.807,5.045,2.318,2.318,0,0,0-2.089.654L.729,225.7a.8.8,0,0,0,0,1.113Zm5.843-17.927a8.452,8.452,0,0,1,3.438.723.773.773,0,0,0,.313.066h8.869a1.578,1.578,0,0,1,0,3.156H21.589a.789.789,0,0,0,0,1.578h6.372a3.144,3.144,0,0,0,3.124-3.156,3.2,3.2,0,0,0-.027-.413c4.458-4.63,5.087-5.281,5.114-5.313a1.556,1.556,0,0,1,2.2-.188,1.593,1.593,0,0,1,.183,2.227l-7.005,8.461a5.409,5.409,0,0,1-3.786,1.538H17.383a3.862,3.862,0,0,0-2.711,1.106l-.664.647-6.119-6.182a8.049,8.049,0,0,1,7.451-4.252ZM5.55,223.049a.773.773,0,0,1,.967-.111c.135.083-.253-.274,6.765,6.807a.8.8,0,0,1,0,1.112l-3.228,3.213-7.674-7.813Zm0,0" transform="translate(-0.501 -195.973)" fill="#fff"/>
    <path id="Path_12229" data-name="Path 12229" d="M267.416,40.778V41.7a2.367,2.367,0,0,0,.789,4.6.789.789,0,0,1,0,1.578,1.427,1.427,0,0,1-1.025-.6.789.789,0,0,0-1.208,1.016,3.273,3.273,0,0,0,1.444,1.028v.921a.789.789,0,1,0,1.578,0v-.925a2.367,2.367,0,0,0-.789-4.6.789.789,0,0,1,0-1.578,1.267,1.267,0,0,1,.853.413.789.789,0,0,0,1.1-1.134,3.049,3.049,0,0,0-1.162-.726v-.919a.789.789,0,1,0-1.578,0Zm0,0" transform="translate(-245.09 -36.832)" fill="#fff"/>
  </g>
</svg>
