<svg id="_011-settings" data-name="011-settings" xmlns="http://www.w3.org/2000/svg" width="40" height="40" viewBox="0 0 40 40">
  <path id="Path_12274" data-name="Path 12274" d="M12.6,5.832a.671.671,0,0,1-.547-.285.719.719,0,0,1,.141-.983A18.636,18.636,0,0,1,33.735,3.73V.7a.68.68,0,1,1,1.36,0V5.129a.705.705,0,0,1-.391.637.664.664,0,0,1-.723-.1A16.44,16.44,0,0,0,23.508,2.11a17.138,17.138,0,0,0-10.5,3.584A.657.657,0,0,1,12.6,5.832Z" transform="translate(-3.536)" fill="#fff"/>
  <path id="Path_12275" data-name="Path 12275" d="M5.129,35.173a.71.71,0,0,1-.566-.275A18.636,18.636,0,0,1,3.73,13.36H.7A.68.68,0,1,1,.7,12H5.129a.706.706,0,0,1,.637.391.66.66,0,0,1-.1.723A16.442,16.442,0,0,0,2.11,23.586a17.138,17.138,0,0,0,3.584,10.5.665.665,0,0,1-.146.951A.713.713,0,0,1,5.129,35.173Z" transform="translate(0 -3.559)" fill="#fff"/>
  <path id="Path_12276" data-name="Path 12276" d="M12.68,55.541a.692.692,0,0,1-.68-.7V50.412a.705.705,0,0,1,.391-.637.665.665,0,0,1,.724.1,16.44,16.44,0,0,0,10.472,3.559,17.138,17.138,0,0,0,10.5-3.584.665.665,0,0,1,.951.147.719.719,0,0,1-.141.983,18.637,18.637,0,0,1-21.538.834v3.026A.692.692,0,0,1,12.68,55.541Z" transform="translate(-3.559 -15.541)" fill="#fff"/>
  <path id="Path_12277" data-name="Path 12277" d="M54.838,35.1H50.412a.706.706,0,0,1-.637-.391.66.66,0,0,1,.1-.723,16.439,16.439,0,0,0,3.559-10.472,17.138,17.138,0,0,0-3.584-10.5.665.665,0,0,1,.146-.951.719.719,0,0,1,.984.142,18.634,18.634,0,0,1,.834,21.536h3.026a.68.68,0,1,1,0,1.36Z" transform="translate(-15.541 -3.536)" fill="#fff"/>
  <path id="Path_12278" data-name="Path 12278" d="M24.72,36.338h-4.1a.683.683,0,0,1-.683-.683V34.088A.912.912,0,0,0,19.3,33.2a6.788,6.788,0,0,1-1.536-.694l-.347-.193a.919.919,0,0,0-1.077.176L15.237,33.6a.7.7,0,0,1-.966,0l-2.533-2.533a.683.683,0,0,1,0-.966l1.109-1.109a.915.915,0,0,0,.176-1.076l-.195-.349a6.838,6.838,0,0,1-.692-1.533.913.913,0,0,0-.884-.631H9.683A.683.683,0,0,1,9,24.72v-4.1a.683.683,0,0,1,.683-.683h1.567a.913.913,0,0,0,.884-.631,6.844,6.844,0,0,1,.693-1.534l.194-.349a.916.916,0,0,0-.176-1.076l-1.109-1.109a.684.684,0,0,1,0-.966l2.533-2.533a.683.683,0,0,1,.966,0l1.109,1.109a.919.919,0,0,0,1.076.176l.347-.193a6.842,6.842,0,0,1,1.535-.693.912.912,0,0,0,.631-.885V9.683A.683.683,0,0,1,20.619,9h4.1a.683.683,0,0,1,.683.683v1.567a.912.912,0,0,0,.631.885,6.826,6.826,0,0,1,1.535.693l.347.193a.918.918,0,0,0,1.077-.176L30.1,11.737a.7.7,0,0,1,.966,0L33.6,14.27a.683.683,0,0,1,0,.966l-1.109,1.109a.915.915,0,0,0-.176,1.076l.194.349A6.827,6.827,0,0,1,33.2,19.3a.914.914,0,0,0,.885.631h1.567a.683.683,0,0,1,.683.683v4.1a.683.683,0,0,1-.683.683H34.088a.913.913,0,0,0-.884.631,6.824,6.824,0,0,1-.692,1.533l-.194.349a.916.916,0,0,0,.176,1.076L33.6,30.1a.684.684,0,0,1,0,.966L31.069,33.6a.683.683,0,0,1-.966,0l-1.109-1.109a.918.918,0,0,0-1.076-.176l-.347.193a6.818,6.818,0,0,1-1.536.694.912.912,0,0,0-.632.885v1.567A.683.683,0,0,1,24.72,36.338ZM21.3,34.971h2.734v-.884a2.287,2.287,0,0,1,1.612-2.2,5.5,5.5,0,0,0,1.25-.573l.364-.2a2.291,2.291,0,0,1,2.7.409l.626.626,1.566-1.566-.626-.626a2.29,2.29,0,0,1-.409-2.7l.2-.366a5.512,5.512,0,0,0,.572-1.248,2.287,2.287,0,0,1,2.2-1.612h.884V21.3h-.884a2.287,2.287,0,0,1-2.2-1.612,5.469,5.469,0,0,0-.572-1.248l-.2-.366a2.289,2.289,0,0,1,.41-2.7l.626-.626-1.566-1.566-.626.626a2.29,2.29,0,0,1-2.7.409l-.364-.2a5.524,5.524,0,0,0-1.249-.573,2.288,2.288,0,0,1-1.612-2.2v-.884H21.3v.884a2.287,2.287,0,0,1-1.612,2.2,5.511,5.511,0,0,0-1.249.573l-.364.2a2.291,2.291,0,0,1-2.7-.409l-.626-.626-1.566,1.566.626.626a2.29,2.29,0,0,1,.409,2.7l-.2.366a5.482,5.482,0,0,0-.572,1.248,2.287,2.287,0,0,1-2.2,1.612h-.884v2.734h.884a2.287,2.287,0,0,1,2.2,1.612,5.51,5.51,0,0,0,.571,1.248l.2.366a2.29,2.29,0,0,1-.409,2.7l-.626.626,1.566,1.566.626-.626a2.29,2.29,0,0,1,2.7-.409l.364.2a5.5,5.5,0,0,0,1.25.573,2.288,2.288,0,0,1,1.612,2.2Z" transform="translate(-2.669 -2.669)" fill="#fff"/>
  <path id="Path_12279" data-name="Path 12279" d="M25.441,33.882a8.441,8.441,0,1,1,8.441-8.441A8.451,8.451,0,0,1,25.441,33.882Zm0-15.475a7.034,7.034,0,1,0,7.034,7.034A7.042,7.042,0,0,0,25.441,18.407Z" transform="translate(-5.441 -5.441)" fill="#fff"/>
  <path id="Path_12280" data-name="Path 12280" d="M29.517,30.221H26.7a.7.7,0,0,1-.7-.7V26.7a.7.7,0,0,1,.7-.7h2.814a.7.7,0,0,1,.7.7v2.814A.7.7,0,0,1,29.517,30.221Zm-2.11-1.407h1.407V27.407H27.407Z" transform="translate(-8.11 -8.11)" fill="#fff"/>
  <path id="Path_12281" data-name="Path 12281" d="M28.7,25.924a.7.7,0,0,1-.7-.7V21.7a.7.7,0,1,1,1.407,0v3.517A.7.7,0,0,1,28.7,25.924Z" transform="translate(-8.703 -6.557)" fill="#fff"/>
  <path id="Path_12282" data-name="Path 12282" d="M32.814,29.407H30.7A.7.7,0,1,1,30.7,28h2.11a.7.7,0,0,1,0,1.407Z" transform="translate(-9.349 -8.703)" fill="#fff"/>
</svg>
