<svg xmlns="http://www.w3.org/2000/svg" width="49.631" height="49.631" viewBox="0 0 49.631 49.631">
  <g id="database_1_" data-name="database (1)" transform="translate(-1 -1)">
    <g id="Group_2840" data-name="Group 2840" transform="translate(39.842 46.315)">
      <rect id="Rectangle_1524" data-name="Rectangle 1524" width="6" height="1" transform="translate(0.158 -0.314)" fill="#f0bc5e"/>
    </g>
    <g id="Group_2841" data-name="Group 2841" transform="translate(39.842 33.368)">
      <rect id="Rectangle_1525" data-name="Rectangle 1525" width="3" height="1" transform="translate(0.158 -0.367)" fill="#f80"/>
    </g>
    <g id="Group_2842" data-name="Group 2842" transform="translate(43.079 39.841)">
      <rect id="Rectangle_1526" data-name="Rectangle 1526" width="3" height="1" transform="translate(-0.079 0.158)" fill="#f80"/>
    </g>
    <g id="Group_2843" data-name="Group 2843" transform="translate(22.579 46.315)">
      <rect id="Rectangle_1527" data-name="Rectangle 1527" width="6" height="1" transform="translate(0.421 -0.314)" fill="#f80"/>
    </g>
    <g id="Group_2844" data-name="Group 2844" transform="translate(22.579 33.368)">
      <rect id="Rectangle_1528" data-name="Rectangle 1528" width="3" height="1" transform="translate(0.421 -0.367)" fill="#f80"/>
    </g>
    <g id="Group_2845" data-name="Group 2845" transform="translate(25.815 39.841)">
      <rect id="Rectangle_1529" data-name="Rectangle 1529" width="3" height="1" transform="translate(0.185 0.158)" fill="#f80"/>
    </g>
    <g id="Group_2846" data-name="Group 2846" transform="translate(5.315 46.315)">
      <rect id="Rectangle_1530" data-name="Rectangle 1530" width="7" height="1" transform="translate(-0.315 -0.314)" fill="#f80"/>
    </g>
    <g id="Group_2847" data-name="Group 2847" transform="translate(5.315 33.368)">
      <rect id="Rectangle_1531" data-name="Rectangle 1531" width="4" height="1" transform="translate(-0.315 -0.367)" fill="#f80"/>
    </g>
    <g id="Group_2848" data-name="Group 2848" transform="translate(8.552 39.841)">
      <rect id="Rectangle_1532" data-name="Rectangle 1532" width="3" height="1" transform="translate(0.448 0.158)" fill="#f80"/>
    </g>
    <g id="Group_2850" data-name="Group 2850" transform="translate(5.803 1)">
      <g id="Group_2849" data-name="Group 2849">
        <path id="Path_12210" data-name="Path 12210" d="M40.621,21.813H13.4a6.4,6.4,0,0,1-.335-12.8A6.445,6.445,0,0,1,19.007,5a6.318,6.318,0,0,1,1.978.315A10.391,10.391,0,0,1,39.551,9.1a6.4,6.4,0,1,1,1.07,12.718Z" transform="translate(-7 -1)" fill="#f80"/>
      </g>
    </g>
    <g id="Group_2851" data-name="Group 2851" transform="translate(1 4.205)">
      <rect id="Rectangle_1533" data-name="Rectangle 1533" width="1" height="1" transform="translate(3 28.795)"/>
      <rect id="Rectangle_1534" data-name="Rectangle 1534" width="2" height="1" transform="translate(6 28.795)"/>
      <rect id="Rectangle_1535" data-name="Rectangle 1535" width="1" height="1" transform="translate(10 35.795)"/>
      <rect id="Rectangle_1536" data-name="Rectangle 1536" width="2" height="1" transform="translate(6 35.795)"/>
      <rect id="Rectangle_1537" data-name="Rectangle 1537" width="2" height="1" transform="translate(6 41.795)"/>
      <rect id="Rectangle_1538" data-name="Rectangle 1538" width="1" height="1" transform="translate(10 41.795)"/>
      <rect id="Rectangle_1539" data-name="Rectangle 1539" width="1" height="1" transform="translate(3 41.795)"/>
      <rect id="Rectangle_1540" data-name="Rectangle 1540" width="3" height="1" transform="translate(20 28.795)"/>
      <rect id="Rectangle_1541" data-name="Rectangle 1541" width="2" height="1" transform="translate(24 28.795)"/>
      <rect id="Rectangle_1542" data-name="Rectangle 1542" width="2" height="1" transform="translate(27 35.795)"/>
      <rect id="Rectangle_1543" data-name="Rectangle 1543" width="2" height="1" transform="translate(24 35.795)"/>
      <rect id="Rectangle_1544" data-name="Rectangle 1544" width="2" height="1" transform="translate(24 41.795)"/>
      <rect id="Rectangle_1545" data-name="Rectangle 1545" width="2" height="1" transform="translate(27 41.795)"/>
      <rect id="Rectangle_1546" data-name="Rectangle 1546" width="3" height="1" transform="translate(20 41.795)"/>
      <path id="Path_12211" data-name="Path 12211" d="M48.229,35h-4V30.2H26.616V27h-1.6v3.2H7.4V35h-4a2.4,2.4,0,0,0-2.4,2.4v16.01a2.4,2.4,0,0,0,2.4,2.4h9.606a2.4,2.4,0,0,0,2.4-2.4V37.406a2.4,2.4,0,0,0-2.4-2.4H9V31.8h16.01V35h-4a2.4,2.4,0,0,0-2.4,2.4v16.01a2.4,2.4,0,0,0,2.4,2.4h9.606a2.4,2.4,0,0,0,2.4-2.4V37.406a2.4,2.4,0,0,0-2.4-2.4h-4V31.8h16.01V35h-4a2.4,2.4,0,0,0-2.4,2.4v16.01a2.4,2.4,0,0,0,2.4,2.4h9.606a2.4,2.4,0,0,0,2.4-2.4V37.406A2.4,2.4,0,0,0,48.229,35ZM2.6,43.01H13.808v4.8H2.6ZM13.007,54.217H3.4a.8.8,0,0,1-.8-.8v-4H13.808v4A.8.8,0,0,1,13.007,54.217Zm.8-16.81v4H2.6v-4a.8.8,0,0,1,.8-.8h9.606A.8.8,0,0,1,13.808,37.406Zm6.4,5.6H31.419v4.8H20.212ZM30.618,54.217H21.012a.8.8,0,0,1-.8-.8v-4H31.419v4A.8.8,0,0,1,30.618,54.217Zm.8-16.81v4H20.212v-4a.8.8,0,0,1,.8-.8h9.606A.8.8,0,0,1,31.419,37.406Zm7.2-.8h9.606a.8.8,0,0,1,.8.8v4H37.823v-4A.8.8,0,0,1,38.623,36.606Zm10.406,6.4v4.8H37.823v-4.8Zm-.8,11.207H38.623a.8.8,0,0,1-.8-.8v-4H49.03v4A.8.8,0,0,1,48.229,54.217Z" transform="translate(-1 -9.392)"/>
      <rect id="Rectangle_1547" data-name="Rectangle 1547" width="1" height="1" transform="translate(39 28.795)"/>
      <rect id="Rectangle_1548" data-name="Rectangle 1548" width="1" height="1" transform="translate(42 28.795)"/>
      <rect id="Rectangle_1549" data-name="Rectangle 1549" width="1" height="1" transform="translate(45 35.795)"/>
      <rect id="Rectangle_1550" data-name="Rectangle 1550" width="1" height="1" transform="translate(42 35.795)"/>
      <rect id="Rectangle_1551" data-name="Rectangle 1551" width="1" height="1" transform="translate(42 41.795)"/>
      <rect id="Rectangle_1552" data-name="Rectangle 1552" width="1" height="1" transform="translate(45 41.795)"/>
      <rect id="Rectangle_1553" data-name="Rectangle 1553" width="1" height="1" transform="translate(39 41.795)"/>
      <path id="Path_12212" data-name="Path 12212" d="M37.693,8.243l1.132-1.132a7.214,7.214,0,0,0-10.19,0l1.133,1.132A5.612,5.612,0,0,1,37.693,8.243Z" transform="translate(-6.513 -5.004)"/>
      <path id="Path_12213" data-name="Path 12213" d="M52.2,18.2A3.205,3.205,0,0,0,49,15v1.6a1.6,1.6,0,0,1,0,3.2v1.6A3.205,3.205,0,0,0,52.2,18.2Z" transform="translate(-10.576 -6.998)"/>
    </g>
  </g>
</svg>
