<svg xmlns="http://www.w3.org/2000/svg" width="53.962" height="49.534" viewBox="0 0 53.962 49.534">
  <g id="key" transform="translate(0 -21.005)">
    <g id="Group_2819" data-name="Group 2819" transform="translate(1.054 22.059)">
      <path id="Path_12137" data-name="Path 12137" d="M99.733,296.516h0l7.153-4.747a6.331,6.331,0,0,1,8.643,1.62L92.765,310.135l-18.292-3.689H70v-9.474l4.473-3.162,1.638-1.441a9.484,9.484,0,0,1,12.532,0,4.093,4.093,0,0,0,2.832,1.429h5.13A3.169,3.169,0,0,1,99.733,296.516Z" transform="translate(-63.677 -262.709)" fill="#fff"/>
      <path id="Path_12138" data-name="Path 12138" d="M120.9,40.49l-6.323,3.162H94.431a9.485,9.485,0,1,1,0-6.323h4.334l3.162-3.162,3.162,3.162,3.162-3.162,3.162,3.162,3.162-3.162Zm-32.25,0a3.162,3.162,0,1,0-3.162,3.162A3.162,3.162,0,0,0,88.647,40.49Z" transform="translate(-69.044 -31.005)" fill="#f80"/>
      <path id="Path_12139" data-name="Path 12139" d="M16.323,346.814H10V331.005h6.323Z" transform="translate(-10 -299.388)" fill="#f80"/>
    </g>
    <g id="Group_2820" data-name="Group 2820" transform="translate(0 21.005)">
      <path id="Path_12140" data-name="Path 12140" d="M126,85.221a4.216,4.216,0,1,0,4.216-4.216A4.22,4.22,0,0,0,126,85.221Zm6.323,0a2.108,2.108,0,1,1-2.108-2.108A2.11,2.11,0,0,1,132.323,85.221Z" transform="translate(-112.721 -74.682)"/>
      <path id="Path_12141" data-name="Path 12141" d="M66,31.544A10.541,10.541,0,0,0,86.2,35.76h19.426a1.052,1.052,0,0,0,.471-.111l6.323-3.162A1.054,1.054,0,0,0,112.7,30.8l-6.323-6.323a1.054,1.054,0,0,0-1.491,0l-2.416,2.417-2.417-2.417a1.054,1.054,0,0,0-1.491,0l-2.416,2.417-2.417-2.417a1.054,1.054,0,0,0-1.491,0l-2.853,2.853H86.2A10.541,10.541,0,0,0,66,31.544Zm18.491-2.81a1.054,1.054,0,0,0,.994.7h4.334a1.054,1.054,0,0,0,.745-.309l2.417-2.416L95.4,29.128a1.054,1.054,0,0,0,1.491,0L99.3,26.711l2.417,2.417a1.054,1.054,0,0,0,1.491,0l2.416-2.417,4.544,4.544-4.793,2.4H85.485a1.054,1.054,0,0,0-.994.7,8.431,8.431,0,1,1,0-5.621Z" transform="translate(-59.044 -21.005)"/>
      <circle id="Ellipse_840" data-name="Ellipse 840" cx="1" cy="1" r="1" transform="translate(40 39.001)"/>
      <path id="Path_12142" data-name="Path 12142" d="M43.682,282.011l-6.033,4a4.237,4.237,0,0,0-3.666-2.149h-5.13a2.1,2.1,0,0,1-1.393-.513l-.743-.653a10.56,10.56,0,0,0-13.924,0l-1.6,1.4-2.765,1.954v-.611a1.054,1.054,0,0,0-1.054-1.054H1.054A1.054,1.054,0,0,0,0,285.446v15.809a1.054,1.054,0,0,0,1.054,1.054H7.377a1.054,1.054,0,0,0,1.054-1.054V298.62h3.314l18.189,3.668a1.054,1.054,0,0,0,.833-.184l7.354-5.409a1.054,1.054,0,1,0-1.249-1.7l-6.978,5.133-17.835-3.6a1.054,1.054,0,0,0-.208-.021H8.431v-7.874c4.5-3.185,3.729-2.535,5.753-4.357a8.448,8.448,0,0,1,11.14,0l.743.653a4.208,4.208,0,0,0,2.785,1.038h5.131a2.108,2.108,0,1,1,0,4.216H21.336a1.054,1.054,0,1,0,0,2.108H33.982a4.214,4.214,0,0,0,4.213-4.115l6.648-4.412a5.257,5.257,0,0,1,6.523.564l-6.858,5.044a1.054,1.054,0,0,0,1.249,1.7l7.774-5.718a1.054,1.054,0,0,0,.235-1.46A7.36,7.36,0,0,0,43.682,282.011ZM6.323,300.2H2.108V286.5H6.323Z" transform="translate(0 -252.774)"/>
    </g>
  </g>
</svg>
