<svg xmlns="http://www.w3.org/2000/svg" width="50.8" height="50.8" viewBox="0 0 50.8 50.8">
  <g id="database" transform="translate(-1 -1)">
    <g id="Group_2821" data-name="Group 2821" transform="translate(13.29 44.426)">
      <rect id="Rectangle_1518" data-name="Rectangle 1518" width="10" height="4" transform="translate(-0.29 -0.426)" fill="#f80"/>
    </g>
    <g id="Group_2822" data-name="Group 2822" transform="translate(13.29 14.929)">
      <rect id="Rectangle_1519" data-name="Rectangle 1519" width="10" height="3" transform="translate(-0.29 0.07)" fill="#f80"/>
    </g>
    <g id="Group_2823" data-name="Group 2823" transform="translate(13.29 29.677)">
      <rect id="Rectangle_1520" data-name="Rectangle 1520" width="10" height="3" transform="translate(-0.29 0.322)" fill="#f80"/>
    </g>
    <g id="Group_2824" data-name="Group 2824" transform="translate(1 10.832)">
      <path id="Path_12143" data-name="Path 12143" d="M45.458,57.916A2.458,2.458,0,1,0,43,55.458,2.461,2.461,0,0,0,45.458,57.916Zm0-3.277a.819.819,0,1,1-.819.819A.82.82,0,0,1,45.458,54.639Z" transform="translate(-8.587 -20.226)"/>
      <path id="Path_12144" data-name="Path 12144" d="M26.471,53H15v4.916H26.471Zm-4.916,1.639v1.639H19.916V54.639Zm-4.916,0h1.639v1.639H16.639Zm8.194,1.639H23.194V54.639h1.639Z" transform="translate(-3.529 -20.226)"/>
      <path id="Path_12145" data-name="Path 12145" d="M26.471,21.916V17H15v4.916Zm-6.555-1.639V18.639h1.639v1.639Zm4.916,0H23.194V18.639h1.639Zm-8.194-1.639h1.639v1.639H16.639Z" transform="translate(-3.529 -13.723)"/>
      <path id="Path_12146" data-name="Path 12146" d="M41.148,39.219a2.461,2.461,0,0,0,2.458-2.458V30.206a2.461,2.461,0,0,0-2.458-2.458H14.11V24.471H28.683V22.832H11.652a.82.82,0,0,1-.819-.819V15.458a.82.82,0,0,1,.819-.819H26.4V13H11.652a2.461,2.461,0,0,0-2.458,2.458v6.555a2.461,2.461,0,0,0,2.458,2.458h.819v3.277h-.819a2.461,2.461,0,0,0-2.458,2.458v.819H4.277V17.765a2.458,2.458,0,1,0-1.639,0v14.9H9.194V34.3H2.639V49.2a2.458,2.458,0,1,0,1.639,0V35.942H9.194v.819a2.461,2.461,0,0,0,2.458,2.458h.819V42.5h-.819a2.461,2.461,0,0,0-2.458,2.458V51.51a2.461,2.461,0,0,0,2.458,2.458h29.5a2.461,2.461,0,0,0,2.458-2.458V44.955A2.461,2.461,0,0,0,41.148,42.5h-.819V39.219ZM3.458,14.639a.819.819,0,1,1-.819.819A.82.82,0,0,1,3.458,14.639Zm0,37.69a.819.819,0,1,1,.819-.819A.82.82,0,0,1,3.458,52.329Zm7.374-15.568V30.206a.82.82,0,0,1,.819-.819h29.5a.82.82,0,0,1,.819.819v6.555a.82.82,0,0,1-.819.819h-29.5A.82.82,0,0,1,10.832,36.761Zm31.135,8.194V51.51a.82.82,0,0,1-.819.819h-29.5a.82.82,0,0,1-.819-.819V44.955a.82.82,0,0,1,.819-.819h29.5A.82.82,0,0,1,41.968,44.955ZM38.69,42.5H14.11V39.219H38.69Z" transform="translate(-1 -13)"/>
      <path id="Path_12147" data-name="Path 12147" d="M45.458,35a2.458,2.458,0,1,0,2.458,2.458A2.461,2.461,0,0,0,45.458,35Zm0,3.277a.819.819,0,1,1,.819-.819A.82.82,0,0,1,45.458,38.277Z" transform="translate(-8.587 -16.974)"/>
      <path id="Path_12148" data-name="Path 12148" d="M15,39.916H26.471V35H15Zm4.916-1.639V36.639h1.639v1.639Zm4.916,0H23.194V36.639h1.639Zm-8.194-1.639h1.639v1.639H16.639Z" transform="translate(-3.529 -16.974)"/>
    </g>
    <g id="Group_2825" data-name="Group 2825" transform="translate(25.581 1)">
      <path id="Path_12149" data-name="Path 12149" d="M57.219,17.2V11.021L54,10.171c-.035-.088-.072-.178-.111-.265l1.678-2.881L51.195,2.656,48.314,4.334c-.088-.039-.177-.075-.265-.111L47.2,1H41.021l-.85,3.223c-.088.035-.178.072-.265.111L37.025,2.656,32.656,7.025l1.678,2.881c-.039.088-.075.177-.111.265L31,11.02V17.2l3.223.85c.035.088.072.178.111.265l-1.678,2.881,4.369,4.369,2.881-1.678c.088.039.177.075.265.111l.849,3.223H47.2L48.048,24c.088-.035.178-.072.265-.111l2.881,1.678,4.369-4.369-1.678-2.881c.039-.088.075-.177.111-.265ZM44.11,20.664a6.555,6.555,0,1,1,6.555-6.555A6.555,6.555,0,0,1,44.11,20.664Z" transform="translate(-31 -1)" fill="#f80"/>
    </g>
    <g id="Group_2826" data-name="Group 2826" transform="translate(31.316 6.735)">
      <path id="Path_12150" data-name="Path 12150" d="M45.374,22.748a7.374,7.374,0,1,1,7.374-7.374A7.383,7.383,0,0,1,45.374,22.748Zm0-13.11a5.735,5.735,0,1,0,5.735,5.735A5.742,5.742,0,0,0,45.374,9.639Z" transform="translate(-38 -8)"/>
    </g>
    <g id="Group_2827" data-name="Group 2827" transform="translate(34.593 10.013)">
      <path id="Path_12151" data-name="Path 12151" d="M46.1,20.194a4.1,4.1,0,1,1,4.1-4.1A4.1,4.1,0,0,1,46.1,20.194Zm0-6.555A2.458,2.458,0,1,0,48.555,16.1,2.461,2.461,0,0,0,46.1,13.639Z" transform="translate(-42 -12)"/>
    </g>
  </g>
</svg>
