<svg id="_006-user" data-name="006-user" xmlns="http://www.w3.org/2000/svg" width="40" height="40" viewBox="0 0 40 40">
  <g id="Group_2868" data-name="Group 2868">
    <g id="Group_2867" data-name="Group 2867">
      <path id="Path_12253" data-name="Path 12253" d="M449.935,256a1.931,1.931,0,0,0-.645,3.752v4.635h1.29v-4.635a1.931,1.931,0,0,0-.645-3.752Zm0,2.581a.645.645,0,1,1,.645-.645A.646.646,0,0,1,449.935,258.581Z" transform="translate(-411.871 -235.355)" fill="#fff"/>
      <path id="Path_12254" data-name="Path 12254" d="M401.935,320a1.931,1.931,0,0,0-.645,3.752v2.054h1.29v-2.054a1.931,1.931,0,0,0-.645-3.752Zm0,2.581a.645.645,0,1,1,.645-.645A.646.646,0,0,1,401.935,322.581Z" transform="translate(-367.742 -294.194)" fill="#fff"/>
      <rect id="Rectangle_1554" data-name="Rectangle 1554" width="1" height="1" transform="translate(33.203 33)" fill="#fff"/>
      <rect id="Rectangle_1555" data-name="Rectangle 1555" width="1" height="1" transform="translate(38.203 30)" fill="#fff"/>
      <path id="Path_12255" data-name="Path 12255" d="M1.935,272a1.931,1.931,0,0,0-.645,3.752v4.635h1.29v-4.635A1.931,1.931,0,0,0,1.935,272Zm0,2.581a.645.645,0,1,1,.645-.645A.646.646,0,0,1,1.935,274.581Z" transform="translate(0 -250.064)" fill="#fff"/>
      <path id="Path_12256" data-name="Path 12256" d="M51.871,321.935a1.936,1.936,0,1,0-2.581,1.817v4.635h1.29v-4.635A1.933,1.933,0,0,0,51.871,321.935Zm-1.935.645a.645.645,0,1,1,.645-.645A.646.646,0,0,1,49.935,322.581Z" transform="translate(-44.129 -294.194)" fill="#fff"/>
      <rect id="Rectangle_1556" data-name="Rectangle 1556" width="2" height="2" transform="translate(1.203 31)" fill="#fff"/>
      <path id="Path_12257" data-name="Path 12257" d="M152.387,112a7.105,7.105,0,0,0-7.1,7.1v1.649a2.565,2.565,0,0,0,.911,4.765,4.523,4.523,0,0,0,1.093,1.725l2.33,2.279a1.926,1.926,0,0,0,1.353.551H153.8a1.926,1.926,0,0,0,1.354-.552l2.33-2.278a4.523,4.523,0,0,0,1.093-1.725,2.565,2.565,0,0,0,.912-4.765V119.1A7.105,7.105,0,0,0,152.387,112Zm-7.1,10.968a1.286,1.286,0,0,1,.645-1.111v2.148c0,.025,0,.05,0,.075A1.286,1.286,0,0,1,145.29,122.968Zm12.258,1.037a3.246,3.246,0,0,1-.971,2.307l-2.329,2.278a.647.647,0,0,1-.452.184h-2.819a.642.642,0,0,1-.451-.184l-2.33-2.279a3.241,3.241,0,0,1-.972-2.306v-2.328h1.935A10.392,10.392,0,0,0,154.8,120a4.25,4.25,0,0,0,2.745,1.625Zm.645-3.618a2.966,2.966,0,0,1-2.472-1.323l-.595-.892-.546.409a9.093,9.093,0,0,1-5.419,1.806h-2.581V119.1a5.806,5.806,0,0,1,11.613,0Zm.641,3.694c0-.025,0-.05,0-.075v-2.148a1.279,1.279,0,0,1,0,2.224Z" transform="translate(-132.387 -102.968)" fill="#fff"/>
      <path id="Path_12258" data-name="Path 12258" d="M108.74,338.49l-4.542-1.651V336h-1.29v1.237l-.43,2.581-1.883-1.883H98.77l-1.883,1.883-.43-2.582V336h-1.29v.839l-4.517,1.643a4.514,4.514,0,0,0-2.92,3.558L86.672,348.9h26.115l-1.133-6.9A4.524,4.524,0,0,0,108.74,338.49Zm-11.577,9.123H92.684l.54-3.779-1.277-.183-.566,3.962h-3.2L89,342.235a3.224,3.224,0,0,1,2.086-2.541l4.213-1.532.724,4.342,1.234-1.234.468.7Zm3.742,0H98.46l.6-5.972-.867-1.3,1.115-1.114h.756l1.114,1.114-.867,1.3Zm7.079,0-.566-3.963-1.277.183.539,3.78H102.2l-.565-5.641.468-.7,1.234,1.234.724-4.342L108.3,339.7a3.232,3.232,0,0,1,2.082,2.51l.885,5.4Z" transform="translate(-79.682 -308.903)" fill="#fff"/>
      <rect id="Rectangle_1557" data-name="Rectangle 1557" width="1" height="1" transform="translate(5.203 35)" fill="#fff"/>
      <path id="Path_12259" data-name="Path 12259" d="M5.806,20.645h4.516v-1.29H5.806A4.514,4.514,0,0,1,4.575,10.5a6.43,6.43,0,0,0,1.585,3.482l.961-.861a5.162,5.162,0,1,1,8.472-5.734l1.155-.575a6.473,6.473,0,0,0-1.214-1.677,8.382,8.382,0,0,1,15.322,3.21,6.441,6.441,0,0,0-2.673,2.267l1.072.717a5.161,5.161,0,1,1,4.292,8.028H29.677v1.29h3.871a6.452,6.452,0,1,0-1.461-12.73A9.671,9.671,0,0,0,14.532,4.3a6.441,6.441,0,0,0-9.99,4.866A5.807,5.807,0,0,0,5.806,20.645Z" fill="#fff"/>
    </g>
  </g>
</svg>
