<svg xmlns="http://www.w3.org/2000/svg" width="50" height="50" viewBox="0 0 50 50">
  <g id="_009-data_center" data-name="009-data center" transform="translate(-1 -1)">
    <g id="Group_2813" data-name="Group 2813" transform="translate(7.452 1)">
      <path id="Path_12087" data-name="Path 12087" d="M9,33h4.839v1.613H9Z" transform="translate(-9 -7.194)" fill="#f80"/>
      <path id="Path_12088" data-name="Path 12088" d="M25,33h4.839v1.613H25Z" transform="translate(-12.097 -7.194)" fill="#f80"/>
      <path id="Path_12089" data-name="Path 12089" d="M49,33h4.839v1.613H49Z" transform="translate(-16.742 -7.194)" fill="#f80"/>
      <path id="Path_12090" data-name="Path 12090" d="M49,17h4.839v1.613H49Z" transform="translate(-16.742 -4.097)" fill="#f80"/>
      <path id="Path_12091" data-name="Path 12091" d="M33,25h4.839v1.613H33Z" transform="translate(-13.645 -5.645)" fill="#f80"/>
      <path id="Path_12092" data-name="Path 12092" d="M33,9h4.839v1.613H33Z" transform="translate(-13.645 -2.548)" fill="#f80"/>
      <path id="Path_12093" data-name="Path 12093" d="M25,17h4.839v1.613H25Z" transform="translate(-12.097 -4.097)" fill="#f80"/>
      <path id="Path_12094" data-name="Path 12094" d="M9,17h4.839v1.613H9Z" transform="translate(-9 -4.097)" fill="#f80"/>
      <path id="Path_12095" data-name="Path 12095" d="M21.137,32.614l-.1.019V5.839a.807.807,0,0,1,.806-.806H36.355a.807.807,0,0,1,.806.806V29.831l-.015,0a8.89,8.89,0,0,1,4.048,3.172V5.032A4.037,4.037,0,0,0,37.161,1H21.032A4.037,4.037,0,0,0,17,5.032V35.087l.057,0a7.245,7.245,0,0,1,4.08-2.475Z" transform="translate(-10.548 -1)" fill="#f80"/>
      <path id="Path_12096" data-name="Path 12096" d="M15,57h8.065v1.613H15Z" transform="translate(-10.161 -11.839)" fill="#f80"/>
    </g>
    <path id="Path_12097" data-name="Path 12097" d="M46.968,8.226H37.29V9.839h9.677a2.422,2.422,0,0,1,2.419,2.419V34.839a2.416,2.416,0,0,1-1.613,2.271V13.065a1.615,1.615,0,0,0-1.613-1.613H38.1v1.613h8.065V17.9H38.1v1.613h8.065v4.839H38.1v1.613h8.065v4.839H38.1v1.613h8.065v4.839H40.37a9.694,9.694,0,0,0-5.5-7.173V6.613A1.615,1.615,0,0,0,33.258,5H18.742a1.615,1.615,0,0,0-1.613,1.613V32.794a8.05,8.05,0,0,0-4.972,4.464H5.839V32.419H13.9V30.806H5.839V25.968H13.9V24.355H5.839V19.516H13.9V17.9H5.839V13.065H13.9V11.452H5.839a1.615,1.615,0,0,0-1.613,1.613V37.11a2.416,2.416,0,0,1-1.613-2.271V12.258A2.422,2.422,0,0,1,5.032,9.839H14.71V8.226H5.032A4.037,4.037,0,0,0,1,12.258V34.839a4.037,4.037,0,0,0,4.032,4.032h6.614c0,.01,0,.022,0,.033a6.451,6.451,0,0,0,.649,12.87H39.71a6.449,6.449,0,0,0,.8-12.848c0-.019,0-.037,0-.056h6.452A4.037,4.037,0,0,0,51,34.839V12.258A4.037,4.037,0,0,0,46.968,8.226ZM33.258,17.9H18.742V13.065H33.258Zm0,1.613v4.839H18.742V19.516Zm0-12.9v4.839H18.742V6.613ZM18.742,25.968H33.258v3.544A9.585,9.585,0,0,0,23,33.213a8.053,8.053,0,0,0-3.456-.794c-.272,0-.541.015-.806.042ZM44.548,45.323a4.844,4.844,0,0,1-4.839,4.839H12.29a4.839,4.839,0,1,1,4.839-4.839h1.613a6.456,6.456,0,0,0-5.457-6.367,6.436,6.436,0,0,1,8.886-4.361,9.6,9.6,0,0,0-1.01,4.277h1.613a8.065,8.065,0,0,1,16.129,0c0,.019,0,.037,0,.056a6.457,6.457,0,0,0-5.643,6.4h1.613a4.839,4.839,0,0,1,9.677,0Z" transform="translate(0 -0.774)"/>
    <path id="Path_12098" data-name="Path 12098" d="M37,9h1.613v1.613H37Z" transform="translate(-6.968 -1.548)"/>
    <path id="Path_12099" data-name="Path 12099" d="M33,9h1.613v1.613H33Z" transform="translate(-6.194 -1.548)"/>
    <path id="Path_12100" data-name="Path 12100" d="M25,17h1.613v1.613H25Z" transform="translate(-4.645 -3.097)"/>
    <path id="Path_12101" data-name="Path 12101" d="M29,17h1.613v1.613H29Z" transform="translate(-5.419 -3.097)"/>
    <path id="Path_12102" data-name="Path 12102" d="M37,25h1.613v1.613H37Z" transform="translate(-6.968 -4.645)"/>
    <path id="Path_12103" data-name="Path 12103" d="M33,25h1.613v1.613H33Z" transform="translate(-6.194 -4.645)"/>
    <path id="Path_12104" data-name="Path 12104" d="M25,33h1.613v1.613H25Z" transform="translate(-4.645 -6.194)"/>
    <path id="Path_12105" data-name="Path 12105" d="M29,33h1.613v1.613H29Z" transform="translate(-5.419 -6.194)"/>
    <path id="Path_12106" data-name="Path 12106" d="M9,17h1.613v1.613H9Z" transform="translate(-1.548 -3.097)"/>
    <path id="Path_12107" data-name="Path 12107" d="M13,17h1.613v1.613H13Z" transform="translate(-2.323 -3.097)"/>
    <path id="Path_12108" data-name="Path 12108" d="M9,33h1.613v1.613H9Z" transform="translate(-1.548 -6.194)"/>
    <path id="Path_12109" data-name="Path 12109" d="M13,33h1.613v1.613H13Z" transform="translate(-2.323 -6.194)"/>
    <path id="Path_12110" data-name="Path 12110" d="M53,17h1.613v1.613H53Z" transform="translate(-10.065 -3.097)"/>
    <path id="Path_12111" data-name="Path 12111" d="M49,17h1.613v1.613H49Z" transform="translate(-9.29 -3.097)"/>
    <path id="Path_12112" data-name="Path 12112" d="M53,33h1.613v1.613H53Z" transform="translate(-10.065 -6.194)"/>
    <path id="Path_12113" data-name="Path 12113" d="M49,33h1.613v1.613H49Z" transform="translate(-9.29 -6.194)"/>
    <path id="Path_12114" data-name="Path 12114" d="M42.346,44.76l1.6-.228a6.458,6.458,0,0,0-8.228-5.265l.46,1.547a4.842,4.842,0,0,1,6.172,3.946Z" transform="translate(-6.719 -7.355)"/>
    <path id="Path_12115" data-name="Path 12115" d="M15,57h1.613v1.613H15Z" transform="translate(-2.71 -10.839)"/>
    <path id="Path_12116" data-name="Path 12116" d="M19,57h1.613v1.613H19Z" transform="translate(-3.484 -10.839)"/>
    <path id="Path_12117" data-name="Path 12117" d="M23,57h1.613v1.613H23Z" transform="translate(-4.258 -10.839)"/>
  </g>
</svg>
