<svg xmlns="http://www.w3.org/2000/svg" width="40" height="40" viewBox="0 0 40 40">
  <g id="_012-database" data-name="012-database" transform="translate(0)">
    <path id="Path_12283" data-name="Path 12283" d="M32,320h1.3v1.3H32Zm0,0" transform="translate(-29.39 -294.203)" fill="#fff"/>
    <path id="Path_12284" data-name="Path 12284" d="M64,320h1.305v1.3H64Zm0,0" transform="translate(-58.78 -294.203)" fill="#fff"/>
    <path id="Path_12285" data-name="Path 12285" d="M96,384h1.3v1.3H96Zm0,0" transform="translate(-88.261 -353.044)" fill="#fff"/>
    <path id="Path_12286" data-name="Path 12286" d="M64,384h1.305v1.3H64Zm0,0" transform="translate(-58.78 -353.044)" fill="#fff"/>
    <path id="Path_12287" data-name="Path 12287" d="M64,448h1.305v1.3H64Zm0,0" transform="translate(-58.78 -411.915)" fill="#fff"/>
    <path id="Path_12288" data-name="Path 12288" d="M96,448h1.3v1.3H96Zm0,0" transform="translate(-88.261 -411.915)" fill="#fff"/>
    <path id="Path_12289" data-name="Path 12289" d="M32,448h1.3v1.3H32Zm0,0" transform="translate(-29.39 -411.915)" fill="#fff"/>
    <path id="Path_12290" data-name="Path 12290" d="M208,320h1.3v1.3H208Zm0,0" transform="translate(-191.232 -294.203)" fill="#fff"/>
    <path id="Path_12291" data-name="Path 12291" d="M240,320h1.3v1.3H240Zm0,0" transform="translate(-220.652 -294.203)" fill="#fff"/>
    <path id="Path_12292" data-name="Path 12292" d="M272,384h1.3v1.3H272Zm0,0" transform="translate(-250.073 -353.044)" fill="#fff"/>
    <path id="Path_12293" data-name="Path 12293" d="M240,384h1.3v1.3H240Zm0,0" transform="translate(-220.652 -353.044)" fill="#fff"/>
    <path id="Path_12294" data-name="Path 12294" d="M240,448h1.3v1.3H240Zm0,0" transform="translate(-220.652 -411.915)" fill="#fff"/>
    <path id="Path_12295" data-name="Path 12295" d="M272,448h1.3v1.3H272Zm0,0" transform="translate(-250.073 -411.915)" fill="#fff"/>
    <path id="Path_12296" data-name="Path 12296" d="M208,448h1.3v1.3H208Zm0,0" transform="translate(-191.232 -411.915)" fill="#fff"/>
    <path id="Path_12297" data-name="Path 12297" d="M38.064,23.226H34.838V19.355H20.645V16.774H30.967A5.161,5.161,0,1,0,30.1,6.524,8.374,8.374,0,0,0,15.142,3.48a5.092,5.092,0,0,0-1.594-.254A5.194,5.194,0,0,0,8.762,6.459a5.161,5.161,0,0,0,.27,10.315H19.354v2.581H5.161v3.871H1.935A1.938,1.938,0,0,0,0,25.161v12.9A1.938,1.938,0,0,0,1.935,40H9.677a1.938,1.938,0,0,0,1.935-1.935v-12.9a1.938,1.938,0,0,0-1.935-1.935H6.451V20.645h12.9v2.581H16.129a1.938,1.938,0,0,0-1.935,1.935v12.9A1.938,1.938,0,0,0,16.129,40h7.742a1.938,1.938,0,0,0,1.935-1.935v-12.9a1.938,1.938,0,0,0-1.935-1.935H20.645V20.645h12.9v2.581H30.322a1.938,1.938,0,0,0-1.935,1.935v12.9A1.938,1.938,0,0,0,30.322,40h7.742A1.938,1.938,0,0,0,40,38.065v-12.9a1.938,1.938,0,0,0-1.935-1.935ZM5.161,11.613A3.875,3.875,0,0,1,9.032,7.742l.663.029.143-.483a3.892,3.892,0,0,1,3.71-2.772,3.84,3.84,0,0,1,1.577.339l.51.228.3-.473A7.086,7.086,0,0,1,28.955,7.4l.106.758.729-.233a3.871,3.871,0,1,1,1.178,7.559H9.032a3.875,3.875,0,0,1-3.871-3.871ZM1.29,29.677h9.032v3.871H1.29ZM9.677,38.71H1.935a.646.646,0,0,1-.645-.645V34.839h9.032v3.226A.646.646,0,0,1,9.677,38.71Zm.645-13.548v3.226H1.29V25.161a.646.646,0,0,1,.645-.645H9.677A.646.646,0,0,1,10.322,25.161Zm5.161,4.516h9.032v3.871H15.484Zm8.387,9.032H16.129a.646.646,0,0,1-.645-.645V34.839h9.032v3.226A.646.646,0,0,1,23.871,38.71Zm.645-13.548v3.226H15.484V25.161a.646.646,0,0,1,.645-.645h7.742A.646.646,0,0,1,24.516,25.161Zm5.806-.645h7.742a.646.646,0,0,1,.645.645v3.226H29.677V25.161A.646.646,0,0,1,30.322,24.516Zm8.387,5.161v3.871H29.677V29.677Zm-.645,9.032H30.322a.646.646,0,0,1-.645-.645V34.839h9.032v3.226A.646.646,0,0,1,38.064,38.71Zm0,0" transform="translate(0.001 0)" fill="#fff"/>
    <path id="Path_12298" data-name="Path 12298" d="M384,320h1.3v1.3H384Zm0,0" transform="translate(-353.044 -294.203)" fill="#fff"/>
    <path id="Path_12299" data-name="Path 12299" d="M416,320h1.3v1.3H416Zm0,0" transform="translate(-382.525 -294.203)" fill="#fff"/>
    <path id="Path_12300" data-name="Path 12300" d="M448,384h1.3v1.3H448Zm0,0" transform="translate(-411.915 -353.044)" fill="#fff"/>
    <path id="Path_12301" data-name="Path 12301" d="M416,384h1.3v1.3H416Zm0,0" transform="translate(-382.525 -353.044)" fill="#fff"/>
    <path id="Path_12302" data-name="Path 12302" d="M416,448h1.3v1.3H416Zm0,0" transform="translate(-382.525 -411.915)" fill="#fff"/>
    <path id="Path_12303" data-name="Path 12303" d="M448,448h1.3v1.3H448Zm0,0" transform="translate(-411.915 -411.915)" fill="#fff"/>
    <path id="Path_12304" data-name="Path 12304" d="M384,448h1.3v1.3H384Zm0,0" transform="translate(-353.044 -411.915)" fill="#fff"/>
    <path id="Path_12305" data-name="Path 12305" d="M221.09,33.751l.922.922a4.574,4.574,0,0,1,6.46,0l.922-.922a5.879,5.879,0,0,0-8.3,0Zm0,0" transform="translate(-203.312 -29.421)" fill="#fff"/>
    <path id="Path_12306" data-name="Path 12306" d="M386.61,114.61A2.613,2.613,0,0,0,384,112v1.3a1.305,1.305,0,0,1,0,2.61v1.3A2.613,2.613,0,0,0,386.61,114.61Zm0,0" transform="translate(-353.056 -102.983)" fill="#fff"/>
  </g>
</svg>
