<svg xmlns="http://www.w3.org/2000/svg" width="40.005" height="40" viewBox="0 0 40.005 40">
  <g id="Outline" transform="translate(0 0)">
    <path id="Path_12267" data-name="Path 12267" d="M17.957,39.44a6.668,6.668,0,0,1,4.076-11.352,7.338,7.338,0,0,1,9.825-6.253,10.671,10.671,0,0,1,20,6.714,6.743,6.743,0,0,1,2.817,2.169,6.668,6.668,0,0,1-5.329,10.675h-.667V40.059h.667a5.335,5.335,0,0,0,1.551-10.438.667.667,0,0,1-.456-.788A9.337,9.337,0,0,0,32.8,22.963a.667.667,0,0,1-.9.334,5.943,5.943,0,0,0-2.561-.574,6.008,6.008,0,0,0-6,6,.667.667,0,0,1-.667.667,5.334,5.334,0,1,0,0,10.668h.667v1.334h-.667A6.624,6.624,0,0,1,17.957,39.44ZM40.614,18.756a8.012,8.012,0,0,0-1.455.27l.364,1.283a6.674,6.674,0,0,1,1.212-.225Zm-2.049,1.906-.556-1.212a8.02,8.02,0,0,0-3.214,2.671l1.09.768A6.687,6.687,0,0,1,38.564,20.663Zm7.444,30.064V48.916a5.322,5.322,0,0,1-4,1.812h-12a5.322,5.322,0,0,1-4-1.812v1.812a4.005,4.005,0,0,0,4,4h12a4.022,4.022,0,0,0,3.616-2.286l1.2.572a5.362,5.362,0,0,1-4.82,3.048h-12a5.34,5.34,0,0,1-5.334-5.334v-16A5.3,5.3,0,0,1,26.2,30.992l.952.933a4,4,0,0,0,2.858,6.8h12a4,4,0,1,0,0-8h-12a3.993,3.993,0,0,0-2.061.571l-.688-1.142a5.326,5.326,0,0,1,2.749-.763h12a5.34,5.34,0,0,1,5.334,5.334v16a5.4,5.4,0,0,1-.054.761l-1.32-.188a4.067,4.067,0,0,0,.041-.572Zm-20-10.668a4.005,4.005,0,0,0,4,4h12a4.005,4.005,0,0,0,4-4V38.248a5.322,5.322,0,0,1-4,1.812h-12a5.322,5.322,0,0,1-4-1.812Zm20,5.334V43.582a5.322,5.322,0,0,1-4,1.812h-12a5.322,5.322,0,0,1-4-1.812v1.812a4.005,4.005,0,0,0,4,4h12a4.005,4.005,0,0,0,4-4Zm-16-12V32.058a2.667,2.667,0,0,0-2.514,3.557l1.257-.446a1.334,1.334,0,0,1,1.258-1.777Zm5.334,8H34.007v1.333H35.34Zm2.667,0H36.674v1.333h1.334Zm2.667,0H39.341v1.333h1.334Zm-8,0H31.34v1.333h1.334Zm1.333,6.668H35.34V46.727H34.007Zm2.667,0h1.334V46.727H36.674Zm2.667,0h1.334V46.727H39.341Zm-8,0h1.334V46.727H31.34Zm4,5.334V52.061H34.007v1.333Zm2.667,0V52.061H36.674v1.333Zm2.667,0V52.061H39.341v1.333Zm-8,0V52.061H31.34v1.333Z" transform="translate(-16.005 -16.061)" fill="#fff"/>
  </g>
</svg>
