<svg id="_004-24-hours" data-name="004-24-hours" xmlns="http://www.w3.org/2000/svg" width="40" height="40" viewBox="0 0 40 40">
  <g id="Group_2866" data-name="Group 2866">
    <g id="Group_2865" data-name="Group 2865">
      <path id="Path_12249" data-name="Path 12249" d="M332.8,285.472h-2.02V272.679a.673.673,0,0,0-1.225-.386l-9.427,13.467a.673.673,0,0,0,.551,1.059h8.753v2.02a.673.673,0,1,0,1.347,0v-2.02h2.02a.673.673,0,1,0,0-1.347Zm-3.367,0h-7.461l7.461-10.658Z" transform="translate(-293.47 -249.512)" fill="#fff"/>
      <path id="Path_12250" data-name="Path 12250" d="M218.1,288.148h-7.972l7.411-8.727a.725.725,0,0,0,.047-.063A4.684,4.684,0,0,0,216.53,273a5.387,5.387,0,0,0-8.53,4.375.673.673,0,1,0,1.347,0,4.04,4.04,0,0,1,6.4-3.282,3.324,3.324,0,0,1,.741,4.488l-8.324,9.805a.673.673,0,0,0,.513,1.109H218.1a.673.673,0,0,0,0-1.347Z" transform="translate(-190.73 -249.494)" fill="#fff"/>
      <path id="Path_12251" data-name="Path 12251" d="M18.014,35.307a.666.666,0,0,0-.641-.691h0A16.637,16.637,0,0,1,1.357,18.646H4a.666.666,0,1,0,0-1.332H1.357A16.617,16.617,0,0,1,17.332,1.356V3.33a.667.667,0,0,0,1.333,0V1.356A16.629,16.629,0,0,1,34.633,17l-2.6-2.6a.666.666,0,0,0-.943.942l3.721,3.717a.655.655,0,0,0,.263.191.765.765,0,0,0,.079.019.66.66,0,0,0,.141.034h.038a.643.643,0,0,0,.149-.029.627.627,0,0,0,.081-.015.657.657,0,0,0,.241-.15l3.772-3.766a.666.666,0,0,0-.943-.942l-2.665,2.66A17.963,17.963,0,0,0,18.046.009C18.03.009,18.016,0,18,0s-.031.009-.047.009A17.957,17.957,0,0,0,.009,17.933c0,.017-.009.031-.009.047s.009.031.009.047a17.972,17.972,0,0,0,17.314,17.92h.025A.666.666,0,0,0,18.014,35.307Z" fill="#fff"/>
      <path id="Path_12252" data-name="Path 12252" d="M166,106.375a.673.673,0,0,0-.952,0l-7.236,7.235a2.109,2.109,0,0,0-1.718,0l-3.426-3.426a.673.673,0,0,0-.952.952l3.419,3.419a2.016,2.016,0,1,0,3.635,0L166,107.327A.673.673,0,0,0,166,106.375Zm-8.57,9.522h0a.689.689,0,0,1-.952,0,.673.673,0,1,1,.952,0Z" transform="translate(-138.975 -97.364)" fill="#fff"/>
    </g>
  </g>
</svg>
