<svg id="discover" xmlns="http://www.w3.org/2000/svg" width="41.739" height="30" viewBox="0 0 41.739 30">
  <path id="Path_12048" data-name="Path 12048" d="M2.609,41.029H39.13a2.609,2.609,0,0,1,2.609,2.609V68.42a2.61,2.61,0,0,1-2.609,2.609H2.609A2.61,2.61,0,0,1,0,68.42V43.638A2.609,2.609,0,0,1,2.609,41.029Z" transform="translate(0 -41.029)" fill="#e4e7e7"/>
  <path id="Path_12049" data-name="Path 12049" d="M39.632,77.381h-3.18v10.44h3.163a6.019,6.019,0,0,0,3.957-1.205,5.138,5.138,0,0,0,2.013-4.011C45.585,79.523,43.138,77.381,39.632,77.381Zm2.356,7.191a3.764,3.764,0,0,1-2.447.626h-.479V80h.479a3.7,3.7,0,0,1,2.447.634,2.485,2.485,0,0,1,.987,1.956A2.525,2.525,0,0,1,41.988,84.572Zm4.9,3.248h2.59V77.363h-2.59Zm8.472-6.415c-1.324-.433-1.713-.721-1.713-1.259,0-.629.694-1.111,1.643-1.111a2.4,2.4,0,0,1,1.78.81l1.15-1.334A5.328,5.328,0,0,0,54.9,77.4c-2,0-3.522,1.23-3.522,2.864,0,1.383.711,2.087,2.778,2.747a9.133,9.133,0,0,1,1.523.571,1.175,1.175,0,0,1,.663,1.033,1.54,1.54,0,0,1-1.713,1.411,2.653,2.653,0,0,1-2.405-1.334l-1.42,1.218a4.549,4.549,0,0,0,3.91,1.907c2.286,0,3.895-1.353,3.895-3.288C58.614,82.939,57.871,82.219,55.364,81.405Zm7.186,1.18a2.917,2.917,0,0,1,2.979-2.907,3.081,3.081,0,0,1,2.228.951V77.992a5.177,5.177,0,0,0-2.443-.609A5.3,5.3,0,0,0,59.894,82.6a5.219,5.219,0,0,0,5.374,5.2,5.556,5.556,0,0,0,2.487-.58V84.58a2.94,2.94,0,0,1-2.147.927A2.874,2.874,0,0,1,62.549,82.586Z" transform="translate(-31.237 -72.165)" fill="#324d5b"/>
  <path id="Path_12050" data-name="Path 12050" d="M148.516,172.6a2.61,2.61,0,0,0,2.609-2.609V159.559L127.646,172.6Z" transform="translate(-109.385 -142.602)" fill="#f4b459"/>
</svg>
