<svg xmlns="http://www.w3.org/2000/svg" width="40" height="40" viewBox="0 0 40 40">
  <g id="servers_1_" data-name="servers (1)" transform="translate(0)">
    <path id="Path_12334" data-name="Path 12334" d="M134.212,114.521a.586.586,0,0,0-.586.586v2.342a.586.586,0,0,0,.586.586h2.344a.586.586,0,0,0,.586-.586v-2.342a.586.586,0,0,0-.586-.586Zm1.758,2.342H134.8v-1.17h1.172Z" transform="translate(-123.187 -105.574)" fill="#f80"/>
    <path id="Path_12335" data-name="Path 12335" d="M193.626,115.107v2.342a.586.586,0,0,0,.586.586h2.344a.586.586,0,0,0,.586-.586v-2.342a.586.586,0,0,0-.586-.586h-2.344A.586.586,0,0,0,193.626,115.107Zm1.172.586h1.172v1.17H194.8Z" transform="translate(-178.499 -105.574)" fill="#f80"/>
    <path id="Path_12336" data-name="Path 12336" d="M134.212,236.525h2.344a.586.586,0,0,0,.586-.586V233.6a.586.586,0,0,0-.586-.586h-2.344a.586.586,0,0,0-.586.586v2.342A.586.586,0,0,0,134.212,236.525Zm.586-2.342h1.172v1.17H134.8Z" transform="translate(-123.187 -214.807)" fill="#f80"/>
    <path id="Path_12337" data-name="Path 12337" d="M194.212,236.525h2.344a.586.586,0,0,0,.586-.586V233.6a.586.586,0,0,0-.586-.586h-2.344a.586.586,0,0,0-.586.586v2.342A.586.586,0,0,0,194.212,236.525Zm.586-2.342h1.172v1.17H194.8Z" transform="translate(-178.499 -214.807)" fill="#f80"/>
    <path id="Path_12338" data-name="Path 12338" d="M134.212,355.015h2.344a.586.586,0,0,0,.586-.586v-2.342a.586.586,0,0,0-.586-.586h-2.344a.586.586,0,0,0-.586.586v2.342A.586.586,0,0,0,134.212,355.015Zm.586-2.342h1.172v1.17H134.8Z" transform="translate(-123.187 -324.04)" fill="#f80"/>
    <path id="Path_12339" data-name="Path 12339" d="M194.212,355.015h2.344a.586.586,0,0,0,.586-.586v-2.342a.586.586,0,0,0-.586-.586h-2.344a.586.586,0,0,0-.586.586v2.342A.586.586,0,0,0,194.212,355.015Zm.586-2.342h1.172v1.17H194.8Z" transform="translate(-178.499 -324.04)" fill="#f80"/>
    <path id="Path_12340" data-name="Path 12340" d="M39.414,0H37.07a.586.586,0,0,0-.586.586V1.17h-8.2a.586.586,0,0,0-.423.181L26.217,3a.586.586,0,0,0-.172.415v3.25H20.586V3.511h.586a.586.586,0,0,0,.586-.586V.586A.586.586,0,0,0,21.172,0H18.828a.586.586,0,0,0-.586.586v2.34a.586.586,0,0,0,.586.586h.586V6.661H18.145a.586.586,0,0,0,0,1.172h12.6v5.743H9.258V7.832h6.185a.586.586,0,0,0,0-1.172H13.955V3.41A.586.586,0,0,0,13.783,3L12.138,1.353a.586.586,0,0,0-.426-.183h-8.2V.586A.586.586,0,0,0,2.93,0H.586A.586.586,0,0,0,0,.586v2.34a.586.586,0,0,0,.586.586H2.93a.586.586,0,0,0,.586-.586V2.342h7.954l1.314,1.312V6.66H8.672a.586.586,0,0,0-.586.586v6.915a.586.586,0,0,0,.586.586h.977v1.17H8.672a.586.586,0,0,0-.586.586v6.915A.586.586,0,0,0,8.672,24h.977v1.17H8.672a.586.586,0,0,0-.586.586v6.915a.586.586,0,0,0,.586.586h4.111v3.085l-1.314,1.312H3.516v-.584a.586.586,0,0,0-.586-.586H.586A.586.586,0,0,0,0,37.074v2.34A.586.586,0,0,0,.586,40H2.93a.586.586,0,0,0,.586-.586V38.83h8.2a.586.586,0,0,0,.423-.181L13.783,37a.586.586,0,0,0,.172-.415V33.261h5.459v3.227h-.586a.586.586,0,0,0-.586.586v2.34a.586.586,0,0,0,.586.586h2.344a.586.586,0,0,0,.586-.586v-2.34a.586.586,0,0,0-.586-.586h-.586V33.261h5.459V36.59a.586.586,0,0,0,.172.415l1.645,1.643a.586.586,0,0,0,.426.183h8.2v.584A.586.586,0,0,0,37.07,40h2.344A.586.586,0,0,0,40,39.414v-2.34a.586.586,0,0,0-.586-.586H37.07a.586.586,0,0,0-.586.586v.584H28.531l-1.314-1.312V33.261h4.111a.586.586,0,0,0,.586-.586V25.761a.586.586,0,0,0-.586-.586h-.977V24h.977a.586.586,0,0,0,.586-.586V16.5a.586.586,0,0,0-.586-.586h-.977v-1.17h.977a.586.586,0,0,0,.586-.586V7.246a.586.586,0,0,0-.586-.586H27.217V3.653l1.314-1.312h7.954v.584a.586.586,0,0,0,.586.586h2.344A.586.586,0,0,0,40,2.926V.586A.586.586,0,0,0,39.414,0Zm-20,1.172h1.172V2.34H19.414ZM2.344,2.34H1.172V1.172H2.344Zm0,36.489H1.172V37.66H2.344ZM37.656,37.66h1.172v1.168H37.656ZM10.82,14.747H29.18v1.17H10.82Zm9.766,24.081H19.414V37.66h1.172ZM30.742,26.346V32.09H9.258V26.346Zm0-9.257v5.743H26.006a.586.586,0,0,0,0,1.172H29.18v1.17H10.82V24H23.252a.586.586,0,0,0,0-1.172H9.258V17.089ZM38.828,2.34H37.656V1.172h1.172Z" fill="#f80"/>
    <path id="Path_12341" data-name="Path 12341" d="M264.706,367.661a.586.586,0,1,0-.586-.586A.586.586,0,0,0,264.706,367.661Z" transform="translate(-243.486 -337.857)" fill="#f80"/>
    <path id="Path_12342" data-name="Path 12342" d="M308.206,367.661a.586.586,0,1,0-.586-.586A.586.586,0,0,0,308.206,367.661Z" transform="translate(-283.587 -337.857)" fill="#f80"/>
    <path id="Path_12343" data-name="Path 12343" d="M351.706,367.661a.586.586,0,1,0-.586-.586A.586.586,0,0,0,351.706,367.661Z" transform="translate(-323.689 -337.857)" fill="#f80"/>
    <path id="Path_12344" data-name="Path 12344" d="M264.706,249.09a.586.586,0,1,0-.586-.586A.586.586,0,0,0,264.706,249.09Z" transform="translate(-243.486 -228.549)" fill="#f80"/>
    <path id="Path_12345" data-name="Path 12345" d="M308.206,249.09a.586.586,0,1,0-.586-.586A.586.586,0,0,0,308.206,249.09Z" transform="translate(-283.587 -228.549)" fill="#f80"/>
    <path id="Path_12346" data-name="Path 12346" d="M351.706,249.09a.586.586,0,1,0-.586-.586A.586.586,0,0,0,351.706,249.09Z" transform="translate(-323.689 -228.549)" fill="#f80"/>
    <path id="Path_12347" data-name="Path 12347" d="M265.292,129.944a.586.586,0,1,0-.586.586A.586.586,0,0,0,265.292,129.944Z" transform="translate(-243.486 -119.252)" fill="#f80"/>
    <path id="Path_12348" data-name="Path 12348" d="M308.792,129.944a.586.586,0,1,0-.586.586A.586.586,0,0,0,308.792,129.944Z" transform="translate(-283.587 -119.252)" fill="#f80"/>
    <path id="Path_12349" data-name="Path 12349" d="M352.292,129.944a.586.586,0,1,0-.586.586A.586.586,0,0,0,352.292,129.944Z" transform="translate(-323.689 -119.252)" fill="#f80"/>
  </g>
</svg>
