<svg xmlns="http://www.w3.org/2000/svg" width="40.908" height="43.112" viewBox="0 0 40.908 43.112">
  <g id="Group_1985" data-name="Group 1985" transform="translate(0 1.137)">
    <path id="support" d="M34.764,39.481a4.242,4.242,0,0,1,0,6l-1.023,1.023a.707.707,0,1,1-1-1l1.023-1.023a2.828,2.828,0,0,0,0-4l-3.94-3.94a2.833,2.833,0,0,0-4,0l-1.647,1.647a3.418,3.418,0,0,1-4.836,0l-7.3-7.3a3.418,3.418,0,0,1,0-4.836L13.69,24.41a2.833,2.833,0,0,0,0-4l-3.94-3.939a2.828,2.828,0,0,0-4,0L4.31,17.907a9.9,9.9,0,0,0,0,14.007L18.318,45.922A9.911,9.911,0,0,0,28.93,48.145a.707.707,0,0,1,.515,1.318,11.326,11.326,0,0,1-12.127-2.541L3.31,32.915a11.332,11.332,0,0,1,0-16.008l1.438-1.438a4.242,4.242,0,0,1,6,0l3.94,3.939a4.25,4.25,0,0,1,0,6l-1.647,1.647a2,2,0,0,0,0,2.835l7.3,7.3a2.007,2.007,0,0,0,2.835,0l1.647-1.647a4.25,4.25,0,0,1,6,0Z" transform="translate(0 -8.264)" fill="#2882d8"/>
    <g id="Group_1984" data-name="Group 1984" transform="translate(13.436 0)">
      <path id="Path_11557" data-name="Path 11557" d="M0,4.426S3.594-.316,9.469.017A10.388,10.388,0,0,1,19.111,9a9.24,9.24,0,0,1-5.239,10.083" transform="translate(0 2.684) rotate(-8)" fill="none" stroke="#2882d8" stroke-linecap="round" stroke-width="2"/>
      <text id="_" data-name="&gt;" transform="translate(19.297 15.386) rotate(132)" fill="#2882d8" font-size="10" font-family="Poppins-Regular, Poppins"><tspan x="0" y="0">&gt;</tspan></text>
    </g>
  </g>
</svg>
