<svg xmlns="http://www.w3.org/2000/svg" width="524.468" height="659.929" viewBox="0 0 524.468 659.929">
  <g id="Group_1403" data-name="Group 1403" transform="translate(-261.467 -24.308)">
    <path id="Path_8181" data-name="Path 8181" d="M532.175,286.974a8.155,8.155,0,0,1-4.2-1.163l-25.181-15.1,1.524-2.542,25.181,15.1a5.186,5.186,0,0,0,5.3.03l40.983-23.97a2.059,2.059,0,0,0-.061-3.594L521.1,226.486l1.4-2.615,54.622,29.25a5.022,5.022,0,0,1,.158,8.767L536.3,285.856A8.15,8.15,0,0,1,532.175,286.974Z" transform="translate(206.163 170.485)" fill="#b2d3ea"/>
    <path id="Path_8182" data-name="Path 8182" d="M515.8,446.386a10.6,10.6,0,0,1-5.155-1.333l-100.5-55.94a4.624,4.624,0,0,1-.026-8.066l45.48-25.648a1.582,1.582,0,0,0,.009-2.744l-50.6-29.053a4.543,4.543,0,0,1-.165-7.777l20.67-13.1,1.587,2.5-20.672,13.1a1.58,1.58,0,0,0,.057,2.7l50.6,29.055a4.545,4.545,0,0,1-.03,7.892l-45.48,25.649a1.661,1.661,0,0,0,.011,2.9l100.493,55.94a7.665,7.665,0,0,0,7.677-.141l38.211-23.492a.71.71,0,0,0,.349-.621.727.727,0,0,0-.35-.621l-27.657-16.813,1.539-2.531,27.657,16.813a3.692,3.692,0,0,1,.017,6.3l-38.221,23.5A10.619,10.619,0,0,1,515.8,446.386Z" transform="translate(120.685 237.851)" fill="#b2d3ea"/>
    <g id="Group_1339" data-name="Group 1339" transform="translate(615.347 275.28)">
      <path id="Path_8183" data-name="Path 8183" d="M510.364,287.9l-48.451-27.972c-2.973-1.717-2.6-4.715.832-6.7l46.784-27.01c3.434-1.98,8.626-2.2,11.6-.48l48.451,27.972c2.973,1.717,2.6,4.715-.832,6.7l-46.784,27.011C518.531,289.4,513.339,289.612,510.364,287.9Z" transform="translate(-445.822 -104.192)" fill="#b2d3ea"/>
      <g id="Group_1333" data-name="Group 1333" transform="translate(0 66.906)">
        <path id="Path_8184" data-name="Path 8184" d="M592.139,243.437h0V222.5l-46.941-.026-16.225-9.368c-3.723-2.149-10.226-1.88-14.527.6l-15.138,8.739-46.982-.026v21.528c-.1,1.456.706,2.859,2.5,3.894l60.671,35.026c3.723,2.151,10.226,1.882,14.526-.6l58.581-33.82C591.08,247.018,592.276,245.164,592.139,243.437Z" transform="translate(-452.307 -182.133)" fill="#396caa"/>
        <path id="Path_8185" data-name="Path 8185" d="M522.232,211.666a16.726,16.726,0,0,0-7.786,2.042l-15.138,8.739-46.982-.026v21.528c-.1,1.456.706,2.859,2.5,3.894l60.671,35.026a13.129,13.129,0,0,0,6.74,1.441Z" transform="translate(-452.307 -182.127)" fill="#396caa"/>
        <path id="Path_8186" data-name="Path 8186" d="M457.643,217.47l-5.318,0v21.528c-.1,1.456.706,2.859,2.5,3.894l2.822,1.63Z" transform="translate(-452.307 -177.172)" fill="#5793ce"/>
        <path id="Path_8187" data-name="Path 8187" d="M486.89,261.636A16.542,16.542,0,0,0,498.5,261.5V237.059H486.89Z" transform="translate(-422.771 -160.434)" fill="#5793ce"/>
        <path id="Path_8188" data-name="Path 8188" d="M515.5,275.027,454.825,240c-3.723-2.151-3.258-5.906,1.042-8.387L514.45,197.79c4.3-2.483,10.8-2.754,14.527-.6l60.67,35.028c3.723,2.149,3.256,5.906-1.044,8.389l-58.581,33.82C525.722,276.908,519.219,277.176,515.5,275.027Z" transform="translate(-452.311 -195.736)" fill="#d4ecff"/>
        <path id="Path_8189" data-name="Path 8189" d="M511.37,265.71l-50.843-29.353c-3.121-1.8-2.73-4.947.873-7.028l49.092-28.345c3.6-2.081,9.054-2.307,12.173-.5l50.843,29.353c3.121,1.8,2.729,4.949-.873,7.028l-49.092,28.345C519.94,267.286,514.488,267.51,511.37,265.71Z" transform="translate(-447.092 -192.723)" fill="#5793ce"/>
        <g id="Group_1332" data-name="Group 1332" transform="translate(112.615 55.976)">
          <path id="Path_8190" data-name="Path 8190" d="M517.944,232.581a5.41,5.41,0,0,1-2.451,4.244c-1.352.781-2.45.148-2.45-1.413a5.418,5.418,0,0,1,2.45-4.244C516.848,230.386,517.944,231.02,517.944,232.581Z" transform="translate(-513.043 -221.729)" fill="#d4ecff"/>
          <path id="Path_8191" data-name="Path 8191" d="M522.194,230.128a5.413,5.413,0,0,1-2.449,4.243c-1.352.783-2.45.148-2.45-1.413a5.418,5.418,0,0,1,2.45-4.244C521.1,227.933,522.194,228.563,522.194,230.128Z" transform="translate(-509.411 -223.826)" fill="#d4ecff"/>
          <path id="Path_8192" data-name="Path 8192" d="M526.446,227.673a5.416,5.416,0,0,1-2.45,4.244c-1.352.781-2.45.146-2.45-1.415a5.424,5.424,0,0,1,2.45-4.246C525.35,225.478,526.446,226.11,526.446,227.673Z" transform="translate(-505.778 -225.923)" fill="#d4ecff"/>
        </g>
      </g>
      <g id="Group_1335" data-name="Group 1335" transform="translate(0 33.453)">
        <path id="Path_8193" data-name="Path 8193" d="M592.139,225.4h0V204.463l-46.941-.026-16.225-9.368c-3.723-2.149-10.226-1.88-14.527.6l-15.138,8.739-46.982-.026v21.528c-.1,1.456.706,2.859,2.5,3.894l60.671,35.026c3.723,2.151,10.226,1.882,14.526-.6L588.6,230.41C591.08,228.979,592.276,227.125,592.139,225.4Z" transform="translate(-452.307 -164.092)" fill="#396caa"/>
        <path id="Path_8194" data-name="Path 8194" d="M522.232,193.624a16.749,16.749,0,0,0-7.786,2.043l-15.138,8.739-46.982-.026v21.528c-.1,1.456.706,2.859,2.5,3.894l60.671,35.026a13.128,13.128,0,0,0,6.74,1.441Z" transform="translate(-452.307 -164.087)" fill="#396caa"/>
        <path id="Path_8195" data-name="Path 8195" d="M457.643,199.429l-5.318,0v21.528c-.1,1.456.706,2.859,2.5,3.894l2.822,1.63Z" transform="translate(-452.307 -159.131)" fill="#5793ce"/>
        <path id="Path_8196" data-name="Path 8196" d="M486.89,243.593a16.531,16.531,0,0,0,11.612-.132V219.018H486.89Z" transform="translate(-422.771 -142.393)" fill="#5793ce"/>
        <path id="Path_8197" data-name="Path 8197" d="M515.5,256.986l-60.671-35.028c-3.723-2.149-3.258-5.9,1.042-8.387L514.45,179.75c4.3-2.483,10.8-2.754,14.527-.6l60.67,35.028c3.723,2.149,3.256,5.906-1.044,8.389l-58.581,33.82C525.722,258.866,519.219,259.135,515.5,256.986Z" transform="translate(-452.311 -177.695)" fill="#d4ecff"/>
        <path id="Path_8198" data-name="Path 8198" d="M511.37,247.671l-50.843-29.355c-3.121-1.8-2.73-4.947.873-7.03l49.092-28.343c3.6-2.081,9.054-2.307,12.173-.5l50.843,29.353c3.121,1.8,2.729,4.949-.873,7.028l-49.092,28.345C519.94,249.245,514.488,249.469,511.37,247.671Z" transform="translate(-447.092 -174.682)" fill="#5793ce"/>
        <g id="Group_1334" data-name="Group 1334" transform="translate(112.615 55.977)">
          <path id="Path_8199" data-name="Path 8199" d="M517.944,214.54a5.41,5.41,0,0,1-2.451,4.244c-1.352.781-2.45.148-2.45-1.413a5.418,5.418,0,0,1,2.45-4.244C516.848,212.345,517.944,212.979,517.944,214.54Z" transform="translate(-513.043 -203.688)" fill="#d4ecff"/>
          <path id="Path_8200" data-name="Path 8200" d="M522.194,212.087a5.413,5.413,0,0,1-2.449,4.243c-1.352.782-2.45.148-2.45-1.413a5.418,5.418,0,0,1,2.45-4.244C521.1,209.891,522.194,210.524,522.194,212.087Z" transform="translate(-509.411 -205.785)" fill="#d4ecff"/>
          <path id="Path_8201" data-name="Path 8201" d="M526.446,209.632a5.416,5.416,0,0,1-2.45,4.244c-1.352.781-2.45.146-2.45-1.415a5.418,5.418,0,0,1,2.45-4.244C525.35,207.436,526.446,208.069,526.446,209.632Z" transform="translate(-505.778 -207.883)" fill="#d4ecff"/>
        </g>
      </g>
      <g id="Group_1338" data-name="Group 1338" transform="translate(0 0)">
        <path id="Path_8202" data-name="Path 8202" d="M592.139,207.355h0V186.422L545.2,186.4l-16.225-9.368c-3.723-2.149-10.226-1.88-14.527.6l-15.138,8.739-46.982-.026v21.53c-.1,1.454.706,2.857,2.5,3.892l60.671,35.026c3.723,2.151,10.226,1.882,14.526-.6L588.6,212.369C591.08,210.938,592.276,209.082,592.139,207.355Z" transform="translate(-452.307 -146.052)" fill="#396caa"/>
        <path id="Path_8203" data-name="Path 8203" d="M522.232,175.583a16.75,16.75,0,0,0-7.786,2.043l-15.138,8.739-46.982-.026v21.53c-.1,1.454.706,2.857,2.5,3.892l60.671,35.026a13.128,13.128,0,0,0,6.74,1.441Z" transform="translate(-452.307 -146.047)" fill="#396caa"/>
        <path id="Path_8204" data-name="Path 8204" d="M457.643,181.388l-5.318,0v21.53c-.1,1.454.706,2.857,2.5,3.892l2.822,1.63Z" transform="translate(-452.307 -141.091)" fill="#5793ce"/>
        <path id="Path_8205" data-name="Path 8205" d="M486.89,225.553a16.531,16.531,0,0,0,11.612-.132V200.976H486.89Z" transform="translate(-422.771 -124.354)" fill="#5793ce"/>
        <path id="Path_8206" data-name="Path 8206" d="M515.5,238.945l-60.671-35.028c-3.723-2.149-3.258-5.9,1.042-8.387l58.583-33.822c4.3-2.483,10.8-2.752,14.527-.6l60.67,35.028c3.723,2.149,3.256,5.906-1.044,8.389l-58.581,33.82C525.722,240.827,519.219,241.094,515.5,238.945Z" transform="translate(-452.311 -159.654)" fill="#d4ecff"/>
        <path id="Path_8207" data-name="Path 8207" d="M588.6,182.836l-58.581,33.822c-4.3,2.481-10.8,2.752-14.527.6l-60.671-35.028a5.6,5.6,0,0,1-1.858-1.648c-1.28,2.058-.7,4.293,1.858,5.769L515.5,221.379c3.724,2.149,10.227,1.88,14.527-.6l58.581-33.82c3.341-1.93,4.358-4.625,2.9-6.74A8.124,8.124,0,0,1,588.6,182.836Z" transform="translate(-452.311 -142.089)" fill="#fff"/>
        <g id="Group_1336" data-name="Group 1336" transform="translate(112.615 55.976)">
          <path id="Path_8208" data-name="Path 8208" d="M517.944,196.5a5.41,5.41,0,0,1-2.451,4.244c-1.352.783-2.45.15-2.45-1.413a5.418,5.418,0,0,1,2.45-4.244C516.848,194.3,517.944,194.936,517.944,196.5Z" transform="translate(-513.043 -185.648)" fill="#d4ecff"/>
          <path id="Path_8209" data-name="Path 8209" d="M522.194,194.046a5.419,5.419,0,0,1-2.449,4.244c-1.352.781-2.45.146-2.45-1.415a5.425,5.425,0,0,1,2.45-4.246C521.1,191.851,522.194,192.483,522.194,194.046Z" transform="translate(-509.411 -187.745)" fill="#d4ecff"/>
          <path id="Path_8210" data-name="Path 8210" d="M526.446,191.591a5.416,5.416,0,0,1-2.45,4.244c-1.352.781-2.45.148-2.45-1.415a5.418,5.418,0,0,1,2.45-4.244C525.35,189.4,526.446,190.028,526.446,191.591Z" transform="translate(-505.778 -189.842)" fill="#d4ecff"/>
        </g>
        <g id="Group_1337" data-name="Group 1337" transform="translate(37.204 20.47)">
          <path id="Path_8211" data-name="Path 8211" d="M501.942,207.8l-28.389-16.392c-1.743-1.007-1.526-2.763.486-3.926l27.416-15.826a7.561,7.561,0,0,1,6.8-.284l28.389,16.392c1.743,1.007,1.524,2.765-.486,3.926l-27.416,15.828A7.561,7.561,0,0,1,501.942,207.8Z" transform="translate(-472.375 -170.694)" fill="#5793ce"/>
          <path id="Path_8212" data-name="Path 8212" d="M491.671,185.667l-3.927-2.268c-.241-.139-.211-.382.067-.543l3.794-2.19a1.049,1.049,0,0,1,.94-.039l3.927,2.27c.241.137.211.382-.067.543l-3.794,2.188A1.043,1.043,0,0,1,491.671,185.667Z" transform="translate(-459.385 -162.287)" fill="#d4ecff"/>
          <path id="Path_8213" data-name="Path 8213" d="M473.552,191.407l.08.046c.132-.095.254-.193.406-.282l27.416-15.826a7.561,7.561,0,0,1,6.8-.282l28.309,16.346c1.606-1.15,1.689-2.715.08-3.646l-28.389-16.392a7.561,7.561,0,0,0-6.8.284l-27.416,15.826C472.026,188.644,471.809,190.4,473.552,191.407Z" transform="translate(-472.375 -170.694)" fill="#396caa"/>
        </g>
      </g>
    </g>
    <g id="Group_1359" data-name="Group 1359" transform="translate(456.682 180.818)">
      <g id="Group_1351" data-name="Group 1351">
        <g id="Group_1342" data-name="Group 1342">
          <path id="Path_8214" data-name="Path 8214" d="M477.7,361.338,372.982,301.63c-3.829-2.212-3.351-6.073,1.072-8.626l60.25-34.786c4.422-2.553,11.113-2.83,14.942-.619l104.715,59.71c3.829,2.21,3.349,6.075-1.074,8.626l-60.25,34.785C488.217,363.272,481.527,363.55,477.7,361.338Z" transform="translate(-363.624 17.204)" fill="#b2d3ea"/>
          <path id="Path_8215" data-name="Path 8215" d="M566.407,408.115h0V163.653l-97.185-25.435-17.9-10.336c-4.107-2.372-11.285-2.073-16.028.666l-16.7,9.642-51.835-.028L382.1,374.153c-.115,1.606.779,3.154,2.754,4.293l96.983,73.181c4.109,2.372,11.285,2.073,16.028-.664L562.5,413.646C565.241,412.066,566.561,410.021,566.407,408.115Z" transform="translate(-366.734 -93.704)" fill="#396caa"/>
          <path id="Path_8216" data-name="Path 8216" d="M443.89,126.287a18.489,18.489,0,0,0-8.593,2.255l-16.7,9.642-51.835-.028V383.275c-.119,1.6.779,3.154,2.752,4.293l112.333,64.055a14.5,14.5,0,0,0,7.439,1.589l1.159-246.65Z" transform="translate(-366.739 -93.699)" fill="#d4ecff"/>
          <path id="Path_8217" data-name="Path 8217" d="M429.377,416.489c3.544,1.517,8.669,1.432,12.811-.147V168.005H429.377Z" transform="translate(-313.238 -58.059)" fill="#5793ce"/>
          <path id="Path_8218" data-name="Path 8218" d="M481.851,221.6,369.518,157.548c-4.109-2.372-3.592-6.514,1.15-9.253L435.3,110.978c4.743-2.739,11.921-3.035,16.028-.664l112.333,64.055c4.109,2.372,3.594,6.514-1.15,9.253l-64.635,37.316C493.136,223.678,485.96,223.974,481.851,221.6Z" transform="translate(-366.744 -108.712)" fill="#d4ecff"/>
          <path id="Path_8219" data-name="Path 8219" d="M562.514,159.509l-64.635,37.316c-4.743,2.741-11.919,3.037-16.028.666L369.518,133.436a6.178,6.178,0,0,1-2.049-1.819c-1.413,2.271-.771,4.736,2.049,6.364L481.85,202.036c4.109,2.372,11.285,2.075,16.028-.666l64.635-37.316c3.686-2.127,4.806-5.1,3.2-7.434A9,9,0,0,1,562.514,159.509Z" transform="translate(-366.744 -89.145)" fill="#fafdff"/>
          <g id="Group_1341" data-name="Group 1341" transform="translate(42.197 20.724)">
            <path id="Path_8220" data-name="Path 8220" d="M465.588,186.095,390.8,142.742c-1.923-1.111-1.682-3.048.538-4.33l30.247-17.464a8.335,8.335,0,0,1,7.5-.31l74.789,43.353c1.923,1.109,1.68,3.048-.538,4.33l-30.247,17.462A8.341,8.341,0,0,1,465.588,186.095Z" transform="translate(-389.501 -119.889)" fill="#173d7a"/>
            <g id="Group_1340" data-name="Group 1340" transform="translate(31.198 19.137)">
              <path id="Path_8221" data-name="Path 8221" d="M410.84,135.872l-4.334-2.5c-.267-.154-.234-.423.074-.6l4.185-2.416a1.148,1.148,0,0,1,1.037-.043l4.334,2.5c.267.154.232.421-.074.6l-4.185,2.416A1.154,1.154,0,0,1,410.84,135.872Z" transform="translate(-406.326 -130.209)" fill="#d4ecff"/>
              <path id="Path_8222" data-name="Path 8222" d="M418.646,140.363l-4.333-2.5c-.265-.154-.232-.421.076-.6l4.183-2.416a1.157,1.157,0,0,1,1.038-.043l4.335,2.5c.263.154.232.423-.076.6l-4.185,2.414A1.152,1.152,0,0,1,418.646,140.363Z" transform="translate(-399.656 -126.374)" fill="#d4ecff"/>
              <path id="Path_8223" data-name="Path 8223" d="M426.455,144.851l-4.333-2.5c-.265-.154-.234-.423.074-.6l4.185-2.416a1.151,1.151,0,0,1,1.038-.043l4.332,2.5c.267.154.232.423-.074.6l-4.183,2.416A1.152,1.152,0,0,1,426.455,144.851Z" transform="translate(-392.985 -122.538)" fill="#d4ecff"/>
              <path id="Path_8224" data-name="Path 8224" d="M434.263,149.341l-4.333-2.5c-.267-.154-.232-.423.074-.6l4.185-2.414a1.154,1.154,0,0,1,1.036-.044l4.335,2.5c.265.154.232.421-.076.6L435.3,149.3A1.148,1.148,0,0,1,434.263,149.341Z" transform="translate(-386.315 -118.703)" fill="#d4ecff"/>
            </g>
            <path id="Path_8225" data-name="Path 8225" d="M390.8,142.742l.089.052a4.658,4.658,0,0,1,.449-.31l30.247-17.464a8.341,8.341,0,0,1,7.5-.31l74.7,43.3c1.773-1.268,1.865-2.995.089-4.02l-74.789-43.353a8.335,8.335,0,0,0-7.5.31l-30.247,17.464C389.117,139.693,388.876,141.631,390.8,142.742Z" transform="translate(-389.501 -119.889)" fill="#5793ce"/>
          </g>
        </g>
        <g id="Group_1344" data-name="Group 1344" transform="translate(139.424 109.697)">
          <path id="Path_8226" data-name="Path 8226" d="M446.268,219.5l42.521-24.347c2.394-1.381,4.333-5.088,4.333-8.279V171.667c0-3.191-1.94-4.658-4.333-3.277l-42.521,24.347c-2.4,1.381-4.333,5.088-4.333,8.279v15.205C441.934,219.413,443.872,220.88,446.268,219.5Z" transform="translate(-441.934 -167.871)" fill="#173d7a"/>
          <path id="Path_8227" data-name="Path 8227" d="M490.393,167.9a4.248,4.248,0,0,1,1.087,3.163v15.207c0,3.189-1.94,6.9-4.333,8.278L444.624,218.9a3.115,3.115,0,0,1-2.1.458,2.583,2.583,0,0,0,3.245.113l42.521-24.347c2.394-1.381,4.334-5.088,4.334-8.279V171.639C492.62,169.471,491.715,168.128,490.393,167.9Z" transform="translate(-441.433 -167.842)" fill="#fff"/>
          <g id="Group_1343" data-name="Group 1343" transform="translate(16.177 18.527)">
            <path id="Path_8228" data-name="Path 8228" d="M451.6,190.974l3.9-2.251a2.262,2.262,0,0,0,.944-1.806v-4.165c0-.7-.421-1.016-.944-.716l-3.9,2.253a2.266,2.266,0,0,0-.944,1.8v4.167C450.658,190.955,451.083,191.276,451.6,190.974Z" transform="translate(-450.658 -174.393)" fill="#396caa"/>
            <path id="Path_8229" data-name="Path 8229" d="M458.636,186.913l3.9-2.253a2.258,2.258,0,0,0,.944-1.8v-4.167c0-.7-.423-1.016-.944-.716l-3.9,2.253a2.261,2.261,0,0,0-.944,1.8V186.2C457.692,186.894,458.115,187.213,458.636,186.913Z" transform="translate(-444.649 -177.862)" fill="#fff"/>
          </g>
        </g>
        <g id="Group_1346" data-name="Group 1346" transform="translate(139.424 219.582)">
          <path id="Path_8230" data-name="Path 8230" d="M446.268,278.758l42.521-24.347c2.394-1.381,4.333-5.086,4.333-8.278V230.927c0-3.191-1.94-4.658-4.333-3.277L446.268,252c-2.4,1.381-4.333,5.088-4.333,8.279v15.207C441.934,278.675,443.872,280.14,446.268,278.758Z" transform="translate(-441.934 -227.131)" fill="#173d7a"/>
          <path id="Path_8231" data-name="Path 8231" d="M490.393,227.164a4.251,4.251,0,0,1,1.087,3.163v15.207c0,3.191-1.94,6.9-4.333,8.278l-42.523,24.349a3.123,3.123,0,0,1-2.1.456,2.583,2.583,0,0,0,3.245.113l42.521-24.347c2.394-1.381,4.334-5.086,4.334-8.278V230.9C492.62,228.733,491.715,227.388,490.393,227.164Z" transform="translate(-441.433 -227.102)" fill="#fff"/>
          <g id="Group_1345" data-name="Group 1345" transform="translate(16.177 18.528)">
            <path id="Path_8232" data-name="Path 8232" d="M451.6,250.233l3.9-2.251a2.256,2.256,0,0,0,.944-1.8v-4.167c0-.7-.421-1.016-.944-.714l-3.9,2.251a2.27,2.27,0,0,0-.944,1.806v4.167C450.658,250.217,451.083,250.536,451.6,250.233Z" transform="translate(-450.658 -233.653)" fill="#396caa"/>
            <path id="Path_8233" data-name="Path 8233" d="M458.636,246.174l3.9-2.253a2.265,2.265,0,0,0,.944-1.806v-4.167c0-.7-.423-1.014-.944-.712l-3.9,2.251a2.261,2.261,0,0,0-.944,1.8v4.167C457.692,246.154,458.115,246.475,458.636,246.174Z" transform="translate(-444.649 -237.122)" fill="#396caa"/>
          </g>
        </g>
        <g id="Group_1348" data-name="Group 1348" transform="translate(139.424 274.525)">
          <path id="Path_8234" data-name="Path 8234" d="M446.268,308.388l42.521-24.347c2.394-1.381,4.333-5.088,4.333-8.277V260.557c0-3.191-1.94-4.656-4.333-3.277l-42.521,24.349c-2.4,1.38-4.333,5.086-4.333,8.278v15.207C441.934,308.3,443.872,309.77,446.268,308.388Z" transform="translate(-441.934 -256.761)" fill="#173d7a"/>
          <path id="Path_8235" data-name="Path 8235" d="M490.393,256.794a4.254,4.254,0,0,1,1.087,3.163v15.207c0,3.191-1.94,6.9-4.333,8.279l-42.523,24.345a3.117,3.117,0,0,1-2.1.46,2.584,2.584,0,0,0,3.245.111l42.521-24.347c2.394-1.381,4.334-5.088,4.334-8.278V260.529C492.62,258.363,491.715,257.02,490.393,256.794Z" transform="translate(-441.433 -256.733)" fill="#fff"/>
          <g id="Group_1347" data-name="Group 1347" transform="translate(16.177 18.527)">
            <path id="Path_8236" data-name="Path 8236" d="M451.6,279.863l3.9-2.251a2.259,2.259,0,0,0,.944-1.8v-4.167c0-.7-.421-1.014-.944-.714l-3.9,2.253a2.266,2.266,0,0,0-.944,1.8v4.165C450.658,279.844,451.083,280.165,451.6,279.863Z" transform="translate(-450.658 -263.283)" fill="#fff"/>
            <path id="Path_8237" data-name="Path 8237" d="M458.636,275.8l3.9-2.253a2.268,2.268,0,0,0,.944-1.806V267.58c0-.7-.423-1.016-.944-.714l-3.9,2.251a2.262,2.262,0,0,0-.944,1.806v4.165C457.692,275.784,458.115,276.1,458.636,275.8Z" transform="translate(-444.649 -266.753)" fill="#396caa"/>
          </g>
        </g>
        <g id="Group_1350" data-name="Group 1350" transform="translate(139.424 164.639)">
          <path id="Path_8238" data-name="Path 8238" d="M446.268,249.128l42.521-24.347c2.394-1.381,4.333-5.088,4.333-8.279V201.3c0-3.191-1.94-4.658-4.333-3.277l-42.521,24.347c-2.4,1.381-4.333,5.088-4.333,8.279v15.205C441.934,249.043,443.872,250.51,446.268,249.128Z" transform="translate(-441.934 -197.501)" fill="#173d7a"/>
          <path id="Path_8239" data-name="Path 8239" d="M490.393,197.534a4.251,4.251,0,0,1,1.087,3.163V215.9c0,3.191-1.94,6.9-4.333,8.278l-42.523,24.347a3.115,3.115,0,0,1-2.1.458,2.583,2.583,0,0,0,3.245.113l42.521-24.347c2.394-1.381,4.334-5.088,4.334-8.279V201.269C492.62,199.1,491.715,197.758,490.393,197.534Z" transform="translate(-441.433 -197.472)" fill="#fff"/>
          <g id="Group_1349" data-name="Group 1349" transform="translate(16.177 18.528)">
            <path id="Path_8240" data-name="Path 8240" d="M451.6,220.6l3.9-2.251a2.26,2.26,0,0,0,.944-1.806v-4.165c0-.7-.421-1.016-.944-.714l-3.9,2.251a2.27,2.27,0,0,0-.944,1.806v4.165C450.658,220.585,451.083,220.906,451.6,220.6Z" transform="translate(-450.658 -204.023)" fill="#fff"/>
            <path id="Path_8241" data-name="Path 8241" d="M458.636,216.542l3.9-2.253a2.261,2.261,0,0,0,.944-1.8V208.32c0-.7-.423-1.016-.944-.714l-3.9,2.251a2.264,2.264,0,0,0-.944,1.8v4.167C457.692,216.524,458.115,216.843,458.636,216.542Z" transform="translate(-444.649 -207.493)" fill="#fff"/>
          </g>
        </g>
      </g>
      <g id="Group_1352" data-name="Group 1352" transform="translate(4.845 59.33)">
        <path id="Path_8242" data-name="Path 8242" d="M471.438,227.136l-98.1-56.641c-2.2-1.266-3.976-4.669-3.976-7.6V144.192c0-2.928,1.78-4.274,3.976-3.006l98.1,56.641c2.2,1.266,3.976,4.667,3.976,7.6V224.13C475.413,227.058,473.633,228.4,471.438,227.136Z" transform="translate(-369.357 -140.709)" fill="#5793ce"/>
        <path id="Path_8243" data-name="Path 8243" d="M466.421,217.445l-92.47-53.389a4.822,4.822,0,0,1-2.019-3.853V146.141c0-1.485.9-2.17,2.019-1.526L466.421,198a4.835,4.835,0,0,1,2.017,3.855v14.063C468.439,217.407,467.535,218.089,466.421,217.445Z" transform="translate(-367.157 -137.579)" fill="#d4ecff" opacity="0.4"/>
        <path id="Path_8244" data-name="Path 8244" d="M390.674,163.341l-13.8-7.968a4.691,4.691,0,0,1-1.96-3.742h0c0-1.444.877-2.106,1.96-1.482l13.8,7.968a4.691,4.691,0,0,1,1.958,3.742h0C392.632,163.3,391.755,163.964,390.674,163.341Z" transform="translate(-364.61 -132.844)" fill="#d4ecff"/>
        <path id="Path_8245" data-name="Path 8245" d="M391.84,161.355c0,1.441-1.012,2.027-2.262,1.305a5,5,0,0,1-2.262-3.918c0-1.441,1.012-2.027,2.262-1.305A5,5,0,0,1,391.84,161.355Z" transform="translate(-354.016 -126.681)" fill="#173d7a"/>
        <path id="Path_8246" data-name="Path 8246" d="M396.142,163.841c0,1.441-1.012,2.025-2.262,1.305a5,5,0,0,1-2.262-3.918c0-1.443,1.012-2.027,2.262-1.307A5,5,0,0,1,396.142,163.841Z" transform="translate(-350.34 -124.559)" fill="#173d7a"/>
        <path id="Path_8247" data-name="Path 8247" d="M400.445,166.325c0,1.441-1.012,2.027-2.26,1.305a5,5,0,0,1-2.262-3.918c0-1.443,1.012-2.027,2.262-1.305A5,5,0,0,1,400.445,166.325Z" transform="translate(-346.663 -122.436)" fill="#d4ecff"/>
        <path id="Path_8248" data-name="Path 8248" d="M404.748,168.808c0,1.443-1.012,2.027-2.262,1.305a5,5,0,0,1-2.26-3.916c0-1.443,1.012-2.029,2.26-1.307A5,5,0,0,1,404.748,168.808Z" transform="translate(-342.987 -120.314)" fill="#173d7a"/>
        <path id="Path_8249" data-name="Path 8249" d="M423.514,184.673l-4.649-2.685a3,3,0,0,1-1.259-2.4v-4.918c0-.925.564-1.35,1.259-.951l4.649,2.685a3.015,3.015,0,0,1,1.257,2.4v4.916C424.771,184.649,424.207,185.074,423.514,184.673Z" transform="translate(-328.138 -112.637)" fill="#173d7a"/>
      </g>
      <g id="Group_1353" data-name="Group 1353" transform="translate(4.845 92.318)">
        <path id="Path_8250" data-name="Path 8250" d="M471.438,244.924l-98.1-56.639c-2.2-1.268-3.976-4.669-3.976-7.6V161.982c0-2.928,1.78-4.274,3.976-3.006l98.1,56.641c2.2,1.266,3.976,4.667,3.976,7.6v18.706C475.413,244.848,473.633,246.192,471.438,244.924Z" transform="translate(-369.357 -158.499)" fill="#5793ce"/>
        <path id="Path_8251" data-name="Path 8251" d="M466.421,235.235l-92.47-53.389a4.822,4.822,0,0,1-2.019-3.853V163.931c0-1.485.9-2.17,2.019-1.526l92.47,53.389a4.833,4.833,0,0,1,2.017,3.855v14.063C468.439,235.2,467.535,235.879,466.421,235.235Z" transform="translate(-367.157 -155.368)" fill="#d4ecff" opacity="0.4"/>
        <path id="Path_8252" data-name="Path 8252" d="M390.674,181.129l-13.8-7.966a4.691,4.691,0,0,1-1.96-3.744h0c0-1.443.877-2.1,1.96-1.48l13.8,7.968a4.691,4.691,0,0,1,1.958,3.742h0C392.632,181.092,391.755,181.754,390.674,181.129Z" transform="translate(-364.61 -150.634)" fill="#d4ecff"/>
        <path id="Path_8253" data-name="Path 8253" d="M391.84,179.145c0,1.443-1.012,2.027-2.262,1.305a5,5,0,0,1-2.262-3.918c0-1.441,1.012-2.027,2.262-1.305A5,5,0,0,1,391.84,179.145Z" transform="translate(-354.016 -144.471)" fill="#fff"/>
        <path id="Path_8254" data-name="Path 8254" d="M396.142,181.629c0,1.443-1.012,2.027-2.262,1.307a5,5,0,0,1-2.262-3.918c0-1.443,1.012-2.027,2.262-1.307A5,5,0,0,1,396.142,181.629Z" transform="translate(-350.34 -142.349)" fill="#173d7a"/>
        <path id="Path_8255" data-name="Path 8255" d="M400.445,184.115c0,1.441-1.012,2.027-2.26,1.305a5,5,0,0,1-2.262-3.918c0-1.443,1.012-2.027,2.262-1.305A5,5,0,0,1,400.445,184.115Z" transform="translate(-346.663 -140.226)" fill="#d4ecff"/>
        <path id="Path_8256" data-name="Path 8256" d="M404.748,186.6c0,1.443-1.012,2.027-2.262,1.305a5,5,0,0,1-2.26-3.916c0-1.443,1.012-2.029,2.26-1.307A5,5,0,0,1,404.748,186.6Z" transform="translate(-342.987 -138.104)" fill="#173d7a"/>
        <path id="Path_8257" data-name="Path 8257" d="M423.514,202.463l-4.649-2.685a3.005,3.005,0,0,1-1.259-2.4v-4.918c0-.925.564-1.35,1.259-.951l4.649,2.685a3.012,3.012,0,0,1,1.257,2.4v4.918C424.771,202.439,424.207,202.866,423.514,202.463Z" transform="translate(-328.138 -130.427)" fill="#173d7a"/>
      </g>
      <g id="Group_1354" data-name="Group 1354" transform="translate(4.845 125.306)">
        <path id="Path_8258" data-name="Path 8258" d="M471.438,262.716l-98.1-56.641c-2.2-1.268-3.976-4.669-3.976-7.6V179.772c0-2.928,1.78-4.274,3.976-3.006l98.1,56.641c2.2,1.266,3.976,4.667,3.976,7.6V259.71C475.413,262.636,473.633,263.984,471.438,262.716Z" transform="translate(-369.357 -176.289)" fill="#5793ce"/>
        <path id="Path_8259" data-name="Path 8259" d="M466.421,253.026l-92.47-53.389a4.822,4.822,0,0,1-2.019-3.853V181.721c0-1.487.9-2.17,2.019-1.526l92.47,53.389a4.832,4.832,0,0,1,2.017,3.855V251.5C468.439,252.987,467.535,253.669,466.421,253.026Z" transform="translate(-367.157 -173.159)" fill="#d4ecff" opacity="0.4"/>
        <path id="Path_8260" data-name="Path 8260" d="M390.674,198.919l-13.8-7.966a4.691,4.691,0,0,1-1.96-3.744h0c0-1.441.877-2.1,1.96-1.48l13.8,7.968a4.691,4.691,0,0,1,1.958,3.742h0C392.632,198.882,391.755,199.544,390.674,198.919Z" transform="translate(-364.61 -168.424)" fill="#d4ecff"/>
        <path id="Path_8261" data-name="Path 8261" d="M391.84,196.935c0,1.443-1.012,2.027-2.262,1.305a5,5,0,0,1-2.262-3.918c0-1.441,1.012-2.027,2.262-1.305A5,5,0,0,1,391.84,196.935Z" transform="translate(-354.016 -162.261)" fill="#fff"/>
        <path id="Path_8262" data-name="Path 8262" d="M396.142,199.419c0,1.443-1.012,2.027-2.262,1.307a5,5,0,0,1-2.262-3.918c0-1.443,1.012-2.027,2.262-1.307A5,5,0,0,1,396.142,199.419Z" transform="translate(-350.34 -160.139)" fill="#173d7a"/>
        <path id="Path_8263" data-name="Path 8263" d="M400.445,201.9c0,1.441-1.012,2.027-2.26,1.305a5,5,0,0,1-2.262-3.918c0-1.443,1.012-2.027,2.262-1.305A5,5,0,0,1,400.445,201.9Z" transform="translate(-346.663 -158.016)" fill="#d4ecff"/>
        <path id="Path_8264" data-name="Path 8264" d="M404.748,204.388c0,1.443-1.012,2.027-2.262,1.305a5,5,0,0,1-2.26-3.918c0-1.441,1.012-2.027,2.26-1.305A5,5,0,0,1,404.748,204.388Z" transform="translate(-342.987 -155.894)" fill="#173d7a"/>
        <path id="Path_8265" data-name="Path 8265" d="M423.514,220.253l-4.649-2.685a3,3,0,0,1-1.259-2.4v-4.918c0-.925.564-1.35,1.259-.951l4.649,2.685a3.013,3.013,0,0,1,1.257,2.4V219.3C424.771,220.227,424.207,220.654,423.514,220.253Z" transform="translate(-328.138 -148.217)" fill="#173d7a"/>
      </g>
      <g id="Group_1355" data-name="Group 1355" transform="translate(4.845 158.294)">
        <path id="Path_8266" data-name="Path 8266" d="M471.438,280.506l-98.1-56.639c-2.2-1.27-3.976-4.671-3.976-7.6V197.562c0-2.928,1.78-4.274,3.976-3.006l98.1,56.641c2.2,1.266,3.976,4.667,3.976,7.6V277.5C475.413,280.426,473.633,281.772,471.438,280.506Z" transform="translate(-369.357 -194.079)" fill="#5793ce"/>
        <path id="Path_8267" data-name="Path 8267" d="M466.421,270.816l-92.47-53.389a4.822,4.822,0,0,1-2.019-3.853V199.509c0-1.485.9-2.168,2.019-1.524l92.47,53.389a4.83,4.83,0,0,1,2.017,3.855v14.063C468.439,270.777,467.535,271.459,466.421,270.816Z" transform="translate(-367.157 -190.949)" fill="#d4ecff" opacity="0.4"/>
        <path id="Path_8268" data-name="Path 8268" d="M390.674,216.709l-13.8-7.968a4.685,4.685,0,0,1-1.96-3.742h0c0-1.441.877-2.1,1.96-1.48l13.8,7.966a4.7,4.7,0,0,1,1.958,3.744h0C392.632,216.672,391.755,217.334,390.674,216.709Z" transform="translate(-364.61 -186.214)" fill="#d4ecff"/>
        <path id="Path_8269" data-name="Path 8269" d="M391.84,214.723c0,1.445-1.012,2.029-2.262,1.307a5,5,0,0,1-2.262-3.918c0-1.441,1.012-2.027,2.262-1.305A5,5,0,0,1,391.84,214.723Z" transform="translate(-354.016 -180.051)" fill="#173d7a"/>
        <path id="Path_8270" data-name="Path 8270" d="M396.142,217.209c0,1.443-1.012,2.027-2.262,1.307a5,5,0,0,1-2.262-3.92c0-1.441,1.012-2.025,2.262-1.305A5,5,0,0,1,396.142,217.209Z" transform="translate(-350.34 -177.929)" fill="#173d7a"/>
        <path id="Path_8271" data-name="Path 8271" d="M400.445,219.693c0,1.443-1.012,2.029-2.26,1.307a5,5,0,0,1-2.262-3.918c0-1.443,1.012-2.027,2.262-1.305A5,5,0,0,1,400.445,219.693Z" transform="translate(-346.663 -175.806)" fill="#d4ecff"/>
        <path id="Path_8272" data-name="Path 8272" d="M404.748,222.177c0,1.444-1.012,2.029-2.262,1.307a5,5,0,0,1-2.26-3.918c0-1.441,1.012-2.027,2.26-1.305A5,5,0,0,1,404.748,222.177Z" transform="translate(-342.987 -173.684)" fill="#173d7a"/>
        <path id="Path_8273" data-name="Path 8273" d="M423.514,238.044l-4.649-2.685a3,3,0,0,1-1.259-2.4V228.04c0-.925.564-1.352,1.259-.951l4.649,2.685a3.012,3.012,0,0,1,1.257,2.4v4.918C424.771,238.019,424.207,238.444,423.514,238.044Z" transform="translate(-328.138 -166.007)" fill="#d4ecff"/>
      </g>
      <g id="Group_1356" data-name="Group 1356" transform="translate(4.845 191.281)">
        <path id="Path_8274" data-name="Path 8274" d="M471.438,298.294l-98.1-56.639c-2.2-1.268-3.976-4.669-3.976-7.6V215.352c0-2.928,1.78-4.274,3.976-3.006l98.1,56.641c2.2,1.266,3.976,4.667,3.976,7.6V295.29C475.413,298.216,473.633,299.563,471.438,298.294Z" transform="translate(-369.357 -211.869)" fill="#5793ce"/>
        <path id="Path_8275" data-name="Path 8275" d="M466.421,288.606l-92.47-53.389a4.822,4.822,0,0,1-2.019-3.853V217.3c0-1.485.9-2.168,2.019-1.524l92.47,53.389a4.829,4.829,0,0,1,2.017,3.853v14.065C468.439,288.567,467.535,289.249,466.421,288.606Z" transform="translate(-367.157 -208.739)" fill="#d4ecff" opacity="0.4"/>
        <path id="Path_8276" data-name="Path 8276" d="M390.674,234.5l-13.8-7.966a4.691,4.691,0,0,1-1.96-3.744h0c0-1.441.877-2.106,1.96-1.48l13.8,7.968a4.689,4.689,0,0,1,1.958,3.742h0C392.632,234.462,391.755,235.124,390.674,234.5Z" transform="translate(-364.61 -204.005)" fill="#d4ecff"/>
        <path id="Path_8277" data-name="Path 8277" d="M391.84,232.514c0,1.444-1.012,2.029-2.262,1.305a4.99,4.99,0,0,1-2.262-3.916c0-1.443,1.012-2.027,2.262-1.305A5,5,0,0,1,391.84,232.514Z" transform="translate(-354.016 -197.841)" fill="#173d7a"/>
        <path id="Path_8278" data-name="Path 8278" d="M396.142,235c0,1.443-1.012,2.027-2.262,1.305a5,5,0,0,1-2.262-3.916c0-1.443,1.012-2.027,2.262-1.307A5,5,0,0,1,396.142,235Z" transform="translate(-350.34 -195.719)" fill="#fff"/>
        <path id="Path_8279" data-name="Path 8279" d="M400.445,237.485c0,1.441-1.012,2.027-2.26,1.305a5,5,0,0,1-2.262-3.918c0-1.443,1.012-2.027,2.262-1.305A5,5,0,0,1,400.445,237.485Z" transform="translate(-346.663 -193.596)" fill="#d4ecff"/>
        <path id="Path_8280" data-name="Path 8280" d="M404.748,239.968c0,1.443-1.012,2.027-2.262,1.305a5,5,0,0,1-2.26-3.918c0-1.441,1.012-2.027,2.26-1.305A5,5,0,0,1,404.748,239.968Z" transform="translate(-342.987 -191.474)" fill="#fff"/>
        <path id="Path_8281" data-name="Path 8281" d="M423.514,255.833l-4.649-2.685a3,3,0,0,1-1.259-2.4v-4.919c0-.927.564-1.35,1.259-.951l4.649,2.685a3.012,3.012,0,0,1,1.257,2.4v4.918C424.771,255.807,424.207,256.236,423.514,255.833Z" transform="translate(-328.138 -183.797)" fill="#d4ecff"/>
      </g>
      <g id="Group_1357" data-name="Group 1357" transform="translate(4.845 224.269)">
        <path id="Path_8282" data-name="Path 8282" d="M471.438,316.086l-98.1-56.641c-2.2-1.268-3.976-4.669-3.976-7.6V233.142c0-2.928,1.78-4.274,3.976-3.006l98.1,56.639c2.2,1.268,3.976,4.669,3.976,7.6v18.7C475.413,316.008,473.633,317.352,471.438,316.086Z" transform="translate(-369.357 -229.659)" fill="#5793ce"/>
        <path id="Path_8283" data-name="Path 8283" d="M466.421,306.4l-92.47-53.387a4.83,4.83,0,0,1-2.019-3.857V235.089c0-1.483.9-2.168,2.019-1.524l92.47,53.389a4.829,4.829,0,0,1,2.017,3.853v14.065C468.439,306.357,467.535,307.039,466.421,306.4Z" transform="translate(-367.157 -226.529)" fill="#d4ecff" opacity="0.4"/>
        <path id="Path_8284" data-name="Path 8284" d="M390.674,252.289l-13.8-7.966a4.691,4.691,0,0,1-1.96-3.744h0c0-1.441.877-2.1,1.96-1.482l13.8,7.968a4.692,4.692,0,0,1,1.958,3.744h0C392.632,252.252,391.755,252.914,390.674,252.289Z" transform="translate(-364.61 -221.795)" fill="#d4ecff"/>
        <path id="Path_8285" data-name="Path 8285" d="M391.84,250.3c0,1.444-1.012,2.029-2.262,1.305a4.993,4.993,0,0,1-2.262-3.916c0-1.443,1.012-2.029,2.262-1.305A5,5,0,0,1,391.84,250.3Z" transform="translate(-354.016 -215.632)" fill="#173d7a"/>
        <path id="Path_8286" data-name="Path 8286" d="M396.142,252.79c0,1.443-1.012,2.027-2.262,1.305a5,5,0,0,1-2.262-3.916c0-1.445,1.012-2.029,2.262-1.307A5,5,0,0,1,396.142,252.79Z" transform="translate(-350.34 -213.509)" fill="#173d7a"/>
        <path id="Path_8287" data-name="Path 8287" d="M400.445,255.273c0,1.443-1.012,2.029-2.26,1.305a5,5,0,0,1-2.262-3.916c0-1.441,1.012-2.029,2.262-1.305A5,5,0,0,1,400.445,255.273Z" transform="translate(-346.663 -211.387)" fill="#d4ecff"/>
        <path id="Path_8288" data-name="Path 8288" d="M404.748,257.757c0,1.444-1.012,2.029-2.262,1.309a5.008,5.008,0,0,1-2.26-3.92c0-1.441,1.012-2.027,2.26-1.305A5,5,0,0,1,404.748,257.757Z" transform="translate(-342.987 -209.264)" fill="#173d7a"/>
        <path id="Path_8289" data-name="Path 8289" d="M423.514,273.623l-4.649-2.685a3,3,0,0,1-1.259-2.4v-4.919c0-.925.564-1.35,1.259-.948l4.649,2.683a3.012,3.012,0,0,1,1.257,2.4v4.918C424.771,273.6,424.207,274.024,423.514,273.623Z" transform="translate(-328.138 -201.587)" fill="#173d7a"/>
      </g>
      <g id="Group_1358" data-name="Group 1358" transform="translate(4.845 257.257)">
        <path id="Path_8290" data-name="Path 8290" d="M471.438,333.876l-98.1-56.641c-2.2-1.268-3.976-4.669-3.976-7.6V250.932c0-2.928,1.78-4.274,3.976-3.006l98.1,56.641c2.2,1.266,3.976,4.667,3.976,7.6v18.706C475.413,333.8,473.633,335.142,471.438,333.876Z" transform="translate(-369.357 -247.449)" fill="#5793ce"/>
        <path id="Path_8291" data-name="Path 8291" d="M466.421,324.185,373.951,270.8a4.825,4.825,0,0,1-2.019-3.853V252.879c0-1.483.9-2.168,2.019-1.524l92.47,53.389a4.832,4.832,0,0,1,2.017,3.853v14.063C468.439,324.146,467.535,324.829,466.421,324.185Z" transform="translate(-367.157 -244.318)" fill="#d4ecff" opacity="0.4"/>
        <path id="Path_8292" data-name="Path 8292" d="M390.674,270.08l-13.8-7.966a4.691,4.691,0,0,1-1.96-3.744h0c0-1.443.877-2.107,1.96-1.482l13.8,7.968a4.7,4.7,0,0,1,1.958,3.744h0C392.632,270.041,391.755,270.7,390.674,270.08Z" transform="translate(-364.61 -239.585)" fill="#d4ecff"/>
        <path id="Path_8293" data-name="Path 8293" d="M391.84,268.094c0,1.444-1.012,2.027-2.262,1.307a5,5,0,0,1-2.262-3.918c0-1.443,1.012-2.029,2.262-1.305A5,5,0,0,1,391.84,268.094Z" transform="translate(-354.016 -233.422)" fill="#fff"/>
        <path id="Path_8294" data-name="Path 8294" d="M396.142,270.579c0,1.443-1.012,2.027-2.262,1.305a5,5,0,0,1-2.262-3.916c0-1.445,1.012-2.027,2.262-1.307A5,5,0,0,1,396.142,270.579Z" transform="translate(-350.34 -231.299)" fill="#173d7a"/>
        <path id="Path_8295" data-name="Path 8295" d="M400.445,273.063c0,1.443-1.012,2.027-2.26,1.305a4.993,4.993,0,0,1-2.262-3.916c0-1.443,1.012-2.027,2.262-1.305A5,5,0,0,1,400.445,273.063Z" transform="translate(-346.663 -229.176)" fill="#d4ecff"/>
        <path id="Path_8296" data-name="Path 8296" d="M404.748,275.548c0,1.443-1.012,2.027-2.262,1.305a5,5,0,0,1-2.26-3.918c0-1.443,1.012-2.025,2.26-1.305A5,5,0,0,1,404.748,275.548Z" transform="translate(-342.987 -227.054)" fill="#173d7a"/>
        <path id="Path_8297" data-name="Path 8297" d="M423.514,291.414l-4.649-2.683a3.015,3.015,0,0,1-1.259-2.4V281.41c0-.927.564-1.352,1.259-.951l4.649,2.683a3.018,3.018,0,0,1,1.257,2.4v4.918C424.771,291.388,424.207,291.814,423.514,291.414Z" transform="translate(-328.138 -219.377)" fill="#d4ecff"/>
      </g>
    </g>
    <g id="Group_1363" data-name="Group 1363" transform="translate(526.487 125.857)">
      <path id="Path_8298" data-name="Path 8298" d="M409.7,161.471a1.481,1.481,0,0,1-1.482-1.482V99.006a1.481,1.481,0,0,1,2.961,0V159.99A1.481,1.481,0,0,1,409.7,161.471Z" transform="translate(-401.117 -63.307)" fill="#5793ce"/>
      <g id="Group_1362" data-name="Group 1362" transform="translate(0)">
        <g id="Group_1360" data-name="Group 1360" transform="translate(3.287 31.864)">
          <rect id="Rectangle_714" data-name="Rectangle 714" width="10.595" height="22.863" fill="#5793ce"/>
          <path id="Path_8299" data-name="Path 8299" d="M415.2,112.157a8.28,8.28,0,0,1-7.491,0c-2.068-1.194-2.068-3.13,0-4.324a8.269,8.269,0,0,1,7.491,0C417.274,109.027,417.274,110.963,415.2,112.157Z" transform="translate(-406.162 -87.133)" fill="#5793ce"/>
        </g>
        <g id="Group_1361" data-name="Group 1361">
          <rect id="Rectangle_715" data-name="Rectangle 715" width="17.168" height="35.858" transform="translate(0)" fill="#5793ce"/>
          <path id="Path_8300" data-name="Path 8300" d="M406.162,98.774v7.738a13.706,13.706,0,0,0,10.6,0V98.774A13.722,13.722,0,0,0,406.162,98.774Z" transform="translate(-402.876 -63.15)" fill="#396caa"/>
          <path id="Path_8301" data-name="Path 8301" d="M419.045,104.2a13.414,13.414,0,0,1-12.14,0c-3.353-1.936-3.354-5.073,0-7.009a13.415,13.415,0,0,1,12.14,0C422.4,99.125,422.4,102.262,419.045,104.2Z" transform="translate(-404.39 -64.836)" fill="#5793ce"/>
        </g>
      </g>
    </g>
    <g id="Group_1367" data-name="Group 1367" transform="translate(540.966 134.502)">
      <path id="Path_8302" data-name="Path 8302" d="M417.51,166.133a1.481,1.481,0,0,1-1.482-1.482V103.668a1.482,1.482,0,0,1,2.963,0v60.984A1.48,1.48,0,0,1,417.51,166.133Z" transform="translate(-408.926 -67.969)" fill="#5793ce"/>
      <g id="Group_1366" data-name="Group 1366">
        <g id="Group_1364" data-name="Group 1364" transform="translate(3.286 31.865)">
          <rect id="Rectangle_716" data-name="Rectangle 716" width="10.595" height="22.863" transform="translate(0.001)" fill="#5793ce"/>
          <path id="Path_8303" data-name="Path 8303" d="M423.015,116.821a8.28,8.28,0,0,1-7.491,0c-2.071-1.2-2.071-3.132,0-4.326a8.28,8.28,0,0,1,7.491,0C425.083,113.689,425.083,115.625,423.015,116.821Z" transform="translate(-413.97 -91.795)" fill="#5793ce"/>
        </g>
        <g id="Group_1365" data-name="Group 1365">
          <rect id="Rectangle_717" data-name="Rectangle 717" width="17.168" height="35.858" transform="translate(0.001)" fill="#5793ce"/>
          <path id="Path_8304" data-name="Path 8304" d="M413.971,103.438v7.736a13.7,13.7,0,0,0,10.6,0v-7.738A13.706,13.706,0,0,0,413.971,103.438Z" transform="translate(-410.683 -67.812)" fill="#396caa"/>
          <path id="Path_8305" data-name="Path 8305" d="M426.853,108.861a13.426,13.426,0,0,1-12.14,0c-3.353-1.936-3.353-5.075,0-7.009a13.415,13.415,0,0,1,12.14,0C430.205,103.786,430.205,106.925,426.853,108.861Z" transform="translate(-412.198 -69.497)" fill="#5793ce"/>
        </g>
      </g>
    </g>
    <g id="Group_1371" data-name="Group 1371" transform="translate(555.444 143.147)">
      <path id="Path_8306" data-name="Path 8306" d="M425.319,170.8a1.481,1.481,0,0,1-1.482-1.482V108.331a1.482,1.482,0,0,1,2.963,0v60.984A1.482,1.482,0,0,1,425.319,170.8Z" transform="translate(-416.733 -72.631)" fill="#5793ce"/>
      <g id="Group_1370" data-name="Group 1370" transform="translate(0)">
        <g id="Group_1368" data-name="Group 1368" transform="translate(3.287 31.865)">
          <rect id="Rectangle_718" data-name="Rectangle 718" width="10.595" height="22.864" fill="#5793ce"/>
          <path id="Path_8307" data-name="Path 8307" d="M430.821,121.482a8.269,8.269,0,0,1-7.491,0c-2.068-1.194-2.068-3.13,0-4.324a8.281,8.281,0,0,1,7.491,0C432.89,118.352,432.89,120.288,430.821,121.482Z" transform="translate(-421.778 -96.456)" fill="#5793ce"/>
        </g>
        <g id="Group_1369" data-name="Group 1369">
          <rect id="Rectangle_719" data-name="Rectangle 719" width="17.168" height="35.86" fill="#5793ce"/>
          <path id="Path_8308" data-name="Path 8308" d="M421.778,108.1v7.738a13.705,13.705,0,0,0,10.6,0V108.1A13.722,13.722,0,0,0,421.778,108.1Z" transform="translate(-418.492 -72.474)" fill="#396caa"/>
          <path id="Path_8309" data-name="Path 8309" d="M434.66,113.523a13.414,13.414,0,0,1-12.14,0c-3.351-1.936-3.353-5.073,0-7.009a13.414,13.414,0,0,1,12.14,0C438.013,108.45,438.013,111.587,434.66,113.523Z" transform="translate(-420.006 -74.159)" fill="#5793ce"/>
        </g>
      </g>
    </g>
    <g id="Group_1375" data-name="Group 1375" transform="translate(569.923 151.793)">
      <path id="Path_8310" data-name="Path 8310" d="M433.125,175.458a1.48,1.48,0,0,1-1.48-1.482V112.993a1.481,1.481,0,0,1,2.961,0v60.984A1.48,1.48,0,0,1,433.125,175.458Z" transform="translate(-424.541 -77.295)" fill="#5793ce"/>
      <g id="Group_1374" data-name="Group 1374" transform="translate(0)">
        <g id="Group_1372" data-name="Group 1372" transform="translate(3.288 31.863)">
          <rect id="Rectangle_720" data-name="Rectangle 720" width="10.595" height="22.864" fill="#5793ce"/>
          <path id="Path_8311" data-name="Path 8311" d="M438.63,126.146a8.28,8.28,0,0,1-7.491,0c-2.069-1.194-2.069-3.132,0-4.326a8.28,8.28,0,0,1,7.491,0C440.7,123.014,440.7,124.952,438.63,126.146Z" transform="translate(-429.587 -101.119)" fill="#5793ce"/>
        </g>
        <g id="Group_1373" data-name="Group 1373">
          <rect id="Rectangle_721" data-name="Rectangle 721" width="17.168" height="35.858" transform="translate(0.001)" fill="#5793ce"/>
          <path id="Path_8312" data-name="Path 8312" d="M429.587,112.763V120.5a13.705,13.705,0,0,0,10.6,0v-7.736A13.705,13.705,0,0,0,429.587,112.763Z" transform="translate(-426.299 -77.137)" fill="#396caa"/>
          <path id="Path_8313" data-name="Path 8313" d="M442.469,118.184a13.415,13.415,0,0,1-12.14,0c-3.353-1.934-3.353-5.073,0-7.007a13.414,13.414,0,0,1,12.14,0C445.821,113.113,445.821,116.25,442.469,118.184Z" transform="translate(-427.814 -78.822)" fill="#5793ce"/>
        </g>
      </g>
    </g>
    <g id="Group_1382" data-name="Group 1382" transform="translate(469.255 24.308)">
      <g id="Group_1378" data-name="Group 1378">
        <path id="Path_8314" data-name="Path 8314" d="M470.882,147.267,493.9,133.709,471.98,106.348l-5.764,9.416Z" transform="translate(-294.34 45.778)" fill="#5793ce"/>
        <path id="Path_8315" data-name="Path 8315" d="M378.593,57.168,415.33,36.031s-1.381,21.093-1.381,21.137S392.843,63.7,392.843,63.7Z" transform="translate(-369.195 -14.293)" fill="#5793ce"/>
        <path id="Path_8316" data-name="Path 8316" d="M539.561,148.547a23.164,23.164,0,0,0-7.949-2.945c-3.7-19.466-17.249-40.142-33.4-49.467a32.713,32.713,0,0,0-13.668-4.625c-2.207-23.6-18.611-50.413-38.536-61.913-10.406-6.01-19.848-6.72-26.815-3.041l0-.019-.339.195c-.178.1-.354.2-.528.3l-21.666,12.8,7.2,5.685C397.4,48.342,393.313,55.59,393.313,66.3c0,19.756,13.87,43.778,30.98,53.656l115.268,82.31c12.847,7.417,23.262,1.406,23.262-13.429S552.407,155.965,539.561,148.547Z" transform="translate(-356.62 -24.308)" fill="#5793ce"/>
        <path id="Path_8317" data-name="Path 8317" d="M393.89,57.606l49.723-29.051c-9.653-5.034-18.374-5.452-24.914-2l0-.019-.339.195c-.178.1-.354.2-.528.3l-21.666,12.8,7.2,5.685C398.848,47.492,395.5,51.635,393.89,57.606Z" transform="translate(-356.127 -24.308)" fill="#5793ce"/>
        <path id="Path_8318" data-name="Path 8318" d="M460.851,110.856l36.281-21.289C490.907,78.8,482.341,69.4,472.854,63.924q-1.883-1.088-3.714-1.91L422.994,89Z" transform="translate(-331.264 7.904)" fill="#5793ce"/>
        <path id="Path_8319" data-name="Path 8319" d="M400.631,41.775,416.8,51.11l29.607-17.438a58.417,58.417,0,0,0-6.653-4.508,41.521,41.521,0,0,0-10.347-4.348Z" transform="translate(-350.369 -23.874)" fill="#d4ecff"/>
        <path id="Path_8320" data-name="Path 8320" d="M474.157,73.5,445.2,90.556l10.071,11.231,26.286-15.52A84.29,84.29,0,0,0,474.157,73.5Z" transform="translate(-312.292 17.712)" fill="#d4ecff"/>
        <path id="Path_8321" data-name="Path 8321" d="M533.721,155.778a23.117,23.117,0,0,0-7.949-2.946c-3.7-19.466-17.25-40.14-33.4-49.467A32.713,32.713,0,0,0,478.7,98.74c-2.2-23.6-18.611-50.411-38.534-61.913-21.426-12.37-38.8-2.344-38.8,22.4,0,.84.024,1.686.063,2.537-15.667-7.267-27.911.922-27.911,19.481,0,19.754,13.872,43.776,30.98,53.654l129.216,74.6c12.848,7.417,23.262,1.406,23.262-13.431S546.569,163.2,533.721,155.778Z" transform="translate(-373.525 -18.139)" fill="#d4ecff"/>
        <g id="Group_1376" data-name="Group 1376" transform="translate(7.089 11.546)">
          <path id="Path_8322" data-name="Path 8322" d="M398.17,49.877c-.039-.851-.063-1.7-.063-2.537l0-.1c-8.656-3.366-16.093-1.9-20.761,3.5C382.418,46.562,389.794,45.992,398.17,49.877Z" transform="translate(-377.348 -17.803)" fill="#fff"/>
          <path id="Path_8323" data-name="Path 8323" d="M518.826,154.782a23.163,23.163,0,0,0-7.949-2.945c-3.7-19.468-17.249-40.14-33.4-49.467a32.721,32.721,0,0,0-13.67-4.625c-2.2-23.6-18.611-50.411-38.534-61.913-13.349-7.708-25.122-6.718-32.1,1.1,7.111-6.077,18-6.31,30.208.74C443.3,49.178,459.712,76,461.916,99.589a32.714,32.714,0,0,1,13.668,4.625c16.151,9.327,29.7,30,33.4,49.467a23.117,23.117,0,0,1,7.949,2.946c12.848,7.417,23.262,25.456,23.262,40.29,0,5.353-1.37,9.537-3.709,12.376,3.484-2.685,5.6-7.551,5.6-14.219C542.088,180.24,531.673,162.2,518.826,154.782Z" transform="translate(-363.828 -30.535)" fill="#fff"/>
        </g>
        <g id="Group_1377" data-name="Group 1377" transform="translate(6.496 19.868)">
          <path id="Path_8324" data-name="Path 8324" d="M395.712,64.668l9.713,4.5-.5-10.7c-.033-.751-.056-1.5-.056-2.238,0-9.548,2.883-16.468,8.116-19.49s12.67-2.055,20.939,2.718c17.781,10.265,33.292,35.257,35.315,56.893l.508,5.452,5.461.421a26.232,26.232,0,0,1,10.918,3.773c14.122,8.153,26.854,27.1,30.268,45.056l.855,4.493,4.521.708a16.8,16.8,0,0,1,5.707,2.155c10.849,6.264,20.015,22.14,20.015,34.666,0,4.688-1.3,8.127-3.568,9.436s-5.893.714-9.954-1.63l-129.216-74.6c-15.031-8.678-27.731-30.674-27.731-48.032,0-6.811,2.008-12,5.511-14.237a9.432,9.432,0,0,1,5.149-1.378A19.431,19.431,0,0,1,395.712,64.668Z" transform="translate(-377.028 -35.022)" fill="#396caa"/>
        </g>
      </g>
      <g id="Group_1381" data-name="Group 1381" transform="translate(61.488 82.655)">
        <path id="Path_8325" data-name="Path 8325" d="M421.883,96.643l3.408-1.711-3.355-2.542Z" transform="translate(-393.701 -48.801)" fill="#5793ce"/>
        <path id="Path_8326" data-name="Path 8326" d="M416.361,70.622l3.31-1.673.06,1.732Z" transform="translate(-398.418 -68.826)" fill="#5793ce"/>
        <path id="Path_8327" data-name="Path 8327" d="M428.6,92.591l3.453-1.737L425.4,84.533Z" transform="translate(-390.693 -55.513)" fill="#5793ce"/>
        <g id="Group_1379" data-name="Group 1379" transform="translate(3.461)">
          <path id="Path_8328" data-name="Path 8328" d="M431.3,107.939l-16.14-9.505a3.442,3.442,0,0,1-1.476-2.715l.052-18.682,19.1,11.252-.054,18.684C432.784,107.987,432.118,108.421,431.3,107.939Z" transform="translate(-404.167 -61.917)" fill="#5793ce"/>
          <path id="Path_8329" data-name="Path 8329" d="M426.308,69.026,408.879,80.243c-.742.477-.145,2.251.981,2.911l17.8,10.484,17.8,10.486c1.122.66,1.73-.4.994-1.749L429.148,70.7C428.4,69.33,427.06,68.542,426.308,69.026Z" transform="translate(-408.551 -68.883)" fill="#5793ce"/>
        </g>
        <g id="Group_1380" data-name="Group 1380" transform="translate(0 1.743)">
          <path id="Path_8330" data-name="Path 8330" d="M429.432,108.88l-16.138-9.505a3.439,3.439,0,0,1-1.478-2.713l.054-18.686,19.1,11.252-.052,18.684C430.917,108.928,430.251,109.362,429.432,108.88Z" transform="translate(-402.301 -62.857)" fill="#d4ecff"/>
          <path id="Path_8331" data-name="Path 8331" d="M424.442,69.966l-17.43,11.217c-.74.475-.143,2.249.981,2.911l17.8,10.484,17.8,10.484c1.124.662,1.728-.4,1-1.747l-17.31-31.677C426.534,70.27,425.195,69.482,424.442,69.966Z" transform="translate(-406.685 -69.823)" fill="#d4ecff"/>
        </g>
      </g>
    </g>
    <path id="Path_8332" data-name="Path 8332" d="M453.663,352.691h-1.977V242.236l13.043-7.531V180.333h1.977v55.513l-13.043,7.531Z" transform="translate(162.502 133.291)" fill="#fff"/>
    <g id="Group_1383" data-name="Group 1383" transform="translate(261.467 428.306)">
      <path id="Path_8333" data-name="Path 8333" d="M302.606,323.719a6.776,6.776,0,0,1-3.341-.885l-36.04-20.408a3.459,3.459,0,0,1-.031-6.006l89.9-52a16.757,16.757,0,0,1,16.722,0L472.572,303.8l-1.483,2.57L368.335,246.981a13.8,13.8,0,0,0-13.757,0l-89.9,52a.5.5,0,0,0,.006.862l36.042,20.408a3.8,3.8,0,0,0,3.951-.115l15.229-9.848,1.61,2.488-15.231,9.85A6.764,6.764,0,0,1,302.606,323.719Z" transform="translate(-261.467 -242.18)" fill="#b2d3ea"/>
    </g>
    <g id="Group_1394" data-name="Group 1394" transform="translate(284.996 334.026)">
      <path id="Path_8334" data-name="Path 8334" d="M332.21,319.578l-48.451-27.972c-2.974-1.719-2.6-4.717.833-6.7l46.784-27.01c3.432-1.982,8.626-2.2,11.6-.48l48.449,27.972c2.974,1.715,2.6,4.715-.833,6.7L343.81,319.1C340.376,321.08,335.182,321.3,332.21,319.578Z" transform="translate(-267.667 -135.873)" fill="#b2d3ea"/>
      <g id="Group_1385" data-name="Group 1385" transform="translate(0 66.906)">
        <path id="Path_8335" data-name="Path 8335" d="M413.981,275.118h0V254.185l-46.939-.024-16.225-9.37c-3.723-2.149-10.228-1.88-14.527.6l-15.138,8.741-46.98-.028v21.53c-.108,1.456.7,2.859,2.494,3.892l60.669,35.028c3.723,2.149,10.228,1.88,14.526-.6l58.583-33.82C412.924,278.7,414.122,276.847,413.981,275.118Z" transform="translate(-274.151 -213.815)" fill="#396caa"/>
        <path id="Path_8336" data-name="Path 8336" d="M344.076,243.347a16.77,16.77,0,0,0-7.786,2.042l-15.138,8.741-46.98-.028v21.53c-.108,1.456.7,2.859,2.494,3.892l60.669,35.028a13.117,13.117,0,0,0,6.742,1.439Z" transform="translate(-274.151 -213.809)" fill="#396caa"/>
        <path id="Path_8337" data-name="Path 8337" d="M279.488,249.149l-5.316,0v21.53c-.108,1.456.7,2.859,2.494,3.892l2.822,1.628Z" transform="translate(-274.151 -208.854)" fill="#5793ce"/>
        <path id="Path_8338" data-name="Path 8338" d="M308.734,293.318a16.557,16.557,0,0,0,11.613-.134V268.739H308.734Z" transform="translate(-244.617 -192.117)" fill="#5793ce"/>
        <path id="Path_8339" data-name="Path 8339" d="M337.339,306.71,276.67,271.68c-3.723-2.149-3.258-5.906,1.042-8.385L336.3,229.471c4.3-2.483,10.8-2.752,14.527-.6l60.67,35.029c3.725,2.149,3.258,5.9-1.044,8.387l-58.583,33.82C347.567,308.588,341.062,308.859,337.339,306.71Z" transform="translate(-274.156 -227.417)" fill="#d4ecff"/>
        <path id="Path_8340" data-name="Path 8340" d="M333.213,297.39l-50.841-29.353c-3.121-1.8-2.73-4.949.873-7.028l49.092-28.343c3.6-2.08,9.053-2.307,12.173-.5l50.843,29.353c3.121,1.8,2.73,4.949-.875,7.028l-49.09,28.343C341.783,298.966,336.333,299.192,333.213,297.39Z" transform="translate(-268.938 -224.404)" fill="#5793ce"/>
        <g id="Group_1384" data-name="Group 1384" transform="translate(112.615 55.976)">
          <path id="Path_8341" data-name="Path 8341" d="M339.789,264.264a5.418,5.418,0,0,1-2.451,4.244c-1.354.781-2.45.148-2.45-1.415a5.413,5.413,0,0,1,2.45-4.244C338.691,262.067,339.789,262.7,339.789,264.264Z" transform="translate(-334.888 -253.411)" fill="#d4ecff"/>
          <path id="Path_8342" data-name="Path 8342" d="M344.041,261.809a5.415,5.415,0,0,1-2.451,4.244c-1.354.781-2.449.148-2.449-1.415a5.416,5.416,0,0,1,2.449-4.245C342.943,259.612,344.041,260.246,344.041,261.809Z" transform="translate(-331.256 -255.508)" fill="#d4ecff"/>
          <path id="Path_8343" data-name="Path 8343" d="M348.291,259.356a5.413,5.413,0,0,1-2.449,4.243c-1.354.783-2.449.148-2.449-1.415a5.416,5.416,0,0,1,2.449-4.244C347.2,257.158,348.291,257.791,348.291,259.356Z" transform="translate(-327.623 -257.605)" fill="#d4ecff"/>
        </g>
      </g>
      <g id="Group_1387" data-name="Group 1387" transform="translate(0 33.453)">
        <path id="Path_8344" data-name="Path 8344" d="M413.981,257.079h0V236.144l-46.939-.024-16.225-9.37c-3.723-2.147-10.228-1.88-14.527.6l-15.138,8.741-46.98-.028V257.6c-.108,1.456.7,2.859,2.494,3.892l60.669,35.028c3.723,2.149,10.228,1.88,14.526-.6l58.583-33.82C412.924,260.66,414.122,258.805,413.981,257.079Z" transform="translate(-274.151 -195.773)" fill="#396caa"/>
        <path id="Path_8345" data-name="Path 8345" d="M344.076,225.306a16.77,16.77,0,0,0-7.786,2.042l-15.138,8.741-46.98-.028v21.53c-.108,1.456.7,2.859,2.494,3.892l60.669,35.028a13.117,13.117,0,0,0,6.742,1.439Z" transform="translate(-274.151 -195.768)" fill="#396caa"/>
        <path id="Path_8346" data-name="Path 8346" d="M279.488,231.108l-5.316,0v21.53c-.108,1.456.7,2.859,2.494,3.892l2.822,1.63Z" transform="translate(-274.151 -190.813)" fill="#5793ce"/>
        <path id="Path_8347" data-name="Path 8347" d="M308.734,275.276a16.557,16.557,0,0,0,11.613-.134V250.7H308.734Z" transform="translate(-244.617 -174.075)" fill="#5793ce"/>
        <path id="Path_8348" data-name="Path 8348" d="M337.339,288.669,276.67,253.639c-3.723-2.149-3.258-5.9,1.042-8.385L336.3,211.43c4.3-2.483,10.8-2.752,14.527-.6l60.67,35.029c3.725,2.149,3.258,5.9-1.044,8.385l-58.583,33.824C347.567,290.547,341.062,290.818,337.339,288.669Z" transform="translate(-274.156 -209.376)" fill="#d4ecff"/>
        <path id="Path_8349" data-name="Path 8349" d="M333.213,279.349,282.372,250c-3.121-1.8-2.73-4.949.873-7.028l49.092-28.343c3.6-2.08,9.053-2.307,12.173-.506l50.843,29.355c3.121,1.8,2.73,4.949-.875,7.028l-49.09,28.343C341.783,280.925,336.333,281.151,333.213,279.349Z" transform="translate(-268.938 -206.363)" fill="#5793ce"/>
        <g id="Group_1386" data-name="Group 1386" transform="translate(112.615 55.976)">
          <path id="Path_8350" data-name="Path 8350" d="M339.789,246.223a5.418,5.418,0,0,1-2.451,4.244c-1.354.781-2.45.148-2.45-1.415a5.416,5.416,0,0,1,2.45-4.244C338.691,244.026,339.789,244.66,339.789,246.223Z" transform="translate(-334.888 -235.369)" fill="#d4ecff"/>
          <path id="Path_8351" data-name="Path 8351" d="M344.041,243.768a5.415,5.415,0,0,1-2.451,4.244c-1.354.783-2.449.148-2.449-1.415a5.416,5.416,0,0,1,2.449-4.244C342.943,241.571,344.041,242.205,344.041,243.768Z" transform="translate(-331.256 -237.467)" fill="#d4ecff"/>
          <path id="Path_8352" data-name="Path 8352" d="M348.291,241.315a5.419,5.419,0,0,1-2.449,4.244c-1.354.781-2.449.147-2.449-1.417a5.416,5.416,0,0,1,2.449-4.244C347.2,239.117,348.291,239.75,348.291,241.315Z" transform="translate(-327.623 -239.564)" fill="#d4ecff"/>
        </g>
      </g>
      <g id="Group_1390" data-name="Group 1390">
        <path id="Path_8353" data-name="Path 8353" d="M413.981,239.036h0V218.1l-46.939-.024-16.225-9.368c-3.723-2.149-10.228-1.882-14.527.6l-15.138,8.741-46.98-.028v21.53c-.108,1.456.7,2.859,2.494,3.892l60.669,35.028c3.723,2.149,10.228,1.88,14.526-.6l58.583-33.82C412.924,242.618,414.122,240.764,413.981,239.036Z" transform="translate(-274.151 -177.732)" fill="#396caa"/>
        <path id="Path_8354" data-name="Path 8354" d="M344.076,207.265a16.77,16.77,0,0,0-7.786,2.042l-15.138,8.741-46.98-.028v21.53c-.108,1.456.7,2.859,2.494,3.892l60.669,35.028a13.117,13.117,0,0,0,6.742,1.439Z" transform="translate(-274.151 -177.727)" fill="#396caa"/>
        <path id="Path_8355" data-name="Path 8355" d="M279.488,213.069l-5.316,0V234.6c-.108,1.456.7,2.859,2.494,3.892l2.822,1.63Z" transform="translate(-274.151 -172.772)" fill="#5793ce"/>
        <path id="Path_8356" data-name="Path 8356" d="M308.734,257.235a16.557,16.557,0,0,0,11.613-.133V232.658H308.734Z" transform="translate(-244.617 -156.034)" fill="#5793ce"/>
        <path id="Path_8357" data-name="Path 8357" d="M337.339,270.628,276.67,235.6c-3.723-2.151-3.258-5.908,1.042-8.387L336.3,193.389c4.3-2.483,10.8-2.752,14.527-.6l60.67,35.029c3.725,2.149,3.258,5.9-1.044,8.385l-58.583,33.822C347.567,272.506,341.062,272.777,337.339,270.628Z" transform="translate(-274.156 -191.335)" fill="#d4ecff"/>
        <path id="Path_8358" data-name="Path 8358" d="M410.448,214.517l-58.583,33.822c-4.3,2.483-10.8,2.752-14.526.6L276.67,213.913a5.556,5.556,0,0,1-1.858-1.647c-1.279,2.058-.7,4.291,1.858,5.767l60.669,35.029c3.723,2.149,10.228,1.878,14.526-.6l58.583-33.822c3.341-1.927,4.358-4.621,2.9-6.739A8.107,8.107,0,0,1,410.448,214.517Z" transform="translate(-274.156 -173.77)" fill="#fff"/>
        <g id="Group_1388" data-name="Group 1388" transform="translate(112.615 55.976)">
          <path id="Path_8359" data-name="Path 8359" d="M339.789,228.182a5.418,5.418,0,0,1-2.451,4.244c-1.354.781-2.45.148-2.45-1.415a5.413,5.413,0,0,1,2.45-4.244C338.691,225.985,339.789,226.619,339.789,228.182Z" transform="translate(-334.888 -217.328)" fill="#d4ecff"/>
          <path id="Path_8360" data-name="Path 8360" d="M344.041,225.727a5.415,5.415,0,0,1-2.451,4.244c-1.354.783-2.449.148-2.449-1.415a5.416,5.416,0,0,1,2.449-4.244C342.943,223.53,344.041,224.164,344.041,225.727Z" transform="translate(-331.256 -219.426)" fill="#d4ecff"/>
          <path id="Path_8361" data-name="Path 8361" d="M348.291,223.274a5.419,5.419,0,0,1-2.449,4.244c-1.354.781-2.449.147-2.449-1.417a5.416,5.416,0,0,1,2.449-4.244C347.2,221.076,348.291,221.709,348.291,223.274Z" transform="translate(-327.623 -221.523)" fill="#d4ecff"/>
        </g>
        <g id="Group_1389" data-name="Group 1389" transform="translate(37.205 20.471)">
          <path id="Path_8362" data-name="Path 8362" d="M323.786,239.479,295.4,223.087c-1.741-1.005-1.522-2.763.49-3.924L323.3,203.337a7.556,7.556,0,0,1,6.8-.284l28.391,16.392c1.743,1.005,1.524,2.763-.488,3.924L330.584,239.2A7.55,7.55,0,0,1,323.786,239.479Z" transform="translate(-294.22 -202.375)" fill="#5793ce"/>
          <path id="Path_8363" data-name="Path 8363" d="M313.516,217.347l-3.927-2.266c-.241-.141-.211-.382.067-.543l3.794-2.19a1.043,1.043,0,0,1,.94-.039l3.927,2.266c.241.141.211.384-.067.543l-3.794,2.192A1.042,1.042,0,0,1,313.516,217.347Z" transform="translate(-281.231 -193.969)" fill="#d4ecff"/>
          <path id="Path_8364" data-name="Path 8364" d="M295.4,223.087l.082.046a4.735,4.735,0,0,1,.408-.28L323.3,207.027a7.555,7.555,0,0,1,6.8-.282l28.311,16.346c1.606-1.152,1.689-2.717.08-3.646l-28.391-16.392a7.556,7.556,0,0,0-6.8.284l-27.412,15.826C293.873,220.324,293.654,222.082,295.4,223.087Z" transform="translate(-294.22 -202.375)" fill="#396caa"/>
        </g>
      </g>
      <g id="Group_1391" data-name="Group 1391" transform="translate(50.859 79.393)">
        <path id="Path_8365" data-name="Path 8365" d="M307.642,238.814c0,1.053-.738,1.478-1.65.953a3.648,3.648,0,0,1-1.648-2.856c0-1.051.738-1.478,1.648-.953A3.643,3.643,0,0,1,307.642,238.814Z" transform="translate(-299.227 -232.799)" fill="#d4ecff"/>
        <path id="Path_8366" data-name="Path 8366" d="M304.883,237.234c0,1.051-.738,1.476-1.648.951a3.646,3.646,0,0,1-1.65-2.857c0-1.051.738-1.478,1.65-.951A3.646,3.646,0,0,1,304.883,237.234Z" transform="translate(-301.584 -234.151)" fill="#d4ecff"/>
        <path id="Path_8367" data-name="Path 8367" d="M307.642,242.145c0,1.051-.738,1.476-1.65.951a3.64,3.64,0,0,1-1.648-2.856c0-1.051.738-1.478,1.648-.953A3.649,3.649,0,0,1,307.642,242.145Z" transform="translate(-299.227 -229.955)" fill="#d4ecff"/>
        <path id="Path_8368" data-name="Path 8368" d="M304.883,240.563c0,1.051-.738,1.476-1.648.951a3.64,3.64,0,0,1-1.65-2.857c0-1.05.738-1.478,1.65-.951A3.646,3.646,0,0,1,304.883,240.563Z" transform="translate(-301.584 -231.307)" fill="#d4ecff"/>
      </g>
      <g id="Group_1392" data-name="Group 1392" transform="translate(50.859 112.681)">
        <path id="Path_8369" data-name="Path 8369" d="M307.642,256.767c0,1.051-.738,1.478-1.65.951a3.643,3.643,0,0,1-1.648-2.856c0-1.051.738-1.478,1.648-.951A3.64,3.64,0,0,1,307.642,256.767Z" transform="translate(-299.227 -250.752)" fill="#d4ecff"/>
        <path id="Path_8370" data-name="Path 8370" d="M304.883,255.185c0,1.051-.738,1.476-1.648.951a3.643,3.643,0,0,1-1.65-2.856c0-1.051.738-1.478,1.65-.951A3.64,3.64,0,0,1,304.883,255.185Z" transform="translate(-301.584 -252.103)" fill="#d4ecff"/>
        <path id="Path_8371" data-name="Path 8371" d="M307.642,260.1c0,1.05-.738,1.478-1.65.949a3.64,3.64,0,0,1-1.648-2.856c0-1.051.738-1.478,1.648-.949A3.637,3.637,0,0,1,307.642,260.1Z" transform="translate(-299.227 -247.908)" fill="#d4ecff"/>
        <path id="Path_8372" data-name="Path 8372" d="M304.883,258.514c0,1.051-.738,1.478-1.648.951a3.637,3.637,0,0,1-1.65-2.856c0-1.051.738-1.478,1.65-.951A3.646,3.646,0,0,1,304.883,258.514Z" transform="translate(-301.584 -249.259)" fill="#d4ecff"/>
      </g>
      <g id="Group_1393" data-name="Group 1393" transform="translate(50.859 145.968)">
        <path id="Path_8373" data-name="Path 8373" d="M307.642,274.719c0,1.049-.738,1.478-1.65.949a3.64,3.64,0,0,1-1.648-2.856c0-1.051.738-1.476,1.648-.951A3.643,3.643,0,0,1,307.642,274.719Z" transform="translate(-299.227 -268.703)" fill="#d4ecff"/>
        <path id="Path_8374" data-name="Path 8374" d="M304.883,273.135c0,1.051-.738,1.478-1.648.951a3.64,3.64,0,0,1-1.65-2.856c0-1.051.738-1.476,1.65-.951A3.64,3.64,0,0,1,304.883,273.135Z" transform="translate(-301.584 -270.055)" fill="#d4ecff"/>
        <path id="Path_8375" data-name="Path 8375" d="M307.642,278.048c0,1.051-.738,1.478-1.65.951a3.646,3.646,0,0,1-1.648-2.856c0-1.051.738-1.478,1.648-.951A3.637,3.637,0,0,1,307.642,278.048Z" transform="translate(-299.227 -265.859)" fill="#d4ecff"/>
        <path id="Path_8376" data-name="Path 8376" d="M304.883,276.464c0,1.051-.738,1.48-1.648.953a3.642,3.642,0,0,1-1.65-2.856c0-1.053.738-1.478,1.65-.953A3.645,3.645,0,0,1,304.883,276.464Z" transform="translate(-301.584 -267.211)" fill="#d4ecff"/>
      </g>
    </g>
    <path id="Path_8377" data-name="Path 8377" d="M329.452,321.943a10.006,10.006,0,0,1-5.018-1.344l-30.572-17.744a3.331,3.331,0,0,1,0-5.763l20.1-11.66L315.458,288l-20.1,11.66a.366.366,0,0,0,0,.634l30.574,17.744a7.066,7.066,0,0,0,7.009.026l59.881-34.123a10.038,10.038,0,0,1,9.972.043l50.16,28.97a7.039,7.039,0,0,0,7.057.011l24.185-13.987,1.485,2.568-24.186,13.987a10.014,10.014,0,0,1-10.03-.015L401.3,286.544a7.059,7.059,0,0,0-7.02-.031L334.4,320.635A9.985,9.985,0,0,1,329.452,321.943Z" transform="translate(26.257 220.684)" fill="#b2d3ea"/>
    <g id="Group_1402" data-name="Group 1402" transform="translate(556.75 471.798)">
      <path id="Path_8378" data-name="Path 8378" d="M478.764,393.877,430.315,365.9c-2.976-1.717-2.6-4.715.833-6.7l46.78-27.01c3.434-1.982,8.63-2.2,11.6-.48l48.449,27.972c2.974,1.715,2.6,4.714-.833,6.7L490.364,393.4C486.932,395.38,481.736,395.594,478.764,393.877Z" transform="translate(-414.222 -210.172)" fill="#b2d3ea"/>
      <g id="Group_1396" data-name="Group 1396" transform="translate(0 66.906)">
        <path id="Path_8379" data-name="Path 8379" d="M560.535,349.417h0V328.485l-46.94-.026-16.223-9.368c-3.725-2.149-10.23-1.88-14.528.6l-15.137,8.739-46.982-.028v21.53c-.108,1.456.7,2.861,2.492,3.892l60.671,35.027c3.725,2.149,10.228,1.88,14.528-.6L557,354.431C559.478,353,560.674,351.145,560.535,349.417Z" transform="translate(-420.706 -288.114)" fill="#396caa"/>
        <path id="Path_8380" data-name="Path 8380" d="M490.63,317.646a16.756,16.756,0,0,0-7.786,2.043l-15.137,8.739-46.982-.028v21.53c-.108,1.456.7,2.861,2.492,3.892l60.671,35.027a13.177,13.177,0,0,0,6.742,1.441Z" transform="translate(-420.706 -288.109)" fill="#396caa"/>
        <path id="Path_8381" data-name="Path 8381" d="M426.042,323.45l-5.316,0v21.53c-.108,1.456.7,2.861,2.492,3.892l2.824,1.63Z" transform="translate(-420.706 -283.154)" fill="#5793ce"/>
        <path id="Path_8382" data-name="Path 8382" d="M455.289,367.616a16.551,16.551,0,0,0,11.612-.132V343.039H455.289Z" transform="translate(-391.17 -266.416)" fill="#5793ce"/>
        <path id="Path_8383" data-name="Path 8383" d="M483.893,381.008l-60.671-35.027c-3.722-2.151-3.254-5.906,1.044-8.389l58.583-33.822c4.3-2.481,10.8-2.752,14.528-.6L558.044,338.2c3.725,2.149,3.258,5.9-1.042,8.387L498.421,380.4C494.121,382.889,487.618,383.157,483.893,381.008Z" transform="translate(-420.71 -301.717)" fill="#d4ecff"/>
        <path id="Path_8384" data-name="Path 8384" d="M479.767,371.691l-50.841-29.353c-3.121-1.8-2.729-4.949.873-7.03l49.092-28.343c3.6-2.081,9.053-2.307,12.175-.506l50.841,29.353c3.119,1.8,2.728,4.949-.875,7.03L491.94,371.187C488.337,373.267,482.889,373.491,479.767,371.691Z" transform="translate(-415.492 -298.704)" fill="#5793ce"/>
        <g id="Group_1395" data-name="Group 1395" transform="translate(112.612 55.976)">
          <path id="Path_8385" data-name="Path 8385" d="M486.344,338.565a5.417,5.417,0,0,1-2.449,4.243c-1.355.783-2.453.148-2.453-1.415a5.415,5.415,0,0,1,2.453-4.244C485.246,336.366,486.344,337,486.344,338.565Z" transform="translate(-481.441 -327.71)" fill="#d4ecff"/>
          <path id="Path_8386" data-name="Path 8386" d="M490.6,336.11a5.427,5.427,0,0,1-2.45,4.244c-1.355.781-2.453.146-2.453-1.417a5.415,5.415,0,0,1,2.453-4.245C489.5,333.912,490.6,334.546,490.6,336.11Z" transform="translate(-477.809 -329.807)" fill="#d4ecff"/>
          <path id="Path_8387" data-name="Path 8387" d="M494.848,333.654A5.421,5.421,0,0,1,492.4,337.9c-1.354.781-2.451.148-2.451-1.417a5.414,5.414,0,0,1,2.451-4.243C493.75,331.457,494.848,332.091,494.848,333.654Z" transform="translate(-474.176 -331.904)" fill="#d4ecff"/>
        </g>
      </g>
      <g id="Group_1398" data-name="Group 1398" transform="translate(0 33.453)">
        <path id="Path_8388" data-name="Path 8388" d="M560.535,331.376h0V310.444l-46.94-.026-16.223-9.368c-3.725-2.149-10.23-1.88-14.528.6l-15.137,8.739-46.982-.028v21.53c-.108,1.456.7,2.861,2.492,3.892l60.671,35.028c3.725,2.149,10.228,1.88,14.528-.6L557,336.39C559.478,334.958,560.674,333.1,560.535,331.376Z" transform="translate(-420.706 -270.073)" fill="#396caa"/>
        <path id="Path_8389" data-name="Path 8389" d="M490.63,299.605a16.755,16.755,0,0,0-7.786,2.043l-15.137,8.739-46.982-.028v21.53c-.108,1.456.7,2.861,2.492,3.892l60.671,35.028a13.159,13.159,0,0,0,6.742,1.441Z" transform="translate(-420.706 -270.068)" fill="#396caa"/>
        <path id="Path_8390" data-name="Path 8390" d="M426.042,305.409l-5.316,0v21.53c-.108,1.456.7,2.861,2.492,3.892l2.824,1.63Z" transform="translate(-420.706 -265.113)" fill="#5793ce"/>
        <path id="Path_8391" data-name="Path 8391" d="M455.289,349.575a16.552,16.552,0,0,0,11.612-.132V325H455.289Z" transform="translate(-391.17 -248.375)" fill="#5793ce"/>
        <path id="Path_8392" data-name="Path 8392" d="M483.893,362.969,423.222,327.94c-3.722-2.151-3.254-5.906,1.044-8.389l58.583-33.822c4.3-2.481,10.8-2.752,14.528-.6l60.667,35.027c3.725,2.149,3.258,5.9-1.042,8.387l-58.581,33.822C494.121,364.848,487.618,365.116,483.893,362.969Z" transform="translate(-420.71 -283.676)" fill="#d4ecff"/>
        <path id="Path_8393" data-name="Path 8393" d="M479.767,353.65,428.926,324.3c-3.121-1.8-2.729-4.949.873-7.03l49.092-28.343c3.6-2.081,9.053-2.307,12.175-.5l50.841,29.353c3.119,1.8,2.728,4.947-.875,7.028L491.94,353.145C488.337,355.226,482.889,355.45,479.767,353.65Z" transform="translate(-415.492 -280.663)" fill="#5793ce"/>
        <g id="Group_1397" data-name="Group 1397" transform="translate(112.612 55.976)">
          <path id="Path_8394" data-name="Path 8394" d="M486.344,320.524a5.418,5.418,0,0,1-2.449,4.243c-1.355.783-2.453.148-2.453-1.415a5.415,5.415,0,0,1,2.453-4.244C485.246,318.326,486.344,318.959,486.344,320.524Z" transform="translate(-481.441 -309.669)" fill="#d4ecff"/>
          <path id="Path_8395" data-name="Path 8395" d="M490.6,318.069a5.424,5.424,0,0,1-2.45,4.244c-1.355.781-2.453.147-2.453-1.417a5.415,5.415,0,0,1,2.453-4.245C489.5,315.871,490.6,316.505,490.6,318.069Z" transform="translate(-477.809 -311.766)" fill="#d4ecff"/>
          <path id="Path_8396" data-name="Path 8396" d="M494.848,315.613a5.421,5.421,0,0,1-2.451,4.245c-1.354.781-2.451.148-2.451-1.417A5.414,5.414,0,0,1,492.4,314.2C493.75,313.416,494.848,314.05,494.848,315.613Z" transform="translate(-474.176 -313.863)" fill="#d4ecff"/>
        </g>
      </g>
      <g id="Group_1401" data-name="Group 1401">
        <path id="Path_8397" data-name="Path 8397" d="M560.535,313.336h0V292.4l-46.94-.026-16.223-9.368c-3.725-2.149-10.23-1.88-14.528.6l-15.137,8.739-46.982-.026v21.53c-.108,1.454.7,2.859,2.492,3.89l60.671,35.029c3.725,2.147,10.228,1.878,14.528-.6L557,318.349C559.478,316.917,560.674,315.063,560.535,313.336Z" transform="translate(-420.705 -252.032)" fill="#396caa"/>
        <path id="Path_8398" data-name="Path 8398" d="M490.63,281.564a16.756,16.756,0,0,0-7.786,2.043l-15.137,8.739-46.982-.026v21.53c-.108,1.454.7,2.859,2.492,3.89l60.671,35.029a13.178,13.178,0,0,0,6.742,1.439Z" transform="translate(-420.705 -252.027)" fill="#396caa"/>
        <path id="Path_8399" data-name="Path 8399" d="M426.042,287.367l-5.316,0V308.9c-.108,1.454.7,2.859,2.492,3.89l2.824,1.63Z" transform="translate(-420.705 -247.071)" fill="#5793ce"/>
        <path id="Path_8400" data-name="Path 8400" d="M455.289,331.534A16.552,16.552,0,0,0,466.9,331.4V306.957H455.289Z" transform="translate(-391.17 -230.334)" fill="#5793ce"/>
        <path id="Path_8401" data-name="Path 8401" d="M483.893,344.924,423.222,309.9c-3.722-2.151-3.254-5.906,1.044-8.389l58.583-33.822c4.3-2.481,10.8-2.752,14.528-.6l60.667,35.028c3.725,2.149,3.258,5.9-1.042,8.387l-58.581,33.822C494.121,346.807,487.618,347.075,483.893,344.924Z" transform="translate(-420.71 -265.635)" fill="#d4ecff"/>
        <path id="Path_8402" data-name="Path 8402" d="M557,288.815l-58.581,33.824c-4.3,2.481-10.8,2.752-14.528.6l-60.671-35.028a5.623,5.623,0,0,1-1.858-1.65c-1.278,2.06-.7,4.293,1.858,5.771l60.671,35.026c3.725,2.151,10.228,1.882,14.528-.6L557,292.936c3.341-1.929,4.358-4.623,2.9-6.739A8.114,8.114,0,0,1,557,288.815Z" transform="translate(-420.71 -248.069)" fill="#fff"/>
        <g id="Group_1399" data-name="Group 1399" transform="translate(112.613 55.976)">
          <path id="Path_8403" data-name="Path 8403" d="M486.344,302.483a5.417,5.417,0,0,1-2.449,4.243c-1.355.783-2.453.148-2.453-1.415a5.415,5.415,0,0,1,2.453-4.244C485.246,300.285,486.344,300.918,486.344,302.483Z" transform="translate(-481.441 -291.628)" fill="#d4ecff"/>
          <path id="Path_8404" data-name="Path 8404" d="M490.6,300.028a5.421,5.421,0,0,1-2.45,4.245c-1.355.781-2.453.146-2.453-1.417a5.415,5.415,0,0,1,2.453-4.244C489.5,297.83,490.6,298.464,490.6,300.028Z" transform="translate(-477.809 -293.725)" fill="#d4ecff"/>
          <path id="Path_8405" data-name="Path 8405" d="M494.848,297.572a5.421,5.421,0,0,1-2.451,4.244c-1.354.781-2.451.148-2.451-1.415a5.415,5.415,0,0,1,2.451-4.244C493.75,295.375,494.848,296.009,494.848,297.572Z" transform="translate(-474.176 -295.822)" fill="#d4ecff"/>
        </g>
        <g id="Group_1400" data-name="Group 1400" transform="translate(37.205 20.47)">
          <path id="Path_8406" data-name="Path 8406" d="M470.34,313.778l-28.391-16.39c-1.741-1.007-1.522-2.765.49-3.926l27.412-15.828a7.555,7.555,0,0,1,6.8-.28l28.393,16.39c1.741,1.007,1.522,2.763-.49,3.926L477.138,313.5A7.55,7.55,0,0,1,470.34,313.778Z" transform="translate(-440.774 -276.674)" fill="#5793ce"/>
          <path id="Path_8407" data-name="Path 8407" d="M460.07,291.648l-3.929-2.27c-.239-.139-.21-.382.07-.541l3.79-2.19a1.049,1.049,0,0,1,.94-.041l3.929,2.27c.241.139.211.382-.069.543l-3.792,2.19A1.049,1.049,0,0,1,460.07,291.648Z" transform="translate(-427.785 -268.268)" fill="#d4ecff"/>
          <path id="Path_8408" data-name="Path 8408" d="M441.949,297.388l.082.044a4.366,4.366,0,0,1,.408-.278l27.412-15.828a7.555,7.555,0,0,1,6.8-.282L504.96,297.39c1.606-1.15,1.691-2.717.082-3.646l-28.393-16.39a7.555,7.555,0,0,0-6.8.28l-27.412,15.828C440.427,294.623,440.208,296.381,441.949,297.388Z" transform="translate(-440.774 -276.674)" fill="#396caa"/>
        </g>
      </g>
    </g>
    <path id="Path_8409" data-name="Path 8409" d="M409.664,107.869c0,1.051-.74,1.478-1.65.951a3.645,3.645,0,0,1-1.65-2.856c0-1.053.74-1.478,1.65-.953A3.651,3.651,0,0,1,409.664,107.869Z" transform="translate(123.783 68.752)" fill="#d4ecff"/>
    <path id="Path_8410" data-name="Path 8410" d="M417.5,112.619c0,1.051-.74,1.478-1.65.951a3.643,3.643,0,0,1-1.648-2.856c0-1.053.738-1.478,1.648-.953A3.651,3.651,0,0,1,417.5,112.619Z" transform="translate(130.476 72.81)" fill="#d4ecff"/>
    <path id="Path_8411" data-name="Path 8411" d="M425.329,117.369c0,1.051-.74,1.478-1.648.951a3.645,3.645,0,0,1-1.65-2.856c0-1.053.74-1.478,1.65-.953A3.654,3.654,0,0,1,425.329,117.369Z" transform="translate(137.167 76.868)" fill="#d4ecff"/>
    <path id="Path_8412" data-name="Path 8412" d="M433.164,122.119c0,1.051-.74,1.478-1.65.951a3.645,3.645,0,0,1-1.65-2.856c0-1.053.74-1.478,1.65-.953A3.651,3.651,0,0,1,433.164,122.119Z" transform="translate(143.859 80.926)" fill="#d4ecff"/>
  </g>
</svg>
