<svg xmlns="http://www.w3.org/2000/svg" width="28.444" height="35" viewBox="0 0 28.444 35">
  <g id="headphones" transform="translate(-39.22)">
    <g id="Group_2786" data-name="Group 2786" transform="translate(41.406 0)">
      <g id="Group_2785" data-name="Group 2785" transform="translate(0 0)">
        <path id="Path_12069" data-name="Path 12069" d="M77.419,0A12.036,12.036,0,0,0,65.38,12.032a4.984,4.984,0,0,1,.669-.047h.669a10.7,10.7,0,1,1,21.4,0v.007h.669a4.984,4.984,0,0,1,.669.047A12.036,12.036,0,0,0,77.419,0Z" transform="translate(-65.38 0)" fill="#fff"/>
      </g>
    </g>
    <g id="Group_2788" data-name="Group 2788" transform="translate(50.46 25.88)">
      <g id="Group_2787" data-name="Group 2787" transform="translate(0)">
        <path id="Path_12070" data-name="Path 12070" d="M188.049,309.687l-.669-.007c-.14,4.734-2.347,5.831-6.807,6.018v-.448a1.337,1.337,0,0,0-1.337-1.337h-4.2a1.337,1.337,0,0,0-1.337,1.337v2.173a1.337,1.337,0,0,0,1.337,1.337h4.219a1.337,1.337,0,0,0,1.337-1.337v-.388c4.273-.181,7.97-1.07,8.124-7.4A4.981,4.981,0,0,1,188.049,309.687Z" transform="translate(-173.7 -309.64)" fill="#fff"/>
      </g>
    </g>
    <g id="Group_2790" data-name="Group 2790" transform="translate(39.22 12.995)">
      <g id="Group_2789" data-name="Group 2789" transform="translate(0)">
        <path id="Path_12071" data-name="Path 12071" d="M42.042,155.48A2.557,2.557,0,0,0,39.22,158.3v6.285a2.557,2.557,0,0,0,2.822,2.822h1.471V155.48Z" transform="translate(-39.22 -155.48)" fill="#fff"/>
      </g>
    </g>
    <g id="Group_2792" data-name="Group 2792" transform="translate(63.371 12.995)">
      <g id="Group_2791" data-name="Group 2791">
        <path id="Path_12072" data-name="Path 12072" d="M329.651,155.48H328.18V167.4h1.471a2.557,2.557,0,0,0,2.822-2.822v-6.285A2.555,2.555,0,0,0,329.651,155.48Z" transform="translate(-328.18 -155.48)" fill="#fff"/>
      </g>
    </g>
  </g>
</svg>
