<svg xmlns="http://www.w3.org/2000/svg" width="105.6" height="105.6" viewBox="0 0 105.6 105.6">
  <g id="mobile_setting" data-name="mobile setting" transform="translate(-1.2 -1.2)">
    <path id="Path_8123" data-name="Path 8123" d="M30,31H50.8v3.467H30Z" transform="translate(20.533 21.267)" fill="#f80" stroke="#fff" stroke-width="1.6"/>
    <path id="Path_8124" data-name="Path 8124" d="M22,31H32.4v3.467H22Z" transform="translate(14.667 21.267)" fill="#f80" stroke="#fff" stroke-width="1.6"/>
    <path id="Path_8125" data-name="Path 8125" d="M22,35H56.667v3.467H22Z" transform="translate(14.667 24.2)" fill="#292828" stroke="#fff" stroke-width="1.6"/>
    <path id="Path_8126" data-name="Path 8126" d="M22,27H56.667v3.467H22Z" transform="translate(14.667 18.333)" fill="#292828" stroke="#fff" stroke-width="1.6"/>
    <path id="Path_8127" data-name="Path 8127" d="M34,10h3.467v3.467H34Z" transform="translate(23.467 5.867)" fill="#292828" stroke="#fff" stroke-width="1.6"/>
    <path id="Path_8128" data-name="Path 8128" d="M30,14h3.467v3.467H30Z" transform="translate(20.533 8.8)" fill="#f80" stroke="#fff" stroke-width="1.6"/>
    <path id="Path_8129" data-name="Path 8129" d="M32,48h3.467v3.467H32Z" transform="translate(22 33.733)" fill="#f80" stroke="#fff" stroke-width="1.6"/>
    <path id="Path_8130" data-name="Path 8130" d="M28,52h3.467v3.467H28Z" transform="translate(19.067 36.667)" fill="#292828" stroke="#fff" stroke-width="1.6"/>
    <path id="Path_8131" data-name="Path 8131" d="M104.475,74.991l-4.16-.537,2.583-3.311a1.744,1.744,0,0,0-.139-2.288l-4.68-4.68a1.744,1.744,0,0,0-2.288-.139L92.48,66.619l-.537-4.16a1.733,1.733,0,0,0-1.716-1.525H85.2V7.2A5.216,5.216,0,0,0,80,2H28a5.216,5.216,0,0,0-5.2,5.2V8.933H17.773a1.733,1.733,0,0,0-1.716,1.525l-.537,4.16-3.311-2.583a1.744,1.744,0,0,0-2.288.139l-4.68,4.68A1.744,1.744,0,0,0,5.1,19.143l2.583,3.311-4.16.537A1.733,1.733,0,0,0,2,24.707v6.587a1.733,1.733,0,0,0,1.525,1.716l4.16.537L5.1,36.857a1.744,1.744,0,0,0,.139,2.288l4.68,4.68a1.744,1.744,0,0,0,2.288.139l3.311-2.583.537,4.16a1.733,1.733,0,0,0,1.716,1.525H22.8V100.8A5.216,5.216,0,0,0,28,106H80a5.216,5.216,0,0,0,5.2-5.2V99.067h5.027a1.733,1.733,0,0,0,1.716-1.525l.537-4.16,3.311,2.583a1.744,1.744,0,0,0,2.288-.139l4.68-4.68a1.744,1.744,0,0,0,.139-2.288l-2.583-3.311,4.16-.537A1.733,1.733,0,0,0,106,83.293V76.707a1.733,1.733,0,0,0-1.525-1.716ZM22.8,32.853a4.9,4.9,0,0,1-1.733.347,5.2,5.2,0,0,1,0-10.4,4.9,4.9,0,0,1,1.733.347Zm0-13.329a9.648,9.648,0,0,0-1.733-.191,8.667,8.667,0,0,0,0,17.333,9.648,9.648,0,0,0,1.733-.191V43.6H19.3l-.52-4.125a1.766,1.766,0,0,0-1.2-1.439,7.384,7.384,0,0,1-1.213-.485,1.7,1.7,0,0,0-1.8.191l-3.276,2.548L8.777,37.776,11.325,34.5a1.7,1.7,0,0,0,.191-1.8,7.384,7.384,0,0,1-.485-1.213,1.766,1.766,0,0,0-1.439-1.2l-4.125-.52V26.232l4.125-.52a1.766,1.766,0,0,0,1.439-1.2,7.384,7.384,0,0,1,.485-1.213,1.7,1.7,0,0,0-.191-1.8L8.777,18.224l2.513-2.513,3.276,2.548a1.7,1.7,0,0,0,1.8.191,7.384,7.384,0,0,1,1.213-.485,1.766,1.766,0,0,0,1.2-1.439L19.3,12.4h3.5ZM36.667,5.467H71.333V7.2A1.733,1.733,0,0,1,69.6,8.933H38.4A1.733,1.733,0,0,1,36.667,7.2ZM81.733,29.733H69.6v-5.2A1.733,1.733,0,0,0,67.867,22.8h-10.4v3.467h8.667v5.2A1.733,1.733,0,0,0,67.867,33.2H81.733V78.267H64.4A1.733,1.733,0,0,0,62.667,80v8.667H54v3.467H64.4A1.733,1.733,0,0,0,66.133,90.4V81.733h15.6V100.8A1.733,1.733,0,0,1,80,102.533H28a1.733,1.733,0,0,1-1.733-1.733V78.267H38.4v5.2A1.733,1.733,0,0,0,40.133,85.2h10.4V81.733H41.867v-5.2A1.733,1.733,0,0,0,40.133,74.8H26.267V29.733H43.6A1.733,1.733,0,0,0,45.333,28V19.333H54V15.867H43.6A1.733,1.733,0,0,0,41.867,17.6v8.667h-15.6V7.2A1.733,1.733,0,0,1,28,5.467h5.2V7.2a5.216,5.216,0,0,0,5.2,5.2H69.6a5.216,5.216,0,0,0,5.2-5.2V5.467H80A1.733,1.733,0,0,1,81.733,7.2ZM85.2,75.147a4.9,4.9,0,0,1,1.733-.347,5.2,5.2,0,0,1,0,10.4,4.9,4.9,0,0,1-1.733-.347Zm17.333,6.621-4.125.52a1.766,1.766,0,0,0-1.439,1.2,7.384,7.384,0,0,1-.485,1.213,1.7,1.7,0,0,0,.191,1.8l2.548,3.276-2.513,2.513-3.276-2.548a1.7,1.7,0,0,0-1.8-.191,7.384,7.384,0,0,1-1.213.485,1.766,1.766,0,0,0-1.2,1.439L88.7,95.6H85.2V88.476a9.647,9.647,0,0,0,1.733.191,8.667,8.667,0,1,0,0-17.333,9.648,9.648,0,0,0-1.733.191V64.4h3.5l.52,4.125a1.766,1.766,0,0,0,1.2,1.439,7.386,7.386,0,0,1,1.213.485,1.7,1.7,0,0,0,1.8-.191l3.276-2.548,2.513,2.513L96.675,73.5a1.7,1.7,0,0,0-.191,1.8,7.384,7.384,0,0,1,.485,1.213,1.766,1.766,0,0,0,1.439,1.2l4.125.52Z" transform="translate(0 0)" fill="#f80" stroke="#fff" stroke-width="1.6"/>
    <path id="Path_8132" data-name="Path 8132" d="M61.333,23H23.2A5.216,5.216,0,0,0,18,28.2V49a5.216,5.216,0,0,0,5.2,5.2H61.333a5.216,5.216,0,0,0,5.2-5.2V28.2a5.216,5.216,0,0,0-5.2-5.2Zm1.733,26a1.733,1.733,0,0,1-1.733,1.733H23.2A1.733,1.733,0,0,1,21.467,49V28.2A1.733,1.733,0,0,1,23.2,26.467H61.333A1.733,1.733,0,0,1,63.067,28.2Z" transform="translate(11.733 15.4)" fill="#f80" stroke="#fff" stroke-width="1.6"/>
  </g>
</svg>
