<svg id="paypal_2_" data-name="paypal (2)" xmlns="http://www.w3.org/2000/svg" width="43.501" height="30" viewBox="0 0 43.501 30">
  <path id="Path_12055" data-name="Path 12055" d="M43.5,106.879a2.571,2.571,0,0,1-2.571,2.572H2.571A2.572,2.572,0,0,1,0,106.879V82.022a2.571,2.571,0,0,1,2.571-2.571H40.929A2.571,2.571,0,0,1,43.5,82.022v24.857Z" transform="translate(0 -79.451)" fill="#92dbef"/>
  <path id="Path_12056" data-name="Path 12056" d="M1.792,106.879V82.022a2.547,2.547,0,0,1,2.521-2.571H2.521A2.547,2.547,0,0,0,0,82.022v24.857a2.547,2.547,0,0,0,2.521,2.572H4.314A2.547,2.547,0,0,1,1.792,106.879Z" transform="translate(0 -79.451)" fill="#202121" opacity="0.15"/>
  <path id="Path_12057" data-name="Path 12057" d="M163.464,130.839c-.935-1.068-2.67-1.6-5.073-1.6h-6.676a1.146,1.146,0,0,0-.935.8l-2.67,17.49a.611.611,0,0,0,.534.668h4.139l1.068-6.542v.267a1.145,1.145,0,0,1,.935-.8h2c3.872,0,6.808-1.6,7.743-6.009v-.4h0a4.664,4.664,0,0,0-1.067-3.872" transform="translate(-135.372 -125.09)" fill="#263b80"/>
  <path id="Path_12058" data-name="Path 12058" d="M227.709,186.513v-.4c0-.013,0-.026,0-.039a3.779,3.779,0,0,0-.63-.355,5.912,5.912,0,0,0-2.022-.408l0,0H223.11l0,0h-4.084a.965.965,0,0,0-.936.829l-1.064,6.916v.267a1.145,1.145,0,0,1,.935-.8h2C223.837,192.522,226.774,190.92,227.709,186.513Z" transform="translate(-198.468 -176.25)" fill="#232c65"/>
  <path id="Path_12059" data-name="Path 12059" d="M213.882,196.176a3.491,3.491,0,0,0-1.309-1.694c0,.013,0,.025,0,.039v.4c-.935,4.406-3.871,6.009-7.743,6.009h-2a1.145,1.145,0,0,0-.935.8v-.1c-.015.034-.029.069-.041.1l-.754,4.6-.273,1.673h0l-.306,1.869a.489.489,0,0,0,.534.533h3.328a.94.94,0,0,0,.945-.8l.028-.174h0l.639-3.964a1.011,1.011,0,0,1,1-.935h.341c3.338,0,6.008-1.335,6.676-5.34A6.293,6.293,0,0,0,213.882,196.176Z" transform="translate(-183.322 -184.313)" fill="#139ad6"/>
</svg>
