<svg id="wordpress" xmlns="http://www.w3.org/2000/svg" width="50" height="50" viewBox="0 0 50 50">
  <path id="Path_11943" data-name="Path 11943" d="M75.41,47.973H72.63l7.578,21.421L84.45,57.271l-3.289-9.3H78.229V45.932H91.216v2.041H88.174l7.578,21.421,2.724-7.784c3.573-9.973-2.929-13.08-2.929-15.306a4.03,4.03,0,0,1,4.03-4.03c.12,0,.237.007.352.017a21.058,21.058,0,0,0-31.978,3.64h7.458v2.041Z" transform="translate(-60.45 -32.439)" fill="#fa8d1d"/>
  <path id="Path_11944" data-name="Path 11944" d="M36.548,158.636a21.053,21.053,0,0,0,11.185,18.6l-9.5-26.863A20.989,20.989,0,0,0,36.548,158.636Z" transform="translate(-32.439 -133.802)" fill="#fa8d1d"/>
  <path id="Path_11945" data-name="Path 11945" d="M320.3,131.547a14.885,14.885,0,0,1-.252,5.768h.084l-.318.91h0a19.623,19.623,0,0,1-.7,1.989l-7.246,20.3a21.067,21.067,0,0,0,8.429-28.966Z" transform="translate(-277.137 -117.09)" fill="#fa8d1d"/>
  <path id="Path_11946" data-name="Path 11946" d="M166.075,265.3a21.156,21.156,0,0,0,12.705.091l-6.16-17.412Z" transform="translate(-147.568 -220.43)" fill="#fa8d1d"/>
  <path id="Path_11947" data-name="Path 11947" d="M42.678,7.322A25,25,0,0,0,7.322,42.678,25,25,0,1,0,42.678,7.322ZM25,48.236A23.236,23.236,0,1,1,48.236,25,23.263,23.263,0,0,1,25,48.236Z" fill="#fa8d1d"/>
</svg>
