<svg xmlns="http://www.w3.org/2000/svg" width="61" height="60" viewBox="0 0 61 60">
  <g id="server" transform="translate(-7.997 -8)">
    <path id="Path_11895" data-name="Path 11895" d="M123.951,119.9A3.951,3.951,0,1,0,120,115.951,3.951,3.951,0,0,0,123.951,119.9Zm0-5.926a1.975,1.975,0,1,1-1.975,1.975A1.975,1.975,0,0,1,123.951,113.975Z" transform="translate(-98.236 -91.221)" fill="#fa8d1d"/>
    <path id="Path_11896" data-name="Path 11896" d="M96.988,89.975h.988a.988.988,0,0,0,0-1.975h-.988a.988.988,0,0,0,0,1.975Z" transform="translate(-77.182 -70.123)" fill="#fa8d1d"/>
    <path id="Path_11897" data-name="Path 11897" d="M184.988,89.975h.988a.988.988,0,0,0,0-1.975h-.988a.988.988,0,0,0,0,1.975Z" transform="translate(-154.362 -70.123)" fill="#fa8d1d"/>
    <path id="Path_11898" data-name="Path 11898" d="M97.975,344h-.988a.988.988,0,1,0,0,1.975h.988a.988.988,0,1,0,0-1.975Z" transform="translate(-77.182 -294.694)" fill="#fa8d1d"/>
    <path id="Path_11899" data-name="Path 11899" d="M184.988,345.975h.988a.988.988,0,1,0,0-1.975h-.988a.988.988,0,0,0,0,1.975Z" transform="translate(-154.362 -294.694)" fill="#fa8d1d"/>
    <path id="Path_11900" data-name="Path 11900" d="M96.988,225.975H108.84a.988.988,0,0,0,0-1.975H96.988a.988.988,0,1,0,0,1.975Z" transform="translate(-77.192 -189.446)" fill="#fa8d1d"/>
    <path id="Path_11901" data-name="Path 11901" d="M108.84,248H96.988a.988.988,0,0,0,0,1.975H108.84a.988.988,0,0,0,0-1.975Z" transform="translate(-77.192 -210.496)" fill="#fa8d1d"/>
    <path id="Path_11902" data-name="Path 11902" d="M120.889,272h-7.9a.988.988,0,0,0,0,1.975h7.9a.988.988,0,1,0,0-1.975Z" transform="translate(-91.222 -231.546)" fill="#fa8d1d"/>
    <path id="Path_11903" data-name="Path 11903" d="M61.123,18.659a3.939,3.939,0,0,0-3.932-3.773h-3.2a16.724,16.724,0,0,0-27.048,0H19.8a3.939,3.939,0,0,0-3.922,3.621,11.8,11.8,0,0,0-.014,22.261V50.3A3.939,3.939,0,0,0,19.8,54.23h4.919v3.934H23.74a.984.984,0,0,0-.984.984V62.1H17.836a.984.984,0,0,0-.984.984v.984H8.982a.984.984,0,1,0,0,1.967h7.871v.984a.984.984,0,0,0,.984.984H33.578a.984.984,0,0,0,.984-.984v-.984h7.871v.984a.984.984,0,0,0,.984.984H59.159a.984.984,0,0,0,.984-.984v-.984h3.935a.984.984,0,1,0,0-1.967H60.143v-.984a.984.984,0,0,0-.984-.984H54.239V59.148a.984.984,0,0,0-.984-.984h-.984V54.23h4.919A3.939,3.939,0,0,0,61.126,50.3V41.443h.192a.985.985,0,0,0,.4-.086,12.3,12.3,0,0,0-.6-22.7Zm-45.254,20a9.835,9.835,0,0,1,0-18.03Zm24.6-28.687a14.734,14.734,0,0,1,11,4.918H45.385a3.939,3.939,0,0,0-3.935,3.934V39.475h-5.9V18.82a3.939,3.939,0,0,0-3.935-3.934H29.468a14.809,14.809,0,0,1,11-4.918ZM17.836,18.82A1.97,1.97,0,0,1,19.8,16.852H31.61a1.97,1.97,0,0,1,1.968,1.967v11.8H17.836Zm0,13.77H33.578v13.77H17.836ZM19.8,52.262A1.97,1.97,0,0,1,17.836,50.3V48.328H33.578V50.3a1.97,1.97,0,0,1-1.968,1.967Zm4.919,7.869h1.968V62.1H24.723Zm7.871,5.9H18.82V64.066H32.594Zm9.839-2.951v.984H34.562v-.984a.984.984,0,0,0-.984-.984H28.659V59.148a.984.984,0,0,0-.984-.984h-.984V54.23H31.61A3.939,3.939,0,0,0,35.546,50.3V41.443h5.9V50.3a3.939,3.939,0,0,0,3.935,3.934H50.3v3.934H49.32a.984.984,0,0,0-.984.984V62.1H43.417A.984.984,0,0,0,42.433,63.082Zm9.839-2.951V62.1H50.3V60.131Zm5.9,3.934v1.967H44.4V64.066Zm.984-13.77a1.97,1.97,0,0,1-1.968,1.967H45.385A1.97,1.97,0,0,1,43.417,50.3V48.328H59.159Zm0-3.934H43.417V32.59H59.159Zm0-15.738H43.417V18.82a1.97,1.97,0,0,1,1.968-1.967H57.191a1.97,1.97,0,0,1,1.968,1.967Zm6.615,4.447a10.411,10.411,0,0,1-4.648,4.394V20.8A10.333,10.333,0,0,1,65.774,35.07Z" transform="translate(0)" fill="#fa8d1d"/>
    <path id="Path_11904" data-name="Path 11904" d="M331.951,112a3.951,3.951,0,1,0,3.951,3.951A3.951,3.951,0,0,0,331.951,112Zm0,5.926a1.975,1.975,0,1,1,1.975-1.975A1.975,1.975,0,0,1,331.951,117.926Z" transform="translate(-280.67 -91.221)" fill="#fa8d1d"/>
    <path id="Path_11905" data-name="Path 11905" d="M305.975,88h-.988a.988.988,0,0,0,0,1.975h.988a.988.988,0,0,0,0-1.975Z" transform="translate(-259.606 -70.123)" fill="#fa8d1d"/>
    <path id="Path_11906" data-name="Path 11906" d="M392.988,89.975h.988a.988.988,0,1,0,0-1.975h-.988a.988.988,0,1,0,0,1.975Z" transform="translate(-336.786 -70.123)" fill="#fa8d1d"/>
    <path id="Path_11907" data-name="Path 11907" d="M305.975,344h-.988a.988.988,0,1,0,0,1.975h.988a.988.988,0,1,0,0-1.975Z" transform="translate(-259.606 -294.694)" fill="#fa8d1d"/>
    <path id="Path_11908" data-name="Path 11908" d="M393.975,344h-.988a.988.988,0,1,0,0,1.975h.988a.988.988,0,1,0,0-1.975Z" transform="translate(-336.786 -294.694)" fill="#fa8d1d"/>
    <path id="Path_11909" data-name="Path 11909" d="M304.988,225.975H316.84a.988.988,0,1,0,0-1.975H304.988a.988.988,0,1,0,0,1.975Z" transform="translate(-259.64 -189.446)" fill="#fa8d1d"/>
    <path id="Path_11910" data-name="Path 11910" d="M316.84,248H304.988a.988.988,0,0,0,0,1.975H316.84a.988.988,0,1,0,0-1.975Z" transform="translate(-259.64 -210.496)" fill="#fa8d1d"/>
    <path id="Path_11911" data-name="Path 11911" d="M328.889,272h-7.9a.988.988,0,1,0,0,1.975h7.9a.988.988,0,0,0,0-1.975Z" transform="translate(-273.66 -231.546)" fill="#fa8d1d"/>
    <path id="Path_11912" data-name="Path 11912" d="M481.975,464h-.988a.988.988,0,1,0,0,1.975h.988a.988.988,0,1,0,0-1.975Z" transform="translate(-413.966 -399.951)" fill="#fa8d1d"/>
  </g>
</svg>
