<svg xmlns="http://www.w3.org/2000/svg" width="55.747" height="56.885" viewBox="0 0 55.747 56.885">
  <g id="cloud-storage" transform="translate(-1.502 0)">
    <path id="Path_11966" data-name="Path 11966" d="M134.6,10.857a11.491,11.491,0,0,0-2.01.177,16.856,16.856,0,0,0-32.14,1.6l1.621.418a15.314,15.314,0,0,1,15.14-11.373c6.922.2,12.234,4.916,14.267,11.334a10.234,10.234,0,0,1,9.261,1.7,9.8,9.8,0,0,1,3.544,8.665,9.914,9.914,0,0,1-5.751,7.823c-1.9.859-3.72.748-5.749.748v1.674a15.564,15.564,0,0,0,5.834-.643,11.029,11.029,0,0,0,7.152-8.306A11.537,11.537,0,0,0,134.6,10.857Z" transform="translate(-88.761)" fill="#fa8d1d"/>
    <path id="Path_11967" data-name="Path 11967" d="M9.507,146.539a8.074,8.074,0,0,1-5.235-11.846,8.037,8.037,0,0,1,12.888-1.2l1.216-1.15a9.9,9.9,0,0,0-5.271-3.09v0C6.013,127.948-.306,134.674,1.976,141.69a9.723,9.723,0,0,0,7.207,6.492,30.046,30.046,0,0,0,5.562.188V146.7a34.085,34.085,0,0,1-5.239-.156Z" transform="translate(0 -114.708)" fill="#fa8d1d"/>
    <path id="Path_11968" data-name="Path 11968" d="M165.178,375.584h1.674v1.674h-1.674Z" transform="translate(-145.696 -333.714)" fill="#fa8d1d"/>
    <path id="Path_11969" data-name="Path 11969" d="M195.178,375.584h1.674v1.674h-1.674Z" transform="translate(-172.401 -333.714)" fill="#fa8d1d"/>
    <path id="Path_11970" data-name="Path 11970" d="M285.178,375.584h6.7v1.674h-6.7Z" transform="translate(-252.564 -333.714)" fill="#fa8d1d"/>
    <path id="Path_11971" data-name="Path 11971" d="M248.174,435.251h1.674v1.674h-1.674Z" transform="translate(-219.575 -386.736)" fill="#fa8d1d"/>
    <path id="Path_11972" data-name="Path 11972" d="M165.178,465.251h1.674v1.674h-1.674Z" transform="translate(-145.696 -413.388)" fill="#fa8d1d"/>
    <path id="Path_11973" data-name="Path 11973" d="M195.178,465.251h1.674v1.674h-1.674Z" transform="translate(-172.401 -413.388)" fill="#fa8d1d"/>
    <path id="Path_11974" data-name="Path 11974" d="M285.178,465.251h6.7v1.674h-6.7Z" transform="translate(-252.564 -413.388)" fill="#fa8d1d"/>
    <path id="Path_11975" data-name="Path 11975" d="M248.174,315.917h1.674v1.674h-1.674Z" transform="translate(-219.575 -280.698)" fill="#fa8d1d"/>
    <path id="Path_11976" data-name="Path 11976" d="M165.178,285.918h1.674v1.674h-1.674Z" transform="translate(-145.696 -254.044)" fill="#fa8d1d"/>
    <path id="Path_11977" data-name="Path 11977" d="M195.178,285.918h1.674v1.674h-1.674Z" transform="translate(-172.401 -254.044)" fill="#fa8d1d"/>
    <path id="Path_11978" data-name="Path 11978" d="M285.178,285.918h6.7v1.674h-6.7Z" transform="translate(-252.564 -254.044)" fill="#fa8d1d"/>
    <path id="Path_11979" data-name="Path 11979" d="M154.576,62.231h2.6a2.522,2.522,0,1,0-.03-1.672H152.9v8.356h-1.674v-12.3l1.833-1.831a2.522,2.522,0,1,0-1.146-1.22l-2.36,2.358V68.915h-1.674V51.09l-2.229-2.226a2.528,2.528,0,1,0-1.083,1.284l1.637,1.635V68.915h-1.674V62.156H140.28a2.521,2.521,0,1,0,.032,1.672h2.547v5.087h-7.514v8.36h1.711v1.635h-1.711v8.36h1.711v1.635h-1.711v8.36H162.09v-8.36h-1.6V87.271h1.6v-8.36h-1.6V77.276h1.6v-8.36h-7.514Zm4.966-1.728a.849.849,0,1,1-.85.849A.85.85,0,0,1,159.542,60.5ZM154.223,51.7a.849.849,0,1,1-.85.849A.85.85,0,0,1,154.223,51.7ZM142.44,47.975a.85.85,0,1,1,.85.849A.85.85,0,0,1,142.44,47.975Zm-4.525,15.912a.849.849,0,1,1,.85-.849A.85.85,0,0,1,137.916,63.887Zm-.9,16.7h23.4V85.6h-23.4Zm21.8,8.323h-7.533v1.672h9.132v5.016h-23.4V90.578h9.243V88.906H138.73V87.271h20.087Zm1.6-13.3h-9.132v1.672h7.533v1.635H138.73V77.276h7.532V75.6h-9.243V70.587h23.4Z" transform="translate(-119.336 -40.382)" fill="#fa8d1d"/>
  </g>
</svg>
