<svg id="server_1_" data-name="server (1)" xmlns="http://www.w3.org/2000/svg" width="72.142" height="72.143" viewBox="0 0 72.142 72.143">
  <g id="Group_1180" data-name="Group 1180" transform="translate(0 0)">
    <g id="Group_1179" data-name="Group 1179">
      <path id="Path_8101" data-name="Path 8101" d="M68.535,21.643a3.607,3.607,0,0,0,3.607-3.607V3.607A3.607,3.607,0,0,0,68.535,0H3.607A3.607,3.607,0,0,0,0,3.607V18.036a3.607,3.607,0,0,0,3.607,3.607H7.214V25.25H3.607A3.607,3.607,0,0,0,0,28.857V43.286a3.607,3.607,0,0,0,3.607,3.607H7.214V50.5H3.607A3.607,3.607,0,0,0,0,54.107V68.536a3.607,3.607,0,0,0,3.607,3.607H68.535a3.607,3.607,0,0,0,3.607-3.607V54.107A3.607,3.607,0,0,0,68.535,50.5H64.928V46.893h3.607a3.607,3.607,0,0,0,3.607-3.607V28.857a3.607,3.607,0,0,0-3.607-3.607H64.928V21.643Zm0,31.262a1.2,1.2,0,0,1,1.2,1.2V68.536a1.2,1.2,0,0,1-1.2,1.2H3.607a1.2,1.2,0,0,1-1.2-1.2V54.107a1.2,1.2,0,0,1,1.2-1.2ZM9.619,50.5V46.893h2.4V50.5Zm4.809,0V46.893H57.714V50.5Zm45.69,0V46.893h2.4V50.5Zm8.417-22.845a1.2,1.2,0,0,1,1.2,1.2V43.286a1.2,1.2,0,0,1-1.2,1.2H3.607a1.2,1.2,0,0,1-1.2-1.2V28.857a1.2,1.2,0,0,1,1.2-1.2ZM9.619,25.25V21.643h2.4V25.25Zm4.809,0V21.643H57.714V25.25Zm45.69,0V21.643h2.4V25.25ZM3.607,19.238a1.2,1.2,0,0,1-1.2-1.2V3.607a1.2,1.2,0,0,1,1.2-1.2H68.535a1.2,1.2,0,0,1,1.2,1.2V18.036a1.2,1.2,0,0,1-1.2,1.2Z" fill="#fff"/>
    </g>
  </g>
  <g id="Group_1182" data-name="Group 1182" transform="translate(7.198 7.213)">
    <g id="Group_1181" data-name="Group 1181">
      <path id="Path_8102" data-name="Path 8102" d="M79.172,50.4H54.9a3.607,3.607,0,1,0,0,2.4H79.172a1.2,1.2,0,1,0,0-2.4ZM51.517,52.8a1.2,1.2,0,1,1,1.2-1.2A1.2,1.2,0,0,1,51.517,52.8Z" transform="translate(-47.894 -47.994)" fill="#fff"/>
    </g>
  </g>
  <g id="Group_1184" data-name="Group 1184" transform="translate(53.064 6.596)">
    <g id="Group_1183" data-name="Group 1183" transform="translate(0 0)">
      <rect id="Rectangle_646" data-name="Rectangle 646" width="2.462" height="1.231" transform="translate(0)" fill="#fff"/>
    </g>
  </g>
  <g id="Group_1186" data-name="Group 1186" transform="translate(58.603 6.596)">
    <g id="Group_1185" data-name="Group 1185" transform="translate(0 0)">
      <rect id="Rectangle_647" data-name="Rectangle 647" width="0.615" height="1.231" fill="#fff"/>
    </g>
  </g>
  <g id="Group_1188" data-name="Group 1188" transform="translate(61.68 6.596)">
    <g id="Group_1187" data-name="Group 1187" transform="translate(0 0)">
      <rect id="Rectangle_648" data-name="Rectangle 648" width="3.077" height="1.231" fill="#fff"/>
    </g>
  </g>
  <g id="Group_1190" data-name="Group 1190" transform="translate(48.141 6.596)">
    <g id="Group_1189" data-name="Group 1189" transform="translate(0 0)">
      <rect id="Rectangle_649" data-name="Rectangle 649" width="2.462" height="1.231" fill="#fff"/>
    </g>
  </g>
  <g id="Group_1192" data-name="Group 1192" transform="translate(43.217 6.596)">
    <g id="Group_1191" data-name="Group 1191" transform="translate(0 0)">
      <rect id="Rectangle_650" data-name="Rectangle 650" width="2.462" height="1.231" transform="translate(0)" fill="#fff"/>
    </g>
  </g>
  <g id="Group_1194" data-name="Group 1194" transform="translate(53.064 9.058)">
    <g id="Group_1193" data-name="Group 1193" transform="translate(0 0)">
      <rect id="Rectangle_651" data-name="Rectangle 651" width="2.462" height="2.462" transform="translate(0 0)" fill="#fff"/>
    </g>
  </g>
  <g id="Group_1196" data-name="Group 1196" transform="translate(58.603 9.058)">
    <g id="Group_1195" data-name="Group 1195" transform="translate(0 0)">
      <rect id="Rectangle_652" data-name="Rectangle 652" width="0.615" height="2.462" transform="translate(0 0)" fill="#fff"/>
    </g>
  </g>
  <g id="Group_1198" data-name="Group 1198" transform="translate(61.68 9.058)">
    <g id="Group_1197" data-name="Group 1197" transform="translate(0 0)">
      <rect id="Rectangle_653" data-name="Rectangle 653" width="3.077" height="2.462" transform="translate(0 0)" fill="#fff"/>
    </g>
  </g>
  <g id="Group_1200" data-name="Group 1200" transform="translate(48.141 9.058)">
    <g id="Group_1199" data-name="Group 1199" transform="translate(0 0)">
      <rect id="Rectangle_654" data-name="Rectangle 654" width="2.462" height="2.462" transform="translate(0 0)" fill="#fff"/>
    </g>
  </g>
  <g id="Group_1202" data-name="Group 1202" transform="translate(43.217 9.058)">
    <g id="Group_1201" data-name="Group 1201" transform="translate(0 0)">
      <rect id="Rectangle_655" data-name="Rectangle 655" width="2.462" height="2.462" transform="translate(0 0)" fill="#fff"/>
    </g>
  </g>
  <g id="Group_1204" data-name="Group 1204" transform="translate(53.064 13.981)">
    <g id="Group_1203" data-name="Group 1203" transform="translate(0 0)">
      <rect id="Rectangle_656" data-name="Rectangle 656" width="2.462" height="3.693" transform="translate(0)" fill="#fff"/>
    </g>
  </g>
  <g id="Group_1206" data-name="Group 1206" transform="translate(58.603 13.981)">
    <g id="Group_1205" data-name="Group 1205" transform="translate(0 0)">
      <rect id="Rectangle_657" data-name="Rectangle 657" width="0.615" height="3.693" fill="#fff"/>
    </g>
  </g>
  <g id="Group_1208" data-name="Group 1208" transform="translate(61.68 13.981)">
    <g id="Group_1207" data-name="Group 1207" transform="translate(0 0)">
      <rect id="Rectangle_658" data-name="Rectangle 658" width="3.077" height="3.693" fill="#fff"/>
    </g>
  </g>
  <g id="Group_1210" data-name="Group 1210" transform="translate(48.141 13.981)">
    <g id="Group_1209" data-name="Group 1209" transform="translate(0 0)">
      <rect id="Rectangle_659" data-name="Rectangle 659" width="2.462" height="3.693" fill="#fff"/>
    </g>
  </g>
  <g id="Group_1212" data-name="Group 1212" transform="translate(43.217 13.981)">
    <g id="Group_1211" data-name="Group 1211" transform="translate(0 0)">
      <rect id="Rectangle_660" data-name="Rectangle 660" width="2.462" height="3.693" transform="translate(0)" fill="#fff"/>
    </g>
  </g>
  <g id="Group_1214" data-name="Group 1214" transform="translate(7.198 32.463)">
    <g id="Group_1213" data-name="Group 1213">
      <path id="Path_8103" data-name="Path 8103" d="M79.172,218.4H54.9a3.607,3.607,0,1,0,0,2.4H79.172a1.2,1.2,0,1,0,0-2.4Zm-27.655,2.4a1.2,1.2,0,1,1,1.2-1.2A1.2,1.2,0,0,1,51.517,220.8Z" transform="translate(-47.894 -215.994)" fill="#fff"/>
    </g>
  </g>
  <g id="Group_1216" data-name="Group 1216" transform="translate(53.064 30.597)">
    <g id="Group_1215" data-name="Group 1215" transform="translate(0 0)">
      <rect id="Rectangle_661" data-name="Rectangle 661" width="2.462" height="1.231" transform="translate(0 0)" fill="#fff"/>
    </g>
  </g>
  <g id="Group_1218" data-name="Group 1218" transform="translate(58.603 30.597)">
    <g id="Group_1217" data-name="Group 1217" transform="translate(0 0)">
      <rect id="Rectangle_662" data-name="Rectangle 662" width="0.615" height="1.231" transform="translate(0 0)" fill="#fff"/>
    </g>
  </g>
  <g id="Group_1220" data-name="Group 1220" transform="translate(61.68 30.597)">
    <g id="Group_1219" data-name="Group 1219" transform="translate(0 0)">
      <rect id="Rectangle_663" data-name="Rectangle 663" width="3.077" height="1.231" transform="translate(0 0)" fill="#fff"/>
    </g>
  </g>
  <g id="Group_1222" data-name="Group 1222" transform="translate(48.141 30.597)">
    <g id="Group_1221" data-name="Group 1221" transform="translate(0 0)">
      <rect id="Rectangle_664" data-name="Rectangle 664" width="2.462" height="1.231" transform="translate(0 0)" fill="#fff"/>
    </g>
  </g>
  <g id="Group_1224" data-name="Group 1224" transform="translate(43.217 30.597)">
    <g id="Group_1223" data-name="Group 1223" transform="translate(0 0)">
      <rect id="Rectangle_665" data-name="Rectangle 665" width="2.462" height="1.231" transform="translate(0 0)" fill="#fff"/>
    </g>
  </g>
  <g id="Group_1226" data-name="Group 1226" transform="translate(53.064 33.059)">
    <g id="Group_1225" data-name="Group 1225" transform="translate(0 0)">
      <rect id="Rectangle_666" data-name="Rectangle 666" width="2.462" height="4.308" transform="translate(0)" fill="#fff"/>
    </g>
  </g>
  <g id="Group_1228" data-name="Group 1228" transform="translate(58.603 33.059)">
    <g id="Group_1227" data-name="Group 1227" transform="translate(0 0)">
      <rect id="Rectangle_667" data-name="Rectangle 667" width="0.615" height="4.308" fill="#fff"/>
    </g>
  </g>
  <g id="Group_1230" data-name="Group 1230" transform="translate(61.68 33.059)">
    <g id="Group_1229" data-name="Group 1229" transform="translate(0 0)">
      <rect id="Rectangle_668" data-name="Rectangle 668" width="3.077" height="4.308" fill="#fff"/>
    </g>
  </g>
  <g id="Group_1232" data-name="Group 1232" transform="translate(48.141 33.059)">
    <g id="Group_1231" data-name="Group 1231" transform="translate(0 0)">
      <rect id="Rectangle_669" data-name="Rectangle 669" width="2.462" height="4.308" fill="#fff"/>
    </g>
  </g>
  <g id="Group_1234" data-name="Group 1234" transform="translate(43.217 33.059)">
    <g id="Group_1233" data-name="Group 1233" transform="translate(0 0)">
      <rect id="Rectangle_670" data-name="Rectangle 670" width="2.462" height="4.308" transform="translate(0)" fill="#fff"/>
    </g>
  </g>
  <g id="Group_1236" data-name="Group 1236" transform="translate(53.064 41.06)">
    <g id="Group_1235" data-name="Group 1235" transform="translate(0 0)">
      <rect id="Rectangle_671" data-name="Rectangle 671" width="2.462" height="0.615" transform="translate(0 0)" fill="#fff"/>
    </g>
  </g>
  <g id="Group_1238" data-name="Group 1238" transform="translate(58.603 41.06)">
    <g id="Group_1237" data-name="Group 1237" transform="translate(0 0)">
      <rect id="Rectangle_672" data-name="Rectangle 672" width="0.615" height="0.615" transform="translate(0 0)" fill="#fff"/>
    </g>
  </g>
  <g id="Group_1240" data-name="Group 1240" transform="translate(61.68 41.06)">
    <g id="Group_1239" data-name="Group 1239" transform="translate(0 0)">
      <rect id="Rectangle_673" data-name="Rectangle 673" width="3.077" height="0.615" transform="translate(0 0)" fill="#fff"/>
    </g>
  </g>
  <g id="Group_1242" data-name="Group 1242" transform="translate(48.141 41.06)">
    <g id="Group_1241" data-name="Group 1241" transform="translate(0 0)">
      <rect id="Rectangle_674" data-name="Rectangle 674" width="2.462" height="0.615" transform="translate(0 0)" fill="#fff"/>
    </g>
  </g>
  <g id="Group_1244" data-name="Group 1244" transform="translate(43.217 41.06)">
    <g id="Group_1243" data-name="Group 1243" transform="translate(0 0)">
      <rect id="Rectangle_675" data-name="Rectangle 675" width="2.462" height="0.615" transform="translate(0 0)" fill="#fff"/>
    </g>
  </g>
  <g id="Group_1246" data-name="Group 1246" transform="translate(7.198 57.713)">
    <g id="Group_1245" data-name="Group 1245">
      <path id="Path_8104" data-name="Path 8104" d="M79.172,386.4H54.9a3.607,3.607,0,1,0,0,2.4H79.172a1.2,1.2,0,0,0,0-2.4Zm-27.655,2.4a1.2,1.2,0,1,1,1.2-1.2A1.2,1.2,0,0,1,51.517,388.8Z" transform="translate(-47.894 -383.994)" fill="#fff"/>
    </g>
  </g>
  <g id="Group_1248" data-name="Group 1248" transform="translate(53.064 54.599)">
    <g id="Group_1247" data-name="Group 1247" transform="translate(0 0)">
      <rect id="Rectangle_676" data-name="Rectangle 676" width="2.462" height="2.462" transform="translate(0)" fill="#fff"/>
    </g>
  </g>
  <g id="Group_1250" data-name="Group 1250" transform="translate(58.603 54.599)">
    <g id="Group_1249" data-name="Group 1249" transform="translate(0 0)">
      <rect id="Rectangle_677" data-name="Rectangle 677" width="0.615" height="2.462" fill="#fff"/>
    </g>
  </g>
  <g id="Group_1252" data-name="Group 1252" transform="translate(61.68 54.599)">
    <g id="Group_1251" data-name="Group 1251" transform="translate(0 0)">
      <rect id="Rectangle_678" data-name="Rectangle 678" width="3.077" height="2.462" fill="#fff"/>
    </g>
  </g>
  <g id="Group_1254" data-name="Group 1254" transform="translate(48.141 54.599)">
    <g id="Group_1253" data-name="Group 1253" transform="translate(0 0)">
      <rect id="Rectangle_679" data-name="Rectangle 679" width="2.462" height="2.462" fill="#fff"/>
    </g>
  </g>
  <g id="Group_1256" data-name="Group 1256" transform="translate(43.217 54.599)">
    <g id="Group_1255" data-name="Group 1255" transform="translate(0 0)">
      <rect id="Rectangle_680" data-name="Rectangle 680" width="2.462" height="2.462" transform="translate(0)" fill="#fff"/>
    </g>
  </g>
  <g id="Group_1258" data-name="Group 1258" transform="translate(53.064 59.522)">
    <g id="Group_1257" data-name="Group 1257" transform="translate(0 0)">
      <rect id="Rectangle_681" data-name="Rectangle 681" width="2.462" height="1.846" transform="translate(0)" fill="#fff"/>
    </g>
  </g>
  <g id="Group_1260" data-name="Group 1260" transform="translate(58.603 59.522)">
    <g id="Group_1259" data-name="Group 1259" transform="translate(0 0)">
      <rect id="Rectangle_682" data-name="Rectangle 682" width="0.615" height="1.846" fill="#fff"/>
    </g>
  </g>
  <g id="Group_1262" data-name="Group 1262" transform="translate(61.68 59.522)">
    <g id="Group_1261" data-name="Group 1261" transform="translate(0 0)">
      <rect id="Rectangle_683" data-name="Rectangle 683" width="3.077" height="1.846" fill="#fff"/>
    </g>
  </g>
  <g id="Group_1264" data-name="Group 1264" transform="translate(48.141 59.522)">
    <g id="Group_1263" data-name="Group 1263" transform="translate(0 0)">
      <rect id="Rectangle_684" data-name="Rectangle 684" width="2.462" height="1.846" fill="#fff"/>
    </g>
  </g>
  <g id="Group_1266" data-name="Group 1266" transform="translate(43.217 59.522)">
    <g id="Group_1265" data-name="Group 1265" transform="translate(0 0)">
      <rect id="Rectangle_685" data-name="Rectangle 685" width="2.462" height="1.846" transform="translate(0)" fill="#fff"/>
    </g>
  </g>
  <g id="Group_1268" data-name="Group 1268" transform="translate(53.064 65.061)">
    <g id="Group_1267" data-name="Group 1267" transform="translate(0 0)">
      <rect id="Rectangle_686" data-name="Rectangle 686" width="2.462" height="2.462" transform="translate(0 0)" fill="#fff"/>
    </g>
  </g>
  <g id="Group_1270" data-name="Group 1270" transform="translate(58.603 65.061)">
    <g id="Group_1269" data-name="Group 1269" transform="translate(0 0)">
      <rect id="Rectangle_687" data-name="Rectangle 687" width="0.615" height="2.462" transform="translate(0 0)" fill="#fff"/>
    </g>
  </g>
  <g id="Group_1272" data-name="Group 1272" transform="translate(61.68 65.061)">
    <g id="Group_1271" data-name="Group 1271" transform="translate(0 0)">
      <rect id="Rectangle_688" data-name="Rectangle 688" width="3.077" height="2.462" transform="translate(0 0)" fill="#fff"/>
    </g>
  </g>
  <g id="Group_1274" data-name="Group 1274" transform="translate(48.141 65.061)">
    <g id="Group_1273" data-name="Group 1273" transform="translate(0 0)">
      <rect id="Rectangle_689" data-name="Rectangle 689" width="2.462" height="2.462" transform="translate(0 0)" fill="#fff"/>
    </g>
  </g>
  <g id="Group_1276" data-name="Group 1276" transform="translate(43.217 65.061)">
    <g id="Group_1275" data-name="Group 1275" transform="translate(0 0)">
      <rect id="Rectangle_690" data-name="Rectangle 690" width="2.462" height="2.462" transform="translate(0 0)" fill="#fff"/>
    </g>
  </g>
</svg>
