<svg xmlns="http://www.w3.org/2000/svg" width="22.716" height="22.716" viewBox="0 0 22.716 22.716">
  <g id="servers" transform="translate(0)">
    <path id="Path_6142" data-name="Path 6142" d="M133.959,114.521a.333.333,0,0,0-.333.333v1.33a.333.333,0,0,0,.333.333h1.331a.333.333,0,0,0,.333-.333v-1.33a.333.333,0,0,0-.333-.333Zm1,1.33h-.666v-.665h.666Z" transform="translate(-127.697 -109.44)" fill="#fff"/>
    <path id="Path_6143" data-name="Path 6143" d="M193.626,114.854v1.33a.333.333,0,0,0,.333.333h1.331a.333.333,0,0,0,.333-.333v-1.33a.333.333,0,0,0-.333-.333h-1.331A.333.333,0,0,0,193.626,114.854Zm.665.333h.666v.665h-.666Z" transform="translate(-185.035 -109.44)" fill="#fff"/>
    <path id="Path_6144" data-name="Path 6144" d="M133.959,235.007h1.331a.333.333,0,0,0,.333-.333v-1.33a.333.333,0,0,0-.333-.333h-1.331a.333.333,0,0,0-.333.333v1.33A.333.333,0,0,0,133.959,235.007Zm.333-1.33h.666v.665h-.666Z" transform="translate(-127.697 -222.673)" fill="#fff"/>
    <path id="Path_6145" data-name="Path 6145" d="M193.959,235.007h1.331a.333.333,0,0,0,.333-.333v-1.33a.333.333,0,0,0-.333-.333h-1.331a.333.333,0,0,0-.333.333v1.33A.333.333,0,0,0,193.959,235.007Zm.333-1.33h.666v.665h-.666Z" transform="translate(-185.035 -222.673)" fill="#fff"/>
    <path id="Path_6146" data-name="Path 6146" d="M133.959,353.5h1.331a.333.333,0,0,0,.333-.333v-1.33a.333.333,0,0,0-.333-.333h-1.331a.333.333,0,0,0-.333.333v1.33A.333.333,0,0,0,133.959,353.5Zm.333-1.33h.666v.665h-.666Z" transform="translate(-127.697 -335.906)" fill="#fff"/>
    <path id="Path_6147" data-name="Path 6147" d="M193.959,353.5h1.331a.333.333,0,0,0,.333-.333v-1.33a.333.333,0,0,0-.333-.333h-1.331a.333.333,0,0,0-.333.333v1.33A.333.333,0,0,0,193.959,353.5Zm.333-1.33h.666v.665h-.666Z" transform="translate(-185.035 -335.906)" fill="#fff"/>
    <path id="Path_6148" data-name="Path 6148" d="M22.383,0H21.052a.333.333,0,0,0-.333.333V.664H16.065a.333.333,0,0,0-.24.1l-.936.934a.333.333,0,0,0-.1.235V3.783h-3.1V1.994h.333a.333.333,0,0,0,.333-.333V.333A.333.333,0,0,0,12.024,0H10.693a.333.333,0,0,0-.333.333V1.661a.333.333,0,0,0,.333.333h.333V3.783H10.3a.333.333,0,1,0,0,.666h7.154V7.71H5.258V4.448H8.77a.333.333,0,0,0,0-.666H7.925V1.937a.333.333,0,0,0-.1-.235L6.893.768a.333.333,0,0,0-.242-.1H2V.333A.333.333,0,0,0,1.664,0H.333A.333.333,0,0,0,0,.333V1.661a.333.333,0,0,0,.333.333H1.664A.333.333,0,0,0,2,1.661V1.33H6.514l.746.745V3.783H4.925a.333.333,0,0,0-.333.333V8.042a.333.333,0,0,0,.333.333h.555V9.04H4.925a.333.333,0,0,0-.333.333V13.3a.333.333,0,0,0,.333.333h.555V14.3H4.925a.333.333,0,0,0-.333.333v3.927a.333.333,0,0,0,.333.333H7.26v1.752l-.746.745H2v-.332a.333.333,0,0,0-.333-.333H.333A.333.333,0,0,0,0,21.055v1.329a.333.333,0,0,0,.333.333H1.664A.333.333,0,0,0,2,22.383v-.332H6.651a.333.333,0,0,0,.24-.1l.936-.934a.333.333,0,0,0,.1-.235v-1.89h3.1v1.833h-.333a.333.333,0,0,0-.333.333v1.329a.333.333,0,0,0,.333.333h1.331a.333.333,0,0,0,.333-.333V21.055a.333.333,0,0,0-.333-.333h-.333V18.889h3.1v1.89a.333.333,0,0,0,.1.235l.934.933a.333.333,0,0,0,.242.1H20.72v.332a.333.333,0,0,0,.333.333h1.331a.333.333,0,0,0,.333-.333V21.055a.333.333,0,0,0-.333-.333H21.052a.333.333,0,0,0-.333.333v.332H16.2l-.746-.745V18.889h2.335a.333.333,0,0,0,.333-.333V14.63a.333.333,0,0,0-.333-.333h-.555v-.665h.555a.333.333,0,0,0,.333-.333V9.372a.333.333,0,0,0-.333-.333h-.555V8.375h.555a.333.333,0,0,0,.333-.333V4.115a.333.333,0,0,0-.333-.333H15.456V2.075L16.2,1.33H20.72v.332a.333.333,0,0,0,.333.333h1.331a.333.333,0,0,0,.333-.333V.333A.333.333,0,0,0,22.383,0ZM11.025.666h.666v.663h-.666Zm-9.694.663H.665V.666h.666Zm0,20.722H.665v-.663h.666Zm20.054-.663h.666v.663h-.666ZM6.145,8.375H16.571V9.04H6.145Zm5.546,13.676h-.666v-.663h.666Zm5.768-7.088v3.262H5.258V14.962Zm0-5.257v3.262h-2.69a.333.333,0,1,0,0,.666h1.8V14.3H6.145v-.665H13.2a.333.333,0,1,0,0-.666H5.258V9.705Zm4.592-8.377h-.666V.666h.666Z" fill="#fff"/>
    <path id="Path_6149" data-name="Path 6149" d="M264.453,367.155a.333.333,0,1,0-.333-.333A.333.333,0,0,0,264.453,367.155Z" transform="translate(-252.402 -350.229)" fill="#fff"/>
    <path id="Path_6150" data-name="Path 6150" d="M307.953,367.155a.333.333,0,1,0-.333-.333A.333.333,0,0,0,307.953,367.155Z" transform="translate(-293.972 -350.229)" fill="#fff"/>
    <path id="Path_6151" data-name="Path 6151" d="M351.453,367.155a.333.333,0,1,0-.333-.333A.333.333,0,0,0,351.453,367.155Z" transform="translate(-335.542 -350.229)" fill="#fff"/>
    <path id="Path_6152" data-name="Path 6152" d="M264.453,248.584a.333.333,0,1,0-.333-.333A.333.333,0,0,0,264.453,248.584Z" transform="translate(-252.402 -236.918)" fill="#fff"/>
    <path id="Path_6153" data-name="Path 6153" d="M307.953,248.584a.333.333,0,1,0-.333-.333A.333.333,0,0,0,307.953,248.584Z" transform="translate(-293.972 -236.918)" fill="#fff"/>
    <path id="Path_6154" data-name="Path 6154" d="M351.453,248.584a.333.333,0,1,0-.333-.333A.333.333,0,0,0,351.453,248.584Z" transform="translate(-335.542 -236.918)" fill="#fff"/>
    <path id="Path_6155" data-name="Path 6155" d="M264.785,129.691a.333.333,0,1,0-.333.333A.333.333,0,0,0,264.785,129.691Z" transform="translate(-252.402 -123.619)" fill="#fff"/>
    <path id="Path_6156" data-name="Path 6156" d="M308.286,129.691a.333.333,0,1,0-.333.333A.333.333,0,0,0,308.286,129.691Z" transform="translate(-293.972 -123.619)" fill="#fff"/>
    <path id="Path_6157" data-name="Path 6157" d="M351.785,129.691a.333.333,0,1,0-.333.333A.333.333,0,0,0,351.785,129.691Z" transform="translate(-335.542 -123.619)" fill="#fff"/>
  </g>
</svg>
