<svg id="support-3" xmlns="http://www.w3.org/2000/svg" width="38.965" height="43.37" viewBox="0 0 38.965 43.37">
  <g id="Group_1979" data-name="Group 1979" transform="translate(27.953 33.544)">
    <g id="Group_1978" data-name="Group 1978" transform="translate(0)">
      <path id="Path_11554" data-name="Path 11554" d="M356.847,396a.847.847,0,1,0,.847.847A.847.847,0,0,0,356.847,396Z" transform="translate(-356 -396)" fill="#99068f"/>
    </g>
  </g>
  <g id="Group_1981" data-name="Group 1981" transform="translate(0)">
    <g id="Group_1980" data-name="Group 1980">
      <path id="Path_11555" data-name="Path 11555" d="M56.886,30.8,52.86,29.463l-1.445-2.891a9.277,9.277,0,0,0,2.511-4.908l.18-1.08h1.542a2.544,2.544,0,0,0,2.541-2.541V12.706a12.706,12.706,0,0,0-25.412,0v5.337a2.545,2.545,0,0,0,1.694,2.4v.993a2.544,2.544,0,0,0,2.541,2.541h.744a9.189,9.189,0,0,0,1.421,2.2c.12.138.245.272.373.4l-1.445,2.889L34.079,30.8A12.485,12.485,0,0,0,26,42.523a.847.847,0,0,0,.847.847H64.118a.847.847,0,0,0,.847-.847A12.485,12.485,0,0,0,56.886,30.8Zm-.392-12.762a.848.848,0,0,1-.847.847H54.355c.215-1.668.359-3.443.417-5.191,0-.049,0-.1,0-.146h1.719Zm-21.177.847a.848.848,0,0,1-.847-.847V13.553H36.19q0,.133.009.266v.009h0c.059,1.7.2,3.429.411,5.06H35.318Zm1.694,3.388a.848.848,0,0,1-.847-.847v-.847h.694l.18,1.081c.034.205.077.41.126.613Zm-.846-10.419H34.5a11.012,11.012,0,0,1,21.959,0H54.8a8.579,8.579,0,0,0-8.558-8.471H44.724A8.579,8.579,0,0,0,36.166,11.859Zm8.558-6.777h1.516a6.888,6.888,0,0,1,6.865,6.9c0,.267,0,.5-.007.71,0,0,0,.006,0,.008l-1.06-.151a13.611,13.611,0,0,1-7.653-3.826.847.847,0,0,0-.6-.248A7.663,7.663,0,0,0,37.9,11.258,6.886,6.886,0,0,1,44.724,5.082Zm-5.8,17.2A48.418,48.418,0,0,1,37.9,14.057l1.14-1.52a5.962,5.962,0,0,1,4.409-2.362A15.321,15.321,0,0,0,51.8,14.222l1.247.178c-.083,1.769-.254,3.544-.5,5.177v0c-.078.525-.139.863-.295,1.806a7.2,7.2,0,0,1-5.107,5.787,6.665,6.665,0,0,1-7.482-3.2h1.727a2.545,2.545,0,0,0,2.4,1.694h1.694a2.541,2.541,0,1,0,0-5.082H43.788a2.542,2.542,0,0,0-2.4,1.694Zm4.8,6.608a8.5,8.5,0,0,0,3.151.071l-1.5,1.583Zm.489,2.885L41.52,34.613a32.273,32.273,0,0,1-1.9-4.4L40.632,28.2Zm5.983-3.861,1.152,2.3a32.264,32.264,0,0,1-1.9,4.4l-2.876-2.876Zm-7.248-4.785a.847.847,0,0,1,.847-.847h1.694a.847.847,0,0,1,0,1.694H43.788A.848.848,0,0,1,42.941,23.125ZM27.728,41.676a10.7,10.7,0,0,1,6.887-9.264l3.566-1.188a33.956,33.956,0,0,0,2.411,5.23l0,.009h0A33.965,33.965,0,0,0,42.915,40l1.042,1.673Zm17.755-.755-1.149-1.844q-.019-.031-.041-.06a32.3,32.3,0,0,1-1.909-2.851L45.4,32.97l3.183,3.183a32.261,32.261,0,0,1-1.915,2.863C46.631,39.071,46.69,38.984,45.483,40.921Zm1.526.755L48.05,40a33.951,33.951,0,0,0,2.335-3.569l.012-.023,0,0a33.929,33.929,0,0,0,2.386-5.185l3.566,1.188a10.7,10.7,0,0,1,6.887,9.264H47.008Z" transform="translate(-26)" fill="#99068f"/>
    </g>
  </g>
  <g id="Group_1983" data-name="Group 1983" transform="translate(30.93 35.161)">
    <g id="Group_1982" data-name="Group 1982" transform="translate(0)">
      <path id="Path_11556" data-name="Path 11556" d="M394.9,418.175a8.47,8.47,0,0,0-2.4-2.911.847.847,0,0,0-1.033,1.343,6.765,6.765,0,0,1,1.915,2.325.847.847,0,0,0,1.516-.757Z" transform="translate(-391.139 -415.088)" fill="#99068f"/>
    </g>
  </g>
</svg>
