<svg xmlns="http://www.w3.org/2000/svg" width="35" height="42" viewBox="0 0 35 42">
  <g id="user-1" transform="translate(0 0)">
    <path id="Path_11620" data-name="Path 11620" d="M97.1,20.316a9.694,9.694,0,0,0,7.116-2.976,9.876,9.876,0,0,0,2.948-7.182,9.876,9.876,0,0,0-2.949-7.182,10,10,0,0,0-14.232,0,9.875,9.875,0,0,0-2.949,7.182,9.876,9.876,0,0,0,2.949,7.183A9.7,9.7,0,0,0,97.1,20.316ZM91.712,4.724a7.564,7.564,0,0,1,10.769,0,7.378,7.378,0,0,1,2.231,5.434,7.378,7.378,0,0,1-2.231,5.435,7.563,7.563,0,0,1-10.769,0,7.377,7.377,0,0,1-2.232-5.435,7.377,7.377,0,0,1,2.232-5.434Zm0,0" transform="translate(-79.863)" fill="#062d5a"/>
    <path id="Path_11621" data-name="Path 11621" d="M34.915,259.375a25.217,25.217,0,0,0-.34-2.665,21.089,21.089,0,0,0-.652-2.679,13.273,13.273,0,0,0-1.1-2.5,9.414,9.414,0,0,0-1.652-2.165,7.279,7.279,0,0,0-2.373-1.5,8.164,8.164,0,0,0-3.03-.551,3.066,3.066,0,0,0-1.642.7c-.492.323-1.068.7-1.711,1.109a9.776,9.776,0,0,1-2.214.98,8.551,8.551,0,0,1-5.415,0,9.746,9.746,0,0,1-2.212-.98c-.637-.409-1.213-.782-1.712-1.109a3.063,3.063,0,0,0-1.642-.7,8.153,8.153,0,0,0-3.029.552,7.273,7.273,0,0,0-2.374,1.5,9.416,9.416,0,0,0-1.652,2.164,13.3,13.3,0,0,0-1.1,2.5,21.141,21.141,0,0,0-.652,2.679,25.045,25.045,0,0,0-.34,2.666c-.056.805-.084,1.644-.084,2.49a7.023,7.023,0,0,0,2.069,5.3A7.424,7.424,0,0,0,7.4,269.119H27.6a7.425,7.425,0,0,0,5.331-1.955,7.02,7.02,0,0,0,2.069-5.3c0-.85-.029-1.688-.085-2.491Zm-3.679,6a5,5,0,0,1-3.636,1.274H7.4a5,5,0,0,1-3.636-1.274,4.587,4.587,0,0,1-1.306-3.508c0-.79.026-1.571.078-2.32a22.592,22.592,0,0,1,.307-2.4,18.646,18.646,0,0,1,.573-2.362,10.824,10.824,0,0,1,.892-2.032,6.979,6.979,0,0,1,1.214-1.6,4.828,4.828,0,0,1,1.579-.987,5.631,5.631,0,0,1,1.936-.376c.086.046.239.134.488.3.505.331,1.088.709,1.732,1.122a12.148,12.148,0,0,0,2.778,1.248,11,11,0,0,0,6.927,0,12.162,12.162,0,0,0,2.78-1.249c.659-.423,1.225-.79,1.731-1.122.248-.163.4-.251.488-.3a5.635,5.635,0,0,1,1.937.376,4.835,4.835,0,0,1,1.579.987,6.96,6.96,0,0,1,1.214,1.6,10.787,10.787,0,0,1,.892,2.031,18.6,18.6,0,0,1,.574,2.362,22.779,22.779,0,0,1,.307,2.4h0c.052.746.078,1.526.079,2.319a4.586,4.586,0,0,1-1.306,3.508Zm0,0" transform="translate(0 -227.119)" fill="#062d5a"/>
  </g>
</svg>
