<svg id="visa_3_" data-name="visa (3)" xmlns="http://www.w3.org/2000/svg" width="43.501" height="30" viewBox="0 0 43.501 30">
  <path id="Path_12060" data-name="Path 12060" d="M43.5,106.879a2.571,2.571,0,0,1-2.571,2.572H2.571A2.571,2.571,0,0,1,0,106.879V82.022a2.571,2.571,0,0,1,2.571-2.571H40.929A2.571,2.571,0,0,1,43.5,82.022v24.857Z" transform="translate(0 -79.451)" fill="#fff"/>
  <path id="Path_12061" data-name="Path 12061" d="M38.015,195.9l-1.086-5.211a1.3,1.3,0,0,0-1.4-.961H30.546l-.044.238C34.381,190.911,36.948,193.179,38.015,195.9Z" transform="translate(-27.746 -180.505)" fill="#f79f1a"/>
  <g id="Group_2784" data-name="Group 2784" transform="translate(0 0)">
    <path id="Path_12062" data-name="Path 12062" d="M188.727,190.892h-3.218l-2.01,11.795h3.213Z" transform="translate(-168.035 -182.729)" fill="#059bbf"/>
    <path id="Path_12063" data-name="Path 12063" d="M72.117,202.756l5.061-11.775H73.772l-3.148,8.045-.336-1.215a12.585,12.585,0,0,0-4.452-4.888l2.878,9.837Z" transform="translate(-59.887 -182.81)" fill="#059bbf"/>
    <path id="Path_12064" data-name="Path 12064" d="M250.535,196.8c.012-1.339-.848-2.36-2.7-3.2-1.126-.545-1.812-.908-1.8-1.461,0-.488.581-1.013,1.84-1.013a5.935,5.935,0,0,1,2.406.452l.291.133.436-2.555a8.335,8.335,0,0,0-2.882-.493c-3.177,0-5.413,1.6-5.433,3.891-.02,1.7,1.6,2.64,2.818,3.205,1.251.576,1.671.945,1.663,1.461-.008.79-1,1.15-1.921,1.15a6.745,6.745,0,0,1-3.028-.618l-.411-.189-.452,2.643a10.143,10.143,0,0,0,3.58.626C248.314,200.829,250.51,199.251,250.535,196.8Z" transform="translate(-221.193 -180.698)" fill="#059bbf"/>
    <path id="Path_12065" data-name="Path 12065" d="M344.438,201.042l4.117,0c.1.411.392,1.768.392,1.768h2.983l-2.6-11.787h-2.482a1.6,1.6,0,0,0-1.683.977l-4.775,10.81h3.379S344.312,201.361,344.438,201.042Zm2.2-5.712c-.016.032.267-.682.428-1.126l.218,1.017s.614,2.818.743,3.407h-2.668C345.628,197.95,346.641,195.33,346.641,195.33Z" transform="translate(-312.392 -182.852)" fill="#059bbf"/>
    <path id="Path_12066" data-name="Path 12066" d="M40.929,79.451H2.571A2.657,2.657,0,0,0,0,82.186v2.838H43.5V82.186A2.657,2.657,0,0,0,40.929,79.451Z" transform="translate(0 -79.451)" fill="#059bbf"/>
  </g>
  <path id="Path_12067" data-name="Path 12067" d="M40.929,376.444H2.571A2.657,2.657,0,0,1,0,373.709v-2.838H43.5v2.838A2.657,2.657,0,0,1,40.929,376.444Z" transform="translate(0 -346.444)" fill="#f79f1a"/>
  <path id="Path_12068" data-name="Path 12068" d="M1.944,106.879V82.022a2.657,2.657,0,0,1,2.735-2.571H2.735A2.657,2.657,0,0,0,0,82.022v24.857a2.657,2.657,0,0,0,2.735,2.572H4.679A2.657,2.657,0,0,1,1.944,106.879Z" transform="translate(0 -79.451)" fill="#202121" opacity="0.15"/>
</svg>
