<svg id="american-express" xmlns="http://www.w3.org/2000/svg" width="43.501" height="30" viewBox="0 0 43.501 30">
  <path id="Path_12037" data-name="Path 12037" d="M43.5,106.879a2.571,2.571,0,0,1-2.571,2.572H2.571A2.571,2.571,0,0,1,0,106.879V82.022a2.571,2.571,0,0,1,2.571-2.571H40.929A2.571,2.571,0,0,1,43.5,82.022v24.857Z" transform="translate(0 -79.451)" fill="#306fc5"/>
  <path id="Path_12038" data-name="Path 12038" d="M1.828,106.879V82.022A2.572,2.572,0,0,1,4.4,79.451H2.571A2.571,2.571,0,0,0,0,82.022v24.857a2.571,2.571,0,0,0,2.571,2.572H4.4A2.572,2.572,0,0,1,1.828,106.879Z" transform="translate(0 -79.451)" fill="#202121" opacity="0.15"/>
  <g id="Group_2783" data-name="Group 2783" transform="translate(3.122 8.815)">
    <path id="Path_12039" data-name="Path 12039" d="M74.59,202.932h1.3l-.65-1.654Z" transform="translate(-71.375 -199.742)" fill="#fff"/>
    <path id="Path_12040" data-name="Path 12040" d="M155.946,286.107v.768h2.186v.827h-2.186v.886h2.422l1.122-1.241-1.063-1.241Z" transform="translate(-145.819 -277.364)" fill="#fff"/>
    <path id="Path_12041" data-name="Path 12041" d="M349.262,201.278l-.709,1.654h1.359Z" transform="translate(-322.061 -199.742)" fill="#fff"/>
    <path id="Path_12042" data-name="Path 12042" d="M213.8,284.608v-3.367l-1.536,1.654Z" transform="translate(-197.355 -272.911)" fill="#fff"/>
    <path id="Path_12043" data-name="Path 12043" d="M244.058,286.639a.6.6,0,0,0-.65-.532h-1.24v1.063h1.3C243.821,287.171,244.058,286.993,244.058,286.639Z" transform="translate(-224.714 -277.364)" fill="#fff"/>
    <path id="Path_12044" data-name="Path 12044" d="M295.275,287.691a.46.46,0,0,0,.177-.414.329.329,0,0,0-.177-.414,1.149,1.149,0,0,0-.472-.059h-1.182v.945H294.8A1.15,1.15,0,0,0,295.275,287.691Z" transform="translate(-271.796 -278.002)" fill="#fff"/>
    <path id="Path_12045" data-name="Path 12045" d="M68.734,183.2v.709l-.354-.709H65.6v.709l-.355-.709H61.467a3.6,3.6,0,0,0-1.654.355V183.2H57.155v.355a1.7,1.7,0,0,0-1.122-.355H46.521l-.65,1.477-.65-1.477H42.208v.709l-.3-.709h-2.6l-1.182,2.777-1.359,3.013-.025.059h3.076l.021-.059.355-.886h.768l.354.945h3.426v-.709l.3.709h1.713l.3-.709v.709h8.212v-1.536h.118c.118,0,.118,0,.118.177v1.3h4.254v-.354a3.534,3.534,0,0,0,1.595.354h1.773l.354-.945H64.3l.354.945h3.426V188.1l.532.886h2.777V183.2H68.734Zm-20.027,4.963h-.945v-3.249l-.059.136v0l-1.374,3.115h-.871l-1.418-3.249v3.249H42.031l-.414-.886H39.609l-.414.886H38.157l1.748-4.136h1.477l1.654,3.958v-3.958H44.6l.028.059h0l.745,1.622.535,1.215.019-.061,1.181-2.836h1.6v4.135Zm4.076-3.249h-2.3v.768h2.245v.827H50.479v.827h2.3v.886H49.475v-4.194h3.308v.886ZM57,186.435l.005,0a.676.676,0,0,1,.058.07,1.136,1.136,0,0,1,.209.693v.017s0,.006,0,.009,0,0,0,.005c0,.033,0,.066,0,.1v.827h-.886v-.473a1.406,1.406,0,0,0-.177-.827.538.538,0,0,0-.174-.119,1.179,1.179,0,0,0-.535-.058H54.437v1.477h-1v-4.136h2.245a2.265,2.265,0,0,1,1.181.177,1,1,0,0,1,.471.919,1.174,1.174,0,0,1-.707,1.09A.791.791,0,0,1,57,186.435Zm1.989,1.726h-1v-4.136h1Zm11.52,0h-1.3l-1.89-3.131v2.6l-.006-.006v.541h-1v0h-1l-.354-.886H62.885l-.354.945H61.408a1.776,1.776,0,0,1-1.949-2.067,2.422,2.422,0,0,1,.532-1.654,1.861,1.861,0,0,1,1.477-.473h.945v.886h-.945a1.089,1.089,0,0,0-.768.236,1.388,1.388,0,0,0-.3.945,1.286,1.286,0,0,0,.3,1,.942.942,0,0,0,.709.237h.414l1.359-3.249h1.477l1.654,3.958v-3.958h1.477l1.713,2.895v-2.895h1v4.076h0Z" transform="translate(-36.748 -183.198)" fill="#fff"/>
    <path id="Path_12046" data-name="Path 12046" d="M246.663,204.2a.315.315,0,0,0,.046-.063.638.638,0,0,0,.082-.446.333.333,0,0,0-.009-.054s0-.009,0-.014h0a.331.331,0,0,0-.179-.2,1.157,1.157,0,0,0-.473-.059h-1.182v.945h1.182a1.151,1.151,0,0,0,.473-.059.224.224,0,0,0,.049-.035h0Z" transform="translate(-227.256 -201.651)" fill="#fff"/>
    <path id="Path_12047" data-name="Path 12047" d="M162.7,268.511a2.263,2.263,0,0,0-.3-1.123V264.73h0v-.177h-2.845a1.681,1.681,0,0,0-.815.354v-.354h-2.717a1.877,1.877,0,0,0-1.182.354v-.354H150v.354a2.285,2.285,0,0,0-1.3-.354h-3.19v.354a2.244,2.244,0,0,0-1.359-.354h-3.544l-.827.886-.768-.886H133.7v5.967h5.2l.854-.854.74.854H143.8V269.16h.3a3.589,3.589,0,0,0,1.359-.178v1.6h2.659v-1.536h.118c.177,0,.177,0,.177.177v1.359h8.034a2.316,2.316,0,0,0,1.359-.355v.355h2.541a2.654,2.654,0,0,0,1.418-.3,1.984,1.984,0,0,0,.938-1.593c0-.02.005-.041.007-.061l0,0C162.7,268.587,162.7,268.549,162.7,268.511Zm-18.609-.354h-1.182v1.536h-1.942l-1.13-1.3,0,0-.055-.064-1.3,1.359H134.7v-4.135h3.84l1.049,1.149.221.241.03-.031,1.241-1.359h3.131a1.533,1.533,0,0,1,1.546.768,1.67,1.67,0,0,1,.049.413C145.806,267.92,144.979,268.156,144.093,268.156ZM150,268.1a1.341,1.341,0,0,1,.177.768v.827h-1v-.532a1.318,1.318,0,0,0-.177-.827c-.118-.177-.354-.177-.709-.177h-1.063v1.536h-1V265.5h2.245a2.383,2.383,0,0,1,1.182.177,1.046,1.046,0,0,1,.531.945,1.176,1.176,0,0,1-.709,1.122A1.007,1.007,0,0,1,150,268.1Zm4.076-1.714h-2.3v.768h2.245v.827h-2.245v.827h2.3v.886h-3.308V265.5h3.308Zm2.481,3.309h-1.891v-.886h1.891a.5.5,0,0,0,.414-.118.429.429,0,0,0,0-.591.5.5,0,0,0-.355-.118c-.945-.059-2.068,0-2.068-1.3,0-.591.354-1.241,1.418-1.241h1.949v1h-1.831a.876.876,0,0,0-.414.059c-.118.059-.118.177-.118.3,0,.177.118.236.236.3a.748.748,0,0,0,.354.059h.532a1.5,1.5,0,0,1,1.122.355,1.223,1.223,0,0,1,.3.886C158.094,269.278,157.562,269.692,156.558,269.692Zm5.081-.414a1.721,1.721,0,0,1-1.241.414h-1.89v-.886h1.89a.5.5,0,0,0,.414-.118.428.428,0,0,0,0-.591.5.5,0,0,0-.354-.118c-.945-.059-2.068,0-2.068-1.3a1.208,1.208,0,0,1,1.114-1.219,2.206,2.206,0,0,1,.3-.021h1.95v1h-1.832a.874.874,0,0,0-.413.059.45.45,0,0,0-.119.3c0,.177.059.236.237.3a.747.747,0,0,0,.354.059h.532a1.846,1.846,0,0,1,.632.095,1.272,1.272,0,0,1,.827.934,1.326,1.326,0,0,1,.018.212A1.2,1.2,0,0,1,161.639,269.278Z" transform="translate(-125.458 -257.64)" fill="#fff"/>
  </g>
</svg>
