<svg xmlns="http://www.w3.org/2000/svg" width="101.453" height="101.427" viewBox="0 0 101.453 101.427">
  <g id="database-1" transform="translate(-1.184 -1.2)">
    <path id="Path_8119" data-name="Path 8119" d="M6,56.655H9.328a3.328,3.328,0,0,1,3.328-3.328V50A6.655,6.655,0,0,0,6,56.655Z" transform="translate(2.665 31.862)" fill="#292828" stroke="#fff" stroke-width="1.6"/>
    <path id="Path_8120" data-name="Path 8120" d="M13,47.647a11.467,11.467,0,0,0,.977,4.649l3.046-1.331a8.2,8.2,0,0,1-.7-3.318,8.329,8.329,0,0,1,8.319-8.319V36A11.66,11.66,0,0,0,13,47.647Z" transform="translate(7.312 22.569)" fill="#292828" stroke="#fff" stroke-width="1.6"/>
    <path id="Path_8121" data-name="Path 8121" d="M101.837,50.25V43.595a1.664,1.664,0,0,0-1.264-1.614l-2.146-.532,1.148-1.913a1.687,1.687,0,0,0-.25-2.03L94.616,32.8a1.687,1.687,0,0,0-2.03-.25L90.673,33.7l-.532-2.146a1.664,1.664,0,0,0-1.614-1.264H81.872a1.664,1.664,0,0,0-1.614,1.264L79.725,33.7l-1.913-1.148a1.687,1.687,0,0,0-2.03.25l-4.709,4.709a1.687,1.687,0,0,0-.25,2.03l.732,1.215a22.818,22.818,0,0,0-4.659-.482c-.566,0-1.115.033-1.664.067V10.319h-.4C62.372,4.862,47.93,2,33.622,2,17.916,2,2.01,5.427,2.01,11.983V61.9c0,4.176,6.056,6.589,11.663,7.92,0,.133-.017.266-.017.4a18.23,18.23,0,0,0,.7,5.025,13.31,13.31,0,0,0,.965,26.587H88.527a13.31,13.31,0,1,0,0-26.621H87.063A23.093,23.093,0,0,0,90.191,63.56c0-.433-.033-.849-.05-1.264l.532-2.146L92.587,61.3a1.687,1.687,0,0,0,2.03-.25l4.709-4.709a1.687,1.687,0,0,0,.25-2.03L98.426,52.4l2.146-.532A1.664,1.664,0,0,0,101.837,50.25ZM33.622,5.328c18.3,0,28.284,4.392,28.284,6.655s-9.983,6.655-28.284,6.655S5.337,14.245,5.337,11.983,15.32,5.328,33.622,5.328ZM5.337,16.675c5.474,3.477,16.9,5.291,28.284,5.291s22.811-1.814,28.284-5.291V28.621c0,2.263-9.983,6.655-28.284,6.655S5.337,30.883,5.337,28.621Zm0,16.638c5.474,3.477,16.9,5.291,28.284,5.291s22.811-1.814,28.284-5.291v7.52A23.353,23.353,0,0,0,47.381,50.949a93.506,93.506,0,0,1-13.76.965c-18.3,0-28.284-4.392-28.284-6.655ZM45.451,54.576a24.169,24.169,0,0,0-.865,2.4,19.657,19.657,0,0,0-2.629-2.063C43.155,54.809,44.32,54.709,45.451,54.576Zm-31.412,11.9c-6.339-1.564-8.7-3.544-8.7-4.575V49.95c3.644,2.313,9.9,3.893,17.07,4.692a18.34,18.34,0,0,0-8.369,11.83ZM88.527,78.534a9.983,9.983,0,1,1,0,19.965H15.32a9.983,9.983,0,1,1,0-19.965h1.4a1.685,1.685,0,0,0,1.4-.749,1.72,1.72,0,0,0,.133-1.581,14.553,14.553,0,0,1-1.264-5.99,14.974,14.974,0,0,1,27.17-8.685,1.659,1.659,0,0,0,2.995-.732A20.017,20.017,0,0,1,66.9,43.595c.566,0,1.115.033,1.664.067V50.25a1.664,1.664,0,0,0,1.264,1.614l2.146.532L70.824,54.31a1.687,1.687,0,0,0,.25,2.03l4.709,4.709a1.687,1.687,0,0,0,2.03.25l1.913-1.148.532,2.146a1.664,1.664,0,0,0,1.614,1.264h4.991A19.663,19.663,0,0,1,82.6,75.839a1.664,1.664,0,0,0,1.314,2.7ZM98.51,48.952l-3.061.765A1.739,1.739,0,0,0,94.3,50.7a1.7,1.7,0,0,0,.116,1.5l1.631,2.7L93.169,57.77l-2.7-1.631a1.7,1.7,0,0,0-1.5-.116,1.739,1.739,0,0,0-.982,1.148l-.765,3.061H83.17L82.4,57.171a1.739,1.739,0,0,0-.982-1.148,1.7,1.7,0,0,0-1.5.116l-2.7,1.631-2.878-2.878,1.631-2.7a1.7,1.7,0,0,0,.116-1.5,1.739,1.739,0,0,0-1.148-.982l-3.061-.765v-4.06l3.061-.765a1.739,1.739,0,0,0,1.148-.982,1.7,1.7,0,0,0-.116-1.5l-1.631-2.7,2.878-2.878,2.7,1.631a1.7,1.7,0,0,0,1.5.116,1.739,1.739,0,0,0,.982-1.148l.765-3.061h4.06l.765,3.061a1.739,1.739,0,0,0,.982,1.148,1.7,1.7,0,0,0,1.5-.116l2.7-1.631,2.878,2.878-1.631,2.7a1.7,1.7,0,0,0-.116,1.5,1.739,1.739,0,0,0,1.148.982l3.061.765Z" transform="translate(0)" fill="#f80" stroke="#fff" stroke-width="1.6"/>
    <path id="Path_8122" data-name="Path 8122" d="M54.655,25a6.655,6.655,0,1,0,6.655,6.655A6.655,6.655,0,0,0,54.655,25Zm0,9.983a3.328,3.328,0,1,1,3.328-3.328A3.328,3.328,0,0,1,54.655,34.983Z" transform="translate(30.544 15.267)" fill="#292828" stroke="#fff" stroke-width="1.6"/>
  </g>
</svg>
