<svg xmlns="http://www.w3.org/2000/svg" width="37.5" height="49.899" viewBox="0 0 37.5 49.899">
  <g id="badge_2_" data-name="badge (2)" transform="translate(-0.5 -0.001)">
    <path id="Path_12079" data-name="Path 12079" d="M123.574,268.32l-5.907-3.706a1.1,1.1,0,0,0-1.174,0l-5.907,3.706a1.1,1.1,0,0,1-1.691-.935V243h16.372v24.38a1.1,1.1,0,0,1-1.691.935Zm0,0" transform="translate(-97.83 -219.32)" fill="#fff"/>
    <path id="Path_12080" data-name="Path 12080" d="M167.492,243h-6.148v23.17l2.487-1.56a1.1,1.1,0,0,1,1.174,0l2.487,1.56Zm0,0" transform="translate(-145.168 -219.32)" fill="#f80"/>
    <path id="Path_12081" data-name="Path 12081" d="M26.533,8.675l2.324-1.056a1.228,1.228,0,0,1,1.4.279l1.744,1.865a1.226,1.226,0,0,0,.938.389l2.551-.086a1.228,1.228,0,0,1,1.191.8l.9,2.39a1.227,1.227,0,0,0,.718.718l2.39.9a1.227,1.227,0,0,1,.8,1.19L41.4,18.609a1.228,1.228,0,0,0,.389.938l1.865,1.743a1.228,1.228,0,0,1,.279,1.4L42.877,25.02a1.227,1.227,0,0,0,0,1.015l1.056,2.325a1.228,1.228,0,0,1-.279,1.4l-1.865,1.743a1.228,1.228,0,0,0-.389.938L41.486,35a1.228,1.228,0,0,1-.8,1.191l-2.39.9a1.227,1.227,0,0,0-.718.718l-.9,2.39a1.227,1.227,0,0,1-1.191.8L32.943,40.9a1.228,1.228,0,0,0-.938.389l-1.744,1.865a1.228,1.228,0,0,1-1.4.279L26.533,42.38a1.228,1.228,0,0,0-1.016,0l-2.325,1.056a1.228,1.228,0,0,1-1.4-.279l-1.743-1.865a1.228,1.228,0,0,0-.938-.389l-2.552.086a1.227,1.227,0,0,1-1.19-.8l-.9-2.39a1.228,1.228,0,0,0-.718-.718l-2.39-.9a1.229,1.229,0,0,1-.8-1.191l.086-2.551a1.227,1.227,0,0,0-.388-.938L8.4,29.764a1.227,1.227,0,0,1-.279-1.4l1.056-2.325a1.227,1.227,0,0,0,0-1.015L8.117,22.7a1.227,1.227,0,0,1,.279-1.4l1.865-1.743a1.227,1.227,0,0,0,.388-.938l-.086-2.552a1.228,1.228,0,0,1,.8-1.19l2.39-.9a1.228,1.228,0,0,0,.718-.718l.9-2.39a1.228,1.228,0,0,1,1.19-.8l2.552.086a1.227,1.227,0,0,0,.938-.389L21.788,7.9a1.228,1.228,0,0,1,1.4-.279l2.325,1.056A1.225,1.225,0,0,0,26.533,8.675Zm0,0" transform="translate(-6.775 -6.776)" fill="#f80"/>
    <path id="Path_12082" data-name="Path 12082" d="M85.013,71.457a13.059,13.059,0,1,1-26.118,0,13.237,13.237,0,0,1,.084-1.487,13.06,13.06,0,0,1,26.034,1.487Zm0,0" transform="translate(-52.704 -52.706)" fill="#fff"/>
    <path id="Path_12084" data-name="Path 12084" d="M52.721,64.168q-.035,0-.07,0a.731.731,0,0,1-.659-.8,13.791,13.791,0,0,1,27.444-.135.731.731,0,1,1-1.454.152,12.33,12.33,0,0,0-24.534.121.731.731,0,0,1-.727.662Zm0,0" transform="translate(-46.471 -45.93)"/>
    <path id="Path_12085" data-name="Path 12085" d="M66.232,213.784a13.822,13.822,0,0,1-13.67-11.964.731.731,0,0,1,1.449-.192,12.33,12.33,0,0,0,24.463-.168.731.731,0,1,1,1.452.172,13.786,13.786,0,0,1-13.694,12.152Zm0,0" transform="translate(-46.982 -181.243)"/>
    <path id="Path_12086" data-name="Path 12086" d="M36.768,18.956a.5.5,0,0,1,0-.411l1.056-2.325a1.957,1.957,0,0,0-.446-2.241l-1.865-1.744a.5.5,0,0,1-.157-.38l.086-2.551a1.957,1.957,0,0,0-1.27-1.9l-2.39-.9a.5.5,0,0,1-.29-.29l-.9-2.39a1.956,1.956,0,0,0-1.9-1.269l-2.551.086a.493.493,0,0,1-.38-.157L24.021.622A1.957,1.957,0,0,0,21.78.177L19.456,1.233a.5.5,0,0,1-.411,0L16.72.177A1.957,1.957,0,0,0,14.48.622L12.736,2.488a.5.5,0,0,1-.379.157L9.8,2.559a1.955,1.955,0,0,0-1.9,1.269l-.9,2.39a.5.5,0,0,1-.29.29l-2.39.9a1.957,1.957,0,0,0-1.269,1.9l.086,2.552a.5.5,0,0,1-.157.38L1.121,13.98a1.958,1.958,0,0,0-.446,2.241l1.056,2.324a.5.5,0,0,1,0,.411L.676,21.281a1.958,1.958,0,0,0,.446,2.241l1.865,1.744a.5.5,0,0,1,.157.38L3.058,28.2a1.958,1.958,0,0,0,1.269,1.9l2.39.9a.5.5,0,0,1,.29.29l.9,2.39a1.957,1.957,0,0,0,1.9,1.269l2.552-.086a.5.5,0,0,1,.38.157l1.743,1.865a1.955,1.955,0,0,0,.966.565V46.45l-3.078,1.931a.374.374,0,0,1-.572-.316V37.112a.731.731,0,0,0-1.462,0V48.065a1.836,1.836,0,0,0,2.811,1.555l5.907-3.707a.377.377,0,0,1,.4,0l5.907,3.707a1.836,1.836,0,0,0,2.811-1.555V37.115a.731.731,0,0,0-1.462,0V48.065a.374.374,0,0,1-.572.316L23.055,46.45V37.445a1.958,1.958,0,0,0,.965-.565l1.744-1.865a.491.491,0,0,1,.379-.157l2.552.086a1.959,1.959,0,0,0,1.9-1.269l.9-2.39a.5.5,0,0,1,.29-.29l2.39-.9a1.957,1.957,0,0,0,1.269-1.9l-.086-2.551a.5.5,0,0,1,.157-.38l1.865-1.744a1.957,1.957,0,0,0,.445-2.241ZM20.226,44.675a1.845,1.845,0,0,0-1.951,0l-1.367.858V37.24l2.138-.971a.5.5,0,0,1,.411,0l2.138.971v8.293ZM35.437,19.561l1.056,2.324a.5.5,0,0,1-.113.568L34.515,24.2a1.959,1.959,0,0,0-.62,1.5l.086,2.551a.5.5,0,0,1-.322.482l-2.39.9a1.959,1.959,0,0,0-1.146,1.146l-.9,2.39a.5.5,0,0,1-.482.322L26.193,33.4a1.955,1.955,0,0,0-1.5.62l-1.744,1.865a.5.5,0,0,1-.568.113L20.06,34.938a1.959,1.959,0,0,0-1.62,0l-2.325,1.056a.5.5,0,0,1-.568-.113L13.8,34.016a1.958,1.958,0,0,0-1.43-.621h-.066l-2.552.086a.5.5,0,0,1-.482-.322l-.9-2.391a1.96,1.96,0,0,0-1.146-1.146l-2.39-.9a.5.5,0,0,1-.322-.482l.086-2.551a1.958,1.958,0,0,0-.62-1.5L2.12,22.454a.5.5,0,0,1-.113-.568l1.056-2.325a1.959,1.959,0,0,0,0-1.62L2.007,15.617a.5.5,0,0,1,.113-.568L3.985,13.3a1.957,1.957,0,0,0,.62-1.5L4.519,9.256a.5.5,0,0,1,.322-.482l2.39-.9A1.958,1.958,0,0,0,8.377,6.732l.9-2.391a.5.5,0,0,1,.482-.322l2.552.086a1.956,1.956,0,0,0,1.5-.62l1.743-1.865a.5.5,0,0,1,.568-.113L18.44,2.564a1.957,1.957,0,0,0,1.62,0l2.325-1.056a.5.5,0,0,1,.568.113L24.7,3.486a1.958,1.958,0,0,0,1.5.62l2.552-.086a.5.5,0,0,1,.482.322l.9,2.39a1.96,1.96,0,0,0,1.146,1.146l2.39.9a.5.5,0,0,1,.322.482L33.9,11.808a1.958,1.958,0,0,0,.62,1.5l1.865,1.744a.5.5,0,0,1,.113.568l-1.056,2.325a1.959,1.959,0,0,0,0,1.62Zm0,0" transform="translate(0 0)"/>
  </g>
</svg>
