<svg xmlns="http://www.w3.org/2000/svg" width="40.018" height="40" viewBox="0 0 40.018 40">
  <g id="Page-11" transform="translate(0 0)">
    <g id="_026---Cloud-Security" data-name="026---Cloud-Security" transform="translate(0 0)">
      <path id="Shape" d="M38.68,6.308A6.612,6.612,0,0,0,33.661,4a.661.661,0,1,0,0,1.322,5.29,5.29,0,0,1,4.014,1.851.663.663,0,0,0,1.005-.866Z" transform="translate(-10.957 -1.373)" fill="#fff"/>
      <path id="Shape-2" data-name="Shape" d="M32.015,9.347A9.338,9.338,0,0,0,13.94,6.072,6.623,6.623,0,0,0,8.884,9.407,7.8,7.8,0,0,0,8,9.347,8,8,0,1,0,8,25.354h.667V36.692a3.335,3.335,0,0,0,3.335,3.335H28.013a3.335,3.335,0,0,0,3.335-3.335V25.354h.667a8,8,0,0,0,0-16.007Zm-4,29.347H12.005a2,2,0,0,1-2-2h2a.667.667,0,1,0,0-1.334H10V34.024h2a.667.667,0,1,0,0-1.334H10V31.357h2a.667.667,0,1,0,0-1.334H10V28.689h2a.667.667,0,1,0,0-1.334H10V26.021h2a.667.667,0,1,0,0-1.334H10a2,2,0,0,1,2-2H28.013a2,2,0,0,1,2,2h-2a.667.667,0,0,0,0,1.334h2v1.334h-2a.667.667,0,0,0,0,1.334h2v1.334h-2a.667.667,0,1,0,0,1.334h2v1.334h-2a.667.667,0,1,0,0,1.334h2v1.334h-2a.667.667,0,1,0,0,1.334h2A2,2,0,0,1,28.013,38.693ZM26.679,21.352H25.345V18.684a5.336,5.336,0,0,0-10.672,0v2.668H13.339V18.684a6.67,6.67,0,0,1,13.339,0Zm-2.668,0h-8V18.684a4,4,0,1,1,8,0Zm8,2.668h-.734a3.335,3.335,0,0,0-3.268-2.668V18.684a8,8,0,0,0-16.007,0v2.668A3.335,3.335,0,0,0,8.737,24.02H8A6.67,6.67,0,1,1,8,10.681,6.583,6.583,0,0,1,11.7,11.8a.673.673,0,0,0,.747-1.121,7.9,7.9,0,0,0-2.174-1.02A5.336,5.336,0,0,1,14.48,7.346h.193a5.269,5.269,0,0,1,3.2,1.067.667.667,0,1,0,.8-1.067,6.61,6.61,0,0,0-3.288-1.294A8,8,0,0,1,30.681,9.347V9.46a7.877,7.877,0,0,0-3.108,1.221.668.668,0,1,0,.747,1.107,6.583,6.583,0,0,1,3.7-1.107,6.67,6.67,0,1,1,0,13.339Z" transform="translate(0 -0.027)" fill="#fff"/>
      <path id="Shape-3" data-name="Shape" d="M30.37,38.708a3.294,3.294,0,0,0-4.358,4.933l-.793,3.266a1.322,1.322,0,0,0,1.283,1.66h3.61A1.322,1.322,0,0,0,31.4,46.934L30.6,43.668a3.306,3.306,0,0,0-.231-4.959ZM29.22,43.582l.893,3.663H26.5l.893-3.663a.661.661,0,0,0-.251-.661,1.984,1.984,0,0,1,.661-3.531,2.454,2.454,0,0,1,.5-.079,1.981,1.981,0,0,1,1.157,3.584.661.661,0,0,0-.245.688Z" transform="translate(-8.298 -12.535)" fill="#fff"/>
    </g>
  </g>
</svg>
