<svg id="_010-cloud-computing" data-name="010-cloud-computing" xmlns="http://www.w3.org/2000/svg" width="40" height="40" viewBox="0 0 40 40">
  <g id="Group_2871" data-name="Group 2871">
    <g id="Group_2870" data-name="Group 2870">
      <path id="Path_12272" data-name="Path 12272" d="M34.816,11.237c.006-.09.023-.179.023-.269a4.523,4.523,0,0,0-4.1-4.5A8.379,8.379,0,0,0,14.826,5.2a5.246,5.246,0,0,0-.632-.043A5.165,5.165,0,0,0,9.388,8.454a8.5,8.5,0,0,0-1-.066A8.385,8.385,0,0,0,5.806,24.75V40H34.194V25.041a7.091,7.091,0,0,0,.623-13.8ZM32.9,38.71H7.1V24.516H32.9Zm0-15.484H7.1V19.355H32.9Zm1.29.5V18.065H5.806v5.317a7.095,7.095,0,0,1,2.581-13.7c.229,0,.457.014.685.036a5.135,5.135,0,0,0,5.122,5.77v-1.29a3.871,3.871,0,1,1,3.871-3.871h1.29a5.166,5.166,0,0,0-3.27-4.8A7.092,7.092,0,0,1,29.571,7.209l.094.557.658-.024a3.229,3.229,0,0,1,3.226,3.226c0,.011,0,.021,0,.032-.212-.019-.426-.032-.643-.032A7.056,7.056,0,0,0,27.935,13l.9.921a5.805,5.805,0,1,1,5.355,9.8Z" fill="#fff"/>
      <rect id="Rectangle_1558" data-name="Rectangle 1558" width="2" height="2" transform="translate(8.374 20.89)" fill="#fff"/>
      <rect id="Rectangle_1559" data-name="Rectangle 1559" width="1" height="2" transform="translate(11.36 20.89)" fill="#fff"/>
      <rect id="Rectangle_1560" data-name="Rectangle 1560" width="1" height="2" transform="translate(14.345 20.89)" fill="#fff"/>
      <path id="Path_12273" data-name="Path 12273" d="M116.967,320H104v11.671h12.967Zm-1.3,10.374H105.3V321.3h10.374Z" transform="translate(-95.633 -294.264)" fill="#fff"/>
      <rect id="Rectangle_1561" data-name="Rectangle 1561" width="8" height="2" transform="translate(23.273 24.87)" fill="#fff"/>
      <rect id="Rectangle_1562" data-name="Rectangle 1562" width="7" height="1" transform="translate(24.271 27.858)" fill="#fff"/>
      <rect id="Rectangle_1563" data-name="Rectangle 1563" height="1" transform="translate(23.302 27.858)" fill="#fff"/>
      <rect id="Rectangle_1564" data-name="Rectangle 1564" width="8" height="1" transform="translate(23.273 30.842)" fill="#fff"/>
      <rect id="Rectangle_1565" data-name="Rectangle 1565" width="8" height="1" transform="translate(23.273 33.801)" fill="#fff"/>
      <rect id="Rectangle_1566" data-name="Rectangle 1566" width="1" height="1" transform="translate(30.263 35.801)" fill="#fff"/>
      <rect id="Rectangle_1567" data-name="Rectangle 1567" width="5" height="1" transform="translate(23.285 35.801)" fill="#fff"/>
    </g>
  </g>
</svg>
