<svg xmlns="http://www.w3.org/2000/svg" width="50.8" height="50.8" viewBox="0 0 50.8 50.8">
  <g id="speedometer" transform="translate(-0.001)">
    <path id="Path_12152" data-name="Path 12152" d="M13.175,34.408a21.233,21.233,0,1,1,6.219,15.014,21.166,21.166,0,0,1-6.219-15.014Zm45.641,0A24.408,24.408,0,1,0,34.408,58.816,24.408,24.408,0,0,0,58.816,34.408Zm0,0" transform="translate(-9.007 -9.008)" fill="#fff"/>
    <path id="Path_12153" data-name="Path 12153" d="M52.428,108.889l-4.209-4.209a21.232,21.232,0,0,0,0,30.028l4.209-4.209a15.28,15.28,0,0,1,0-21.609Zm0,0" transform="translate(-37.832 -94.293)" fill="#f80"/>
    <path id="Path_12154" data-name="Path 12154" d="M104.68,48.219l4.209,4.209a15.28,15.28,0,0,1,21.609,0l4.209-4.209a21.232,21.232,0,0,0-30.028,0Zm0,0" transform="translate(-94.293 -37.833)" fill="#ffba4a"/>
    <path id="Path_12155" data-name="Path 12155" d="M364.895,108.886a15.28,15.28,0,0,1,0,21.609L369.1,134.7a21.233,21.233,0,0,0,0-30.028Zm0,0" transform="translate(-328.69 -94.29)" fill="#f80"/>
    <path id="Path_12156" data-name="Path 12156" d="M128.084,128.084a15.28,15.28,0,1,0-21.609,0l-4.209,4.209a21.233,21.233,0,0,0,30.028,0ZM113.907,126.5h6.747a1.588,1.588,0,1,1,0,3.175h-6.747a1.588,1.588,0,1,1,0-3.175Zm0,0" transform="translate(-91.879 -91.88)" fill="#fff"/>
    <path id="Path_12157" data-name="Path 12157" d="M214.334,348.9h-6.747a1.587,1.587,0,1,0,0,3.175h6.747a1.587,1.587,0,1,0,0-3.175Zm0,0" transform="translate(-185.56 -314.278)" fill="#fff"/>
    <path id="Path_12158" data-name="Path 12158" d="M78.563,238.1l17.605-1.962a1.962,1.962,0,1,1,0,3.925Zm0,0" transform="translate(-70.767 -212.697)" fill="#fff"/>
    <path id="Path_12159" data-name="Path 12159" d="M43.361,7.439A25.4,25.4,0,0,0,11.308,4.268a.992.992,0,0,0,1.1,1.651,23.415,23.415,0,1,1-5.143,4.668A.992.992,0,0,0,5.73,9.331,25.4,25.4,0,1,0,43.361,7.439Zm0,0"/>
    <path id="Path_12160" data-name="Path 12160" d="M69.972,38.545c-.011-.012-.021-.024-.032-.035l-.025-.022a22.223,22.223,0,0,0-31.406.022h0a22.225,22.225,0,0,0,0,31.43h0a22.225,22.225,0,0,0,31.429,0v0h0a22.225,22.225,0,0,0,5.751-21.467.992.992,0,0,0-1.917.514,20.211,20.211,0,0,1-4.561,18.825l-2.8-2.8a16.27,16.27,0,0,0,0-21.565l2.81-2.81a20.2,20.2,0,0,1,1.6,2.008.992.992,0,0,0,1.627-1.136,22.226,22.226,0,0,0-2.478-2.961Zm-2.156.686-2.809,2.809a16.27,16.27,0,0,0-21.565,0l-2.8-2.8a20.217,20.217,0,0,1,27.178-.005ZM39.235,40.638l2.8,2.8a16.132,16.132,0,0,0-4.046,9.631l-1.483.165a.992.992,0,0,0,0,1.972l1.483.165a16.132,16.132,0,0,0,4.046,9.631l-2.8,2.8a20.2,20.2,0,0,1,0-27.174Zm28.506,8.938-1.154.309A.992.992,0,0,0,67.1,51.8l1.151-.309a14.476,14.476,0,0,1,0,5.463L67.1,56.648a.992.992,0,0,0-.514,1.917l1.154.309A14.179,14.179,0,0,1,65,63.6l-.841-.841a.992.992,0,1,0-1.4,1.4l5.05,5.05a20.2,20.2,0,0,1-27.174,0l5.05-5.05a.992.992,0,0,0-1.4-1.4l-.841.84a14.187,14.187,0,0,1-2.737-4.728l1.155-.309a.992.992,0,0,0-.514-1.917l-1.151.309q-.129-.67-.195-1.356l14.112,1.573a2.59,2.59,0,0,0,2.05-.677,3.05,3.05,0,0,0,0-4.543,2.615,2.615,0,0,0-2.05-.677L40,52.849q.065-.685.195-1.356l1.151.309a.992.992,0,1,0,.514-1.917l-1.154-.309a14.179,14.179,0,0,1,2.737-4.728l.841.841a.992.992,0,0,0,1.4-1.4l-.841-.841a14.192,14.192,0,0,1,4.728-2.737l.309,1.155a.992.992,0,0,0,1.917-.514L51.492,40.2a14.474,14.474,0,0,1,5.463,0l-.309,1.151a.992.992,0,1,0,1.917.514l.309-1.154A14.173,14.173,0,0,1,63.6,43.445l-.84.841a.992.992,0,1,0,1.4,1.4L65,44.848a14.173,14.173,0,0,1,2.737,4.728ZM45.576,54.225l8.758-.976a.656.656,0,0,1,.507.184,1.066,1.066,0,0,1,0,1.585.658.658,0,0,1-.507.184Zm0,0" transform="translate(-28.824 -28.825)"/>
    <path id="Path_12161" data-name="Path 12161" d="M205.327,338.9H198.58a2.58,2.58,0,1,0,0,5.159h6.747a2.58,2.58,0,1,0,0-5.159Zm0,3.175H198.58a.6.6,0,1,1,0-1.191h6.747a.6.6,0,1,1,0,1.191Zm0,0" transform="translate(-176.553 -305.27)"/>
    <path id="Path_12162" data-name="Path 12162" d="M245.028,400.895h-4.071a.992.992,0,0,0,0,1.984h4.071a.992.992,0,0,0,0-1.984Zm0,0" transform="translate(-216.155 -361.119)"/>
    <path id="Path_12163" data-name="Path 12163" d="M212.015,400.895h-.023a.992.992,0,0,0,0,1.984h.023a.992.992,0,0,0,0-1.984Zm0,0" transform="translate(-190.064 -361.119)"/>
    <path id="Path_12164" data-name="Path 12164" d="M76.3,70.809a.994.994,0,0,0,.69-.278l.011-.01a.992.992,0,0,0-1.386-1.42l-.011.01a.991.991,0,0,0,.7,1.7Zm0,0" transform="translate(-67.835 -61.994)"/>
    <path id="Path_12165" data-name="Path 12165" d="M436.927,149.479a1,1,0,0,0,.69-.277l.011-.01a.992.992,0,0,0-1.386-1.42l-.011.01a.991.991,0,0,0,.7,1.7Zm0,0" transform="translate(-392.681 -132.859)"/>
  </g>
</svg>
