<svg xmlns="http://www.w3.org/2000/svg" width="50.6" height="50.631" viewBox="0 0 50.6 50.631">
  <g id="wall-clock" transform="translate(-0.157 0)">
    <g id="Group_2814" data-name="Group 2814" transform="translate(8.581 8.439)">
      <path id="Path_12118" data-name="Path 12118" d="M98.429,85.34h0A13.088,13.088,0,0,0,85.34,98.429h0a13.088,13.088,0,0,0,13.089,13.089h0a13.088,13.088,0,0,0,13.089-13.089h0A13.089,13.089,0,0,0,98.429,85.34Zm0,14.4a1.308,1.308,0,0,1-1.309-1.309h0a1.308,1.308,0,0,1,1.309-1.309h0a1.309,1.309,0,0,1,0,2.618Z" transform="translate(-81.764 -81.764)" fill="#f80"/>
      <circle id="Ellipse_839" data-name="Ellipse 839" cx="1.688" cy="1.688" r="1.688" transform="translate(15.188 15.188)" fill="#f80"/>
    </g>
    <path id="Path_12119" data-name="Path 12119" d="M.972,25.3H1a.844.844,0,0,0,.844-.815A23.628,23.628,0,0,1,40.075,6.752H35.584a.844.844,0,0,0,0,1.688h6.762a.849.849,0,0,0,.194-.039.823.823,0,0,0,.127-.028c.024-.01.041-.031.064-.044a.813.813,0,0,0,.206-.144l.008-.006a.949.949,0,0,0,.058-.092.848.848,0,0,0,.111-.176.806.806,0,0,0,.042-.208.639.639,0,0,0,.021-.106V.845a.844.844,0,1,0-1.688,0V5.732A25.309,25.309,0,0,0,.158,24.433.844.844,0,0,0,.972,25.3Z" transform="translate(0 0)" fill="#231f20"/>
    <g id="Group_2815" data-name="Group 2815" transform="translate(0.279 25.354)">
      <path id="Path_12120" data-name="Path 12120" d="M103.48,447.81a24.029,24.029,0,0,1-2.037-1.35.844.844,0,1,0-1.045,1.325l.042.031a25.54,25.54,0,0,0,2.18,1.447.844.844,0,1,0,.86-1.453Z" transform="translate(-90.318 -427.501)" fill="#f80"/>
      <path id="Path_12121" data-name="Path 12121" d="M64.014,412.2a.846.846,0,1,0-1.266,1.121h0a25.535,25.535,0,0,0,1.839,1.863.844.844,0,0,0,1.138-1.246A23.586,23.586,0,0,1,64.014,412.2Z" transform="translate(-56.489 -396.54)" fill="#f80"/>
      <path id="Path_12122" data-name="Path 12122" d="M35.6,372.973a23.939,23.939,0,0,1-1.323-2.053.845.845,0,1,0-1.464.844,25.545,25.545,0,0,0,1.418,2.195.844.844,0,0,0,1.37-.986Z" transform="translate(-29.604 -359.214)" fill="#f80"/>
      <path id="Path_12123" data-name="Path 12123" d="M147.535,473.343a23.55,23.55,0,0,1-2.269-.9.844.844,0,1,0-.749,1.512l.044.02a24.959,24.959,0,0,0,2.434.969.844.844,0,1,0,.541-1.6Z" transform="translate(-129.94 -450.997)" fill="#f80"/>
      <path id="Path_12124" data-name="Path 12124" d="M14.406,326.331a23.7,23.7,0,0,1-.873-2.278.844.844,0,0,0-1.629.444.638.638,0,0,0,.025.078,25.339,25.339,0,0,0,.935,2.447.844.844,0,1,0,1.543-.684Z" transform="translate(-10.837 -316.801)" fill="#f80"/>
      <path id="Path_12125" data-name="Path 12125" d="M2.8,277.982a.844.844,0,0,0,.65-1,24.016,24.016,0,0,1-.381-2.412.844.844,0,0,0-1.679.178,25.475,25.475,0,0,0,.41,2.584.843.843,0,0,0,1,.65Z" transform="translate(-1.385 -272.092)" fill="#f80"/>
      <path id="Path_12126" data-name="Path 12126" d="M493.65,256.395a.831.831,0,0,0-.872.788.235.235,0,0,0,0,.025,23.723,23.723,0,0,1-.212,2.434.844.844,0,0,0,.719.951.782.782,0,0,0,.118.008.844.844,0,0,0,.834-.727,25.617,25.617,0,0,0,.227-2.607A.844.844,0,0,0,493.65,256.395Z" transform="translate(-443.986 -256.394)" fill="#f80"/>
      <path id="Path_12127" data-name="Path 12127" d="M460.55,355.152a.844.844,0,0,0-1.126.392,23.537,23.537,0,0,1-1.176,2.141.844.844,0,0,0,1.434.889,25.2,25.2,0,0,0,1.26-2.294.844.844,0,0,0-.392-1.127Z" transform="translate(-412.962 -345.31)" fill="#f80"/>
      <path id="Path_12128" data-name="Path 12128" d="M428.656,398.788a23.621,23.621,0,0,1-1.591,1.856.845.845,0,0,0,1.224,1.164h0a25.625,25.625,0,0,0,1.7-1.987.844.844,0,1,0-1.321-1.051l-.015.019Z" transform="translate(-384.761 -384.404)" fill="#f80"/>
      <path id="Path_12129" data-name="Path 12129" d="M196.107,489.267a23.756,23.756,0,0,1-2.407-.413.844.844,0,1,0-.372,1.646h0a25.176,25.176,0,0,0,2.58.443.817.817,0,0,0,.1.006.844.844,0,0,0,.1-1.682Z" transform="translate(-173.755 -465.847)" fill="#f80"/>
      <path id="Path_12130" data-name="Path 12130" d="M390.3,435.754a24.09,24.09,0,0,1-1.941,1.492.846.846,0,1,0,.962,1.392,25.821,25.821,0,0,0,2.076-1.6.844.844,0,0,0-1.1-1.283v0Z" transform="translate(-349.762 -417.833)" fill="#f80"/>
      <path id="Path_12131" data-name="Path 12131" d="M482.126,307.018a.844.844,0,0,0-1.022.616,23.821,23.821,0,0,1-.708,2.338.844.844,0,0,0,1.588.572,25.4,25.4,0,0,0,.759-2.5.844.844,0,0,0-.617-1.022Z" transform="translate(-432.982 -301.989)" fill="#f80"/>
      <path id="Path_12132" data-name="Path 12132" d="M297.372,484.486a23.605,23.605,0,0,1-2.371.582.844.844,0,0,0,.317,1.658,25.026,25.026,0,0,0,2.542-.625.844.844,0,0,0-.488-1.615Z" transform="translate(-265.349 -461.903)" fill="#f80"/>
      <path id="Path_12133" data-name="Path 12133" d="M246.708,494c-.675.057-1.366.084-2.055.084h-.386a.874.874,0,0,0-.86.829.844.844,0,0,0,.829.859h.417c.738,0,1.477-.033,2.194-.095a.844.844,0,1,0-.1-1.685l-.046,0Z" transform="translate(-219.474 -470.493)" fill="#f80"/>
      <path id="Path_12134" data-name="Path 12134" d="M345.851,464.711a23.863,23.863,0,0,1-2.2,1.062.844.844,0,1,0,.635,1.565l.019-.008a25.442,25.442,0,0,0,2.356-1.138.844.844,0,0,0-.81-1.481Z" transform="translate(-309.331 -444.017)" fill="#f80"/>
    </g>
    <g id="Group_2816" data-name="Group 2816" transform="translate(7.737 7.595)">
      <path id="Path_12135" data-name="Path 12135" d="M94.528,76.807a17.721,17.721,0,1,0,17.721,17.721A17.72,17.72,0,0,0,94.528,76.807Zm.844,33.71v-2.488a.844.844,0,1,0-1.688,0v2.488A16.026,16.026,0,0,1,78.538,95.371h2.488a.844.844,0,1,0,0-1.688H78.538A16.026,16.026,0,0,1,93.684,78.538v2.488a.844.844,0,1,0,1.688,0V78.538a16.026,16.026,0,0,1,15.146,15.146h-2.488a.844.844,0,0,0,0,1.688h2.488A16.026,16.026,0,0,1,95.371,110.517Z" transform="translate(-76.807 -76.807)" fill="#231f20"/>
      <path id="Path_12136" data-name="Path 12136" d="M187.644,153.666v-7.75a.844.844,0,0,0-1.688,0v7.75a2.533,2.533,0,0,0-1.532,1.532H180.05a.844.844,0,1,0,0,1.688h4.374a2.525,2.525,0,1,0,3.22-3.22Zm-.844,3.22a.844.844,0,1,1,.844-.844A.844.844,0,0,1,186.8,156.886Z" transform="translate(-169.08 -138.321)" fill="#231f20"/>
    </g>
  </g>
</svg>
