<svg xmlns="http://www.w3.org/2000/svg" width="40" height="40" viewBox="0 0 40 40">
  <g id="Calendar" transform="translate(-2 -2)">
    <path id="Path_12214" data-name="Path 12214" d="M38.667,5.994H35.333V4.663a2.667,2.667,0,0,0-5.333,0V5.994H24.667V4.663a2.667,2.667,0,0,0-5.333,0V5.994H14V4.663a2.667,2.667,0,0,0-5.333,0V5.994H5.333A3.331,3.331,0,0,0,2,9.323V35.95a3.331,3.331,0,0,0,3.333,3.328H24a.666.666,0,1,0,0-1.331H5.333a2,2,0,0,1-2-2V15.314H40.667V26.63a.667.667,0,0,0,1.333,0V9.323a3.331,3.331,0,0,0-3.333-3.328ZM31.333,4.663a1.333,1.333,0,0,1,2.667,0V8.657a1.333,1.333,0,0,1-2.667,0Zm-10.667,0a1.333,1.333,0,0,1,2.667,0V8.657a1.333,1.333,0,0,1-2.667,0ZM10,4.663a1.333,1.333,0,0,1,2.667,0V8.657a1.333,1.333,0,0,1-2.667,0Zm30.667,9.32H3.333V9.323a2,2,0,0,1,2-2H8.667V8.657a2.667,2.667,0,0,0,5.333,0V7.325h5.333V8.657a2.667,2.667,0,0,0,5.333,0V7.325H30V8.657a2.667,2.667,0,0,0,5.333,0V7.325h3.333a2,2,0,0,1,2,2Z" transform="translate(0)" fill="#fff"/>
    <path id="Path_12215" data-name="Path 12215" d="M27.443,28.361A1.361,1.361,0,0,0,26.082,27H23.361A1.361,1.361,0,0,0,22,28.361V30.4a1.361,1.361,0,0,0,1.361,1.361h2.722A1.361,1.361,0,0,0,27.443,30.4ZM23.361,30.4V28.361h2.722V30.4Z" transform="translate(-6.709 -8.379)" fill="#fff"/>
    <path id="Path_12216" data-name="Path 12216" d="M15.443,28.361A1.361,1.361,0,0,0,14.082,27H11.361A1.361,1.361,0,0,0,10,28.361V30.4a1.361,1.361,0,0,0,1.361,1.361h2.722A1.361,1.361,0,0,0,15.443,30.4ZM11.361,30.4V28.361h2.722V30.4Z" transform="translate(-2.557 -8.379)" fill="#fff"/>
    <path id="Path_12217" data-name="Path 12217" d="M50.082,31.763A1.361,1.361,0,0,0,51.443,30.4V28.361A1.361,1.361,0,0,0,50.082,27H47.361A1.361,1.361,0,0,0,46,28.361V30.4a1.361,1.361,0,0,0,1.361,1.361Zm-2.722-3.4h2.722V30.4H47.361Z" transform="translate(-14.886 -8.379)" fill="#fff"/>
    <path id="Path_12218" data-name="Path 12218" d="M27.443,37.361A1.361,1.361,0,0,0,26.082,36H23.361A1.361,1.361,0,0,0,22,37.361V39.4a1.361,1.361,0,0,0,1.361,1.361h2.722A1.361,1.361,0,0,0,27.443,39.4ZM23.361,39.4V37.361h2.722V39.4Z" transform="translate(-6.709 -11.395)" fill="#fff"/>
    <path id="Path_12219" data-name="Path 12219" d="M15.443,37.361A1.361,1.361,0,0,0,14.082,36H11.361A1.361,1.361,0,0,0,10,37.361V39.4a1.361,1.361,0,0,0,1.361,1.361h2.722A1.361,1.361,0,0,0,15.443,39.4ZM11.361,39.4V37.361h2.722V39.4Z" transform="translate(-2.557 -11.395)" fill="#fff"/>
    <path id="Path_12220" data-name="Path 12220" d="M26.082,45H23.361A1.361,1.361,0,0,0,22,46.361V48.4a1.361,1.361,0,0,0,1.361,1.361h2.722A1.361,1.361,0,0,0,27.443,48.4V46.361A1.361,1.361,0,0,0,26.082,45Zm-2.722,3.4V46.361h2.722V48.4Z" transform="translate(-6.709 -14.411)" fill="#fff"/>
    <path id="Path_12221" data-name="Path 12221" d="M35.361,31.763h2.722A1.361,1.361,0,0,0,39.443,30.4V28.361A1.361,1.361,0,0,0,38.082,27H35.361A1.361,1.361,0,0,0,34,28.361V30.4A1.361,1.361,0,0,0,35.361,31.763Zm0-3.4h2.722V30.4H35.361Z" transform="translate(-10.734 -8.379)" fill="#fff"/>
    <path id="Path_12222" data-name="Path 12222" d="M34,39.4a1.361,1.361,0,0,0,1.361,1.361.68.68,0,0,0,0-1.361V37.361h2.722a.68.68,0,0,0,0-1.361H35.361A1.361,1.361,0,0,0,34,37.361Z" transform="translate(-10.725 -11.395)" fill="#fff"/>
    <path id="Path_12223" data-name="Path 12223" d="M14.082,45H11.361A1.361,1.361,0,0,0,10,46.361V48.4a1.361,1.361,0,0,0,1.361,1.361h2.722A1.361,1.361,0,0,0,15.443,48.4V46.361A1.361,1.361,0,0,0,14.082,45Zm-2.722,3.4V46.361h2.722V48.4Z" transform="translate(-2.557 -14.411)" fill="#fff"/>
    <path id="Path_12224" data-name="Path 12224" d="M44.845,36a8.845,8.845,0,1,0,8.845,8.845A8.845,8.845,0,0,0,44.845,36Zm0,16.33a7.484,7.484,0,1,1,7.484-7.484,7.484,7.484,0,0,1-7.484,7.484Z" transform="translate(-11.69 -11.69)" fill="#fff"/>
    <path id="Path_12225" data-name="Path 12225" d="M50.617,44.714l-5.292,5.292L42.919,47.6a.68.68,0,1,0-.962.962l2.886,2.887a.68.68,0,0,0,.962,0l5.773-5.773a.68.68,0,1,0-.962-.962Z" transform="translate(-13.531 -14.412)" fill="#fff"/>
  </g>
</svg>
