<svg xmlns="http://www.w3.org/2000/svg" width="40" height="40" viewBox="0 0 40 40">
  <g id="_009-address" data-name="009-address" transform="translate(0 0)">
    <path id="Path_12268" data-name="Path 12268" d="M306.789,260a.789.789,0,1,0,.789.789A.789.789,0,0,0,306.789,260Zm0,0" transform="translate(-282.104 -239.696)" fill="#fff"/>
    <path id="Path_12269" data-name="Path 12269" d="M7.983,28.889.17,38.733A.781.781,0,0,0,.782,40H39.219a.781.781,0,0,0,.612-1.267l-7.813-9.844a.781.781,0,0,0-.612-.3H24.563l5.843-9.164a12.5,12.5,0,1,0-20.811,0l5.843,9.164H8.594a.781.781,0,0,0-.612.3ZM5.066,35.078H9.789L7.123,38.437H2.4Zm11.369-4.922,2.142,3.359H13.024l2.666-3.359Zm7.133,0h.744l2.666,3.359H21.426Zm4.65,4.922,2.666,3.359H9.118l2.666-3.359Zm4.661,3.359-2.666-3.359h4.724L37.6,38.437Zm.818-4.922H28.972l-2.666-3.359H31.03ZM10.9,18.569a10.937,10.937,0,1,1,18.2,0l-.009.014L20,32.843,10.909,18.583l-.009-.014Zm2.8,11.587L11.03,33.515H6.306l2.666-3.359Zm0,0" transform="translate(-0.001 0)" fill="#fff"/>
    <path id="Path_12270" data-name="Path 12270" d="M163.891,75.781A7.891,7.891,0,1,0,156,67.891,7.891,7.891,0,0,0,163.891,75.781Zm0-14.2a6.313,6.313,0,1,1-6.313,6.313A6.32,6.32,0,0,1,163.891,61.578Zm0,0" transform="translate(-143.891 -55.265)" fill="#fff"/>
    <path id="Path_12271" data-name="Path 12271" d="M250.109,292.8a.789.789,0,0,0-1.083.268l-2.916,4.839a.789.789,0,0,0,1.352.815l2.916-4.839A.789.789,0,0,0,250.109,292.8Zm0,0" transform="translate(-226.802 -269.865)" fill="#fff"/>
  </g>
</svg>
