<svg xmlns="http://www.w3.org/2000/svg" width="49.666" height="49.666" viewBox="0 0 49.666 49.666">
  <g id="up-arrow" transform="translate(0 0)">
    <path id="Path_12073" data-name="Path 12073" d="M64.829,32.117h7.4L50.117,10,28,32.117H64.829Z" transform="translate(-25.284 -9.03)" fill="#fedbab"/>
    <path id="Path_12074" data-name="Path 12074" d="M121.923,187.757V169.133h8.342L115.133,154,100,169.133h8.342v18.625Z" transform="translate(-90.3 -139.061)" fill="#f80"/>
    <path id="Path_12075" data-name="Path 12075" d="M48.7,179.7H31.623a.97.97,0,0,1-.97-.97V160.1a.97.97,0,0,1,.97-.97h6L24.833,146.342,12.042,159.133h6a.97.97,0,0,1,.97.97v18.625a.97.97,0,0,1-.97.97H.97a.97.97,0,1,1,0-1.94h16.1V161.073H9.7a.97.97,0,0,1-.686-1.656l15.133-15.133a.97.97,0,0,1,1.372,0l15.133,15.133a.97.97,0,0,1-.686,1.656H32.593v16.685H48.7a.97.97,0,1,1,0,1.94Z" transform="translate(0 -130.031)"/>
    <path id="Path_12076" data-name="Path 12076" d="M63.2,24.057H54.829a.97.97,0,0,1,0-1.94h6.033L41.086,2.342,21.311,22.117h6.162a.97.97,0,1,1,0,1.94h-8.5a.97.97,0,0,1-.686-1.656L40.4.284a.97.97,0,0,1,1.372,0L63.889,22.4a.97.97,0,0,1-.686,1.656Z" transform="translate(-16.253)"/>
    <path id="Path_12077" data-name="Path 12077" d="M280.97,379.341a.97.97,0,0,1-.97-.97V367.958a.97.97,0,0,1,1.94,0V378.37A.97.97,0,0,1,280.97,379.341Z" transform="translate(-252.839 -331.389)"/>
    <path id="Path_12078" data-name="Path 12078" d="M280.97,336.283a.97.97,0,0,1-.97-.97V335.3a.97.97,0,0,1,1.94,0v.013A.97.97,0,0,1,280.97,336.283Z" transform="translate(-252.839 -301.899)" fill="#000413"/>
  </g>
</svg>
