<svg xmlns="http://www.w3.org/2000/svg" width="35.638" height="40" viewBox="0 0 35.638 40">
  <g id="_003-computer" data-name="003-computer" transform="translate(0)">
    <g id="Group_2863" data-name="Group 2863" transform="translate(16.078 21.148)">
      <path id="Path_12230" data-name="Path 12230" d="M233.784,271.566h2.33a.576.576,0,1,0,0-1.152h-2.33a.576.576,0,1,0,0,1.152Z" transform="translate(-233.208 -270.414)" fill="#fff"/>
    </g>
    <g id="Group_2864" data-name="Group 2864" transform="translate(0 0)">
      <path id="Path_12231" data-name="Path 12231" d="M138.293,92.386a.576.576,0,0,0-.812.064L131.5,99.455a.576.576,0,0,0,.876.748l5.983-7.005A.576.576,0,0,0,138.293,92.386Z" transform="translate(-123.237 -85.004)" fill="#fff"/>
      <path id="Path_12232" data-name="Path 12232" d="M131.552,114.556a.576.576,0,0,0,.813-.048l1.617-1.819a.576.576,0,1,0-.861-.765l-1.617,1.819A.576.576,0,0,0,131.552,114.556Z" transform="translate(-123.26 -102.984)" fill="#fff"/>
      <path id="Path_12233" data-name="Path 12233" d="M77.236,408.8a1.2,1.2,0,0,0-1.151-.827H56.221a.576.576,0,1,0,0,1.152H76.085a.033.033,0,0,1,.032.023l1.809,5.6a.029.029,0,0,1,0,.029.03.03,0,0,1-.027.013H47.5a.03.03,0,0,1-.027-.013.029.029,0,0,1,0-.029l1.809-5.6a.033.033,0,0,1,.032-.023h4.264a.576.576,0,1,0,0-1.152H49.307a1.2,1.2,0,0,0-1.151.827l-1.809,5.6a1.156,1.156,0,0,0,.177,1.058,1.2,1.2,0,0,0,.975.485h30.4a1.2,1.2,0,0,0,.975-.485,1.156,1.156,0,0,0,.177-1.058Z" transform="translate(-44.877 -375.942)" fill="#fff"/>
      <path id="Path_12234" data-name="Path 12234" d="M61.2,0H30.249A2.354,2.354,0,0,0,27.9,2.358v19.97a2.354,2.354,0,0,0,2.344,2.358H41.76a27.8,27.8,0,0,1-.408,4.252H38.829a.59.59,0,0,0,0,1.179h13.79a.59.59,0,0,0,0-1.179H50.1a27.8,27.8,0,0,1-.408-4.252H61.2a2.354,2.354,0,0,0,2.344-2.358V2.358A2.354,2.354,0,0,0,61.2,0ZM42.549,28.938a31.4,31.4,0,0,0,.384-4.252h5.581a31.4,31.4,0,0,0,.384,4.252Zm19.821-6.61A1.177,1.177,0,0,1,61.2,23.506H30.249a1.177,1.177,0,0,1-1.172-1.179V20.191H62.37v2.137Zm0-3.316H60.83v-8.7a.586.586,0,1,0-1.172,0v8.7H31.79V4a.156.156,0,0,1,.155-.156H59.5A.156.156,0,0,1,59.658,4V7.61a.586.586,0,1,0,1.172,0V4A1.333,1.333,0,0,0,59.5,2.662H31.945A1.333,1.333,0,0,0,30.617,4V19.012h-1.54V2.358a1.177,1.177,0,0,1,1.172-1.179H61.2A1.177,1.177,0,0,1,62.37,2.358Z" transform="translate(-27.905 0)" fill="#fff"/>
      <path id="Path_12235" data-name="Path 12235" d="M122.99,438.935h-.782a.576.576,0,1,0,0,1.152h.782a.576.576,0,1,0,0-1.152Z" transform="translate(-114.298 -404.528)" fill="#fff"/>
      <path id="Path_12236" data-name="Path 12236" d="M162.916,440.087h.782a.576.576,0,1,0,0-1.152h-.782a.576.576,0,0,0,0,1.152Z" transform="translate(-151.821 -404.528)" fill="#fff"/>
      <path id="Path_12237" data-name="Path 12237" d="M203.624,440.087h.782a.576.576,0,1,0,0-1.152h-.782a.576.576,0,0,0,0,1.152Z" transform="translate(-189.344 -404.528)" fill="#fff"/>
      <path id="Path_12238" data-name="Path 12238" d="M244.333,440.087h.782a.576.576,0,0,0,0-1.152h-.782a.576.576,0,0,0,0,1.152Z" transform="translate(-226.868 -404.528)" fill="#fff"/>
      <path id="Path_12239" data-name="Path 12239" d="M285.041,440.087h.782a.576.576,0,1,0,0-1.152h-.782a.576.576,0,1,0,0,1.152Z" transform="translate(-264.391 -404.528)" fill="#fff"/>
      <path id="Path_12240" data-name="Path 12240" d="M325.75,440.087h.782a.576.576,0,1,0,0-1.152h-.782a.576.576,0,1,0,0,1.152Z" transform="translate(-301.915 -404.528)" fill="#fff"/>
      <path id="Path_12241" data-name="Path 12241" d="M365.509,440.087h.782a.576.576,0,1,0,0-1.152h-.782a.576.576,0,1,0,0,1.152Z" transform="translate(-338.563 -404.528)" fill="#fff"/>
      <path id="Path_12242" data-name="Path 12242" d="M122.99,465.778h-.782a.576.576,0,1,0,0,1.152h.782a.576.576,0,1,0,0-1.152Z" transform="translate(-114.298 -429.309)" fill="#fff"/>
      <path id="Path_12243" data-name="Path 12243" d="M162.916,466.93h.782a.576.576,0,1,0,0-1.152h-.782a.576.576,0,1,0,0,1.152Z" transform="translate(-151.821 -429.309)" fill="#fff"/>
      <path id="Path_12244" data-name="Path 12244" d="M203.624,466.93h.782a.576.576,0,1,0,0-1.152h-.782a.576.576,0,1,0,0,1.152Z" transform="translate(-189.344 -429.309)" fill="#fff"/>
      <path id="Path_12245" data-name="Path 12245" d="M244.333,466.93h.782a.576.576,0,1,0,0-1.152h-.782a.576.576,0,1,0,0,1.152Z" transform="translate(-226.868 -429.309)" fill="#fff"/>
      <path id="Path_12246" data-name="Path 12246" d="M285.041,466.93h.782a.576.576,0,1,0,0-1.152h-.782a.576.576,0,1,0,0,1.152Z" transform="translate(-264.391 -429.309)" fill="#fff"/>
      <path id="Path_12247" data-name="Path 12247" d="M325.75,466.93h.782a.576.576,0,1,0,0-1.152h-.782a.576.576,0,1,0,0,1.152Z" transform="translate(-301.915 -429.309)" fill="#fff"/>
      <path id="Path_12248" data-name="Path 12248" d="M365.509,466.93h.782a.576.576,0,1,0,0-1.152h-.782a.576.576,0,1,0,0,1.152Z" transform="translate(-338.563 -429.309)" fill="#fff"/>
    </g>
  </g>
</svg>
