<svg xmlns="http://www.w3.org/2000/svg" width="50.802" height="50.802" viewBox="0 0 50.802 50.802">
  <g id="group" transform="translate(0 -0.001)">
    <g id="Group_2830" data-name="Group 2830" transform="translate(0.846 0.847)">
      <path id="Path_12166" data-name="Path 12166" d="M139.029,124.32a14.394,14.394,0,0,1-14.394,14.394,12.509,12.509,0,0,1-1.27-.059,14.394,14.394,0,0,1,0-28.67,12.509,12.509,0,0,1,1.27-.059A14.394,14.394,0,0,1,139.029,124.32Z" transform="translate(-100.08 -99.765)" fill="#a4c2f7"/>
      <ellipse id="Ellipse_841" data-name="Ellipse 841" cx="14.624" cy="14.335" rx="14.624" ry="14.335" transform="translate(10.161 10.22)" fill="#fff"/>
      <g id="Group_2828" data-name="Group 2828" transform="translate(0)">
        <path id="Path_12167" data-name="Path 12167" d="M227.633,10.912a3.387,3.387,0,0,1-3.387,3.387,3.18,3.18,0,0,1-1.27-.254,3.377,3.377,0,0,1,0-6.266,3.18,3.18,0,0,1,1.27-.254A3.387,3.387,0,0,1,227.633,10.912Z" transform="translate(-199.691 -7.525)" fill="#fff"/>
        <path id="Path_12168" data-name="Path 12168" d="M227.633,437.578a3.387,3.387,0,0,1-3.387,3.387,3.181,3.181,0,0,1-1.27-.254,3.377,3.377,0,0,1,0-6.266,3.181,3.181,0,0,1,1.27-.254A3.387,3.387,0,0,1,227.633,437.578Z" transform="translate(-199.691 -391.855)" fill="#fff"/>
        <path id="Path_12169" data-name="Path 12169" d="M381.233,53.578a3.387,3.387,0,0,1-3.387,3.387,3.18,3.18,0,0,1-1.27-.254,3.377,3.377,0,0,1,0-6.266,3.18,3.18,0,0,1,1.27-.254,3.387,3.387,0,0,1,3.387,3.387Z" transform="translate(-338.05 -45.957)" fill="#fff"/>
        <path id="Path_12170" data-name="Path 12170" d="M56.966,377.845a3.387,3.387,0,0,1-3.387,3.387,3.181,3.181,0,0,1-1.27-.254,3.377,3.377,0,0,1,0-6.266,3.181,3.181,0,0,1,1.27-.254A3.387,3.387,0,0,1,56.966,377.845Z" transform="translate(-45.958 -338.049)" fill="#fff"/>
        <path id="Path_12171" data-name="Path 12171" d="M440.966,224.245a3.387,3.387,0,0,1-3.387,3.387,3.18,3.18,0,0,1-1.27-.254,3.377,3.377,0,0,1,0-6.266,3.18,3.18,0,0,1,1.27-.254,3.387,3.387,0,0,1,3.387,3.387Z" transform="translate(-391.856 -199.69)" fill="#fff"/>
        <path id="Path_12172" data-name="Path 12172" d="M14.3,224.245a3.387,3.387,0,0,1-3.387,3.387,3.18,3.18,0,0,1-1.27-.254,3.377,3.377,0,0,1,0-6.266,3.18,3.18,0,0,1,1.27-.254A3.387,3.387,0,0,1,14.3,224.245Z" transform="translate(-7.525 -199.69)" fill="#fff"/>
      </g>
      <g id="Group_2829" data-name="Group 2829" transform="translate(0 0.254)">
        <ellipse id="Ellipse_842" data-name="Ellipse 842" cx="2.117" cy="3.133" rx="2.117" ry="3.133" transform="translate(21.168)" fill="#fff"/>
        <ellipse id="Ellipse_843" data-name="Ellipse 843" cx="2.117" cy="3.133" rx="2.117" ry="3.133" transform="translate(21.168 42.336)" fill="#fff"/>
        <ellipse id="Ellipse_844" data-name="Ellipse 844" cx="2.117" cy="3.133" rx="2.117" ry="3.133" transform="translate(36.409 4.234)" fill="#fff"/>
        <ellipse id="Ellipse_845" data-name="Ellipse 845" cx="2.117" cy="3.133" rx="2.117" ry="3.133" transform="translate(4.234 36.409)" fill="#fff"/>
        <ellipse id="Ellipse_846" data-name="Ellipse 846" cx="2.117" cy="3.133" rx="2.117" ry="3.133" transform="translate(42.336 21.168)" fill="#fff"/>
        <ellipse id="Ellipse_847" data-name="Ellipse 847" cx="2.117" cy="3.133" rx="2.117" ry="3.133" transform="translate(0 21.168)" fill="#fff"/>
      </g>
      <path id="Path_12173" data-name="Path 12173" d="M193.432,238.711v6.322a4.924,4.924,0,0,1-5.08,4.742h-5.08a4.924,4.924,0,0,1-5.08-4.742v-6.322a.822.822,0,0,1,.847-.79h13.548A.822.822,0,0,1,193.432,238.711Z" transform="translate(-161.257 -215.06)" fill="#a4c2f7"/>
      <path id="Path_12174" data-name="Path 12174" d="M193.432,238.711v6.322c-.119,2.71-2.844,4.83-6.1,4.742h-3.048c-3.252.088-5.978-2.032-6.1-4.742v-6.322a.93.93,0,0,1,1.016-.79h13.208A.93.93,0,0,1,193.432,238.711Z" transform="translate(-161.257 -215.06)" fill="#f80"/>
      <circle id="Ellipse_848" data-name="Ellipse 848" cx="1.693" cy="1.693" r="1.693" transform="translate(22.861 26.248)" fill="#f80"/>
    </g>
    <path id="Path_12175" data-name="Path 12175" d="M124.364,139.654a12.509,12.509,0,0,0,1.27.059c.423,0,.833-.028,1.244-.063a14.39,14.39,0,0,1,0-28.663c-.411-.035-.82-.063-1.244-.063a12.509,12.509,0,0,0-1.27.059,14.394,14.394,0,0,0,0,28.67Z" transform="translate(-100.234 -99.917)" fill="#fff"/>
    <g id="Group_2831" data-name="Group 2831" transform="translate(0 0.001)">
      <path id="Path_12176" data-name="Path 12176" d="M185.9,145.839V143.3a6.774,6.774,0,0,0-13.548,0v2.54a1.693,1.693,0,0,0-1.693,1.693v5.927a5.935,5.935,0,0,0,5.927,5.927h5.08a5.935,5.935,0,0,0,5.927-5.927v-5.927A1.693,1.693,0,0,0,185.9,145.839Zm-11.854-2.54a5.08,5.08,0,0,1,10.161,0v2.54H174.044Zm7.621,14.394h-5.08a4.241,4.241,0,0,1-4.149-3.387h.762a.847.847,0,1,0,0-1.693h-.847v-1.693h.847a.847.847,0,1,0,0-1.693h-.847v-1.693H185.9v1.693h-.847a.847.847,0,1,0,0,1.693h.847v1.693h-.847a.847.847,0,1,0,0,1.693h.762A4.241,4.241,0,0,1,181.664,157.693Z" transform="translate(-153.723 -122.978)"/>
      <path id="Path_12177" data-name="Path 12177" d="M232.94,264.525a2.534,2.534,0,0,0-.847,4.925v1a.847.847,0,0,0,1.693,0v-1a2.534,2.534,0,0,0-.847-4.925Zm0,3.387a.847.847,0,1,1,.847-.847A.847.847,0,0,1,232.94,267.912Z" transform="translate(-207.539 -238.277)"/>
      <path id="Path_12178" data-name="Path 12178" d="M46.569,21.168a4.241,4.241,0,0,0-4.149,3.387H40.6a15.18,15.18,0,0,0-4.686-10.161l2.4-2.4a4.246,4.246,0,1,0-1.2-1.2l-2.494,2.494a15.143,15.143,0,0,0-8.372-3.09V8.383a4.234,4.234,0,1,0-1.694,0V10.2A15.236,15.236,0,0,0,10.2,24.555H8.382a4.234,4.234,0,1,0,0,1.693H10.2a15.142,15.142,0,0,0,3.089,8.372L10.8,37.115a4.246,4.246,0,1,0,1.2,1.2l2.4-2.4A15.18,15.18,0,0,0,24.554,40.6v1.821a4.234,4.234,0,1,0,1.694,0V40.6A15.236,15.236,0,0,0,40.6,26.249H42.42a4.234,4.234,0,1,0,4.149-5.081ZM40.642,5.927a2.54,2.54,0,1,1-2.54,2.54A2.54,2.54,0,0,1,40.642,5.927ZM8.466,43.183a2.54,2.54,0,1,1,2.54-2.54A2.54,2.54,0,0,1,8.466,43.183ZM22.861,4.234a2.54,2.54,0,1,1,2.54,2.54A2.54,2.54,0,0,1,22.861,4.234ZM4.233,27.942a2.54,2.54,0,1,1,2.54-2.54A2.54,2.54,0,0,1,4.233,27.942ZM27.941,46.57a2.54,2.54,0,1,1-2.54-2.54A2.54,2.54,0,0,1,27.941,46.57ZM25.4,38.949A13.548,13.548,0,1,1,38.948,25.4,13.548,13.548,0,0,1,25.4,38.949ZM46.569,27.942a2.54,2.54,0,1,1,2.54-2.54A2.54,2.54,0,0,1,46.569,27.942Z" transform="translate(0 -0.001)"/>
      <path id="Path_12179" data-name="Path 12179" d="M248.624,35.847a.86.86,0,0,0,.279-.186.825.825,0,0,0,.178-.914.978.978,0,0,0-.178-.279.887.887,0,0,0-1.2,0,.978.978,0,0,0-.178.279.711.711,0,0,0-.068.322.848.848,0,0,0,.058.322,1.062,1.062,0,0,0,.187.271.771.771,0,0,0,.279.186A.8.8,0,0,0,248.624,35.847Z" transform="translate(-222.902 -30.836)"/>
      <path id="Path_12180" data-name="Path 12180" d="M462.237,247.8a.886.886,0,0,0-1.2,0,.978.978,0,0,0-.178.279.71.71,0,0,0-.068.322.848.848,0,0,0,.058.322,1.062,1.062,0,0,0,.187.271.77.77,0,0,0,.279.186.8.8,0,0,0,.643,0,.859.859,0,0,0,.279-.186.825.825,0,0,0,.178-.914A.978.978,0,0,0,462.237,247.8Z" transform="translate(-415.067 -223)"/>
      <path id="Path_12181" data-name="Path 12181" d="M35.571,247.8a.886.886,0,0,0-1.2,0,.978.978,0,0,0-.178.279.711.711,0,0,0-.068.322.848.848,0,0,0,.058.322,1.062,1.062,0,0,0,.187.271.77.77,0,0,0,.279.186.8.8,0,0,0,.643,0,.86.86,0,0,0,.279-.186.825.825,0,0,0,.178-.914A.979.979,0,0,0,35.571,247.8Z" transform="translate(-30.737 -223)"/>
      <path id="Path_12182" data-name="Path 12182" d="M78.237,401.292a.885.885,0,0,0-1.2,0,.967.967,0,0,0-.178.279.711.711,0,0,0-.068.322.847.847,0,0,0,.058.321,1.054,1.054,0,0,0,.187.272.771.771,0,0,0,.279.185.789.789,0,0,0,.643,0,.855.855,0,0,0,.279-.185.825.825,0,0,0,.178-.914A.963.963,0,0,0,78.237,401.292Z" transform="translate(-69.169 -361.262)"/>
      <path id="Path_12183" data-name="Path 12183" d="M247.7,461.134a.978.978,0,0,0-.178.279.711.711,0,0,0-.068.322.848.848,0,0,0,.058.322,1.062,1.062,0,0,0,.187.271.771.771,0,0,0,.279.186.8.8,0,0,0,.643,0,.86.86,0,0,0,.279-.186.825.825,0,0,0,.178-.914.978.978,0,0,0-.178-.279A.886.886,0,0,0,247.7,461.134Z" transform="translate(-222.902 -415.166)"/>
      <path id="Path_12184" data-name="Path 12184" d="M401.3,78.219a.77.77,0,0,0,.279.185.789.789,0,0,0,.643,0,.854.854,0,0,0,.279-.185.825.825,0,0,0,.178-.914.967.967,0,0,0-.178-.279.885.885,0,0,0-1.2,0,.967.967,0,0,0-.178.279.711.711,0,0,0-.068.322.847.847,0,0,0,.058.321A1.053,1.053,0,0,0,401.3,78.219Z" transform="translate(-361.261 -69.17)"/>
    </g>
  </g>
</svg>
