<svg xmlns="http://www.w3.org/2000/svg" width="39.396" height="39.396" viewBox="0 0 39.396 39.396">
  <path id="language" d="M19.623,0A19.623,19.623,0,1,0,39.246,19.623,19.623,19.623,0,0,0,19.623,0ZM36.594,26.5l-5.581.963a29.283,29.283,0,0,0,1.027-7.183h5.881a18.193,18.193,0,0,1-1.327,6.22ZM1.324,20.277H7.206A29.283,29.283,0,0,0,8.232,27.46L2.652,26.5a18.193,18.193,0,0,1-1.327-6.22Zm1.327-7.528,5.581-.963a29.283,29.283,0,0,0-1.027,7.183H1.324a18.193,18.193,0,0,1,1.327-6.22ZM20.277,10.5a45,45,0,0,1,7.012.64l2.309.4a28.076,28.076,0,0,1,1.135,7.428H20.277Zm7.235-.649a46.364,46.364,0,0,0-7.235-.659V1.345c3.75.36,7.007,3.794,8.853,8.79Zm-8.543-.659a46.356,46.356,0,0,0-7.234.659l-1.619.28c1.846-5,5.1-8.433,8.853-8.791Zm-7.011,1.949a44.986,44.986,0,0,1,7.011-.64v8.467H8.513a28.077,28.077,0,0,1,1.135-7.428ZM8.513,20.277H18.969v8.467a45,45,0,0,1-7.012-.64l-2.309-.4a28.077,28.077,0,0,1-1.135-7.428Zm3.221,9.115a46.521,46.521,0,0,0,7.235.663V37.9c-3.75-.361-7.007-3.794-8.853-8.791Zm8.543.663a46.516,46.516,0,0,0,7.234-.663l1.619-.28c-1.846,5-5.1,8.433-8.853,8.791ZM27.288,28.1a44.987,44.987,0,0,1-7.011.64V20.277H30.733A28.077,28.077,0,0,1,29.6,27.7Zm4.752-9.134a29.283,29.283,0,0,0-1.027-7.183l5.581.963a18.194,18.194,0,0,1,1.327,6.22Zm3.892-7.662-5.349-.923a18.037,18.037,0,0,0-5.2-8.144,18.4,18.4,0,0,1,10.553,9.067ZM13.867,2.24a18.037,18.037,0,0,0-5.2,8.144l-5.349.923A18.4,18.4,0,0,1,13.867,2.24ZM3.314,27.939l5.349.923a18.037,18.037,0,0,0,5.2,8.144A18.4,18.4,0,0,1,3.314,27.939Zm22.065,9.067a18.037,18.037,0,0,0,5.2-8.144l5.349-.923a18.4,18.4,0,0,1-10.553,9.067Zm0,0" transform="translate(0.075 0.075)" fill="#fff" stroke="#00020a" stroke-width="0.15"/>
</svg>
