<svg id="Page-1" xmlns="http://www.w3.org/2000/svg" width="80" height="80" viewBox="0 0 80 80">
  <g id="_042---Big-Data" data-name="042---Big-Data" transform="translate(0 0)">
    <path id="Shape" d="M76,56H64V54.667a4,4,0,0,0-4-4H41.333v-4H61.664A15.9,15.9,0,0,0,77.333,30.58,15.937,15.937,0,0,0,65.149,14.893,18.4,18.4,0,0,0,47.365,0,17.907,17.907,0,0,0,32.633,7.749a14.476,14.476,0,0,0-3.009-.315A15.036,15.036,0,0,0,15.149,19.289a13.719,13.719,0,0,0,.871,27.377H38.667v4H20a4,4,0,0,0-4,4V56H4a4,4,0,0,0-4,4v2.667a4,4,0,0,0,2.667,3.755v3.157A4,4,0,0,0,0,73.333V76a4,4,0,0,0,4,4H30.667a4,4,0,0,0,4-4V73.333A4,4,0,0,0,32,69.579V66.421a4,4,0,0,0,2.667-3.755V60a4,4,0,0,0-4-4h-12V54.667A1.333,1.333,0,0,1,20,53.333H60a1.333,1.333,0,0,1,1.333,1.333V56h-12a4,4,0,0,0-4,4v2.667A4,4,0,0,0,48,66.421v3.157a4,4,0,0,0-2.667,3.755V76a4,4,0,0,0,4,4H76a4,4,0,0,0,4-4V73.333a4,4,0,0,0-2.667-3.755V66.421A4,4,0,0,0,80,62.667V60a4,4,0,0,0-4-4ZM16.02,44a11.043,11.043,0,0,1,0-22.073h.223a1.3,1.3,0,0,0,1.341-1.14A12.377,12.377,0,0,1,29.624,10.1a11.76,11.76,0,0,1,3.237.451,1.333,1.333,0,0,0,1.5-.577A15.3,15.3,0,0,1,47.365,2.667,15.744,15.744,0,0,1,62.673,16.216a1.333,1.333,0,0,0,1.1,1.12,13.249,13.249,0,0,1,10.9,13.244,13.232,13.232,0,0,1-13,13.42H41.333V40h9.333a4,4,0,0,0,4-4V34.477a5.333,5.333,0,1,0-2.667,0V36a1.333,1.333,0,0,1-1.333,1.333H41.333V25.144a5.333,5.333,0,1,0-2.667,0V37.333H29.333A1.333,1.333,0,0,1,28,36V34.477a5.333,5.333,0,1,0-2.667,0V36a4,4,0,0,0,4,4h9.333v4ZM53.333,32A2.667,2.667,0,1,1,56,29.333,2.667,2.667,0,0,1,53.333,32ZM40,22.667A2.667,2.667,0,1,1,42.667,20,2.667,2.667,0,0,1,40,22.667ZM26.667,32a2.667,2.667,0,1,1,2.667-2.667A2.667,2.667,0,0,1,26.667,32Zm2.667,34.667v2.667h-24V66.667ZM32,76a1.333,1.333,0,0,1-1.333,1.333H13.333V76a1.333,1.333,0,0,0-2.667,0v1.333H8V76a1.333,1.333,0,0,0-2.667,0v1.333H4A1.333,1.333,0,0,1,2.667,76V73.333A1.333,1.333,0,0,1,4,72H30.667A1.333,1.333,0,0,1,32,73.333Zm0-16v2.667A1.333,1.333,0,0,1,30.667,64H13.333V62.667a1.333,1.333,0,1,0-2.667,0V64H8V62.667a1.333,1.333,0,1,0-2.667,0V64H4a1.333,1.333,0,0,1-1.333-1.333V60A1.333,1.333,0,0,1,4,58.667H30.667A1.333,1.333,0,0,1,32,60Zm42.667,6.667v2.667h-24V66.667ZM77.333,76A1.333,1.333,0,0,1,76,77.333H58.667V76A1.333,1.333,0,0,0,56,76v1.333H53.333V76a1.333,1.333,0,0,0-2.667,0v1.333H49.333A1.333,1.333,0,0,1,48,76V73.333A1.333,1.333,0,0,1,49.333,72H76a1.333,1.333,0,0,1,1.333,1.333Zm0-13.333A1.333,1.333,0,0,1,76,64H58.667V62.667a1.333,1.333,0,0,0-2.667,0V64H53.333V62.667a1.333,1.333,0,1,0-2.667,0V64H49.333A1.333,1.333,0,0,1,48,62.667V60a1.333,1.333,0,0,1,1.333-1.333H76A1.333,1.333,0,0,1,77.333,60Z" transform="translate(0 0)" fill="#f80"/>
  </g>
</svg>
