<svg xmlns="http://www.w3.org/2000/svg" width="33.457" height="47.161" viewBox="0 0 33.457 47.161">
  <g id="placeholder_1_" data-name="placeholder (1)" transform="translate(0.5 0.5)">
    <g id="Group_1990" data-name="Group 1990" transform="translate(0)">
      <g id="Group_1989" data-name="Group 1989">
        <path id="Path_11559" data-name="Path 11559" d="M92.228,0A16.231,16.231,0,0,0,78.422,24.762L91.3,45.521a1.352,1.352,0,0,0,1.149.639h.011a1.352,1.352,0,0,0,1.15-.657l12.554-20.961A16.232,16.232,0,0,0,92.228,0Zm11.618,23.154L92.433,42.21,80.721,23.337a13.533,13.533,0,1,1,23.125-.183Z" transform="translate(-76)" fill="#fff" stroke="#00020a" stroke-width="1"/>
      </g>
    </g>
    <g id="Group_1992" data-name="Group 1992" transform="translate(8.114 8.114)">
      <g id="Group_1991" data-name="Group 1991">
        <path id="Path_11560" data-name="Path 11560" d="M174.114,90a8.114,8.114,0,1,0,8.114,8.114A8.123,8.123,0,0,0,174.114,90Zm0,13.542a5.427,5.427,0,1,1,5.418-5.427A5.432,5.432,0,0,1,174.114,103.542Z" transform="translate(-166 -90)" fill="#fff" stroke="#00020a" stroke-width="1"/>
      </g>
    </g>
  </g>
</svg>
