<svg xmlns="http://www.w3.org/2000/svg" width="105.855" height="108.506" viewBox="0 0 105.855 108.506">
  <g id="Private" transform="translate(-2.2 -1.171)">
    <path id="Path_8133" data-name="Path 8133" d="M48.3,40.894v3.784h3.533V40.894a7.067,7.067,0,1,0-3.533,0Zm1.767-10.349a3.533,3.533,0,1,1-3.533,3.533A3.533,3.533,0,0,1,50.067,30.545Z" transform="translate(30.668 19.599)" fill="#292828" stroke="#fff" stroke-width="1.6"/>
    <path id="Path_8134" data-name="Path 8134" d="M51.425,74.093l-15.9-7.067a1.677,1.677,0,0,0-1.272-.053l-.565-3.41A12.367,12.367,0,0,0,40.1,52.734V51.691l4.788-4.77a1.825,1.825,0,0,0,.512-1.254v-5.3A12.381,12.381,0,0,0,33.034,28h-10.6A12.381,12.381,0,0,0,10.067,40.367v5.3a1.825,1.825,0,0,0,.512,1.254l4.788,4.77v1.042a12.367,12.367,0,0,0,6.413,10.83l-.565,3.41a1.677,1.677,0,0,0-1.272.053l-15.9,7.067A1.744,1.744,0,0,0,3,75.7V86.3a1.767,1.767,0,0,0,1.767,1.767H50.7A1.767,1.767,0,0,0,52.467,86.3V75.7a1.744,1.744,0,0,0-1.042-1.608ZM15.367,42.134v4.576L13.6,44.943V40.367a8.833,8.833,0,0,1,8.833-8.833h10.6a8.833,8.833,0,0,1,8.833,8.833v4.576L40.1,46.709V42.134a1.767,1.767,0,0,0-1.343-1.714L24.624,36.886a1.728,1.728,0,0,0-1.219.141l-7.067,3.533A1.726,1.726,0,0,0,15.367,42.134Zm3.533,10.6v-9.5l5.512-2.756,12.155,3.039v9.222a8.833,8.833,0,1,1-17.667,0ZM31.143,69.8l-3.41,3.41-3.41-3.41.83-4.982a11.909,11.909,0,0,0,5.159,0ZM48.934,84.534H6.533V76.849l13.745-6.113,6.2,6.219a1.781,1.781,0,0,0,2.509,0l6.2-6.219,13.745,6.113Z" transform="translate(0 20.809)" fill="#f80" stroke="#fff" stroke-width="1.6"/>
    <rect id="Rectangle_691" data-name="Rectangle 691" width="3.533" height="3.533" transform="translate(29.5 67.93)" fill="#f80" stroke="#fff" stroke-width="1.6"/>
    <rect id="Rectangle_692" data-name="Rectangle 692" width="3.533" height="3.533" transform="translate(22.434 67.93)" fill="#f80" stroke="#fff" stroke-width="1.6"/>
    <path id="Path_8135" data-name="Path 8135" d="M87.867,21.479a14.139,14.139,0,1,0-26.306-10.37,10.552,10.552,0,0,0-14.5,1.979A14.134,14.134,0,0,0,26.351,30.313a7.067,7.067,0,0,0,.724,14.1H50.042v21.2a5.316,5.316,0,0,0,5.3,5.3H80.959a4.666,4.666,0,0,0,3.48-1.007,3.427,3.427,0,0,0,.936-2.526V44.411a5.316,5.316,0,0,0-5.3-5.3H78.309V35.578h8.833a7.067,7.067,0,0,0,.724-14.1ZM51.42,40.878H27.075a3.533,3.533,0,0,1,0-7.067H29.3a1.8,1.8,0,0,0,1.572-.954,1.767,1.767,0,0,0-.124-1.82A10.563,10.563,0,0,1,45.325,16.215a10.708,10.708,0,0,0-.583,3.463,11.721,11.721,0,0,0,.141,1.767h-.141a7.067,7.067,0,0,0,0,14.134H57.109v3.533H55.342a5.275,5.275,0,0,0-3.922,1.767Zm28.656,1.767a1.767,1.767,0,0,1,1.767,1.767V67.343a10.093,10.093,0,0,1-1.29.035H55.342a1.767,1.767,0,0,1-1.767-1.767v-21.2a1.767,1.767,0,0,1,1.767-1.767ZM60.642,39.111V30.278a1.767,1.767,0,0,1,1.767-1.767h10.6a1.767,1.767,0,0,1,1.767,1.767v8.833Zm26.5-7.067H78.309V30.278a5.316,5.316,0,0,0-5.3-5.3h-10.6a5.316,5.316,0,0,0-5.3,5.3v1.767H44.742a3.533,3.533,0,1,1,0-7.067h2.509A1.747,1.747,0,0,0,48.858,22.5a7.054,7.054,0,0,1,12.208-6.925,1.79,1.79,0,0,0,1.873.689,1.753,1.753,0,0,0,1.325-1.484,10.6,10.6,0,0,1,21.112,1.36,10.491,10.491,0,0,1-1.908,6.06,1.767,1.767,0,0,0-.124,1.82,1.8,1.8,0,0,0,1.572.954h2.226a3.533,3.533,0,1,1,0,7.067Z" transform="translate(13.026 0)" fill="#f80" stroke="#fff" stroke-width="1.6"/>
    <rect id="Rectangle_693" data-name="Rectangle 693" width="3.533" height="3.533" transform="translate(78.968 75.056)" fill="#f80" stroke="#fff" stroke-width="1.6"/>
    <path id="Path_8136" data-name="Path 8136" d="M52.9,57.6a8.844,8.844,0,0,1-8.833,8.833H37v3.533h7.067A12.381,12.381,0,0,0,56.434,57.6V47H52.9Z" transform="translate(26.068 35.376)" fill="#292828" stroke="#fff" stroke-width="1.6"/>
    <rect id="Rectangle_694" data-name="Rectangle 694" width="3.533" height="3.533" transform="translate(56.001 101.81)" fill="#f80" stroke="#fff" stroke-width="1.6"/>
  </g>
</svg>
