<svg xmlns="http://www.w3.org/2000/svg" width="44.521" height="40" viewBox="0 0 44.521 40">
  <g id="server_2_" data-name="server (2)" transform="translate(0)">
    <path id="Path_12322" data-name="Path 12322" d="M42.541,221.739a.87.87,0,1,0-.615-.255A.876.876,0,0,0,42.541,221.739Zm0,0" transform="translate(-38.048 -200.87)" fill="#f80"/>
    <path id="Path_12323" data-name="Path 12323" d="M82.541,221.739a.87.87,0,1,0-.615-.255A.876.876,0,0,0,82.541,221.739Zm0,0" transform="translate(-74.57 -200.87)" fill="#f80"/>
    <path id="Path_12324" data-name="Path 12324" d="M138.538,221.739h5.8a.87.87,0,0,0,0-1.739h-5.8a.87.87,0,0,0,0,1.739Zm0,0" transform="translate(-125.697 -200.87)" fill="#f80"/>
    <path id="Path_12325" data-name="Path 12325" d="M42.541,348a.87.87,0,1,0,.614.255A.875.875,0,0,0,42.541,348Zm0,0" transform="translate(-38.048 -317.739)" fill="#f80"/>
    <path id="Path_12326" data-name="Path 12326" d="M82.541,348a.87.87,0,1,0,.614.255A.879.879,0,0,0,82.541,348Zm0,0" transform="translate(-74.57 -317.739)" fill="#f80"/>
    <path id="Path_12327" data-name="Path 12327" d="M144.331,348h-5.8a.87.87,0,0,0,0,1.739h5.8a.87.87,0,0,0,0-1.739Zm0,0" transform="translate(-125.693 -317.739)" fill="#f80"/>
    <path id="Path_12328" data-name="Path 12328" d="M42.541,93.739a.87.87,0,1,0-.615-.255A.876.876,0,0,0,42.541,93.739Zm0,0" transform="translate(-38.048 -84)" fill="#f80"/>
    <path id="Path_12329" data-name="Path 12329" d="M82.541,93.739a.87.87,0,1,0-.615-.255A.876.876,0,0,0,82.541,93.739Zm0,0" transform="translate(-74.57 -84)" fill="#f80"/>
    <path id="Path_12330" data-name="Path 12330" d="M138.538,93.739h5.8a.87.87,0,0,0,0-1.739h-5.8a.87.87,0,0,0,0,1.739Zm0,0" transform="translate(-125.697 -84)" fill="#f80"/>
    <path id="Path_12331" data-name="Path 12331" d="M439.3,6.609A3.3,3.3,0,1,0,436,3.3,3.308,3.308,0,0,0,439.3,6.609Zm0-4.87A1.565,1.565,0,1,1,437.739,3.3,1.567,1.567,0,0,1,439.3,1.739Zm0,0" transform="translate(-398.087)" fill="#f80"/>
    <path id="Path_12332" data-name="Path 12332" d="M41.217,58.956a3.31,3.31,0,0,0-3.187,2.435H29.768l-3.452-5.157a.869.869,0,0,0-.723-.386H23.3V54.608a2.612,2.612,0,0,0-2.435-2.6V50.254a2.612,2.612,0,0,0,2.435-2.6v-1.2l10.034-.009a3.3,3.3,0,1,0-.007-1.739L23.3,44.716V43.478a2.612,2.612,0,0,0-2.435-2.6V39.123a2.612,2.612,0,0,0,2.435-2.6V35.3h2.29a.87.87,0,0,0,.723-.387l3.454-5.17,1.191-.008A.87.87,0,1,0,30.95,28l-1.652.011a.87.87,0,0,0-.717.386l-3.452,5.168H23.3V32.347A2.612,2.612,0,0,0,20.7,29.739H2.609A2.612,2.612,0,0,0,0,32.347v4.174a2.612,2.612,0,0,0,2.435,2.6v1.752A2.612,2.612,0,0,0,0,43.478v4.174a2.612,2.612,0,0,0,2.435,2.6v1.752A2.612,2.612,0,0,0,0,54.608v4.174a2.612,2.612,0,0,0,2.609,2.609H20.7A2.612,2.612,0,0,0,23.3,58.782v-1.2h1.825l3.452,5.157a.869.869,0,0,0,.722.386H38.03a3.3,3.3,0,1,0,3.187-4.174ZM36.521,44a1.565,1.565,0,1,1-1.565,1.565A1.567,1.567,0,0,1,36.521,44ZM4.174,50.26H19.13V52H4.174Zm0-11.13H19.13v1.739H4.174ZM1.739,36.521V32.347a.87.87,0,0,1,.87-.87H20.7a.87.87,0,0,1,.87.87v4.174a.87.87,0,0,1-.87.87H2.609A.87.87,0,0,1,1.739,36.521Zm0,11.13V43.478a.87.87,0,0,1,.87-.87H20.7a.87.87,0,0,1,.87.87v4.174a.87.87,0,0,1-.87.87H2.609A.87.87,0,0,1,1.739,47.652Zm19.826,11.13a.87.87,0,0,1-.87.87H2.609a.87.87,0,0,1-.87-.87V54.608a.87.87,0,0,1,.87-.87H20.7a.87.87,0,0,1,.87.87Zm19.652,5.043a1.565,1.565,0,1,1,1.565-1.565A1.567,1.567,0,0,1,41.217,63.825Zm0,0" transform="translate(0 -25.565)" fill="#f80"/>
    <path id="Path_12333" data-name="Path 12333" d="M391.87,29.739a.87.87,0,1,0-.615-.255A.877.877,0,0,0,391.87,29.739Zm0,0" transform="translate(-357 -25.565)" fill="#f80"/>
  </g>
</svg>
