<svg xmlns="http://www.w3.org/2000/svg" width="56.641" height="56.849" viewBox="0 0 56.641 56.849">
  <g id="cloud" transform="translate(-0.879 0)">
    <g id="Group_2607" data-name="Group 2607" transform="translate(0.879 0)">
      <g id="Group_2606" data-name="Group 2606" transform="translate(0 0)">
        <path id="Path_11923" data-name="Path 11923" d="M50.889,14.223a6.739,6.739,0,0,0-2.038.314,12.107,12.107,0,0,0,.095-1.5A13.261,13.261,0,0,0,23.37,8.344,8.165,8.165,0,0,0,10.9,15.129a6.765,6.765,0,0,0-3.394-.907,6.631,6.631,0,0,0,0,13.261.947.947,0,0,0,0-1.894,4.736,4.736,0,1,1,4.073-7.278.947.947,0,0,0,1.671-.873A6.014,6.014,0,0,1,12.8,15.17a6.226,6.226,0,0,1,6.28-6.157,6.327,6.327,0,0,1,4.154,1.576.947.947,0,0,0,1.535-.461,11.362,11.362,0,0,1,22.28,2.911,10.988,10.988,0,0,1-.412,2.936A.947.947,0,0,0,48.089,17a4.857,4.857,0,0,1,2.8-.888,4.736,4.736,0,0,1,0,9.472.947.947,0,1,0,0,1.894,6.631,6.631,0,1,0,0-13.261Z" transform="translate(-0.879 0)" fill="#fa8d1d"/>
      </g>
    </g>
    <g id="Group_2609" data-name="Group 2609" transform="translate(10.252 36.009)">
      <g id="Group_2608" data-name="Group 2608">
        <path id="Path_11924" data-name="Path 11924" d="M115.087,304.119H82.881a2.842,2.842,0,0,0-2.842,2.842v3.789a2.842,2.842,0,0,0,2.842,2.842h32.206a2.842,2.842,0,0,0,2.842-2.842v-3.789A2.842,2.842,0,0,0,115.087,304.119Zm.947,6.631a.947.947,0,0,1-.947.947H82.881a.947.947,0,0,1-.947-.947v-3.789a.947.947,0,0,1,.947-.947h32.206a.947.947,0,0,1,.947.947Z" transform="translate(-80.039 -304.119)" fill="#fa8d1d"/>
      </g>
    </g>
    <g id="Group_2611" data-name="Group 2611" transform="translate(40.848 38.91)">
      <g id="Group_2610" data-name="Group 2610">
        <path id="Path_11925" data-name="Path 11925" d="M340.263,328.615a1.836,1.836,0,1,0,1.847,1.824A1.836,1.836,0,0,0,340.263,328.615Zm.023,1.9c-.028,0-.047-.031-.047-.06l.047-.059Z" transform="translate(-338.439 -328.615)" fill="#fa8d1d"/>
      </g>
    </g>
    <g id="Group_2613" data-name="Group 2613" transform="translate(13.852 39.798)">
      <g id="Group_2612" data-name="Group 2612">
        <path id="Path_11926" data-name="Path 11926" d="M129.384,336.119h-18a.947.947,0,0,0,0,1.895h18a.947.947,0,1,0,0-1.895Z" transform="translate(-110.439 -336.119)" fill="#fa8d1d"/>
      </g>
    </g>
    <g id="Group_2615" data-name="Group 2615" transform="translate(35.179 39.798)">
      <g id="Group_2614" data-name="Group 2614">
        <path id="Path_11927" data-name="Path 11927" d="M294.026,336.119h-2.52a.947.947,0,1,0,0,1.895h2.52a.947.947,0,1,0,0-1.895Z" transform="translate(-290.559 -336.119)" fill="#fa8d1d"/>
      </g>
    </g>
    <g id="Group_2617" data-name="Group 2617" transform="translate(10.252 47.376)">
      <g id="Group_2616" data-name="Group 2616">
        <path id="Path_11928" data-name="Path 11928" d="M115.087,400.119H82.881a2.842,2.842,0,0,0-2.842,2.842v3.789a2.842,2.842,0,0,0,2.842,2.842h32.206a2.842,2.842,0,0,0,2.842-2.842v-3.789A2.842,2.842,0,0,0,115.087,400.119Zm.947,6.631a.947.947,0,0,1-.947.947H82.881a.947.947,0,0,1-.947-.947v-3.789a.947.947,0,0,1,.947-.947h32.206a.947.947,0,0,1,.947.947Z" transform="translate(-80.039 -400.119)" fill="#fa8d1d"/>
      </g>
    </g>
    <g id="Group_2619" data-name="Group 2619" transform="translate(40.848 50.277)">
      <g id="Group_2618" data-name="Group 2618">
        <path id="Path_11929" data-name="Path 11929" d="M340.263,424.615a1.836,1.836,0,1,0,1.847,1.824A1.836,1.836,0,0,0,340.263,424.615Zm.023,1.9c-.028,0-.047-.031-.047-.06l.047-.059Z" transform="translate(-338.439 -424.615)" fill="#fa8d1d"/>
      </g>
    </g>
    <g id="Group_2621" data-name="Group 2621" transform="translate(13.852 51.165)">
      <g id="Group_2620" data-name="Group 2620">
        <path id="Path_11930" data-name="Path 11930" d="M129.384,432.119h-18a.947.947,0,0,0,0,1.895h18a.947.947,0,0,0,0-1.895Z" transform="translate(-110.439 -432.119)" fill="#fa8d1d"/>
      </g>
    </g>
    <g id="Group_2623" data-name="Group 2623" transform="translate(35.179 51.165)">
      <g id="Group_2622" data-name="Group 2622">
        <path id="Path_11931" data-name="Path 11931" d="M294.026,432.119h-2.52a.947.947,0,1,0,0,1.895h2.52a.947.947,0,1,0,0-1.895Z" transform="translate(-290.559 -432.119)" fill="#fa8d1d"/>
      </g>
    </g>
    <g id="Group_2625" data-name="Group 2625" transform="translate(10.252 24.642)">
      <g id="Group_2624" data-name="Group 2624">
        <path id="Path_11932" data-name="Path 11932" d="M115.087,208.119H82.881a2.842,2.842,0,0,0-2.842,2.842v3.789a2.842,2.842,0,0,0,2.842,2.842h32.206a2.842,2.842,0,0,0,2.842-2.842v-3.789A2.842,2.842,0,0,0,115.087,208.119Zm.947,6.631a.947.947,0,0,1-.947.947H82.881a.947.947,0,0,1-.947-.947v-3.789a.947.947,0,0,1,.947-.947h32.206a.947.947,0,0,1,.947.947Z" transform="translate(-80.039 -208.119)" fill="#fa8d1d"/>
      </g>
    </g>
    <g id="Group_2627" data-name="Group 2627" transform="translate(40.555 27.598)">
      <g id="Group_2626" data-name="Group 2626">
        <path id="Path_11933" data-name="Path 11933" d="M339.632,234.606a1.852,1.852,0,0,0-3.333-.74,1.812,1.812,0,0,0-.305,1.369,1.854,1.854,0,0,0,1.823,1.524,1.9,1.9,0,0,0,.309-.026,1.829,1.829,0,0,0,1.2-.758A1.806,1.806,0,0,0,339.632,234.606Zm-1.864.333.043-.075,0,.118C337.773,234.983,337.77,234.959,337.768,234.939Z" transform="translate(-335.965 -233.084)" fill="#fa8d1d"/>
      </g>
    </g>
    <g id="Group_2629" data-name="Group 2629" transform="translate(13.662 28.431)">
      <g id="Group_2628" data-name="Group 2628">
        <path id="Path_11934" data-name="Path 11934" d="M127.784,240.119h-18a.947.947,0,0,0,0,1.895h18a.947.947,0,0,0,0-1.895Z" transform="translate(-108.839 -240.119)" fill="#fa8d1d"/>
      </g>
    </g>
    <g id="Group_2631" data-name="Group 2631" transform="translate(34.573 28.431)">
      <g id="Group_2630" data-name="Group 2630">
        <path id="Path_11935" data-name="Path 11935" d="M288.914,240.119h-2.52a.947.947,0,0,0,0,1.895h2.52a.947.947,0,0,0,0-1.895Z" transform="translate(-285.447 -240.119)" fill="#fa8d1d"/>
      </g>
    </g>
    <g id="Group_2633" data-name="Group 2633" transform="translate(17.842 12.328)">
      <g id="Group_2632" data-name="Group 2632">
        <path id="Path_11936" data-name="Path 11936" d="M151.426,107.24l-2.842-2.842a.947.947,0,0,0-1.339,0L144.4,107.24a.947.947,0,0,0,1.339,1.339l1.225-1.225v6.239a.947.947,0,1,0,1.894,0v-6.239l1.225,1.225a.947.947,0,0,0,1.339-1.339Z" transform="translate(-144.138 -104.121)" fill="#fa8d1d"/>
      </g>
    </g>
    <g id="Group_2635" data-name="Group 2635" transform="translate(32.998 12.328)">
      <g id="Group_2634" data-name="Group 2634">
        <path id="Path_11937" data-name="Path 11937" d="M279.4,110.08a.947.947,0,0,0-1.316,0l-1.225,1.225v-6.239a.947.947,0,1,0-1.894,0V111.3l-1.225-1.225a.947.947,0,0,0-1.339,1.339l2.842,2.842a.947.947,0,0,0,1.339,0l2.842-2.842A.947.947,0,0,0,279.4,110.08Z" transform="translate(-272.138 -104.119)" fill="#fa8d1d"/>
      </g>
    </g>
  </g>
</svg>
