<svg xmlns="http://www.w3.org/2000/svg" width="52" height="52" viewBox="0 0 52 52">
  <g id="private" transform="translate(-1 -1)">
    <path id="Path_11938" data-name="Path 11938" d="M35.516,31a2.51,2.51,0,0,0-.839,4.878V37.71h1.677V35.878A2.51,2.51,0,0,0,35.516,31Zm0,3.355a.839.839,0,1,1,.839-.839A.84.84,0,0,1,35.516,34.355Z" transform="translate(-5.161 -4.839)" fill="#fa8d1d"/>
    <path id="Path_11939" data-name="Path 11939" d="M50.484,32.871H37.9v-6.71h7.548a7.548,7.548,0,0,0,0-15.1c-.143,0-.285.024-.429.033A7.555,7.555,0,0,0,37.9,6.032a7.43,7.43,0,0,0-2.629.477A11.738,11.738,0,0,0,14.306,8.69a5.866,5.866,0,0,0-6.623,9.681A10.072,10.072,0,0,0,1,27.839v6.71A3.358,3.358,0,0,0,4.355,37.9h.839V49.645a3.341,3.341,0,0,0,5.871,2.2,3.341,3.341,0,0,0,5.871-2.2V37.9h.839a3.358,3.358,0,0,0,3.355-3.355v-6.71a10.052,10.052,0,0,0-.152-1.677h1.829V33.71a2.519,2.519,0,0,0,2.516,2.516h2.516V50.484A2.519,2.519,0,0,0,30.355,53H50.484A2.519,2.519,0,0,0,53,50.484v-15.1A2.519,2.519,0,0,0,50.484,32.871ZM6.871,13.581a4.194,4.194,0,1,1,4.194,4.194A4.2,4.2,0,0,1,6.871,13.581Zm5,12.265-.807.807-.807-.807.581-6.383c.075,0,.149-.012.226-.012s.15.009.226.012Zm7.58,8.7a1.679,1.679,0,0,1-1.677,1.677h-.839V24.484H15.258V49.645a1.677,1.677,0,1,1-3.355,0V32.871H10.226V49.645a1.677,1.677,0,1,1-3.355,0V24.484H5.194V36.226H4.355a1.679,1.679,0,0,1-1.677-1.677v-6.71a8.4,8.4,0,0,1,6.456-8.154l-.617,6.792,2.548,2.548,2.548-2.548L13,19.685a8.4,8.4,0,0,1,6.456,8.154ZM14.446,18.371a5.849,5.849,0,0,0,1.216-8.431A10.06,10.06,0,0,1,34.186,7.973l.385.714.726-.361A5.807,5.807,0,0,1,37.9,7.71a5.871,5.871,0,0,1,0,11.742v1.677a7.557,7.557,0,0,0,7.548-7.548,7.638,7.638,0,0,0-.049-.835c.016,0,.033,0,.049,0a5.871,5.871,0,0,1,0,11.742h-7.7a2.513,2.513,0,0,0-2.362-1.677V19.452a5.032,5.032,0,1,0-10.065,0v3.355a2.513,2.513,0,0,0-2.362,1.677H20.542A10.1,10.1,0,0,0,14.446,18.371ZM33.71,22.806H27V19.452a3.355,3.355,0,1,1,6.71,0Zm-9.226,10.9V25.323a.84.84,0,0,1,.839-.839H35.387a.84.84,0,0,1,.839.839V33.71a.84.84,0,0,1-.839.839H25.323A.84.84,0,0,1,24.484,33.71ZM51.323,50.484a.84.84,0,0,1-.839.839H30.355a.84.84,0,0,1-.839-.839V36.226h5.871a2.513,2.513,0,0,0,2.362-1.677H50.484a.84.84,0,0,1,.839.839Z" fill="#fa8d1d"/>
    <path id="Path_11940" data-name="Path 11940" d="M50.419,54.742H48.742V46.355H43.71v8.387H42.032V49.71H37v6.71H55.452V43H50.419Zm-10.065,0H38.677V51.387h1.677Zm5.032-6.71h1.677v6.71H45.387Zm6.71-3.355h1.677V54.742H52.1Z" transform="translate(-5.806 -6.774)" fill="#fa8d1d"/>
    <path id="Path_11941" data-name="Path 11941" d="M28.555,6.677V5A8.344,8.344,0,0,0,21.04,9.658l1.5.747a6.675,6.675,0,0,1,6.013-3.728Z" transform="translate(-3.232 -0.645)" fill="#fa8d1d"/>
    <path id="Path_11942" data-name="Path 11942" d="M47.516,15.194h1.677A4.2,4.2,0,0,0,45,11v1.677A2.519,2.519,0,0,1,47.516,15.194Z" transform="translate(-7.097 -1.613)" fill="#fa8d1d"/>
  </g>
</svg>
