<svg xmlns="http://www.w3.org/2000/svg" width="54" height="50" viewBox="0 0 54 50">
  <g id="vps" transform="translate(-44.107)">
    <path id="Path_11913" data-name="Path 11913" d="M78.2,37.048H103.3a.976.976,0,0,0,0-1.951H78.2a.976.976,0,0,0,0,1.951Z" transform="translate(-28.807 -30.532)" fill="#fa8d1d"/>
    <path id="Path_11914" data-name="Path 11914" d="M78.2,69.5H103.3a.976.976,0,0,0,0-1.951H78.2a.976.976,0,0,0,0,1.951Z" transform="translate(-28.807 -58.883)" fill="#fa8d1d"/>
    <path id="Path_11915" data-name="Path 11915" d="M78.2,173.307H103.3a.976.976,0,1,0,0-1.951H78.2a.976.976,0,1,0,0,1.951Z" transform="translate(-28.807 -149.367)" fill="#fa8d1d"/>
    <path id="Path_11916" data-name="Path 11916" d="M78.2,205.762H103.3a.976.976,0,1,0,0-1.951H78.2a.976.976,0,1,0,0,1.951Z" transform="translate(-28.807 -177.657)" fill="#fa8d1d"/>
    <path id="Path_11917" data-name="Path 11917" d="M103.3,307.615H78.2a.976.976,0,1,0,0,1.951H103.3a.976.976,0,1,0,0-1.951Z" transform="translate(-28.807 -268.14)" fill="#fa8d1d"/>
    <path id="Path_11918" data-name="Path 11918" d="M103.3,340.07H78.2a.976.976,0,0,0,0,1.951H103.3a.976.976,0,0,0,0-1.951Z" transform="translate(-28.807 -296.491)" fill="#fa8d1d"/>
    <path id="Path_11919" data-name="Path 11919" d="M94.573,15.105a3.551,3.551,0,0,0,3.534-3.561V3.561A3.551,3.551,0,0,0,94.573,0H47.641a3.552,3.552,0,0,0-3.534,3.561V5.3a.956.956,0,1,0,1.911,0V3.561a1.631,1.631,0,0,1,1.623-1.635H94.573A1.631,1.631,0,0,1,96.2,3.561v7.983a1.631,1.631,0,0,1-1.623,1.635H47.641a1.631,1.631,0,0,1-1.623-1.635V9.8a.956.956,0,1,0-1.911,0v1.74a3.551,3.551,0,0,0,3.534,3.561h.685v2.332h-.685A3.551,3.551,0,0,0,44.107,21v7.983a3.551,3.551,0,0,0,3.534,3.561h.685v2.332h-.685a3.551,3.551,0,0,0-3.534,3.561v7.983a3.551,3.551,0,0,0,3.534,3.561h20.5c.03.052,5.957-.015,5.942,0h20.5a3.551,3.551,0,0,0,3.534-3.561v-1.74a.956.956,0,1,0-1.911,0v1.74a1.631,1.631,0,0,1-1.623,1.635H47.641a1.631,1.631,0,0,1-1.623-1.635V38.436A1.631,1.631,0,0,1,47.641,36.8H94.573A1.631,1.631,0,0,1,96.2,38.436v1.74a.956.956,0,1,0,1.911,0v-1.74a3.551,3.551,0,0,0-3.534-3.561h-.346V32.543h.346a3.551,3.551,0,0,0,3.534-3.561V21a3.551,3.551,0,0,0-3.534-3.561h-.346V15.105h.346Zm-2.258,19.77H50.238V32.543H92.315v2.332ZM96.2,21v7.983a1.631,1.631,0,0,1-1.623,1.635H47.641a1.631,1.631,0,0,1-1.623-1.635V21a1.631,1.631,0,0,1,1.623-1.635H94.573A1.631,1.631,0,0,1,96.2,21Zm-3.88-3.561H50.238V15.105H92.315v2.332Z" transform="translate(0 0)" fill="#fa8d1d"/>
    <path id="Path_11920" data-name="Path 11920" d="M376.673,32.276a3.97,3.97,0,1,0-3.97,3.97A3.974,3.974,0,0,0,376.673,32.276Zm-5.988,0a2.019,2.019,0,1,1,2.019,2.019A2.021,2.021,0,0,1,370.685,32.276Z" transform="translate(-283.525 -24.624)" fill="#fa8d1d"/>
    <path id="Path_11921" data-name="Path 11921" d="M372.7,172.042a3.97,3.97,0,1,0-3.97-3.97A3.974,3.974,0,0,0,372.7,172.042Zm0-5.988a2.019,2.019,0,1,1-2.019,2.019A2.021,2.021,0,0,1,372.7,166.054Z" transform="translate(-283.525 -143.085)" fill="#fa8d1d"/>
    <path id="Path_11922" data-name="Path 11922" d="M368.734,303.906a3.97,3.97,0,1,0,3.97-3.97A3.974,3.974,0,0,0,368.734,303.906Zm5.988,0a2.019,2.019,0,1,1-2.019-2.019A2.021,2.021,0,0,1,374.722,303.906Z" transform="translate(-283.525 -261.577)" fill="#fa8d1d"/>
  </g>
</svg>
