<svg xmlns="http://www.w3.org/2000/svg" width="51.666" height="46.13" viewBox="0 0 51.666 46.13">
  <path id="shopping-cart" d="M14.935,63.129a1.7,1.7,0,0,1,0-3.4c6.273.022,22.82.006,29.293.01A3.764,3.764,0,0,0,47.911,56.8l3.675-15.93a3.061,3.061,0,0,0-2.968-3.75c-2.6,0-24.708-.1-36.029-.145L10.8,30.314a3.666,3.666,0,0,0-3.532-2.7H1.514a1.516,1.516,0,0,0,0,3.032H7.263a.631.631,0,0,1,.607.464L14.763,56.7a4.729,4.729,0,0,0-4.557,4.812,4.754,4.754,0,0,0,4.728,4.651h2.208a5.3,5.3,0,1,0,9.577,0h9.563a5.3,5.3,0,1,0,9.538-.08,1.515,1.515,0,0,0-.483-2.951ZM24.2,68.434A2.272,2.272,0,1,1,21.93,66.16h0A2.275,2.275,0,0,1,24.2,68.434Zm16.868,2.273a2.274,2.274,0,0,1-.037-4.547h.074a2.274,2.274,0,0,1-.037,4.547ZM48.63,40.166a.024.024,0,0,1,.006.025L47.087,46.9H41.842l.893-6.773,5.871.024a.024.024,0,0,1,.023.011ZM33.016,56.7V49.936h5.371L37.5,56.7Zm-7.51,0-.9-6.769h5.381V56.7Zm-6.972,0h0a.821.821,0,0,1-.79-.6l-1.66-6.164h5.472l.9,6.769ZM24.2,46.9l-.911-6.851,6.695.027V46.9Zm8.813,0V40.092l6.666.027L38.787,46.9ZM20.235,40.041l.912,6.863H15.263l-1.856-6.891ZM44.228,56.7H40.55l.893-6.769h4.945L44.96,56.122A.748.748,0,0,1,44.228,56.7Z" transform="translate(0 -27.609)" fill="#fa8d1d"/>
</svg>
