<svg xmlns="http://www.w3.org/2000/svg" width="50" height="50" viewBox="0 0 50 50">
  <g id="Database-cloud-laptop-computer-smartphone" transform="translate(-2 -2)">
    <path id="Path_11948" data-name="Path 11948" d="M37.833,21h-15a.833.833,0,0,0-.833.833v20a.833.833,0,0,0,.833.833h15a.833.833,0,0,0,.833-.833v-20A.833.833,0,0,0,37.833,21ZM37,41H23.667V36H37Zm0-6.667H23.667v-5H37Zm0-6.667H23.667v-5H37Z" transform="translate(-3.333 -3.167)" fill="#fa8d1d"/>
    <path id="Path_11949" data-name="Path 11949" d="M56.167,2H44.5A2.508,2.508,0,0,0,42,4.5v6.667a2.507,2.507,0,0,0,2.5,2.5h3.333v1.667H46.167V17H54.5V15.333H52.833V13.667h3.333a2.507,2.507,0,0,0,2.5-2.5V4.5a2.508,2.508,0,0,0-2.5-2.5Zm-5,13.333H49.5V13.667h1.667ZM57,11.167a.833.833,0,0,1-.833.833H44.5a.833.833,0,0,1-.833-.833v-.833H57Zm0-2.5H43.667V4.5a.833.833,0,0,1,.833-.833H56.167A.833.833,0,0,1,57,4.5Z" transform="translate(-6.667 0)" fill="#fa8d1d"/>
    <path id="Path_11950" data-name="Path 11950" d="M57.833,54.333V48.5a2.508,2.508,0,0,0-2.5-2.5h-10a2.508,2.508,0,0,0-2.5,2.5v5.833a.833.833,0,0,0-.833.833v1.667a2.507,2.507,0,0,0,2.5,2.5H56.167a2.508,2.508,0,0,0,2.5-2.5V55.167A.833.833,0,0,0,57.833,54.333ZM44.5,48.5a.833.833,0,0,1,.833-.833h10a.833.833,0,0,1,.833.833v5.833H44.5ZM57,56.833a.833.833,0,0,1-.833.833H44.5a.833.833,0,0,1-.833-.833V56H57Z" transform="translate(-6.667 -7.333)" fill="#fa8d1d"/>
    <path id="Path_11951" data-name="Path 11951" d="M14.5,47.333h-.833V46.5a2.508,2.508,0,0,0-2.5-2.5H4.5A2.507,2.507,0,0,0,2,46.5v10A2.507,2.507,0,0,0,4.5,59h10A2.508,2.508,0,0,0,17,56.5V49.833A2.508,2.508,0,0,0,14.5,47.333Zm-5.683,10H4.5a.833.833,0,0,1-.833-.833v-10a.833.833,0,0,1,.833-.833h6.667A.833.833,0,0,1,12,46.5v.833h-.833a2.508,2.508,0,0,0-2.5,2.5V56.5a2.5,2.5,0,0,0,.15.833Zm6.517-.833a.833.833,0,0,1-.833.833H11.167a.833.833,0,0,1-.833-.833V49.833A.833.833,0,0,1,11.167,49H14.5a.833.833,0,0,1,.833.833Z" transform="translate(0 -7)" fill="#fa8d1d"/>
    <path id="Path_11952" data-name="Path 11952" d="M20.27,7.067a4.154,4.154,0,0,0-5.25-3.233A4.93,4.93,0,0,0,11.17,2,5.02,5.02,0,0,0,6.445,5.367,5,5,0,0,0,7,15.333H19.5a4.167,4.167,0,0,0,.767-8.267Zm-.767,6.6H7a3.338,3.338,0,1,1-.075-6.676.648.648,0,0,0,.133.017A.841.841,0,0,0,7.9,6.342a3.325,3.325,0,0,1,6.108-1.067.817.817,0,0,0,1.075.317A2.481,2.481,0,0,1,18.67,7.833a.833.833,0,0,0,.833.833,2.5,2.5,0,0,1,0,5Z" transform="translate(-0.004)" fill="#fa8d1d"/>
    <path id="Path_11953" data-name="Path 11953" d="M26,25h1.667v1.667H26Z" transform="translate(-4 -3.833)" fill="#fa8d1d"/>
    <path id="Path_11954" data-name="Path 11954" d="M31,25h1.667v1.667H31Z" transform="translate(-4.833 -3.833)" fill="#fa8d1d"/>
    <path id="Path_11955" data-name="Path 11955" d="M36,25h1.667v1.667H36Z" transform="translate(-5.667 -3.833)" fill="#fa8d1d"/>
    <path id="Path_11956" data-name="Path 11956" d="M26,33h1.667v1.667H26Z" transform="translate(-4 -5.167)" fill="#fa8d1d"/>
    <path id="Path_11957" data-name="Path 11957" d="M31,33h1.667v1.667H31Z" transform="translate(-4.833 -5.167)" fill="#fa8d1d"/>
    <path id="Path_11958" data-name="Path 11958" d="M36,33h1.667v1.667H36Z" transform="translate(-5.667 -5.167)" fill="#fa8d1d"/>
    <path id="Path_11959" data-name="Path 11959" d="M26,41h1.667v1.667H26Z" transform="translate(-4 -6.5)" fill="#fa8d1d"/>
    <path id="Path_11960" data-name="Path 11960" d="M31,41h1.667v1.667H31Z" transform="translate(-4.833 -6.5)" fill="#fa8d1d"/>
    <path id="Path_11961" data-name="Path 11961" d="M36,41h1.667v1.667H36Z" transform="translate(-5.667 -6.5)" fill="#fa8d1d"/>
    <path id="Path_11962" data-name="Path 11962" d="M51.5,27.833V22H49.833v5H44v1.667h6.667A.833.833,0,0,0,51.5,27.833Z" transform="translate(-7 -3.333)" fill="#fa8d1d"/>
    <path id="Path_11963" data-name="Path 11963" d="M44,35.667h5.833v6.667H51.5v-7.5A.833.833,0,0,0,50.667,34H44Z" transform="translate(-7 -5.333)" fill="#fa8d1d"/>
    <path id="Path_11964" data-name="Path 11964" d="M12.667,20H11v7.5a.833.833,0,0,0,.833.833H18.5V26.667H12.667Z" transform="translate(-1.5 -3)" fill="#fa8d1d"/>
    <path id="Path_11965" data-name="Path 11965" d="M11,34.833v5.833h1.667v-5H18.5V34H11.833A.833.833,0,0,0,11,34.833Z" transform="translate(-1.5 -5.333)" fill="#fa8d1d"/>
  </g>
</svg>
