<svg xmlns="http://www.w3.org/2000/svg" width="24.02" height="22.471" viewBox="0 0 24.02 22.471">
  <g id="server" transform="translate(-7.99 -23.971)">
    <path id="Path_6131" data-name="Path 6131" d="M31.623,44.892H23.487V44.5a.387.387,0,0,0-.387-.387H21.163v-.775a.387.387,0,0,0-.387-.387h-.387v-.775h5.23a1.357,1.357,0,0,0,1.356-1.356V39.469h.387A4.649,4.649,0,0,0,28.8,30.4a7.749,7.749,0,0,0-14.171-2.84,3.487,3.487,0,0,0-4.308,3.233,4.649,4.649,0,0,0,2.321,8.677h.387v1.356a1.357,1.357,0,0,0,1.356,1.356h5.23v.775h-.387a.387.387,0,0,0-.387.387v.775H16.9a.387.387,0,0,0-.387.387v.387H8.379a.387.387,0,0,0,0,.775h8.135v.387a.387.387,0,0,0,.387.387h6.2a.387.387,0,0,0,.387-.387v-.387h8.135a.387.387,0,0,0,0-.775Zm-8.135-7.361h-9.1a.582.582,0,0,1-.581-.581V35.014a.582.582,0,0,1,.581-.581h9.1Zm0-3.874h-9.1a.582.582,0,0,1-.581-.581V31.14a.582.582,0,0,1,.581-.581h9.1Zm1.162,7.748h-.387v-3.1h.387Zm0-3.874h-.387v-3.1h.387Zm0-3.874h-.387v-3.1h.387Zm1.55,7.167a.582.582,0,0,1-.581.581h-.194v-3.1h.194a.582.582,0,0,1,.581.581Zm0-3.874a.582.582,0,0,1-.581.581h-.194v-3.1h.194a.582.582,0,0,1,.581.581Zm0-3.874a.582.582,0,0,1-.581.581h-.194v-3.1h.194a.582.582,0,0,1,.581.581ZM13.436,37.919a1.355,1.355,0,0,0-.394.775h-.4a3.875,3.875,0,0,1-1.759-7.327.387.387,0,0,0,.211-.352c0-.013,0-.024,0-.036s0-.022,0-.033a2.712,2.712,0,0,1,3.588-2.567.387.387,0,0,0,.46-.171,6.974,6.974,0,0,1,12.931,2.545.386.386,0,0,0,.285.321,3.875,3.875,0,0,1-.993,7.62h-.4a1.355,1.355,0,0,0-.394-.775,1.351,1.351,0,0,0,.408-.969V35.014a1.351,1.351,0,0,0-.408-.968,1.351,1.351,0,0,0,.408-.968V31.14a1.357,1.357,0,0,0-1.356-1.356H14.384a1.357,1.357,0,0,0-1.356,1.356v1.937a1.351,1.351,0,0,0,.408.968,1.351,1.351,0,0,0-.408.968v1.937a1.351,1.351,0,0,0,.408.969Zm.948,3.487a.582.582,0,0,1-.581-.581V38.888a.582.582,0,0,1,.581-.581h9.1v3.1Zm5.23,2.324h.775v.387h-.775Zm3.1,1.937H17.289v-.775h5.424Z" transform="translate(0 0)" fill="#fff"/>
    <path id="Path_6132" data-name="Path 6132" d="M137.162,328a1.162,1.162,0,1,0,1.162,1.162A1.162,1.162,0,0,0,137.162,328Zm0,1.55a.387.387,0,1,1,.387-.387A.387.387,0,0,1,137.162,329.55Z" transform="translate(-121.81 -289.306)" fill="#fff"/>
    <path id="Path_6133" data-name="Path 6133" d="M193.162,328a1.162,1.162,0,1,0,1.162,1.162A1.162,1.162,0,0,0,193.162,328Zm0,1.55a.387.387,0,1,1,.387-.387A.387.387,0,0,1,193.162,329.55Z" transform="translate(-175.098 -289.306)" fill="#fff"/>
    <path id="Path_6134" data-name="Path 6134" d="M256.387,336.775h2.324a.387.387,0,0,0,0-.775h-2.324a.387.387,0,0,0,0,.775Z" transform="translate(-235.999 -296.919)" fill="#fff"/>
    <path id="Path_6135" data-name="Path 6135" d="M137.162,248a1.162,1.162,0,1,0,1.162,1.162A1.162,1.162,0,0,0,137.162,248Zm0,1.55a.387.387,0,1,1,.387-.387A.387.387,0,0,1,137.162,249.55Z" transform="translate(-121.81 -213.18)" fill="#fff"/>
    <path id="Path_6136" data-name="Path 6136" d="M193.162,248a1.162,1.162,0,1,0,1.162,1.162A1.162,1.162,0,0,0,193.162,248Zm0,1.55a.387.387,0,1,1,.387-.387A.387.387,0,0,1,193.162,249.55Z" transform="translate(-175.098 -213.18)" fill="#fff"/>
    <path id="Path_6137" data-name="Path 6137" d="M258.712,256h-2.324a.387.387,0,0,0,0,.775h2.324a.387.387,0,0,0,0-.775Z" transform="translate(-235.999 -220.793)" fill="#fff"/>
    <path id="Path_6138" data-name="Path 6138" d="M137.162,168a1.162,1.162,0,1,0,1.162,1.162A1.162,1.162,0,0,0,137.162,168Zm0,1.55a.387.387,0,1,1,.387-.387A.387.387,0,0,1,137.162,169.55Z" transform="translate(-121.81 -137.054)" fill="#fff"/>
    <path id="Path_6139" data-name="Path 6139" d="M193.162,168a1.162,1.162,0,1,0,1.162,1.162A1.162,1.162,0,0,0,193.162,168Zm0,1.55a.387.387,0,1,1,.387-.387A.387.387,0,0,1,193.162,169.55Z" transform="translate(-175.098 -137.054)" fill="#fff"/>
    <path id="Path_6140" data-name="Path 6140" d="M258.712,176h-2.324a.387.387,0,0,0,0,.775h2.324a.387.387,0,0,0,0-.775Z" transform="translate(-235.999 -144.667)" fill="#fff"/>
    <path id="Path_6141" data-name="Path 6141" d="M289.162,360h-.775a.387.387,0,0,0,0,.775h.775a.387.387,0,0,0,0-.775Z" transform="translate(-266.45 -319.756)" fill="#fff"/>
  </g>
</svg>
