<svg xmlns="http://www.w3.org/2000/svg" width="59.699" height="44.597" viewBox="0 0 59.699 44.597">
  <g id="server-11" transform="translate(0 -64.759)" opacity="0.8">
    <g id="Group_23" data-name="Group 23" transform="translate(31.598 75.461)">
      <g id="Group_22" data-name="Group 22" transform="translate(0 0)">
        <path id="Path_35" data-name="Path 35" d="M271,156.541v23.194h17.449V156.541Zm13.394,19.416h-9.273v-3.5h9.273Zm0-6.071h-9.273v-3.5h9.273Zm0-6.07h-9.273v-3.5h9.273Z" transform="translate(-271 -156.541)" fill="#fff"/>
      </g>
    </g>
    <g id="Group_25" data-name="Group 25" transform="translate(10.652 75.461)">
      <g id="Group_24" data-name="Group 24" transform="translate(0 0)">
        <path id="Path_36" data-name="Path 36" d="M91.353,156.541v23.194H108.8V156.541Zm13.261,19.416H95.341v-3.5h9.273Zm0-6.071H95.341v-3.5h9.273Zm0-6.07H95.341v-3.5h9.273Z" transform="translate(-91.353 -156.541)" fill="#fff"/>
      </g>
    </g>
    <g id="Group_27" data-name="Group 27" transform="translate(0 64.759)">
      <g id="Group_26" data-name="Group 26">
        <path id="Path_37" data-name="Path 37" d="M0,64.759v44.6H59.7v-44.6Zm52.545,37.393H7.154V71.963H52.545Z" transform="translate(0 -64.759)" fill="#fff"/>
      </g>
    </g>
  </g>
</svg>
