<svg xmlns="http://www.w3.org/2000/svg" width="74" height="80" viewBox="0 0 74 80">
  <g id="server-4" transform="translate(-23.394)">
    <path id="Path_8080" data-name="Path 8080" d="M306.907,422.276a3.47,3.47,0,1,0-3.47,3.47A3.474,3.474,0,0,0,306.907,422.276Zm-4.574,0a1.1,1.1,0,1,1,1.1,1.1A1.106,1.106,0,0,1,302.333,422.276Z" transform="translate(-232.543 -353.509)" fill="#f80"/>
    <path id="Path_8081" data-name="Path 8081" d="M364.852,422.276a3.47,3.47,0,1,0-3.47,3.47A3.474,3.474,0,0,0,364.852,422.276Zm-4.574,0a1.1,1.1,0,1,1,1.1,1.1A1.106,1.106,0,0,1,360.278,422.276Z" transform="translate(-281.264 -353.509)" fill="#f80"/>
    <path id="Path_8082" data-name="Path 8082" d="M422.8,422.276a3.47,3.47,0,1,0-3.47,3.47A3.474,3.474,0,0,0,422.8,422.276Zm-4.574,0a1.1,1.1,0,1,1,1.1,1.1A1.106,1.106,0,0,1,418.223,422.276Z" transform="translate(-329.941 -353.509)" fill="#f80"/>
    <path id="Path_8083" data-name="Path 8083" d="M237.861,416.67a1.183,1.183,0,1,0,0-2.366h-4.11a1.183,1.183,0,0,0,0,2.366Z" transform="translate(-175.876 -349.717)" fill="#f80"/>
    <path id="Path_8084" data-name="Path 8084" d="M103.988,416.67h15.937a1.183,1.183,0,0,0,0-2.366H103.988a1.183,1.183,0,0,0,0,2.366Z" transform="translate(-66.745 -349.717)" fill="#f80"/>
    <path id="Path_8085" data-name="Path 8085" d="M103.988,454.677h24.577a1.183,1.183,0,1,0,0-2.366H103.988a1.183,1.183,0,1,0,0,2.366Z" transform="translate(-66.719 -381.73)" fill="#f80"/>
    <path id="Path_8086" data-name="Path 8086" d="M303.437,298.309a3.47,3.47,0,1,0-3.47-3.47A3.474,3.474,0,0,0,303.437,298.309Zm0-4.574a1.1,1.1,0,1,1-1.1,1.1A1.106,1.106,0,0,1,303.437,293.735Z" transform="translate(-232.543 -245.886)" fill="#f80"/>
    <path id="Path_8087" data-name="Path 8087" d="M361.382,298.309a3.47,3.47,0,1,0-3.47-3.47A3.474,3.474,0,0,0,361.382,298.309Zm0-4.574a1.1,1.1,0,1,1-1.1,1.1A1.106,1.106,0,0,1,361.382,293.735Z" transform="translate(-281.264 -245.886)" fill="#f80"/>
    <path id="Path_8088" data-name="Path 8088" d="M419.327,298.309a3.47,3.47,0,1,0-3.47-3.47A3.474,3.474,0,0,0,419.327,298.309Zm0-4.574a1.1,1.1,0,1,1-1.1,1.1A1.106,1.106,0,0,1,419.327,293.735Z" transform="translate(-329.941 -245.886)" fill="#f80"/>
    <path id="Path_8089" data-name="Path 8089" d="M233.751,289.232h4.11a1.183,1.183,0,1,0,0-2.366h-4.11a1.183,1.183,0,1,0,0,2.366Z" transform="translate(-175.876 -242.058)" fill="#f80"/>
    <path id="Path_8090" data-name="Path 8090" d="M103.988,289.232h15.937a1.183,1.183,0,1,0,0-2.366H103.988a1.183,1.183,0,1,0,0,2.366Z" transform="translate(-66.745 -242.058)" fill="#f80"/>
    <path id="Path_8091" data-name="Path 8091" d="M103.988,327.239h24.577a1.183,1.183,0,1,0,0-2.366H103.988a1.183,1.183,0,1,0,0,2.366Z" transform="translate(-66.719 -274.129)" fill="#f80"/>
    <path id="Path_8092" data-name="Path 8092" d="M258.144,117.081h22.541a1.183,1.183,0,1,0,0-2.366H258.144a1.183,1.183,0,1,0,0,2.366Z" transform="translate(-196.256 -96.797)" fill="#f80"/>
    <path id="Path_8093" data-name="Path 8093" d="M135.768,132.635V119.261a4.573,4.573,0,0,0-4.589-4.546H127.92a1.183,1.183,0,1,0,0,2.366h3.259a2.193,2.193,0,0,1,2.2,2.18v13.374a2.193,2.193,0,0,1-2.2,2.18H73.543a2.178,2.178,0,0,1-2.2-2.115,1.194,1.194,0,0,0-2.387.07A4.512,4.512,0,0,0,70.452,136a4.517,4.517,0,0,0-1.5,3.358v13.374a4.517,4.517,0,0,0,1.5,3.363,4.516,4.516,0,0,0-1.5,3.363v6.687a1.194,1.194,0,0,0,2.388,0v-6.687a2.193,2.193,0,0,1,2.2-2.18h57.636a2.193,2.193,0,0,1,2.2,2.18v13.374a2.193,2.193,0,0,1-2.2,2.18H73.543a2.193,2.193,0,0,1-2.2-2.18V171.19a1.194,1.194,0,0,0-2.388,0v1.646a4.573,4.573,0,0,0,4.589,4.546h57.636a4.573,4.573,0,0,0,4.589-4.546V159.461a4.517,4.517,0,0,0-1.5-3.363,4.517,4.517,0,0,0,1.5-3.363V139.361a4.517,4.517,0,0,0-1.5-3.363A4.518,4.518,0,0,0,135.768,132.635Zm-2.388,6.727v13.374a2.193,2.193,0,0,1-2.2,2.18H73.543a2.193,2.193,0,0,1-2.2-2.18V139.361a2.193,2.193,0,0,1,2.2-2.18h57.636A2.193,2.193,0,0,1,133.38,139.361Z" transform="translate(-38.374 -97.381)" fill="#f80"/>
    <path id="Path_8094" data-name="Path 8094" d="M299.967,167.4a3.47,3.47,0,1,0,3.47-3.47A3.474,3.474,0,0,0,299.967,167.4Zm4.574,0a1.1,1.1,0,1,1-1.1-1.1A1.106,1.106,0,0,1,304.541,167.4Z" transform="translate(-232.543 -138.342)" fill="#f80"/>
    <path id="Path_8095" data-name="Path 8095" d="M357.912,167.4a3.47,3.47,0,1,0,3.47-3.47A3.474,3.474,0,0,0,357.912,167.4Zm4.574,0a1.1,1.1,0,1,1-1.1-1.1A1.106,1.106,0,0,1,362.486,167.4Z" transform="translate(-281.264 -138.342)" fill="#f80"/>
    <path id="Path_8096" data-name="Path 8096" d="M419.327,170.872a3.47,3.47,0,1,0-3.47-3.47A3.474,3.474,0,0,0,419.327,170.872Zm0-4.575a1.1,1.1,0,1,1-1.1,1.1A1.106,1.106,0,0,1,419.327,166.3Z" transform="translate(-329.941 -138.342)" fill="#f80"/>
    <path id="Path_8097" data-name="Path 8097" d="M245.642,161.8h2.235a1.183,1.183,0,0,0,0-2.366h-2.235a1.183,1.183,0,1,0,0,2.366Z" transform="translate(-185.883 -134.527)" fill="#f80"/>
    <path id="Path_8098" data-name="Path 8098" d="M224.577,197.437h-6.6a1.183,1.183,0,1,0,0,2.366h6.6a1.183,1.183,0,1,0,0-2.366Z" transform="translate(-162.604 -166.598)" fill="#f80"/>
    <path id="Path_8099" data-name="Path 8099" d="M57.963,17.285a17.13,17.13,0,0,0-1.669-7.416,1.183,1.183,0,1,0-2.136,1.016,14.782,14.782,0,0,1,1.439,6.4A14.919,14.919,0,1,1,40.679,2.366,14.784,14.784,0,0,1,51.506,7.022a1.183,1.183,0,1,0,1.717-1.628A17.129,17.129,0,0,0,40.679,0,17.285,17.285,0,1,0,57.963,17.285Z" transform="translate(0 0)" fill="#f80"/>
    <path id="Path_8100" data-name="Path 8100" d="M80.14,41.192a7.644,7.644,0,0,0-7.552,6.534,2.987,2.987,0,0,0-2.343,2.913V55.9a4.978,4.978,0,0,0,4.972,4.972h9.845A4.978,4.978,0,0,0,90.035,55.9V50.639a2.987,2.987,0,0,0-2.342-2.912A7.644,7.644,0,0,0,80.14,41.192Zm0,2.366a5.276,5.276,0,0,1,5.134,4.1H75A5.277,5.277,0,0,1,80.14,43.558ZM87.669,55.9A2.609,2.609,0,0,1,85.063,58.5H75.218A2.609,2.609,0,0,1,72.611,55.9V50.639a.618.618,0,0,1,.618-.618H87.051a.618.618,0,0,1,.618.618Z" transform="translate(-39.461 -34.695)" fill="#f80"/>
  </g>
</svg>
