<svg xmlns="http://www.w3.org/2000/svg" width="93" height="93" viewBox="0 0 93 93">
  <g id="Migration" transform="translate(-1.987 -2)">
    <path id="Path_11890" data-name="Path 11890" d="M81.04,48.5a13.95,13.95,0,0,0,0-27.9H77.848a13.911,13.911,0,0,0-21.974-9.765,23.216,23.216,0,0,0-40.989,9.827A13.939,13.939,0,0,0,15.954,48.5H42.3v6.2H34.55A7.749,7.749,0,0,0,26.8,62.45V82.6a4.663,4.663,0,0,1-4.649,4.65H14.187a6.2,6.2,0,1,0,0,3.1h7.965A7.749,7.749,0,0,0,29.9,82.6V62.45A4.663,4.663,0,0,1,34.55,57.8H42.3v9.3c0,2.061,1.875,3.565,4.649,4.588V91.9H42.3V95h6.2a1.55,1.55,0,0,0,1.55-1.55V72.556a37.516,37.516,0,0,0,6.2.713V88.8a1.55,1.55,0,0,0,1.55,1.55H71.959a6.2,6.2,0,1,0,0-3.1H59.345V73.269c6.989-.248,13.947-2.2,13.947-6.169V64h4.649a1.55,1.55,0,0,1,1.55,1.55v12.4a1.55,1.55,0,0,0,1.55,1.55h7.748V76.4h-6.2V65.55a4.663,4.663,0,0,0-4.649-4.65H73.292V48.5ZM8.206,91.9a3.1,3.1,0,1,1,3.1-3.1A3.1,3.1,0,0,1,8.206,91.9Zm69.735-6.2a3.1,3.1,0,1,1-3.1,3.1,3.1,3.1,0,0,1,3.1-3.1ZM70.192,67.1c0,.79-4.262,3.1-12.4,3.1S45.4,67.89,45.4,67.1V61.706A29.231,29.231,0,0,0,57.8,64a29.231,29.231,0,0,0,12.4-2.294Zm0-9.3c0,.79-4.262,3.1-12.4,3.1S45.4,58.59,45.4,57.8V52.406A29.231,29.231,0,0,0,57.8,54.7a29.231,29.231,0,0,0,12.4-2.294Zm0-9.3c0,.79-4.262,3.1-12.4,3.1S45.4,49.29,45.4,48.5V43.106A29.23,29.23,0,0,0,57.8,45.4a29.231,29.231,0,0,0,12.4-2.294ZM57.8,42.3c-8.136,0-12.4-2.309-12.4-3.1s4.262-3.1,12.4-3.1,12.4,2.309,12.4,3.1S65.931,42.3,57.8,42.3Zm1.55-9.269V29.9A4.663,4.663,0,0,0,54.7,25.25H46.73a6.2,6.2,0,1,0,0,3.1H54.7a1.55,1.55,0,0,1,1.55,1.55v3.131c-6.989.248-13.947,2.2-13.947,6.169v6.2H15.954a10.85,10.85,0,0,1,0-21.7h.186A10.914,10.914,0,0,1,26.8,34.55h3.1A14.025,14.025,0,0,0,18.015,20.77a20.145,20.145,0,0,1,39.315.17l3.022-.682a23.1,23.1,0,0,0-2.743-6.866A10.849,10.849,0,0,1,72.47,28.939l2.417,1.937a14.1,14.1,0,0,0,2.96-7.176H81.04a10.85,10.85,0,0,1,0,21.7H73.292V42.3h4.649a1.55,1.55,0,0,0,1.55-1.55v-6.2h1.55v-3.1h-3.1A1.55,1.55,0,0,0,76.391,33v6.2h-3.1c0-3.968-6.958-5.921-13.947-6.169ZM43.848,26.8a3.1,3.1,0,1,1-3.1-3.1A3.1,3.1,0,0,1,43.848,26.8Z" transform="translate(0 0)"/>
    <path id="Path_11891" data-name="Path 11891" d="M60,50h3.132v3.132H60Z" transform="translate(31.855 26.373)"/>
    <path id="Path_11892" data-name="Path 11892" d="M24,60h3.132v3.132H24Z" transform="translate(12.087 31.867)"/>
    <path id="Path_11893" data-name="Path 11893" d="M9.132,25.83a4.7,4.7,0,0,1,4.7-4.7V18a7.83,7.83,0,1,0,0,15.661H26.359V30.529H13.83A4.7,4.7,0,0,1,9.132,25.83Z" transform="translate(2.272 8.748)"/>
    <path id="Path_11894" data-name="Path 11894" d="M55,21h3.132v3.132H55Z" transform="translate(29.024 10.439)"/>
  </g>
</svg>
