<svg xmlns="http://www.w3.org/2000/svg" width="93.16" height="93.16" viewBox="0 0 93.16 93.16">
  <g id="technical-support" transform="translate(0 0)">
    <path id="Path_6180" data-name="Path 6180" d="M16.385,72.044a7.6,7.6,0,0,0-3.67.937A42.96,42.96,0,0,1,55.131,4.49,1.82,1.82,0,0,0,55.852.923,46.926,46.926,0,0,0,46.58,0,46.58,46.58,0,0,0,10.023,75.447a7.645,7.645,0,1,0,6.361-3.4Zm2.83,10.472a4,4,0,1,1,1.173-2.83A3.975,3.975,0,0,1,19.215,82.516Zm0,0" transform="translate(0 0)"/>
    <path id="Path_6181" data-name="Path 6181" d="M244.686,43.93A7.626,7.626,0,1,0,242,46.4,42.96,42.96,0,0,1,199.661,114.9a1.82,1.82,0,1,0-.714,3.569,46.958,46.958,0,0,0,9.184.905,46.58,46.58,0,0,0,36.555-75.449Zm-9.19-1.406a4,4,0,1,1,2.83,1.172A3.977,3.977,0,0,1,235.5,42.524Zm0,0" transform="translate(-161.551 -26.219)"/>
    <path id="Path_6182" data-name="Path 6182" d="M99.594,138.411a1.82,1.82,0,0,0,1.82,1.82h11.377a1.819,1.819,0,0,0,1.82-1.82v-3.527a28.492,28.492,0,0,0,6.829-2.83l2.49,2.49a1.819,1.819,0,0,0,2.574,0l8.041-8.047a1.82,1.82,0,0,0,0-2.573l-2.488-2.488a28.493,28.493,0,0,0,2.83-6.829H138.4a1.819,1.819,0,0,0,1.82-1.82V101.41a1.819,1.819,0,0,0-1.82-1.82h-3.515a28.5,28.5,0,0,0-2.83-6.828l2.474-2.474a1.82,1.82,0,0,0,0-2.574l-8.048-8.041a1.819,1.819,0,0,0-2.573,0l-2.471,2.471a28.493,28.493,0,0,0-6.829-2.83V75.82a1.819,1.819,0,0,0-1.82-1.82H101.414a1.82,1.82,0,0,0-1.82,1.82v3.5a28.468,28.468,0,0,0-6.828,2.83l-2.471-2.471a1.82,1.82,0,0,0-2.573,0l-8.047,8.042a1.819,1.819,0,0,0,0,2.574l2.474,2.474a28.489,28.489,0,0,0-2.83,6.828H75.81a1.819,1.819,0,0,0-1.82,1.819l-.006,11.377a1.819,1.819,0,0,0,1.82,1.82h3.514a28.493,28.493,0,0,0,2.83,6.829l-2.488,2.488a1.819,1.819,0,0,0,0,2.573l8.041,8.047a1.82,1.82,0,0,0,1.286.534h0a1.819,1.819,0,0,0,1.286-.533l2.49-2.49a28.517,28.517,0,0,0,6.829,2.83Zm-6.115-10.184a1.82,1.82,0,0,0-2.274.242l-2.215,2.215L83.52,125.21,85.733,123a1.819,1.819,0,0,0,.242-2.274,24.9,24.9,0,0,1-3.446-8.318,1.82,1.82,0,0,0-1.779-1.437H77.624l0-7.738h3.121a1.819,1.819,0,0,0,1.779-1.437,24.907,24.907,0,0,1,3.446-8.317,1.819,1.819,0,0,0-.242-2.274l-2.2-2.2,5.474-5.469,2.2,2.2a1.821,1.821,0,0,0,2.274.242,24.9,24.9,0,0,1,8.317-3.446,1.821,1.821,0,0,0,1.437-1.779V77.639h7.738v3.107a1.819,1.819,0,0,0,1.437,1.779,24.916,24.916,0,0,1,8.317,3.446A1.818,1.818,0,0,0,123,85.73l2.2-2.2L130.67,89l-2.2,2.2a1.819,1.819,0,0,0-.242,2.274,24.922,24.922,0,0,1,3.446,8.317,1.819,1.819,0,0,0,1.779,1.437h3.127v7.738h-3.127a1.82,1.82,0,0,0-1.779,1.437,24.9,24.9,0,0,1-3.446,8.317,1.82,1.82,0,0,0,.242,2.274l2.213,2.213-5.469,5.473L123,128.469a1.819,1.819,0,0,0-2.274-.242,24.922,24.922,0,0,1-8.317,3.446,1.819,1.819,0,0,0-1.437,1.779v3.139h-7.738v-3.139a1.821,1.821,0,0,0-1.437-1.779,24.907,24.907,0,0,1-8.317-3.446Zm0,0" transform="translate(-60.523 -60.536)"/>
    <path id="Path_6183" data-name="Path 6183" d="M203.44,188.406a15.035,15.035,0,1,0-15.035,15.035A15.051,15.051,0,0,0,203.44,188.406Zm-26.43,0a11.4,11.4,0,1,1,11.4,11.4A11.408,11.408,0,0,1,177.01,188.406Zm0,0" transform="translate(-141.826 -141.826)"/>
    <path id="Path_6184" data-name="Path 6184" d="M339.9,21.45a1.821,1.821,0,1,0-1.286-.533A1.833,1.833,0,0,0,339.9,21.45Zm0,0" transform="translate(-276.564 -14.569)"/>
    <path id="Path_6185" data-name="Path 6185" d="M156.179,474.359a1.82,1.82,0,1,0,1.286.533A1.834,1.834,0,0,0,156.179,474.359Zm0,0" transform="translate(-126.273 -388.049)"/>
  </g>
</svg>
