<svg xmlns="http://www.w3.org/2000/svg" width="63.315" height="63.315" viewBox="0 0 63.315 63.315">
  <g id="support-11" opacity="0.8">
    <path id="Path_38" data-name="Path 38" d="M84.443,0A24.237,24.237,0,0,0,60.234,24.209V46.555a5.587,5.587,0,1,0,11.174,0V27.933a5.593,5.593,0,0,0-5.587-5.587,5.525,5.525,0,0,0-1.784.318,20.463,20.463,0,0,1,40.812-.015,5.486,5.486,0,0,0-1.783-.3,5.593,5.593,0,0,0-5.587,5.587V46.555a5.593,5.593,0,0,0,5.587,5.587,5.522,5.522,0,0,0,1.862-.343V54a1.865,1.865,0,0,1-1.862,1.862H89.686a5.587,5.587,0,1,0,0,3.724h13.379A5.593,5.593,0,0,0,108.652,54v-29.8A24.237,24.237,0,0,0,84.443,0Zm0,0" transform="translate(-52.785)" fill="#fff"/>
    <path id="Path_39" data-name="Path 39" d="M481.883,213.6v21.66a5.577,5.577,0,0,0,3.724-5.244V218.841a5.578,5.578,0,0,0-3.724-5.244Zm0,0" transform="translate(-422.292 -187.184)" fill="#fff"/>
    <path id="Path_40" data-name="Path 40" d="M0,218.841v11.173a5.577,5.577,0,0,0,3.724,5.244V213.6A5.578,5.578,0,0,0,0,218.841Zm0,0" transform="translate(0 -187.184)" fill="#fff"/>
  </g>
</svg>
