<svg xmlns="http://www.w3.org/2000/svg" width="173.134" height="173.165" viewBox="0 0 173.134 173.165">
  <path id="support" d="M167.151,135.663a20.4,20.4,0,0,1,0,28.864l-4.917,4.917a3.4,3.4,0,0,1-4.81-4.811l4.917-4.917a13.6,13.6,0,0,0,0-19.243L143.4,121.531a13.623,13.623,0,0,0-19.243,0l-7.918,7.918a16.432,16.432,0,0,1-23.252,0L57.909,94.371a16.432,16.432,0,0,1,0-23.252L65.827,63.2a13.622,13.622,0,0,0,0-19.243L46.884,25.017a13.6,13.6,0,0,0-19.243,0l-6.916,6.915a47.6,47.6,0,0,0,0,67.349l67.349,67.349a47.656,47.656,0,0,0,51.024,10.69,3.4,3.4,0,0,1,2.474,6.337,54.459,54.459,0,0,1-58.309-12.217l-67.35-67.349a54.488,54.488,0,0,1,0-76.971l6.916-6.915a20.4,20.4,0,0,1,28.864,0L70.637,39.148a20.433,20.433,0,0,1,0,28.864L62.719,75.93a9.633,9.633,0,0,0,0,13.63L97.8,124.638a9.649,9.649,0,0,0,13.63,0l7.918-7.918a20.434,20.434,0,0,1,28.864,0Z" transform="translate(0 -14.224)" fill="#fff"/>
</svg>
