<svg xmlns="http://www.w3.org/2000/svg" width="40.488" height="40.488" viewBox="0 0 40.488 40.488">
  <g id="time" transform="translate(0.025 0.025)">
    <g id="Group_1994" data-name="Group 1994">
      <g id="Group_1993" data-name="Group 1993">
        <path id="Path_11561" data-name="Path 11561" d="M20.219,0A20.219,20.219,0,1,0,40.438,20.219,20.219,20.219,0,0,0,20.219,0Zm0,39.09A18.871,18.871,0,1,1,39.09,20.219,18.871,18.871,0,0,1,20.219,39.09Z" fill="#fff" stroke="#00020a" stroke-width="0.05"/>
      </g>
    </g>
    <g id="Group_1996" data-name="Group 1996" transform="translate(3.37 3.37)">
      <g id="Group_1995" data-name="Group 1995">
        <path id="Path_11562" data-name="Path 11562" d="M56.849,40A16.849,16.849,0,1,0,73.7,56.849,16.849,16.849,0,0,0,56.849,40Zm0,32.35a15.5,15.5,0,1,1,15.5-15.5A15.5,15.5,0,0,1,56.849,72.35Z" transform="translate(-40 -40)" fill="#fff" stroke="#00020a" stroke-width="0.05"/>
      </g>
    </g>
    <g id="Group_1998" data-name="Group 1998" transform="translate(19.125 7.273)">
      <g id="Group_1997" data-name="Group 1997" transform="translate(0 0)">
        <rect id="Rectangle_1023" data-name="Rectangle 1023" width="2.187" height="1.094" fill="#fff" stroke="#00020a" stroke-width="0.05"/>
      </g>
    </g>
    <g id="Group_2000" data-name="Group 2000" transform="translate(19.125 31.333)">
      <g id="Group_1999" data-name="Group 1999" transform="translate(0 0)">
        <rect id="Rectangle_1024" data-name="Rectangle 1024" width="2.187" height="2.187" transform="translate(0 0)" fill="#fff" stroke="#00020a" stroke-width="0.05"/>
      </g>
    </g>
    <g id="Group_2002" data-name="Group 2002" transform="translate(12.895 8.209)">
      <g id="Group_2001" data-name="Group 2001" transform="translate(0 0)">
        <rect id="Rectangle_1025" data-name="Rectangle 1025" width="1.347" height="1.347" transform="translate(0 0.674) rotate(-30.009)" fill="#fff" stroke="#00020a" stroke-width="0.05"/>
      </g>
    </g>
    <g id="Group_2004" data-name="Group 2004" transform="translate(25.697 30.385)">
      <g id="Group_2003" data-name="Group 2003" transform="translate(0 0)">
        <rect id="Rectangle_1026" data-name="Rectangle 1026" width="1.347" height="1.347" transform="translate(0 0.674) rotate(-30.009)" fill="#fff" stroke="#00020a" stroke-width="0.05"/>
      </g>
    </g>
    <g id="Group_2006" data-name="Group 2006" transform="translate(8.208 12.896)">
      <g id="Group_2005" data-name="Group 2005" transform="translate(0 0)">
        <rect id="Rectangle_1027" data-name="Rectangle 1027" width="1.348" height="1.348" transform="matrix(0.5, -0.866, 0.866, 0.5, 0, 1.167)" fill="#fff" stroke="#00020a" stroke-width="0.05"/>
      </g>
    </g>
    <g id="Group_2008" data-name="Group 2008" transform="translate(30.385 25.703)">
      <g id="Group_2007" data-name="Group 2007" transform="translate(0 0)">
        <rect id="Rectangle_1028" data-name="Rectangle 1028" width="1.348" height="1.348" transform="matrix(0.5, -0.866, 0.866, 0.5, 0, 1.167)" fill="#fff" stroke="#00020a" stroke-width="0.05"/>
      </g>
    </g>
    <g id="Group_2010" data-name="Group 2010" transform="translate(6.001 19.303)">
      <g id="Group_2009" data-name="Group 2009" transform="translate(0 0)">
        <rect id="Rectangle_1029" data-name="Rectangle 1029" width="2.187" height="1.094" fill="#fff" stroke="#00020a" stroke-width="0.05"/>
      </g>
    </g>
    <g id="Group_2012" data-name="Group 2012" transform="translate(32.249 19.303)">
      <g id="Group_2011" data-name="Group 2011" transform="translate(0 0)">
        <rect id="Rectangle_1030" data-name="Rectangle 1030" width="2.187" height="1.094" fill="#fff" stroke="#00020a" stroke-width="0.05"/>
      </g>
    </g>
    <g id="Group_2014" data-name="Group 2014" transform="translate(8.208 25.702)">
      <g id="Group_2013" data-name="Group 2013" transform="translate(0 0)">
        <rect id="Rectangle_1031" data-name="Rectangle 1031" width="1.348" height="1.348" transform="translate(0 0.674) rotate(-29.993)" fill="#fff" stroke="#00020a" stroke-width="0.05"/>
      </g>
    </g>
    <g id="Group_2016" data-name="Group 2016" transform="translate(30.385 12.896)">
      <g id="Group_2015" data-name="Group 2015" transform="translate(0)">
        <rect id="Rectangle_1032" data-name="Rectangle 1032" width="1.348" height="1.348" transform="matrix(0.866, -0.5, 0.5, 0.866, 0, 0.674)" fill="#fff" stroke="#00020a" stroke-width="0.05"/>
      </g>
    </g>
    <g id="Group_2018" data-name="Group 2018" transform="translate(12.891 30.387)">
      <g id="Group_2017" data-name="Group 2017" transform="translate(0 0)">
        <rect id="Rectangle_1033" data-name="Rectangle 1033" width="1.347" height="1.347" transform="translate(0 1.167) rotate(-59.991)" fill="#fff" stroke="#00020a" stroke-width="0.05"/>
      </g>
    </g>
    <g id="Group_2020" data-name="Group 2020" transform="translate(25.7 8.211)">
      <g id="Group_2019" data-name="Group 2019" transform="translate(0 0)">
        <rect id="Rectangle_1034" data-name="Rectangle 1034" width="1.347" height="1.347" transform="translate(0 1.167) rotate(-59.991)" fill="#fff" stroke="#00020a" stroke-width="0.05"/>
      </g>
    </g>
    <g id="Group_2022" data-name="Group 2022" transform="translate(13.132 9.436)">
      <g id="Group_2021" data-name="Group 2021">
        <path id="Path_11563" data-name="Path 11563" d="M162.293,112v10.4l-6.413,3.848.694,1.155,6.74-4.044a.674.674,0,0,0,.327-.578V112Z" transform="translate(-155.88 -112)" fill="#fff" stroke="#00020a" stroke-width="0.05"/>
      </g>
    </g>
  </g>
</svg>
